<svg width="135" height="70" viewBox="0 0 135 70" fill="none" xmlns="http://www.w3.org/2000/svg">
<g clip-path="url(#clip0_760_4407)">
<path d="M11.727 67.6228L0.619507 57.7788V12.1333L11.727 2.28943H123.323L134.43 12.1333V57.7788L123.323 67.6228H11.727Z" fill="#3B78A3" fill-opacity="0.26" style="mix-blend-mode:overlay"/>
<path d="M72.7223 7.66987H71.2108L73.9427 3.51379H75.4543L72.7223 7.66987Z" fill="#6EE3FD"/>
<path d="M75.9871 7.66987H74.4817L77.2137 3.51379H78.7252L75.9871 7.66987Z" fill="#6EE3FD"/>
<path d="M79.258 7.66987H77.7464L80.4784 3.51379H81.9899L79.258 7.66987Z" fill="#6EE3FD"/>
<path d="M82.5289 7.66987H81.0173L83.7493 3.51379H85.2609L82.5289 7.66987Z" fill="#6EE3FD"/>
<path d="M85.7936 7.66987H84.2883L87.0202 3.51379H88.5318L85.7936 7.66987Z" fill="#6EE3FD"/>
<path d="M89.0645 7.66987H87.553L90.2849 3.51379H91.7965L89.0645 7.66987Z" fill="#6EE3FD"/>
<path d="M92.3355 7.66987H90.8239L93.5559 3.51379H95.0674L92.3355 7.66987Z" fill="#6EE3FD"/>
<path d="M95.6002 7.66987H94.0948L96.8268 3.51379H98.3384L95.6002 7.66987Z" fill="#6EE3FD"/>
<path d="M98.8711 7.66987H97.3596L100.092 3.51379H101.603L98.8711 7.66987Z" fill="#6EE3FD"/>
<path d="M102.142 7.66987H100.63L103.362 3.51379H104.874L102.142 7.66987Z" fill="#6EE3FD"/>
<path d="M105.407 7.66987H103.901L106.633 3.51379H108.145L105.407 7.66987Z" fill="#6EE3FD"/>
<path d="M108.678 7.66987H107.166L109.898 3.51379H111.41L108.678 7.66987Z" fill="#6EE3FD"/>
<path d="M72.7223 66.7828H71.2108L73.9427 62.6267H75.4543L72.7223 66.7828Z" fill="#6EE3FD"/>
<path d="M75.9871 66.7828H74.4817L77.2137 62.6267H78.7252L75.9871 66.7828Z" fill="#6EE3FD"/>
<path d="M79.258 66.7828H77.7464L80.4784 62.6267H81.9899L79.258 66.7828Z" fill="#6EE3FD"/>
<path d="M82.5289 66.7828H81.0173L83.7493 62.6267H85.2609L82.5289 66.7828Z" fill="#6EE3FD"/>
<path d="M85.7936 66.7828H84.2883L87.0202 62.6267H88.5318L85.7936 66.7828Z" fill="#6EE3FD"/>
<path d="M89.0645 66.7828H87.553L90.2849 62.6267H91.7965L89.0645 66.7828Z" fill="#6EE3FD"/>
<path d="M92.3355 66.7828H90.8239L93.5559 62.6267H95.0674L92.3355 66.7828Z" fill="#6EE3FD"/>
<path d="M95.6002 66.7828H94.0948L96.8268 62.6267H98.3384L95.6002 66.7828Z" fill="#6EE3FD"/>
<path d="M98.8711 66.7828H97.3596L100.092 62.6267H101.603L98.8711 66.7828Z" fill="#6EE3FD"/>
<path d="M102.142 66.7828H100.63L103.362 62.6267H104.874L102.142 66.7828Z" fill="#6EE3FD"/>
<path d="M105.407 66.7828H103.901L106.633 62.6267H108.145L105.407 66.7828Z" fill="#6EE3FD"/>
<path d="M108.678 66.7828H107.166L109.898 62.6267H111.41L108.678 66.7828Z" fill="#6EE3FD"/>
<g style="mix-blend-mode:overlay">
<path d="M69.693 64.8777H13.1147C9.48444 61.6604 7.4525 59.8596 3.82227 56.6424V13.451C7.4525 10.2337 9.48444 8.43295 13.1147 5.2157H70.1576" stroke="white" stroke-width="2" stroke-miterlimit="10"/>
</g>
<g style="mix-blend-mode:overlay">
<path d="M113.832 5.2157H121.73C125.361 8.43295 127.393 10.2337 131.023 13.451V56.6424C127.393 59.8596 125.361 61.6604 121.73 64.8777H111.819" stroke="white" stroke-width="2" stroke-miterlimit="10"/>
</g>
<path d="M0.724792 8.69101L10.2216 0.274536H124.004L133.501 8.55375" stroke="#6EE3FD" stroke-miterlimit="10"/>
<path d="M0.154846 8.64714C0.154846 8.31773 0.458398 8.0542 0.823899 8.0542C1.1894 8.0542 1.49295 8.32322 1.49295 8.64714C1.49295 8.97106 1.1894 9.24008 0.823899 9.24008C0.458398 9.24008 0.154846 8.97106 0.154846 8.64714Z" fill="#6EE3FD"/>
<path d="M0.724792 61.309L10.2216 69.7254H124.623L134.275 61.309" stroke="#6EE3FD" stroke-miterlimit="10"/>
<path d="M0 61.2815C0 60.9521 0.303552 60.6886 0.669053 60.6886C1.03455 60.6886 1.33811 60.9576 1.33811 61.2815C1.33811 61.6055 1.03455 61.8745 0.669053 61.8745C0.303552 61.8745 0 61.6055 0 61.2815Z" fill="#6EE3FD"/>
<path d="M133.656 61.2815C133.656 60.9521 133.959 60.6886 134.325 60.6886C134.69 60.6886 134.994 60.9576 134.994 61.2815C134.994 61.6055 134.69 61.8745 134.325 61.8745C133.959 61.8745 133.656 61.6055 133.656 61.2815Z" fill="#6EE3FD"/>
<path d="M132.987 8.64714C132.987 8.31773 133.284 8.0542 133.656 8.0542C134.027 8.0542 134.325 8.32322 134.325 8.64714C134.325 8.97106 134.027 9.24008 133.656 9.24008C133.284 9.24008 132.987 8.97106 132.987 8.64714Z" fill="#6EE3FD"/>
<path d="M32.4884 22.8125C32.4467 22.9167 32.3946 23.0104 32.3321 23.0938C32.2696 23.1771 32.2071 23.2604 32.1446 23.3438C32.103 23.4479 32.0613 23.5521 32.0196 23.6562C31.978 23.7396 31.9363 23.8229 31.8946 23.9062C31.728 24.0521 31.603 24.1771 31.5196 24.2812C31.4363 24.3854 31.4155 24.5208 31.4571 24.6875C31.2905 24.9792 31.155 25.1771 31.0509 25.2812C30.9467 25.3854 30.8738 25.5208 30.8321 25.6875C30.7696 25.7292 30.7175 25.7812 30.6759 25.8438C30.655 25.9062 30.6134 25.9479 30.5509 25.9688C30.4675 25.9271 30.3946 25.8958 30.3321 25.875C30.2905 25.8333 30.2488 25.7917 30.2071 25.75C30.1238 25.7917 30.03 25.8438 29.9259 25.9062C29.8425 25.9688 29.7488 25.9479 29.6446 25.8438C29.5196 25.8854 29.3842 25.9062 29.2384 25.9062C29.0925 25.8854 28.978 25.8333 28.8946 25.75C28.8113 25.7917 28.7384 25.8333 28.6759 25.875C28.6134 25.8958 28.53 25.8958 28.4259 25.875C28.3425 25.8333 28.2696 25.7292 28.2071 25.5625C28.0613 25.6042 27.9467 25.6042 27.8634 25.5625C27.8009 25.625 27.7175 25.6562 27.6134 25.6562C27.5092 25.6562 27.405 25.6771 27.3009 25.7188C27.0717 25.6979 26.8842 25.5938 26.7384 25.4062C26.6759 25.4479 26.6134 25.4896 26.5509 25.5312C26.4884 25.5521 26.405 25.5729 26.3009 25.5938C25.9467 25.5104 25.6655 25.4896 25.4571 25.5312C25.2488 25.5521 25.0821 25.5208 24.9571 25.4375C24.853 25.4792 24.7071 25.5417 24.5196 25.625C24.353 25.6875 24.228 25.6354 24.1446 25.4688C24.0613 25.4896 23.9884 25.5208 23.9259 25.5625C23.8634 25.5833 23.78 25.5833 23.6759 25.5625C23.5925 25.5208 23.53 25.4167 23.4884 25.25C23.405 25.4375 23.3425 25.5729 23.3009 25.6562C23.2592 25.7396 23.2175 25.8229 23.1759 25.9062C23.2384 26.1562 23.228 26.3333 23.1446 26.4375C23.0821 26.5208 23.0613 26.6146 23.0821 26.7188C23.0821 26.7812 23.103 26.8333 23.1446 26.875C23.2071 26.9167 23.2592 26.9688 23.3009 27.0312C23.3217 27.2604 23.3425 27.3958 23.3634 27.4375C23.405 27.4792 23.4259 27.5208 23.4259 27.5625C23.4259 27.6458 23.405 27.7083 23.3634 27.75C23.3425 27.7917 23.3217 27.8438 23.3009 27.9062C23.3425 28.0729 23.3425 28.2292 23.3009 28.375C23.28 28.5 23.2384 28.625 23.1759 28.75C23.1134 28.875 23.0509 29.0104 22.9884 29.1562C22.9259 29.2812 22.8842 29.4167 22.8634 29.5625C23.0509 29.7083 23.155 29.8021 23.1759 29.8438C23.2175 29.8854 23.2488 29.9479 23.2696 30.0312C23.2696 30.1146 23.2488 30.1875 23.2071 30.25C23.1863 30.2917 23.155 30.3333 23.1134 30.375C23.155 30.5625 23.1655 30.75 23.1446 30.9375C23.1238 31.1042 23.1134 31.2812 23.1134 31.4688C23.2175 31.4479 23.3217 31.4792 23.4259 31.5625C23.53 31.625 23.5613 31.7292 23.5196 31.875C23.6446 31.8958 23.7488 31.8958 23.8321 31.875C23.9155 31.8333 23.9988 31.7917 24.0821 31.75C24.1863 31.7083 24.28 31.6771 24.3634 31.6562C24.4467 31.6146 24.5509 31.6042 24.6759 31.625C24.8842 31.7917 25.0821 31.8542 25.2696 31.8125C25.4571 31.7708 25.6342 31.7708 25.8009 31.8125C25.905 31.7708 25.9988 31.7188 26.0821 31.6562C26.1863 31.5938 26.2905 31.5417 26.3946 31.5L26.8946 31.6875C27.1238 31.5833 27.3321 31.5208 27.5196 31.5C27.7071 31.4792 27.853 31.3958 27.9571 31.25L28.1759 30.8125C28.2592 30.75 28.3425 30.6875 28.4259 30.625C28.5092 30.5625 28.5717 30.4792 28.6134 30.375C28.7592 30.2292 28.853 30.1458 28.8946 30.125C28.9571 30.0833 28.9988 30.0208 29.0196 29.9375C29.1655 29.875 29.3009 29.8333 29.4259 29.8125C29.5717 29.7917 29.6446 29.8333 29.6446 29.9375C29.5405 30.125 29.4675 30.25 29.4259 30.3125C29.405 30.375 29.3842 30.4271 29.3634 30.4688C29.3634 30.6771 29.3217 30.8021 29.2384 30.8438C29.1759 30.8854 29.1238 30.9583 29.0821 31.0625C29.0613 31.2917 29.0196 31.4479 28.9571 31.5312C28.9155 31.5938 28.8946 31.6875 28.8946 31.8125C28.8113 31.9375 28.7384 32.0625 28.6759 32.1875C28.6134 32.3125 28.5821 32.4792 28.5821 32.6875L28.2696 33.0938C28.2905 33.1771 28.3425 33.25 28.4259 33.3125C28.5092 33.3542 28.53 33.4167 28.4884 33.5C28.3842 33.75 28.3321 33.9062 28.3321 33.9688C28.3321 34.0104 28.3217 34.0833 28.3009 34.1875C28.2384 34.2917 28.1863 34.4167 28.1446 34.5625C28.103 34.6875 28.0092 34.7812 27.8634 34.8438C27.7384 34.8438 27.6134 34.8542 27.4884 34.875C27.3634 34.8958 27.2384 34.9167 27.1134 34.9375C26.905 34.875 26.8113 34.8333 26.8321 34.8125C26.853 34.7917 26.8425 34.7604 26.8009 34.7188C26.5925 34.7604 26.3842 34.7917 26.1759 34.8125C25.9884 34.8333 25.8009 34.8646 25.6134 34.9062C25.3634 34.8229 25.1759 34.7917 25.0509 34.8125C24.9467 34.8333 24.8425 34.8125 24.7384 34.75C24.6134 34.7917 24.4988 34.8542 24.3946 34.9375C24.2905 35 24.155 35 23.9884 34.9375C23.9259 34.8958 23.8842 34.8438 23.8634 34.7812C23.8634 34.7188 23.8425 34.6667 23.8009 34.625C23.6967 34.625 23.6134 34.6458 23.5509 34.6875C23.5092 34.7083 23.4363 34.7188 23.3321 34.7188C23.2488 34.7812 23.1863 34.8958 23.1446 35.0625C23.1863 35.2292 23.2071 35.3958 23.2071 35.5625C23.2071 35.7083 23.155 35.8333 23.0509 35.9375C23.0717 36.125 23.0613 36.3333 23.0196 36.5625C22.978 36.7917 22.9467 37.0208 22.9259 37.25C22.9467 37.3333 22.9884 37.3854 23.0509 37.4062C23.1342 37.4271 23.1967 37.4792 23.2384 37.5625C23.1759 37.875 23.1342 38.0729 23.1134 38.1562C23.0925 38.2396 23.103 38.3333 23.1446 38.4375C23.2488 38.7708 23.2488 39.0625 23.1446 39.3125C23.228 39.5833 23.1655 39.8438 22.9571 40.0938C22.9988 40.1562 23.03 40.2292 23.0509 40.3125C23.0925 40.3958 23.0925 40.4792 23.0509 40.5625C23.1967 40.8125 23.2592 41 23.2384 41.125C23.2175 41.25 23.228 41.3646 23.2696 41.4688C23.2488 41.7812 23.2175 41.9583 23.1759 42C23.3217 42.1458 23.4363 42.1979 23.5196 42.1562C23.603 42.1146 23.6967 42.0833 23.8009 42.0625C23.9675 42.1458 24.1759 42.1354 24.4259 42.0312C24.5092 42.0729 24.5613 42.1354 24.5821 42.2188C24.6238 42.2812 24.6759 42.3333 24.7384 42.375L25.3634 42.0938C25.4675 42.1354 25.5821 42.1562 25.7071 42.1562C25.8321 42.1562 25.9363 42.1771 26.0196 42.2188C26.3113 42.1146 26.5509 42.0625 26.7384 42.0625C26.9259 42.0625 27.103 42.0625 27.2696 42.0625C27.5821 42.2292 27.78 42.2708 27.8634 42.1875C28.0092 42.1458 28.1134 42.0938 28.1759 42.0312C28.405 41.9896 28.5613 41.9583 28.6446 41.9375C28.7488 41.9167 28.853 41.8958 28.9571 41.875C29.0196 41.7917 29.0925 41.7292 29.1759 41.6875C29.28 41.6458 29.3842 41.6042 29.4884 41.5625C29.5717 41.5208 29.6446 41.4792 29.7071 41.4375C29.7696 41.3958 29.8321 41.3542 29.8946 41.3125C29.9363 41.25 29.978 41.2083 30.0196 41.1875C30.0821 41.1458 30.1342 41.1042 30.1759 41.0625C30.3842 40.8958 30.5196 40.7292 30.5821 40.5625C30.6446 40.375 30.78 40.2604 30.9884 40.2188C31.0925 40.1146 31.1759 40.0208 31.2384 39.9375C31.3217 39.8333 31.4155 39.7604 31.5196 39.7188C31.5613 39.6354 31.5925 39.5729 31.6134 39.5312C31.6342 39.4688 31.655 39.3958 31.6759 39.3125L31.9259 38.75C31.9675 38.6875 32.0092 38.625 32.0509 38.5625C32.0925 38.4792 32.155 38.4167 32.2384 38.375C32.3842 38.5208 32.4363 38.6146 32.3946 38.6562C32.353 38.6771 32.3321 38.7083 32.3321 38.75C32.3321 38.8542 32.3634 38.9479 32.4259 39.0312C32.4884 39.0938 32.5405 39.1562 32.5821 39.2188L32.3946 39.75C32.353 39.9167 32.3217 40.1042 32.3009 40.3125C32.28 40.5 32.228 40.6562 32.1446 40.7812C31.9363 40.8646 31.8113 40.9583 31.7696 41.0625C31.7488 41.1458 31.728 41.25 31.7071 41.375C31.7071 41.4792 31.6967 41.5938 31.6759 41.7188C31.6759 41.8229 31.6446 41.9062 31.5821 41.9688C31.5821 42.0521 31.5717 42.1146 31.5509 42.1562C31.5509 42.1979 31.5405 42.25 31.5196 42.3125C31.353 42.4167 31.2488 42.6042 31.2071 42.875C31.1863 43.125 31.155 43.3646 31.1134 43.5938C30.9675 43.7812 30.8634 43.9896 30.8009 44.2188C30.655 44.3854 30.5925 44.5208 30.6134 44.625C30.6342 44.7292 30.6342 44.8646 30.6134 45.0312C30.53 45.2396 30.4259 45.3646 30.3009 45.4062L29.8634 45.3438C29.6759 45.5312 29.5613 45.6042 29.5196 45.5625C29.4988 45.5208 29.4571 45.5 29.3946 45.5C29.0196 45.4792 28.7488 45.4375 28.5821 45.375C28.4363 45.4792 28.2592 45.5104 28.0509 45.4688C27.8425 45.4271 27.6342 45.4167 27.4259 45.4375C27.2592 45.3333 27.1655 45.2917 27.1446 45.3125C27.1238 45.3542 27.0925 45.375 27.0509 45.375C26.9259 45.3958 26.8217 45.375 26.7384 45.3125C26.655 45.25 26.5613 45.2396 26.4571 45.2812C26.3113 45.4896 26.2071 45.5729 26.1446 45.5312C26.0821 45.5104 26.0196 45.4792 25.9571 45.4375C25.8946 45.3958 25.8113 45.375 25.7071 45.375C25.6238 45.375 25.5509 45.3542 25.4884 45.3125C25.3842 45.2917 25.3217 45.2812 25.3009 45.2812C25.28 45.3021 25.2175 45.3125 25.1134 45.3125C24.905 45.25 24.78 45.25 24.7384 45.3125C24.7175 45.3958 24.6655 45.4583 24.5821 45.5C24.3321 45.3958 24.1863 45.3229 24.1446 45.2812C24.1238 45.2604 24.0925 45.2396 24.0509 45.2188C23.8425 45.1354 23.6655 45.1354 23.5196 45.2188C23.3738 45.3021 23.2384 45.375 23.1134 45.4375C22.9675 45.3958 22.8425 45.3854 22.7384 45.4062C22.655 45.4271 22.5509 45.4375 22.4259 45.4375C22.3425 45.3958 22.28 45.2812 22.2384 45.0938C22.1342 45.1146 22.0509 45.1667 21.9884 45.25C21.9467 45.3333 21.8842 45.3958 21.8009 45.4375C21.6342 45.4167 21.4675 45.3958 21.3009 45.375C21.155 45.375 21.0092 45.3542 20.8634 45.3125C20.8009 45.3542 20.7384 45.3854 20.6759 45.4062C20.6342 45.4479 20.5821 45.4792 20.5196 45.5C20.3113 45.5 20.1863 45.5312 20.1446 45.5938C20.1238 45.6562 20.0821 45.6979 20.0196 45.7188C19.9571 45.7188 19.8946 45.6979 19.8321 45.6562C19.7905 45.6354 19.7384 45.6146 19.6759 45.5938C19.5925 45.5521 19.53 45.4896 19.4884 45.4062C19.4467 45.3229 19.3946 45.2604 19.3321 45.2188C19.2696 45.2396 19.1863 45.25 19.0821 45.25C18.978 45.25 18.8946 45.2708 18.8321 45.3125C18.7696 45.3333 18.7175 45.3646 18.6759 45.4062C18.655 45.4479 18.6134 45.4896 18.5509 45.5312C18.4467 45.5104 18.3113 45.5104 18.1446 45.5312C17.978 45.5729 17.8425 45.5521 17.7384 45.4688C17.405 45.5729 17.1863 45.5417 17.0821 45.375C16.9363 45.4583 16.7488 45.5104 16.5196 45.5312C16.2696 45.5521 16.0613 45.5417 15.8946 45.5C15.8321 45.3125 15.853 45.2188 15.9571 45.2188C16.0613 45.2396 16.1446 45.2604 16.2071 45.2812C16.3113 45.2396 16.3842 45.1979 16.4259 45.1562C16.4675 45.1146 16.5196 45.0729 16.5821 45.0312C16.7071 45.0312 16.8009 45.0104 16.8634 44.9688C16.9259 44.9062 16.9988 44.8542 17.0821 44.8125C17.5196 44.8125 17.7905 44.6771 17.8946 44.4062C17.9571 44.3646 18.0196 44.3438 18.0821 44.3438C18.1655 44.3229 18.2384 44.3021 18.3009 44.2812C18.3425 44.2188 18.3842 44.1562 18.4259 44.0938C18.4884 44.0104 18.5821 43.9896 18.7071 44.0312C18.8113 43.8229 18.8842 43.6562 18.9259 43.5312C18.9884 43.4062 19.103 43.3125 19.2696 43.25C19.3321 43.0625 19.3738 42.9271 19.3946 42.8438C19.4155 42.7604 19.4363 42.6771 19.4571 42.5938C19.3946 42.2396 19.3321 42.0104 19.2696 41.9062C19.2071 41.8021 19.1863 41.6562 19.2071 41.4688C19.1863 41.4062 19.1342 41.3646 19.0509 41.3438C18.9884 41.3229 18.9571 41.2708 18.9571 41.1875C19.0196 40.9583 19.0613 40.8125 19.0821 40.75C19.103 40.6875 19.1342 40.6146 19.1759 40.5312L19.2696 40C19.2488 39.8333 19.2488 39.6771 19.2696 39.5312C19.3113 39.3646 19.3113 39.2188 19.2696 39.0938C19.353 38.8438 19.3738 38.7083 19.3321 38.6875C19.2905 38.6667 19.2488 38.6354 19.2071 38.5938C19.1863 38.3854 19.1134 38.1875 18.9884 38C19.03 37.9167 19.0717 37.8542 19.1134 37.8125C19.1759 37.75 19.228 37.6771 19.2696 37.5938C19.228 37.5104 19.1863 37.4375 19.1446 37.375C19.103 37.3125 19.0821 37.2292 19.0821 37.125C19.228 36.7708 19.3321 36.4583 19.3946 36.1875C19.4571 35.8958 19.4467 35.6354 19.3634 35.4062C19.3842 35.1979 19.3738 35.0833 19.3321 35.0625C19.2905 35.0417 19.2696 34.9896 19.2696 34.9062C19.2488 34.8021 19.2592 34.7396 19.3009 34.7188C19.3634 34.6979 19.405 34.6562 19.4259 34.5938C19.4259 34.4688 19.405 34.3646 19.3634 34.2812C19.3425 34.1979 19.3217 34.1042 19.3009 34C19.3217 33.8958 19.353 33.8021 19.3946 33.7188C19.4363 33.6354 19.478 33.5417 19.5196 33.4375C19.478 33.3333 19.4467 33.2292 19.4259 33.125C19.4259 33.0208 19.4259 32.9167 19.4259 32.8125C19.4467 32.75 19.4571 32.6875 19.4571 32.625C19.4571 32.5417 19.4571 32.4688 19.4571 32.4062L19.4884 31.875C19.405 31.625 19.3738 31.4896 19.3946 31.4688C19.4363 31.4271 19.4571 31.375 19.4571 31.3125C19.4571 31.0208 19.478 30.8333 19.5196 30.75C19.5405 30.5 19.5405 30.3542 19.5196 30.3125C19.4988 30.2708 19.5092 30.2292 19.5509 30.1875C19.5509 29.7708 19.5405 29.4271 19.5196 29.1562C19.4155 28.9896 19.3634 28.7708 19.3634 28.5C19.3842 28.2292 19.4363 28 19.5196 27.8125C19.478 27.75 19.4363 27.6875 19.3946 27.625C19.353 27.5625 19.3425 27.4688 19.3634 27.3438C19.4259 27.0521 19.4571 26.8438 19.4571 26.7188C19.4571 26.5729 19.4259 26.4479 19.3634 26.3438C19.405 26.1354 19.4259 25.9792 19.4259 25.875C19.3425 25.6042 19.3113 25.4479 19.3321 25.4062C19.2696 25.3021 19.2384 25.2083 19.2384 25.125C19.2592 25.0417 19.2384 24.9583 19.1759 24.875C18.9884 24.75 18.8946 24.5833 18.8946 24.375C18.7488 24.1667 18.6134 24.0104 18.4884 23.9062C18.4259 23.9479 18.3634 23.9583 18.3009 23.9375C18.2384 23.9167 18.1863 23.8854 18.1446 23.8438C18.103 23.6354 18.0509 23.5208 17.9884 23.5C17.9467 23.4583 17.905 23.4062 17.8634 23.3438C17.7384 23.3646 17.6342 23.3958 17.5509 23.4375C17.4675 23.4792 17.3738 23.4792 17.2696 23.4375C17.228 23.3542 17.1967 23.2812 17.1759 23.2188C17.155 23.1354 17.103 23.0729 17.0196 23.0312C16.6238 23.0729 16.4571 22.9167 16.5196 22.5625C16.4571 22.5417 16.3842 22.5312 16.3009 22.5312C16.1967 22.5104 16.103 22.4896 16.0196 22.4688C15.9363 22.4479 15.8842 22.4167 15.8634 22.375C15.8217 22.3333 15.8217 22.2604 15.8634 22.1562C15.9675 22.1146 16.0613 22.1146 16.1446 22.1562C16.228 22.1771 16.3113 22.2083 16.3946 22.25C16.478 22.2292 16.5405 22.1979 16.5821 22.1562C16.6238 22.1146 16.6863 22.0833 16.7696 22.0625C16.8946 22.125 17.0405 22.1667 17.2071 22.1875C17.3946 22.1875 17.5405 22.2083 17.6446 22.25C17.9363 22.2292 18.1238 22.1979 18.2071 22.1562C18.2905 22.0938 18.405 22.0729 18.5509 22.0938C18.6759 22.1146 18.7592 22.1771 18.8009 22.2812C18.8634 22.3646 18.9467 22.4271 19.0509 22.4688C19.155 22.4896 19.2175 22.4792 19.2384 22.4375C19.28 22.3958 19.3217 22.3542 19.3634 22.3125C19.4884 22.3542 19.5821 22.3438 19.6446 22.2812C19.728 22.1979 19.8321 22.1667 19.9571 22.1875C20.228 22.0833 20.3738 22.0521 20.3946 22.0938C20.4155 22.1146 20.4467 22.1354 20.4884 22.1562L21.1446 22C21.2905 21.9792 21.3946 21.9896 21.4571 22.0312C21.5405 22.0729 21.6238 22.1354 21.7071 22.2188C21.7696 22.1979 21.8425 22.1979 21.9259 22.2188C22.03 22.2188 22.103 22.2396 22.1446 22.2812C22.3113 22.2188 22.5196 22.1667 22.7696 22.125C23.0196 22.0625 23.2175 22.1042 23.3634 22.25C23.4467 22.2292 23.5196 22.2083 23.5821 22.1875C23.6655 22.1667 23.7592 22.1667 23.8634 22.1875C23.9259 22.1458 23.9988 22.0938 24.0821 22.0312C24.1863 21.9479 24.3113 21.9271 24.4571 21.9688C24.5821 22.1354 24.6342 22.2292 24.6134 22.25C24.6134 22.25 24.6134 22.2708 24.6134 22.3125C24.6967 22.375 24.78 22.3958 24.8634 22.375C24.9675 22.3333 25.0613 22.2917 25.1446 22.25C25.228 22.2083 25.3113 22.1771 25.3946 22.1562C25.478 22.1354 25.5509 22.1562 25.6134 22.2188C25.655 22.2812 25.655 22.3438 25.6134 22.4062C25.5925 22.4479 25.5925 22.5 25.6134 22.5625C25.7592 22.5417 25.8946 22.5104 26.0196 22.4688C26.1446 22.4062 26.2905 22.3958 26.4571 22.4375C26.5821 22.3542 26.7488 22.2708 26.9571 22.1875C27.1863 22.1042 27.353 22.1458 27.4571 22.3125C27.8113 22.2292 28.1238 22.1458 28.3946 22.0625C28.6446 22.125 28.8113 22.1354 28.8946 22.0938C28.978 22.0521 29.0717 22.0521 29.1759 22.0938C29.3634 22.0312 29.5092 21.9271 29.6134 21.7812C29.7384 21.6146 29.9155 21.5104 30.1446 21.4688C30.353 21.5312 30.4988 21.5625 30.5821 21.5625C30.6863 21.5625 30.7592 21.6042 30.8009 21.6875C30.905 21.6458 31.0092 21.5938 31.1134 21.5312C31.2175 21.4479 31.3217 21.4479 31.4259 21.5312C31.5509 21.4479 31.6655 21.3646 31.7696 21.2812C31.8738 21.1979 32.0092 21.1354 32.1759 21.0938C32.2175 21.0521 32.2696 21.0208 32.3321 21C32.3946 20.9792 32.4467 20.9479 32.4884 20.9062C32.5717 20.8438 32.6446 20.7812 32.7071 20.7188C32.7696 20.6562 32.8738 20.6354 33.0196 20.6562C33.103 20.5938 33.1967 20.5729 33.3009 20.5938C33.405 20.6146 33.4675 20.6771 33.4884 20.7812C33.4467 20.8646 33.405 20.9375 33.3634 21C33.3217 21.0417 33.3113 21.1146 33.3321 21.2188C33.2905 21.3021 33.228 21.375 33.1446 21.4375C33.0613 21.5 32.9884 21.5625 32.9259 21.625C32.8634 21.6875 32.8009 21.7604 32.7384 21.8438C32.6967 21.9271 32.6863 22.0417 32.7071 22.1875C32.5821 22.3125 32.4988 22.4167 32.4571 22.5L32.4884 22.8125ZM47.2371 44.4062C47.2996 44.4271 47.3621 44.4375 47.4246 44.4375C47.508 44.4375 47.5809 44.4479 47.6434 44.4688C47.7475 44.5729 47.7371 44.6771 47.6121 44.7812C47.508 44.8646 47.3934 44.9271 47.2684 44.9688C47.06 44.8854 46.9038 44.8542 46.7996 44.875C46.7163 44.875 46.633 44.8646 46.5496 44.8438C46.4455 44.9062 46.2996 44.9375 46.1121 44.9375C45.9455 44.9375 45.7892 44.9271 45.6434 44.9062C45.4142 44.7812 45.258 44.75 45.1746 44.8125C45.0913 44.875 44.9975 44.9167 44.8934 44.9375C44.7684 44.9583 44.6642 44.9375 44.5809 44.875C44.5184 44.8125 44.435 44.7604 44.3309 44.7188C44.2267 44.7396 44.133 44.7604 44.0496 44.7812C43.9663 44.8021 43.883 44.8333 43.7996 44.875C43.6746 44.8333 43.5496 44.8333 43.4246 44.875C43.3205 44.9167 43.2059 44.9271 43.0809 44.9062C42.9975 44.9271 42.9455 44.9688 42.9246 45.0312C42.9246 45.1146 42.883 45.1562 42.7996 45.1562C42.6538 44.9896 42.5705 44.8958 42.5496 44.875C42.5496 44.8333 42.5288 44.8021 42.4871 44.7812C42.3205 44.4896 42.2163 44.2396 42.1746 44.0312C42.1538 43.8229 42.1017 43.6354 42.0184 43.4688C41.8934 43.2604 41.8205 43.1458 41.7996 43.125C41.7996 43.1042 41.7996 43.0729 41.7996 43.0312C41.5496 42.8438 41.4767 42.6146 41.5809 42.3438C41.5184 42.1771 41.4767 42.0938 41.4559 42.0938C41.435 42.0729 41.4246 42.0417 41.4246 42C41.3621 41.9375 41.3205 41.8542 41.2996 41.75C41.2788 41.625 41.2475 41.5104 41.2059 41.4062C41.1017 41.2604 41.0288 41.1771 40.9871 41.1562C40.9663 41.1146 40.935 41.0729 40.8934 41.0312C40.9142 40.9062 40.8934 40.8229 40.8309 40.7812C40.7684 40.7188 40.7371 40.6354 40.7371 40.5312C40.6955 40.1562 40.7059 39.9167 40.7684 39.8125C40.5392 39.6042 40.3934 39.4792 40.3309 39.4375C40.2684 39.375 40.1955 39.3229 40.1121 39.2812C40.008 39.3646 39.9559 39.5104 39.9559 39.7188C39.9559 39.9062 39.8934 40.0312 39.7684 40.0938C39.7267 40.2396 39.6955 40.3333 39.6746 40.375C39.6746 40.4167 39.6642 40.4479 39.6434 40.4688C39.6017 40.5938 39.5496 40.7188 39.4871 40.8438C39.4455 40.9479 39.4038 41.0521 39.3621 41.1562C39.3413 41.3021 39.2892 41.4167 39.2059 41.5C39.1434 41.5625 39.1017 41.6771 39.0809 41.8438C39.0392 41.9062 38.9975 41.9688 38.9559 42.0312C38.935 42.0729 38.9038 42.125 38.8621 42.1875C38.6746 42.4583 38.5392 42.6562 38.4559 42.7812C38.3725 42.9062 38.3517 43.0833 38.3934 43.3125C38.3309 43.4167 38.2371 43.5 38.1121 43.5625C38.0913 43.6458 38.06 43.7083 38.0184 43.75C37.9767 43.7917 37.935 43.8438 37.8934 43.9062C37.8934 44.0521 37.8725 44.1979 37.8309 44.3438C37.7892 44.4688 37.7788 44.6146 37.7996 44.7812C37.633 44.8854 37.5392 44.9271 37.5184 44.9062C37.4975 44.8646 37.4663 44.8438 37.4246 44.8438C37.3205 44.8646 37.2267 44.8646 37.1434 44.8438C37.06 44.8229 36.9767 44.8333 36.8934 44.875C36.7892 44.8542 36.6955 44.8333 36.6121 44.8125C36.5288 44.7917 36.435 44.7812 36.3309 44.7812C36.2475 44.8021 36.1746 44.8333 36.1121 44.875C36.0496 44.8958 35.9871 44.9271 35.9246 44.9688C35.6955 44.9062 35.56 44.8958 35.5184 44.9375C35.4975 44.9583 35.4559 44.9688 35.3934 44.9688C35.1434 44.9271 34.9767 44.9062 34.8934 44.9062C34.81 44.8854 34.7475 44.8229 34.7059 44.7188C34.6017 44.7188 34.5184 44.75 34.4559 44.8125C34.4142 44.875 34.3413 44.9167 34.2371 44.9375C34.0913 44.9375 33.9975 44.9062 33.9559 44.8438C33.9142 44.7604 33.8413 44.7083 33.7371 44.6875C33.5913 44.7083 33.4975 44.7604 33.4559 44.8438C33.3934 44.9271 33.2892 44.9792 33.1434 45C32.9975 45.0625 32.9142 45.0833 32.8934 45.0625C32.8517 45.0417 32.81 45.0208 32.7684 45C32.56 44.9792 32.435 44.9375 32.3934 44.875C32.3309 44.7917 32.3309 44.7083 32.3934 44.625C32.56 44.6042 32.6642 44.5729 32.7059 44.5312C32.7475 44.4896 32.8205 44.4896 32.9246 44.5312C33.0705 44.3438 33.2371 44.1875 33.4246 44.0625C33.6121 43.9375 33.7996 43.8125 33.9871 43.6875C34.2371 43.5833 34.3934 43.4792 34.4559 43.375C34.5392 43.2708 34.633 43.1667 34.7371 43.0625C34.9455 42.875 35.0705 42.7396 35.1121 42.6562C35.1538 42.5729 35.185 42.4792 35.2059 42.375C35.2475 42.2917 35.2892 42.2188 35.3309 42.1562C35.3725 42.0729 35.435 42 35.5184 41.9375C35.435 41.6458 35.4455 41.4792 35.5496 41.4375C35.6746 41.3958 35.7684 41.3333 35.8309 41.25C35.8517 40.9792 35.8934 40.7917 35.9559 40.6875C36.0392 40.5833 36.06 40.4271 36.0184 40.2188C36.1434 40.0938 36.2475 39.9688 36.3309 39.8438C36.435 39.7188 36.56 39.6042 36.7059 39.5C36.7267 39.0625 36.7892 38.7396 36.8934 38.5312C36.9975 38.3229 37.1017 38.125 37.2059 37.9375C37.2267 37.8958 37.2371 37.8438 37.2371 37.7812C37.2371 37.7188 37.2475 37.6562 37.2684 37.5938C37.2892 37.4062 37.3205 37.2812 37.3621 37.2188C37.4246 37.1354 37.4871 37.0625 37.5496 37C37.5705 36.9583 37.5913 36.9167 37.6121 36.875C37.633 36.8125 37.633 36.7396 37.6121 36.6562C37.7371 36.3854 37.8205 36.2292 37.8621 36.1875C37.9246 36.1458 37.9663 36.0938 37.9871 36.0312C38.1121 35.8229 38.185 35.6667 38.2059 35.5625C38.2892 35.3125 38.2996 35.1667 38.2371 35.125C38.1746 35.0625 38.1017 34.9896 38.0184 34.9062C38.06 34.7604 38.0288 34.6562 37.9246 34.5938C37.8205 34.5312 37.7475 34.4479 37.7059 34.3438C37.7059 34.2396 37.7163 34.1562 37.7371 34.0938C37.7788 34.0104 37.7996 33.9062 37.7996 33.7812C37.758 33.6771 37.6955 33.6146 37.6121 33.5938C37.5288 33.5729 37.4663 33.5208 37.4246 33.4375C37.383 33.3542 37.3725 33.25 37.3934 33.125C37.4142 33 37.4038 32.8854 37.3621 32.7812C37.3413 32.6146 37.2892 32.5417 37.2059 32.5625C37.1225 32.5625 37.0496 32.5521 36.9871 32.5312C36.8205 32.3021 36.7475 32.1667 36.7684 32.125C36.7892 32.0833 36.7996 32.0312 36.7996 31.9688C36.7788 31.8021 36.7163 31.6667 36.6121 31.5625C36.508 31.4375 36.4663 31.2917 36.4871 31.125C36.258 30.9375 36.1225 30.7708 36.0809 30.625C36.06 30.4583 36.0288 30.3125 35.9871 30.1875C35.9663 29.9167 35.9038 29.7292 35.7996 29.625C35.7163 29.5208 35.6225 29.4167 35.5184 29.3125C35.4559 29.1458 35.4559 29.0312 35.5184 28.9688C35.4767 28.9062 35.4246 28.8646 35.3621 28.8438C35.3205 28.8229 35.31 28.7604 35.3309 28.6562C35.1017 28.5312 34.9559 28.4375 34.8934 28.375C34.8517 28.3125 34.81 28.2396 34.7684 28.1562C34.6017 28.1146 34.4871 28.0312 34.4246 27.9062C34.3205 27.7188 34.2267 27.6146 34.1434 27.5938C34.0809 27.5521 34.0288 27.4896 33.9871 27.4062C33.8413 27.3854 33.7163 27.375 33.6121 27.375C33.508 27.3542 33.383 27.3646 33.2371 27.4062C33.1746 27.3646 33.133 27.3125 33.1121 27.25C33.0705 27.1875 33.0184 27.1354 32.9559 27.0938C32.7684 26.9896 32.7475 26.8854 32.8934 26.7812C33.0184 26.6771 33.1642 26.6562 33.3309 26.7188C33.435 26.7396 33.5288 26.7188 33.6121 26.6562C33.7163 26.5938 33.8413 26.5833 33.9871 26.625C34.0913 26.6667 34.2163 26.6875 34.3621 26.6875C34.508 26.6875 34.633 26.6771 34.7371 26.6562C34.8205 26.6146 34.8934 26.5625 34.9559 26.5C35.0184 26.4375 35.0809 26.3854 35.1434 26.3438C35.2475 26.3229 35.3205 26.3333 35.3621 26.375C35.4246 26.4167 35.4975 26.4583 35.5809 26.5C35.6642 26.5 35.7475 26.5 35.8309 26.5C35.9142 26.5 35.9767 26.4792 36.0184 26.4375C36.1017 26.4583 36.185 26.4792 36.2684 26.5C36.3725 26.5208 36.4767 26.5104 36.5809 26.4688C36.6434 26.5104 36.685 26.5521 36.7059 26.5938C36.7475 26.6354 36.81 26.6667 36.8934 26.6875C37.2059 26.6042 37.4142 26.5521 37.5184 26.5312C37.6434 26.5104 37.758 26.5208 37.8621 26.5625C37.9246 26.5208 38.008 26.5 38.1121 26.5C38.2163 26.5 38.31 26.4896 38.3934 26.4688C38.3934 26.6354 38.3621 26.7083 38.2996 26.6875C38.2371 26.6458 38.1746 26.6562 38.1121 26.7188C38.1746 26.9688 38.2163 27.1458 38.2371 27.25C38.258 27.3333 38.2892 27.4271 38.3309 27.5312C38.4142 27.6146 38.4767 27.6979 38.5184 27.7812C38.5809 27.8646 38.6746 27.9271 38.7996 27.9688C38.8621 28.0312 38.9246 28.1146 38.9871 28.2188C39.0496 28.3021 39.0809 28.4167 39.0809 28.5625C39.0809 28.7083 39.06 28.8542 39.0184 29C38.9767 29.125 38.9663 29.25 38.9871 29.375C39.2163 29.5625 39.3725 29.7083 39.4559 29.8125C39.56 29.8958 39.633 29.9896 39.6746 30.0938C39.6746 30.3021 39.7059 30.4688 39.7684 30.5938C39.8309 30.7188 39.9038 30.8438 39.9871 30.9688C40.0288 31.1979 40.0392 31.3333 40.0184 31.375C40.0184 31.3958 40.0184 31.4271 40.0184 31.4688C40.06 31.5312 40.0913 31.5833 40.1121 31.625C40.133 31.6667 40.1642 31.7188 40.2059 31.7812C40.2059 31.9271 40.2059 32.0625 40.2059 32.1875C40.1225 32.3125 40.0809 32.4583 40.0809 32.625C40.3517 32.3542 40.4975 32.1667 40.5184 32.0625C40.4142 31.8333 40.383 31.7083 40.4246 31.6875C40.4663 31.6458 40.4871 31.6042 40.4871 31.5625C40.508 31.4792 40.508 31.4062 40.4871 31.3438C40.4663 31.2604 40.4559 31.1875 40.4559 31.125C40.6017 30.8542 40.7059 30.6667 40.7684 30.5625C40.8309 30.4375 40.883 30.2917 40.9246 30.125C40.9663 30.0625 41.0184 30 41.0809 29.9375C41.1434 29.875 41.1955 29.8125 41.2371 29.75C41.2788 29.5833 41.3413 29.4375 41.4246 29.3125C41.5288 29.1667 41.6225 29.0417 41.7059 28.9375C41.7475 28.7083 41.81 28.5 41.8934 28.3125C41.9975 28.125 42.0496 27.9062 42.0496 27.6562C42.133 27.5938 42.1955 27.5312 42.2371 27.4688C42.2788 27.4062 42.3205 27.3438 42.3621 27.2812C42.3205 27.0312 42.31 26.8021 42.3309 26.5938C42.3725 26.3854 42.4663 26.2188 42.6121 26.0938C42.7996 26.2396 42.883 26.3333 42.8621 26.375C42.8413 26.3958 42.8413 26.4271 42.8621 26.4688C43.0496 26.4271 43.2059 26.4271 43.3309 26.4688C43.4767 26.4896 43.6434 26.5208 43.8309 26.5625C43.935 26.5208 44.06 26.4792 44.2059 26.4375C44.3517 26.3958 44.4975 26.3646 44.6434 26.3438C44.7475 26.3438 44.8413 26.3542 44.9246 26.375C45.0288 26.375 45.1225 26.3542 45.2059 26.3125C45.3934 26.4583 45.5288 26.5312 45.6121 26.5312C45.7163 26.5104 45.8205 26.5104 45.9246 26.5312C46.2371 26.4688 46.5392 26.4479 46.8309 26.4688C46.9142 26.5104 46.9871 26.5417 47.0496 26.5625C47.1121 26.5833 47.1642 26.625 47.2059 26.6875C46.9559 26.875 46.758 27 46.6121 27.0625C46.4871 27.1042 46.383 27.1979 46.2996 27.3438C46.2788 27.5104 46.2267 27.6042 46.1434 27.625C46.0809 27.6458 46.0184 27.6771 45.9559 27.7188C45.7892 27.8854 45.6434 28.0625 45.5184 28.25C45.4142 28.4167 45.2475 28.5521 45.0184 28.6562C44.9767 28.7604 44.9246 28.8542 44.8621 28.9375C44.7996 29 44.7684 29.0938 44.7684 29.2188C44.7684 29.5521 44.7267 29.7708 44.6434 29.875C44.56 29.9792 44.4767 30.0729 44.3934 30.1562C44.3725 30.3021 44.3309 30.4167 44.2684 30.5C44.2059 30.5625 44.1538 30.6562 44.1121 30.7812C44.0288 30.8438 43.9663 30.9375 43.9246 31.0625C43.883 31.1875 43.8205 31.2812 43.7371 31.3438C43.7371 31.4479 43.7371 31.5417 43.7371 31.625C43.758 31.7083 43.758 31.8021 43.7371 31.9062C43.6955 32.0104 43.6225 32.1042 43.5184 32.1875C43.435 32.25 43.3517 32.3229 43.2684 32.4062C43.185 32.4896 43.1225 32.5938 43.0809 32.7188C43.0392 32.8229 43.0496 32.9479 43.1121 33.0938C42.9038 33.3438 42.758 33.6146 42.6746 33.9062C42.508 33.9479 42.4142 34.0312 42.3934 34.1562C42.4767 34.5104 42.4767 34.7396 42.3934 34.8438C42.31 34.9271 42.2371 35.0417 42.1746 35.1875C42.2371 35.4792 42.2371 35.6667 42.1746 35.75C42.2163 35.7917 42.2684 35.8229 42.3309 35.8438C42.4142 35.8646 42.4767 35.8958 42.5184 35.9375C42.6642 36.3333 42.7788 36.6562 42.8621 36.9062C42.9663 37.0104 43.0288 37.1458 43.0496 37.3125C43.0913 37.4583 43.1538 37.6042 43.2371 37.75C43.2996 37.9375 43.3621 38.0521 43.4246 38.0938C43.508 38.1354 43.56 38.2083 43.5809 38.3125C43.5809 38.3958 43.56 38.4688 43.5184 38.5312C43.4767 38.5729 43.4559 38.6458 43.4559 38.75C43.5184 38.7917 43.5809 38.8229 43.6434 38.8438C43.7059 38.8438 43.7475 38.875 43.7684 38.9375C43.81 39.1875 43.8725 39.3229 43.9559 39.3438C44.0392 39.3646 44.0913 39.4271 44.1121 39.5312C44.2371 39.5938 44.3621 39.6667 44.4871 39.75C44.6121 39.8125 44.6746 39.9271 44.6746 40.0938C44.633 40.1771 44.5913 40.2604 44.5496 40.3438C44.5288 40.4062 44.4975 40.4792 44.4559 40.5625C44.4767 40.75 44.5184 40.9271 44.5809 41.0938C44.6642 41.2604 44.6642 41.4271 44.5809 41.5938C44.6017 41.6771 44.6225 41.75 44.6434 41.8125C44.6642 41.8542 44.6746 41.9062 44.6746 41.9688C44.8205 41.9896 44.9142 42.0417 44.9559 42.125C45.0184 42.2083 45.0913 42.2812 45.1746 42.3438C45.1746 42.5312 45.185 42.6562 45.2059 42.7188C45.2267 42.7604 45.2371 42.8229 45.2371 42.9062C45.4663 43.0312 45.5809 43.1354 45.5809 43.2188C45.7475 43.2188 45.8725 43.2292 45.9559 43.25C45.9975 43.3333 46.06 43.3958 46.1434 43.4375C46.2475 43.4583 46.3205 43.5 46.3621 43.5625C46.5288 43.75 46.6434 43.8438 46.7059 43.8438C46.7684 43.8229 46.8309 43.8333 46.8934 43.875C46.935 43.9167 46.9455 43.9792 46.9246 44.0625C46.9246 44.125 46.9246 44.1771 46.9246 44.2188C46.9455 44.3021 46.9871 44.3542 47.0496 44.375C47.1121 44.375 47.1746 44.3854 47.2371 44.4062ZM60.6109 32.125C60.5275 32.3958 60.5484 32.5833 60.6734 32.6875C60.8192 32.7917 60.8296 32.9167 60.7046 33.0625C60.663 33.1042 60.6005 33.125 60.5171 33.125C60.4546 33.1042 60.4025 33.1042 60.3609 33.125C60.3192 33.1667 60.2984 33.2188 60.2984 33.2812C60.2984 33.3438 60.2984 33.4062 60.2984 33.4688C60.1942 33.6354 60.1213 33.7396 60.0796 33.7812C60.0588 33.8229 60.038 33.875 60.0171 33.9375C60.038 34.0833 60.0588 34.2188 60.0796 34.3438C60.1005 34.4688 60.09 34.6042 60.0484 34.75C60.0067 35.0833 59.9234 35.3125 59.7984 35.4375C59.6734 35.5625 59.5171 35.6458 59.3296 35.6875C59.288 35.8542 59.2463 36.0312 59.2046 36.2188C59.1838 36.3854 59.0796 36.4688 58.8921 36.4688C58.7046 36.6771 58.4963 36.8021 58.2671 36.8438C58.2671 36.9062 58.2775 36.9688 58.2984 37.0312C58.34 37.0729 58.3609 37.1354 58.3609 37.2188C58.2984 37.3438 58.1838 37.3958 58.0171 37.375C57.8505 37.3542 57.7255 37.3125 57.6421 37.25C57.3921 37.2917 57.1942 37.3125 57.0484 37.3125C56.9234 37.3125 56.8088 37.3333 56.7046 37.375C56.6421 37.4375 56.59 37.5 56.5484 37.5625C56.5067 37.625 56.4442 37.6771 56.3609 37.7188C56.09 37.6146 55.9234 37.5938 55.8609 37.6562C55.8192 37.6979 55.7671 37.7396 55.7046 37.7812C55.5796 37.7812 55.465 37.7292 55.3609 37.625C55.2567 37.6667 55.1525 37.7188 55.0484 37.7812C54.965 37.8438 54.8609 37.8542 54.7359 37.8125C54.6525 37.875 54.5692 37.8958 54.4859 37.875C54.4025 37.8542 54.288 37.8542 54.1421 37.875C54.0796 37.8333 54.0275 37.7917 53.9859 37.75C53.9442 37.6875 53.9025 37.625 53.8609 37.5625C53.7567 37.5625 53.6942 37.6042 53.6734 37.6875C53.6525 37.7708 53.59 37.8125 53.4859 37.8125C53.34 38 53.2671 38.1458 53.2671 38.25C53.288 38.3333 53.3192 38.3958 53.3609 38.4375C53.2359 38.75 53.1942 38.9688 53.2359 39.0938C53.2775 39.2188 53.288 39.3542 53.2671 39.5C53.1838 39.7292 53.163 39.8646 53.2046 39.9062C53.2463 39.9271 53.2671 39.9792 53.2671 40.0625C53.2463 40.2917 53.2255 40.4375 53.2046 40.5C53.1838 40.5417 53.163 40.6042 53.1421 40.6875C53.2046 40.9167 53.215 41.0521 53.1734 41.0938C53.1525 41.1354 53.1213 41.1875 53.0796 41.25C53.1213 41.3125 53.1421 41.3854 53.1421 41.4688C53.163 41.5312 53.1942 41.6042 53.2359 41.6875C53.2359 41.7708 53.2255 41.8438 53.2046 41.9062C53.1838 41.9479 53.163 41.9896 53.1421 42.0312C53.1213 42.1146 53.1317 42.1771 53.1734 42.2188C53.215 42.2396 53.2255 42.2917 53.2046 42.375C53.2046 42.6042 53.2255 42.7917 53.2671 42.9375C53.3088 43.0833 53.2984 43.2188 53.2359 43.3438C53.2567 43.4688 53.2984 43.5833 53.3609 43.6875C53.4442 43.7708 53.4755 43.875 53.4546 44C53.4546 44.2708 53.4546 44.4271 53.4546 44.4688C53.4755 44.4896 53.4859 44.5208 53.4859 44.5625C53.465 44.75 53.4546 44.8854 53.4546 44.9688C53.3088 45.0938 53.1734 45.2188 53.0484 45.3438C52.9859 45.5729 52.8817 45.6771 52.7359 45.6562C52.6109 45.6354 52.5067 45.6667 52.4234 45.75C52.4859 45.9792 52.4859 46.1042 52.4234 46.125C52.3817 46.1458 52.34 46.1771 52.2984 46.2188C52.2567 46.5729 52.1421 46.7917 51.9546 46.875C51.788 46.9583 51.6525 47.0938 51.5484 47.2812C51.5275 47.5938 51.4755 47.75 51.3921 47.75C51.3296 47.7708 51.2567 47.8021 51.1734 47.8438C51.1317 47.8854 51.1005 47.9375 51.0796 48C51.0796 48.0625 51.0692 48.125 51.0484 48.1875C51.0067 48.2292 50.965 48.2812 50.9234 48.3438C50.9025 48.4062 50.8713 48.4583 50.8296 48.5C50.8088 48.5833 50.7984 48.7292 50.7984 48.9375C50.7567 49.125 50.7255 49.2396 50.7046 49.2812C50.7046 49.3229 50.7046 49.3646 50.7046 49.4062C50.6838 49.5938 50.6942 49.7083 50.7359 49.75C50.7775 49.8125 50.7984 49.8854 50.7984 49.9688C50.7359 50.0938 50.663 50.1146 50.5796 50.0312C50.4963 49.9688 50.4338 49.9062 50.3921 49.8438C50.3505 50.0312 50.3088 50.1458 50.2671 50.1875C50.0796 50 49.9755 49.8333 49.9546 49.6875C49.9338 49.5417 49.8713 49.4375 49.7671 49.375C49.7463 49.2083 49.7463 49.1146 49.7671 49.0938C49.8088 49.0729 49.8296 49.0417 49.8296 49C49.8088 48.7083 49.7775 48.5208 49.7359 48.4375C49.715 48.375 49.7046 48.2708 49.7046 48.125C49.788 47.9792 49.8192 47.8854 49.7984 47.8438C49.7984 47.8021 49.7984 47.75 49.7984 47.6875C49.9234 47.5208 49.965 47.4062 49.9234 47.3438C49.9025 47.2812 49.9025 47.2188 49.9234 47.1562C49.9859 47.1146 50.0484 47.0938 50.1109 47.0938C50.1942 47.0938 50.2567 47.0417 50.2984 46.9375C50.1109 46.7708 50.038 46.6354 50.0796 46.5312C49.9963 46.4688 49.9234 46.3958 49.8609 46.3125C49.7984 46.25 49.7567 46.1667 49.7359 46.0625C49.84 45.8958 49.913 45.7812 49.9546 45.7188C49.9963 45.6771 50.0171 45.6042 50.0171 45.5C49.8505 45.3542 49.7775 45.2604 49.7984 45.2188C49.8192 45.1979 49.84 45.1667 49.8609 45.125C49.8609 44.9375 49.9025 44.8021 49.9859 44.7188C49.9859 44.4479 49.9338 44.1771 49.8296 43.9062C49.8921 43.7396 49.9442 43.6354 49.9859 43.5938C50.0275 43.5312 50.0692 43.4792 50.1109 43.4375C50.1109 43.3125 50.09 43.1979 50.0484 43.0938C50.0067 42.9688 49.965 42.8542 49.9234 42.75C49.8817 42.6458 49.8609 42.5521 49.8609 42.4688C49.8609 42.3646 49.9234 42.2708 50.0484 42.1875C49.9859 42 49.9963 41.8438 50.0796 41.7188C50.0588 41.6354 50.038 41.5729 50.0171 41.5312C50.0171 41.4688 50.0275 41.3958 50.0484 41.3125C50.1109 40.9792 50.1109 40.75 50.0484 40.625C50.0067 40.4792 49.9546 40.3229 49.8921 40.1562C49.9546 39.9479 49.9755 39.8021 49.9546 39.7188C49.9546 39.6354 49.9859 39.5521 50.0484 39.4688C50.0484 39.0729 49.9963 38.7708 49.8921 38.5625C49.8088 38.3542 49.7671 38.125 49.7671 37.875C49.8088 37.8333 49.8296 37.7708 49.8296 37.6875C49.8505 37.6042 49.8609 37.5312 49.8609 37.4688C49.84 37.1979 49.8505 37.0312 49.8921 36.9688C49.9338 36.9062 49.965 36.8229 49.9859 36.7188C49.9025 36.4479 49.8713 36.2812 49.8921 36.2188C49.9338 36.1562 49.9755 36.0729 50.0171 35.9688C49.9546 35.8438 49.913 35.6979 49.8921 35.5312C49.8921 35.3646 49.8817 35.1979 49.8609 35.0312C49.9025 34.8021 49.9025 34.6667 49.8609 34.625C49.8192 34.5625 49.7775 34.4896 49.7359 34.4062C49.7567 34.2188 49.84 34.0521 49.9859 33.9062C49.9442 33.6562 49.9442 33.4896 49.9859 33.4062C50.0067 33.3021 50.0067 33.2188 49.9859 33.1562C49.965 33.0938 49.9338 33.0312 49.8921 32.9688C49.8713 32.9271 49.8713 32.875 49.8921 32.8125C49.913 32.75 49.9234 32.6875 49.9234 32.625C49.8609 32.375 49.84 32.25 49.8609 32.25C49.9025 32.2292 49.9338 32.2083 49.9546 32.1875C49.913 32.0625 49.913 31.9688 49.9546 31.9062C50.0171 31.8438 50.0692 31.7812 50.1109 31.7188C50.09 31.6146 50.0692 31.5104 50.0484 31.4062C50.0484 31.2812 50.0171 31.1771 49.9546 31.0938C49.9338 30.8646 49.8817 30.6667 49.7984 30.5L49.8921 30.0312C49.7255 29.8646 49.6525 29.7708 49.6734 29.75C49.715 29.7083 49.7255 29.6458 49.7046 29.5625C49.663 29.5 49.6109 29.4479 49.5484 29.4062C49.5067 29.3646 49.4755 29.3021 49.4546 29.2188C49.3088 28.9688 49.2046 28.7812 49.1421 28.6562C49.1005 28.5104 49.0588 28.3542 49.0171 28.1875C48.8505 28.125 48.7567 28 48.7359 27.8125C48.6317 27.7708 48.5484 27.7083 48.4859 27.625C48.4442 27.5417 48.3713 27.4688 48.2671 27.4062C48.1005 27.4688 47.9546 27.4583 47.8296 27.375C47.7046 27.2708 47.663 27.1354 47.7046 26.9688C47.9755 26.9062 48.1317 26.8542 48.1734 26.8125C48.1942 26.7708 48.2463 26.75 48.3296 26.75C48.413 26.7708 48.465 26.8021 48.4859 26.8438C48.5275 26.8854 48.5692 26.9271 48.6109 26.9688C48.965 26.9062 49.1942 26.8438 49.2984 26.7812C49.4025 26.6979 49.5067 26.6667 49.6109 26.6875C49.6942 26.6458 49.7984 26.5938 49.9234 26.5312C50.0484 26.4688 50.163 26.4896 50.2671 26.5938C50.3296 26.5521 50.3817 26.5208 50.4234 26.5C50.465 26.4583 50.538 26.4479 50.6421 26.4688C50.7046 26.5104 50.7359 26.5625 50.7359 26.625C50.7567 26.6667 50.788 26.7188 50.8296 26.7812C50.9338 26.7396 51.0484 26.7188 51.1734 26.7188C51.2984 26.7188 51.3817 26.6667 51.4234 26.5625C51.59 26.5208 51.7359 26.5104 51.8609 26.5312C52.1317 26.6979 52.3088 26.7604 52.3921 26.7188C52.4755 26.6562 52.5692 26.6042 52.6734 26.5625C52.84 26.6042 52.9755 26.5938 53.0796 26.5312C53.2046 26.4688 53.3296 26.4167 53.4546 26.375C53.538 26.4167 53.6005 26.4688 53.6421 26.5312C53.6838 26.5729 53.7255 26.6146 53.7671 26.6562C54.0171 26.6562 54.163 26.6562 54.2046 26.6562C54.2671 26.6354 54.3609 26.625 54.4859 26.625C54.5484 26.6667 54.6005 26.7083 54.6421 26.75C54.7046 26.7917 54.7671 26.8333 54.8296 26.875C54.9546 26.8333 55.0692 26.8229 55.1734 26.8438C55.2984 26.8229 55.4025 26.7917 55.4859 26.75C55.59 26.7083 55.7046 26.6771 55.8296 26.6562C56.0588 26.7188 56.2359 26.7396 56.3609 26.7188C56.5067 26.6979 56.6317 26.7083 56.7359 26.75C56.9859 26.6875 57.1213 26.6771 57.1421 26.7188C57.163 26.7604 57.1942 26.8021 57.2359 26.8438C57.4442 26.9896 57.6525 27.0625 57.8609 27.0625C58.0484 27.25 58.163 27.3646 58.2046 27.4062C58.2671 27.4479 58.3296 27.4896 58.3921 27.5312C58.5588 27.5312 58.6942 27.5833 58.7984 27.6875C58.8817 27.9792 59.0067 28.125 59.1734 28.125C59.3609 28.25 59.4859 28.4167 59.5484 28.625C59.6525 28.6667 59.715 28.7083 59.7359 28.75C59.7775 28.7917 59.8192 28.8542 59.8609 28.9375C59.9442 29.0833 59.9755 29.2083 59.9546 29.3125C59.9338 29.4167 59.9338 29.5104 59.9546 29.5938C60.0171 29.6979 60.09 29.7812 60.1734 29.8438C60.2567 29.9062 60.3192 29.9896 60.3609 30.0938C60.34 30.3438 60.3505 30.5 60.3921 30.5625C60.4338 30.6042 60.465 30.6771 60.4859 30.7812C60.59 30.9688 60.6421 31.1146 60.6421 31.2188C60.6213 31.4479 60.6213 31.625 60.6421 31.75C60.6838 31.8542 60.6734 31.9792 60.6109 32.125ZM57.5484 33C57.5692 32.7917 57.5692 32.6667 57.5484 32.625C57.5275 32.5833 57.5067 32.5312 57.4859 32.4688C57.4442 32.2396 57.4338 32.0521 57.4546 31.9062C57.413 31.8646 57.3921 31.8021 57.3921 31.7188C57.3921 31.6146 57.3713 31.5312 57.3296 31.4688C57.2463 31.3021 57.2046 31.125 57.2046 30.9375C57.2046 30.75 57.163 30.6042 57.0796 30.5C56.8296 30.4167 56.715 30.2604 56.7359 30.0312L56.3609 29.7812C56.2775 29.6979 56.2046 29.625 56.1421 29.5625C56.0796 29.4792 55.9963 29.4167 55.8921 29.375C55.8296 29.4167 55.7567 29.4583 55.6734 29.5C55.59 29.5417 55.4963 29.5521 55.3921 29.5312C55.1421 29.4688 54.9755 29.4375 54.8921 29.4375C54.8088 29.4375 54.715 29.4375 54.6109 29.4375C54.3609 29.5208 54.2255 29.5521 54.2046 29.5312C54.1838 29.4896 54.1525 29.4479 54.1109 29.4062C53.7984 29.3646 53.6109 29.375 53.5484 29.4375C53.5067 29.5 53.4338 29.5312 53.3296 29.5312C53.3713 29.6979 53.3713 29.8229 53.3296 29.9062C53.3088 29.9896 53.2775 30.0833 53.2359 30.1875C53.2359 30.2917 53.2567 30.3646 53.2984 30.4062C53.3609 30.4271 53.4025 30.4792 53.4234 30.5625C53.4442 30.7292 53.413 30.8542 53.3296 30.9375C53.2671 31 53.215 31.1042 53.1734 31.25C53.2775 31.4583 53.3192 31.5729 53.2984 31.5938C53.2984 31.5938 53.2984 31.6146 53.2984 31.6562C53.3609 31.7604 53.3817 31.8854 53.3609 32.0312C53.34 32.1562 53.3088 32.2812 53.2671 32.4062C53.3088 32.4896 53.3192 32.5833 53.2984 32.6875C53.2984 32.7708 53.2984 32.8646 53.2984 32.9688C53.3609 33.2812 53.3817 33.4792 53.3609 33.5625C53.3609 33.625 53.3609 33.7188 53.3609 33.8438C53.2359 33.9479 53.1734 34.1042 53.1734 34.3125C53.3192 34.5 53.3713 34.6042 53.3296 34.625C53.3088 34.625 53.288 34.6458 53.2671 34.6875C53.3088 34.75 53.3296 34.8229 53.3296 34.9062C53.3296 34.9688 53.3296 35.0208 53.3296 35.0625C53.3713 35.1042 53.413 35.125 53.4546 35.125C53.5171 35.1042 53.6005 35.0938 53.7046 35.0938C53.9755 35.0938 54.1942 35.0938 54.3609 35.0938C54.5275 35.0938 54.6942 35.1146 54.8609 35.1562C54.965 35.1354 55.0588 35.1042 55.1421 35.0625C55.2463 35 55.3609 34.9896 55.4859 35.0312C55.715 34.9479 55.8505 34.9167 55.8921 34.9375C55.9546 34.9583 56.0171 34.9583 56.0796 34.9375C56.2046 34.9167 56.2984 34.8646 56.3609 34.7812C56.4234 34.6979 56.4755 34.6146 56.5171 34.5312C56.7046 34.3229 56.8088 34.1979 56.8296 34.1562C56.8713 34.0938 56.9025 34.0208 56.9234 33.9375C56.9442 33.8542 56.9859 33.7917 57.0484 33.75C57.1317 33.5625 57.2046 33.4062 57.2671 33.2812C57.3296 33.1354 57.4234 33.0417 57.5484 33ZM73.8596 38.9688C73.9013 39.0729 73.9117 39.1667 73.8909 39.25C73.87 39.3125 73.8596 39.3958 73.8596 39.5C73.7346 39.6458 73.6721 39.7396 73.6721 39.7812C73.693 39.8021 73.6825 39.8438 73.6409 39.9062C73.7659 40.0729 73.7867 40.1667 73.7034 40.1875C73.6409 40.2083 73.5888 40.25 73.5471 40.3125C73.5055 40.3958 73.4638 40.4792 73.4221 40.5625C73.4013 40.625 73.37 40.7083 73.3284 40.8125C73.3075 40.9792 73.2763 41.0938 73.2346 41.1562C73.2138 41.1979 73.193 41.2708 73.1721 41.375C73.2346 41.6042 73.2138 41.7396 73.1096 41.7812C73.0263 41.8229 72.9534 41.8854 72.8909 41.9688C72.9117 42.3438 72.87 42.6458 72.7659 42.875C72.6825 43.1042 72.6617 43.3438 72.7034 43.5938C72.6617 43.6979 72.6096 43.7917 72.5471 43.875C72.5055 43.9583 72.4638 44.0521 72.4221 44.1562C72.3388 44.3854 72.3388 44.5625 72.4221 44.6875C72.443 44.7917 72.443 44.875 72.4221 44.9375C72.4013 44.9792 72.3805 45.0417 72.3596 45.125C72.2138 45.1667 72.0575 45.1875 71.8909 45.1875C71.745 45.1875 71.62 45.1354 71.5159 45.0312C71.4117 45.0729 71.2971 45.0833 71.1721 45.0625C71.068 45.0417 70.9638 45.0208 70.8596 45C70.5055 45.1042 70.318 45.0521 70.2971 44.8438C70.068 45.0312 69.8492 45.1042 69.6409 45.0625C69.4534 45.0417 69.3284 45.0625 69.2659 45.125C69.1617 45.1042 68.9742 45.0938 68.7034 45.0938C68.4534 45.1146 68.3075 45.0833 68.2659 45C68.1825 45.0208 68.12 45.0521 68.0784 45.0938C68.0575 45.1562 68.0055 45.2083 67.9221 45.25C67.818 45.2083 67.6617 45.1875 67.4534 45.1875C67.2659 45.2083 67.12 45.1979 67.0159 45.1562C66.9117 45.1979 66.7867 45.2292 66.6409 45.25C66.495 45.2708 66.4013 45.1979 66.3596 45.0312C66.2971 45.0729 66.2242 45.1146 66.1409 45.1562C66.0784 45.1979 66.0159 45.2396 65.9534 45.2812C65.8492 45.2604 65.7659 45.2708 65.7034 45.3125C65.6617 45.3542 65.5992 45.3646 65.5159 45.3438C65.4325 45.3438 65.3596 45.3021 65.2971 45.2188C65.2346 45.1562 65.1409 45.1354 65.0159 45.1562C64.8909 45.2188 64.7555 45.2292 64.6096 45.1875C64.4846 45.1458 64.3596 45.125 64.2346 45.125C63.943 45.2292 63.7763 45.2604 63.7346 45.2188C63.693 45.1979 63.6513 45.1667 63.6096 45.125C63.443 45.1042 63.3284 45.1042 63.2659 45.125C63.2242 45.1458 63.1513 45.1667 63.0471 45.1875C62.9638 45.1667 62.8909 45.1458 62.8284 45.125C62.7867 45.125 62.7346 45.125 62.6721 45.125C62.5263 45.1042 62.4221 45.1042 62.3596 45.125C62.318 45.1667 62.245 45.1771 62.1409 45.1562C61.995 44.9688 61.9013 44.875 61.8596 44.875C61.818 44.875 61.7971 44.8438 61.7971 44.7812C61.943 44.5729 62.068 44.4167 62.1721 44.3125C62.2971 44.2708 62.3909 44.2188 62.4534 44.1562C62.5159 44.0729 62.6305 44.0417 62.7971 44.0625C62.8596 44 62.8805 43.9479 62.8596 43.9062C62.8388 43.8438 62.818 43.7604 62.7971 43.6562C62.8596 43.6146 62.9013 43.5833 62.9221 43.5625C62.9638 43.5417 63.0263 43.5104 63.1096 43.4688C63.1513 43.4062 63.2138 43.3542 63.2971 43.3125C63.3805 43.25 63.443 43.1875 63.4846 43.125C63.443 43.0833 63.4013 43.0312 63.3596 42.9688C63.318 42.8854 63.318 42.8021 63.3596 42.7188C63.2763 42.5521 63.2555 42.4583 63.2971 42.4375C63.3596 42.3958 63.4013 42.3438 63.4221 42.2812C63.5055 42.2396 63.5471 42.1875 63.5471 42.125C63.568 42.0417 63.5992 41.9688 63.6409 41.9062C63.5784 41.6562 63.568 41.5312 63.6096 41.5312C63.6721 41.5104 63.7138 41.4792 63.7346 41.4375C63.7555 41.3333 63.745 41.2708 63.7034 41.25C63.6617 41.2083 63.62 41.1667 63.5784 41.125C63.5784 41.0208 63.5471 40.9479 63.4846 40.9062C63.4221 40.8438 63.37 40.7708 63.3284 40.6875C63.3284 40.2708 63.3805 39.9375 63.4846 39.6875C63.5888 39.4375 63.693 39.2188 63.7971 39.0312C63.7555 38.9479 63.7034 38.9062 63.6409 38.9062C63.5784 38.8854 63.5263 38.8438 63.4846 38.7812C63.4846 38.6771 63.495 38.6042 63.5159 38.5625C63.5367 38.5 63.568 38.4375 63.6096 38.375C63.6096 38.2083 63.5784 38.0729 63.5159 37.9688C63.4534 37.8646 63.443 37.6979 63.4846 37.4688C63.4013 37.2396 63.3805 37.1146 63.4221 37.0938C63.4638 37.0521 63.495 37.0104 63.5159 36.9688C63.5575 36.7188 63.568 36.5833 63.5471 36.5625C63.5263 36.5417 63.5159 36.5104 63.5159 36.4688C63.5992 36.3021 63.5992 36.1458 63.5159 36C63.4534 35.8542 63.443 35.6979 63.4846 35.5312C63.4221 35.3229 63.37 35.2083 63.3284 35.1875C63.3075 35.1667 63.3075 35.1354 63.3284 35.0938C63.3284 34.9896 63.3596 34.9167 63.4221 34.875C63.4846 34.8333 63.5367 34.7708 63.5784 34.6875C63.495 34.5625 63.4742 34.3646 63.5159 34.0938C63.3909 34.0521 63.2867 34 63.2034 33.9375C63.12 33.875 63.0888 33.7604 63.1096 33.5938C63.068 33.5312 63.0159 33.4792 62.9534 33.4375C62.9117 33.3958 62.8805 33.3333 62.8596 33.25C62.9013 33.0833 62.995 32.9688 63.1409 32.9062C63.2867 32.8229 63.4117 32.7083 63.5159 32.5625C63.4534 32.3958 63.4221 32.2396 63.4221 32.0938C63.4221 31.9479 63.4117 31.8021 63.3909 31.6562C63.4742 31.4479 63.495 31.3333 63.4534 31.3125C63.4325 31.2708 63.443 31.2188 63.4846 31.1562C63.5888 30.9896 63.6096 30.8958 63.5471 30.875C63.5055 30.8333 63.4638 30.7708 63.4221 30.6875C63.4638 30.6042 63.495 30.5417 63.5159 30.5C63.5367 30.4375 63.568 30.375 63.6096 30.3125C63.5055 30.0625 63.4534 29.875 63.4534 29.75C63.4534 29.6042 63.4325 29.4792 63.3909 29.375L63.2034 28.9688C63.1825 28.8646 63.1409 28.8021 63.0784 28.7812C63.0367 28.7604 62.995 28.7292 62.9534 28.6875C62.9742 28.5833 62.9534 28.5208 62.8909 28.5C62.8284 28.4792 62.7867 28.4167 62.7659 28.3125C62.745 28.1667 62.7138 28.0833 62.6721 28.0625C62.6305 28.0417 62.5992 28.0104 62.5784 27.9688C62.3909 27.7604 62.318 27.6458 62.3596 27.625C62.4013 27.5833 62.443 27.5417 62.4846 27.5C62.2555 27.4167 62.1305 27.3646 62.1096 27.3438C62.0888 27.3021 62.068 27.2604 62.0471 27.2188C61.7346 27.1979 61.5888 27.1354 61.6096 27.0312C61.6305 26.9062 61.6305 26.7917 61.6096 26.6875C61.693 26.6042 61.8075 26.5729 61.9534 26.5938C62.0992 26.6146 62.2242 26.5938 62.3284 26.5312C62.4534 26.5312 62.5575 26.5521 62.6409 26.5938C62.745 26.6354 62.87 26.6562 63.0159 26.6562C63.2242 26.5521 63.3596 26.5104 63.4221 26.5312C63.4846 26.5312 63.5471 26.5312 63.6096 26.5312C63.7138 26.4688 63.8284 26.4375 63.9534 26.4375C64.0784 26.4167 64.1721 26.4583 64.2346 26.5625C64.4846 26.4583 64.62 26.4167 64.6409 26.4375C64.6825 26.4583 64.7242 26.4792 64.7659 26.5C64.87 26.4583 64.9638 26.4375 65.0471 26.4375C65.1305 26.4167 65.2138 26.4271 65.2971 26.4688C65.4846 26.4479 65.6409 26.4167 65.7659 26.375C65.9117 26.3125 66.0888 26.2812 66.2971 26.2812C66.4638 26.4062 66.5784 26.4688 66.6409 26.4688C66.7242 26.4479 66.7867 26.4583 66.8284 26.5C66.8284 26.6042 66.8075 26.6771 66.7659 26.7188C66.745 26.7396 66.7555 26.7917 66.7971 26.875C66.7555 26.9792 66.7242 27.0625 66.7034 27.125C66.6825 27.1667 66.6513 27.2188 66.6096 27.2812C66.6513 27.5312 66.6825 27.6667 66.7034 27.6875C66.745 27.6875 66.7659 27.7083 66.7659 27.75C66.7867 27.875 66.7346 27.9792 66.6096 28.0625C66.6513 28.125 66.6825 28.1771 66.7034 28.2188C66.7242 28.2604 66.745 28.3229 66.7659 28.4062C66.7242 28.5104 66.693 28.6146 66.6721 28.7188C66.6721 28.8021 66.693 28.8958 66.7346 29C66.6721 29.2083 66.6305 29.3229 66.6096 29.3438C66.7138 29.6146 66.7555 29.7917 66.7346 29.875C66.6305 30.0417 66.5784 30.1771 66.5784 30.2812C66.5992 30.3854 66.6096 30.4896 66.6096 30.5938C66.7138 30.7812 66.7659 31.0521 66.7659 31.4062C66.8075 31.4688 66.8492 31.5208 66.8909 31.5625C66.9325 31.6042 66.9742 31.6562 67.0159 31.7188C67.0159 31.8438 66.9846 31.9375 66.9221 32C66.8805 32.0625 66.8492 32.1458 66.8284 32.25C66.6617 32.375 66.5784 32.4583 66.5784 32.5C66.5992 32.5417 66.6096 32.6042 66.6096 32.6875C66.693 32.9583 66.693 33.1354 66.6096 33.2188C66.5263 33.3021 66.5055 33.4167 66.5471 33.5625C66.7346 33.7292 66.8075 33.8229 66.7659 33.8438C66.745 33.8438 66.7242 33.8646 66.7034 33.9062C66.6825 34.1979 66.6721 34.4271 66.6721 34.5938C66.6721 34.7396 66.6721 34.9167 66.6721 35.125C67.0471 35.3333 67.2346 35.5104 67.2346 35.6562C67.2346 35.8021 67.1513 35.8854 66.9846 35.9062C66.818 35.9062 66.7138 35.9688 66.6721 36.0938C66.6721 36.1771 66.693 36.2396 66.7346 36.2812C66.7763 36.3229 66.8075 36.3854 66.8284 36.4688C66.8075 36.6146 66.7659 36.7292 66.7034 36.8125C66.8075 37.0833 66.8284 37.2917 66.7659 37.4375C66.8284 37.6042 66.8388 37.7604 66.7971 37.9062C66.7555 38.0312 66.7138 38.1667 66.6721 38.3125C66.7138 38.3958 66.7555 38.4688 66.7971 38.5312C66.8596 38.5729 66.9013 38.6458 66.9221 38.75C66.9221 38.8542 66.8909 38.9375 66.8284 39C66.7867 39.0417 66.745 39.0833 66.7034 39.125C66.7242 39.2083 66.7659 39.2604 66.8284 39.2812C66.8909 39.2812 66.943 39.3021 66.9846 39.3438C67.0055 39.4271 66.995 39.5 66.9534 39.5625C66.9117 39.6042 66.87 39.6458 66.8284 39.6875C66.7867 39.7292 66.7555 39.7812 66.7346 39.8438C66.7346 39.9062 66.7138 39.9583 66.6721 40C66.6513 40.125 66.6305 40.25 66.6096 40.375C66.6096 40.5 66.6409 40.6146 66.7034 40.7188C66.745 40.8646 66.745 41 66.7034 41.125C66.6825 41.2292 66.6617 41.3542 66.6409 41.5C66.7034 41.5417 66.7659 41.5729 66.8284 41.5938C66.9117 41.6146 66.9742 41.6667 67.0159 41.75C67.0367 41.8125 67.0471 41.8854 67.0471 41.9688C67.068 42.0521 67.0575 42.1354 67.0159 42.2188C67.1409 42.2604 67.2971 42.2604 67.4846 42.2188C67.693 42.1562 67.8596 42.1354 67.9846 42.1562C68.068 42.1979 68.1513 42.2292 68.2346 42.25C68.3388 42.2708 68.4117 42.3229 68.4534 42.4062C68.5575 42.3854 68.7034 42.3646 68.8909 42.3438C69.0992 42.3021 69.2555 42.2917 69.3596 42.3125C69.5471 42.4375 69.693 42.4792 69.7971 42.4375C69.9221 42.3958 70.0367 42.3854 70.1409 42.4062C70.245 42.3646 70.3284 42.3021 70.3909 42.2188C70.4534 42.1146 70.568 42.0625 70.7346 42.0625C70.7763 42.0208 70.818 41.9792 70.8596 41.9375C70.9013 41.875 70.9638 41.8438 71.0471 41.8438C71.0888 41.8021 71.12 41.75 71.1409 41.6875C71.1825 41.6042 71.2346 41.5417 71.2971 41.5C71.5055 41.4792 71.62 41.4375 71.6409 41.375C71.6617 41.2917 71.693 41.2292 71.7346 41.1875C71.818 41.1667 71.87 41.1354 71.8909 41.0938C71.9325 41.0521 71.9846 41.0104 72.0471 40.9688C72.2555 40.9896 72.3492 40.9375 72.3284 40.8125C72.3284 40.6875 72.3492 40.5833 72.3909 40.5C72.4534 40.4375 72.5367 40.3854 72.6409 40.3438C72.745 40.2812 72.8388 40.2083 72.9221 40.125C72.9221 40.0625 72.9013 40.0104 72.8596 39.9688C72.8388 39.9062 72.8492 39.8438 72.8909 39.7812C72.9742 39.7604 73.0784 39.6875 73.2034 39.5625C73.3492 39.3542 73.4325 39.2396 73.4534 39.2188C73.495 39.1979 73.5367 39.1667 73.5784 39.125L73.8596 38.9688ZM88.5771 35.4375C88.5771 35.6042 88.5459 35.7292 88.4834 35.8125C88.4209 35.8958 88.3896 36.0208 88.3896 36.1875C88.3271 36.4375 88.2855 36.5938 88.2646 36.6562C88.2646 36.6979 88.2646 36.7604 88.2646 36.8438C88.2855 36.9062 88.3167 36.9792 88.3584 37.0625C88.4 37.1458 88.4 37.2396 88.3584 37.3438C88.1709 37.6146 88.0771 37.8542 88.0771 38.0625C88.0771 38.2708 88.0459 38.4688 87.9834 38.6562C88.0042 38.7188 88.0355 38.7708 88.0771 38.8125C88.1188 38.8333 88.15 38.8854 88.1709 38.9688C88.15 39.1771 88.0771 39.3229 87.9521 39.4062C87.8271 39.4896 87.7125 39.5833 87.6084 39.6875C87.6917 39.9167 87.6813 40.1146 87.5771 40.2812C87.598 40.5104 87.598 40.7292 87.5771 40.9375C87.5563 41.125 87.4625 41.25 87.2959 41.3125C87.2542 41.3958 87.223 41.4896 87.2021 41.5938C87.1813 41.6979 87.15 41.7917 87.1084 41.875C86.8584 42.125 86.65 42.2917 86.4834 42.375C86.5042 42.5417 86.473 42.6667 86.3896 42.75C86.3271 42.8125 86.2438 42.875 86.1396 42.9375C86.0771 43.1042 86.0042 43.25 85.9209 43.375C85.6709 43.4583 85.5355 43.5312 85.5146 43.5938C85.4938 43.6354 85.4625 43.6771 85.4209 43.7188C85.3584 43.8021 85.2959 43.875 85.2334 43.9375C85.1709 44 85.1396 44.0938 85.1396 44.2188C84.9938 44.3438 84.9 44.4167 84.8584 44.4375C84.8375 44.4583 84.8063 44.4583 84.7646 44.4375C84.6605 44.5417 84.5771 44.6562 84.5146 44.7812C84.473 44.8854 84.4105 44.9896 84.3271 45.0938C84.223 45.1562 84.1084 45.1667 83.9834 45.125C83.8792 45.1042 83.775 45.1146 83.6709 45.1562C83.5042 45.1562 83.4 45.1667 83.3584 45.1875C83.3167 45.2083 83.275 45.2292 83.2334 45.25C83.0667 45.1667 82.9209 45.1562 82.7959 45.2188C82.6709 45.3021 82.5355 45.3542 82.3896 45.375C82.098 45.5417 81.9 45.5833 81.7959 45.5C81.6917 45.4167 81.5875 45.3333 81.4834 45.25C81.3375 45.2917 81.2334 45.3542 81.1709 45.4375C81.1292 45.5417 81.025 45.5833 80.8584 45.5625C80.775 45.5208 80.7125 45.4583 80.6709 45.375C80.65 45.3125 80.6084 45.2604 80.5459 45.2188C80.4625 45.2812 80.3584 45.2917 80.2334 45.25C80.1084 45.2292 80.025 45.1667 79.9834 45.0625C79.8167 45.1042 79.6709 45.0833 79.5459 45C79.4417 44.9375 79.3375 44.8854 79.2334 44.8438C79.1292 44.8854 79.0459 44.8854 78.9834 44.8438C78.9209 44.8021 78.8375 44.7708 78.7334 44.75C78.6292 44.7292 78.5563 44.75 78.5146 44.8125C78.473 44.8542 78.4 44.8646 78.2959 44.8438C78.2125 44.7812 78.1709 44.6562 78.1709 44.4688C78.1292 44.3854 78.0667 44.3229 77.9834 44.2812C77.9209 44.2188 77.8584 44.1667 77.7959 44.125C77.7542 43.9583 77.6813 43.8229 77.5771 43.7188C77.473 43.6146 77.3896 43.4792 77.3271 43.3125C77.098 43.1458 76.9521 43.0417 76.8896 43C76.8271 42.9375 76.7855 42.8646 76.7646 42.7812C76.6188 42.6354 76.4417 42.5104 76.2334 42.4062C76.0459 42.3021 75.9 42.1667 75.7959 42C75.8584 41.7917 75.9105 41.6146 75.9521 41.4688C75.7646 41.0521 75.6292 40.7396 75.5459 40.5312C75.5875 40.3438 75.5771 40.1875 75.5146 40.0625C75.4521 39.9375 75.3688 39.8229 75.2646 39.7188C75.2855 39.6146 75.2855 39.5208 75.2646 39.4375C75.2646 39.3333 75.2855 39.2188 75.3271 39.0938C75.3063 39.0104 75.275 38.9479 75.2334 38.9062C75.2125 38.8646 75.1917 38.8125 75.1709 38.75C75.1292 38.5417 75.0771 38.4062 75.0146 38.3438C74.973 38.2812 74.9313 38.1979 74.8896 38.0938C74.8896 37.9896 74.8792 37.9062 74.8584 37.8438C74.8584 37.7604 74.8792 37.6667 74.9209 37.5625C74.8792 37.4583 74.848 37.3646 74.8271 37.2812C74.8271 37.1771 74.8063 37.0729 74.7646 36.9688C74.8271 36.6771 74.8167 36.4062 74.7334 36.1562C74.65 35.9062 74.6605 35.6458 74.7646 35.375C74.9105 35.0833 74.9625 34.8125 74.9209 34.5625C74.9 34.2917 74.8792 34.0417 74.8584 33.8125C74.9834 33.5 75.0355 33.25 75.0146 33.0625C74.9938 32.875 75.0042 32.6875 75.0459 32.5C75.0875 32.375 75.1292 32.2604 75.1709 32.1562C75.2334 32.0312 75.2959 31.9167 75.3584 31.8125C75.3375 31.7292 75.3271 31.6667 75.3271 31.625C75.348 31.5625 75.3584 31.4792 75.3584 31.375C75.5459 31.1042 75.6709 30.8021 75.7334 30.4688C75.8167 30.1146 75.9417 29.8125 76.1084 29.5625C76.3375 29.2708 76.5146 29.0521 76.6396 28.9062C76.7646 28.7396 76.8896 28.5729 77.0146 28.4062C77.1813 28.3021 77.275 28.2083 77.2959 28.125C77.3167 28.0208 77.3584 27.9271 77.4209 27.8438C77.525 27.8021 77.5875 27.7396 77.6084 27.6562C77.65 27.5729 77.723 27.5104 77.8271 27.4688C77.848 27.3646 77.9105 27.2604 78.0146 27.1562L78.3896 27.0625C78.4521 26.9375 78.5042 26.8229 78.5459 26.7188C78.6084 26.6146 78.7021 26.5417 78.8271 26.5C79.1188 26.5208 79.2959 26.4792 79.3584 26.375C79.4417 26.25 79.5875 26.2083 79.7959 26.25C79.9 26.2083 79.9834 26.125 80.0459 26C80.1084 25.8542 80.223 25.8021 80.3896 25.8438C80.5355 26.0729 80.6396 26.1771 80.7021 26.1562C80.7855 26.1146 80.848 26.0729 80.8896 26.0312C80.9521 26.0312 81.0146 26.0312 81.0771 26.0312C81.1396 26.0104 81.2125 26 81.2959 26C81.3792 25.9792 81.4313 25.9583 81.4521 25.9375C81.4938 25.9167 81.5563 25.9167 81.6396 25.9375C81.7438 25.9792 81.8063 26.0312 81.8271 26.0938C81.848 26.1562 81.8896 26.2083 81.9521 26.25C82.0563 26.2708 82.1396 26.2083 82.2021 26.0625C82.2855 25.9167 82.3792 25.8542 82.4834 25.875C82.7334 26.0208 82.9313 26.1146 83.0771 26.1562C83.223 26.1771 83.3271 26.2396 83.3896 26.3438C83.5771 26.3021 83.6709 26.2917 83.6709 26.3125C83.6917 26.3333 83.723 26.3542 83.7646 26.375C84.0355 26.5833 84.2646 26.7188 84.4521 26.7812C84.6605 26.8229 84.7959 26.9375 84.8584 27.125C84.9625 27.1667 85.0667 27.2083 85.1709 27.25C85.275 27.2708 85.3688 27.3125 85.4521 27.375C85.5355 27.625 85.6084 27.75 85.6709 27.75C85.7542 27.75 85.8271 27.7708 85.8896 27.8125C85.9313 27.9375 85.9938 28.0417 86.0771 28.125C86.1605 28.2083 86.223 28.3229 86.2646 28.4688C86.4313 28.7396 86.5875 28.9167 86.7334 29C86.7334 29.1458 86.7646 29.2604 86.8271 29.3438C86.9105 29.4062 86.9417 29.5208 86.9209 29.6875C86.9625 29.8333 87.0355 29.9479 87.1396 30.0312C87.2438 30.0938 87.348 30.1771 87.4521 30.2812C87.6188 30.2812 87.7125 30.2917 87.7334 30.3125C87.7542 30.3125 87.7855 30.3333 87.8271 30.375C87.723 30.75 87.7125 31.1146 87.7959 31.4688C87.9 31.8021 87.9417 32.1667 87.9209 32.5625C87.9417 32.625 87.973 32.6667 88.0146 32.6875C88.0771 32.7083 88.1292 32.75 88.1709 32.8125C88.1292 33.0417 88.1605 33.2292 88.2646 33.375C88.2646 33.5 88.2646 33.6354 88.2646 33.7812C88.2646 33.9062 88.2855 34.0208 88.3271 34.125C88.4938 34.375 88.5563 34.5521 88.5146 34.6562C88.473 34.7396 88.4313 34.8333 88.3896 34.9375C88.4313 35.1667 88.4625 35.3021 88.4834 35.3438C88.525 35.3646 88.5563 35.3958 88.5771 35.4375ZM84.8271 36.75C84.9313 36.5208 84.9625 36.3854 84.9209 36.3438C84.9 36.2812 84.8896 36.2188 84.8896 36.1562C84.9313 36.0312 84.9625 35.9167 84.9834 35.8125C85.025 35.6875 85.0146 35.5625 84.9521 35.4375C84.9313 35.1458 84.9209 34.9375 84.9209 34.8125C84.8167 34.6875 84.7334 34.5417 84.6709 34.375C84.6292 34.2083 84.6188 34.0104 84.6396 33.7812C84.6813 33.6562 84.7021 33.5312 84.7021 33.4062C84.723 33.2812 84.7542 33.1667 84.7959 33.0625C84.4834 32.8333 84.3063 32.6354 84.2646 32.4688C84.2438 32.3021 84.2125 32.1354 84.1709 31.9688C84.1292 31.6979 84.0771 31.5104 84.0146 31.4062C83.973 31.2812 83.9521 31.1354 83.9521 30.9688C83.848 30.7188 83.775 30.5521 83.7334 30.4688C83.5042 30.2604 83.3792 30.125 83.3584 30.0625C83.3584 30 83.3375 29.9271 83.2959 29.8438C83.2542 29.7812 83.2125 29.7292 83.1709 29.6875C83.1292 29.625 83.0875 29.5625 83.0459 29.5C82.8584 29.3333 82.7334 29.2083 82.6709 29.125C82.6084 29.0208 82.5146 28.9479 82.3896 28.9062C82.0563 28.8646 81.848 28.8229 81.7646 28.7812C81.5771 28.8229 81.473 28.8542 81.4521 28.875C81.4313 28.8958 81.3792 28.9062 81.2959 28.9062H80.8271C80.6813 29.0729 80.5771 29.1458 80.5146 29.125C80.473 29.1042 80.4313 29.0833 80.3896 29.0625C80.3271 29.125 80.3063 29.1979 80.3271 29.2812C80.348 29.3438 80.3688 29.4062 80.3896 29.4688C80.2646 29.5312 80.1813 29.5521 80.1396 29.5312C80.1188 29.5104 80.0771 29.5 80.0146 29.5C79.8688 29.7083 79.7646 29.875 79.7021 30C79.6396 30.3125 79.5355 30.5208 79.3896 30.625C79.2646 30.7083 79.1813 30.8438 79.1396 31.0312C79.1813 31.1979 79.15 31.3438 79.0459 31.4688C78.9625 31.5729 78.8792 31.6771 78.7959 31.7812C78.8792 32.0729 78.8584 32.3229 78.7334 32.5312C78.6292 32.7396 78.525 32.9062 78.4209 33.0312C78.4417 33.2812 78.4209 33.4479 78.3584 33.5312C78.3167 33.5938 78.2646 33.6771 78.2021 33.7812C78.1605 33.8854 78.1709 33.9688 78.2334 34.0312C78.2959 34.0938 78.3375 34.1667 78.3584 34.25C78.3375 34.3542 78.2959 34.4375 78.2334 34.5C78.1917 34.5417 78.1605 34.6146 78.1396 34.7188C78.1605 34.7812 78.1813 34.8438 78.2021 34.9062C78.2438 34.9688 78.2646 35.0417 78.2646 35.125C78.2646 35.2292 78.2438 35.3125 78.2021 35.375C78.1605 35.4167 78.1292 35.4792 78.1084 35.5625C78.15 35.6458 78.2021 35.7188 78.2646 35.7812C78.348 35.8229 78.3896 35.8958 78.3896 36C78.3063 36.2917 78.2646 36.5104 78.2646 36.6562C78.2855 36.7812 78.2959 36.9271 78.2959 37.0938C78.3792 37.4062 78.4 37.625 78.3584 37.75C78.3375 37.875 78.3063 37.9896 78.2646 38.0938C78.2855 38.1979 78.3167 38.2812 78.3584 38.3438C78.4209 38.4062 78.473 38.4896 78.5146 38.5938C78.4938 38.6979 78.4834 38.7917 78.4834 38.875C78.5042 38.9375 78.5146 39.0312 78.5146 39.1562C78.6188 39.3021 78.6917 39.3958 78.7334 39.4375C78.7959 39.4583 78.8375 39.5104 78.8584 39.5938C78.8584 39.6771 78.8584 39.7604 78.8584 39.8438C78.8584 39.9271 78.8688 39.9896 78.8896 40.0312C79.1605 40.0729 79.275 40.25 79.2334 40.5625C79.2959 40.6458 79.348 40.7292 79.3896 40.8125C79.4521 40.875 79.4938 40.9688 79.5146 41.0938C79.6605 41.1146 79.7438 41.1979 79.7646 41.3438C79.8063 41.4896 79.8167 41.6354 79.7959 41.7812C79.8584 41.8229 79.9209 41.875 79.9834 41.9375C80.0667 41.9792 80.1605 41.9792 80.2646 41.9375C80.3688 41.9792 80.4417 42.0521 80.4834 42.1562C80.525 42.2604 80.5771 42.3542 80.6396 42.4375C80.7646 42.4167 80.8792 42.3854 80.9834 42.3438C81.1084 42.3021 81.223 42.3125 81.3271 42.375C81.598 42.3125 81.7542 42.3125 81.7959 42.375C81.8375 42.4167 81.9 42.4479 81.9834 42.4688C82.0667 42.4479 82.1188 42.4167 82.1396 42.375C82.1813 42.3125 82.2334 42.2604 82.2959 42.2188C82.5042 42.2188 82.65 42.1875 82.7334 42.125C82.9209 42.0625 83.0355 41.9688 83.0771 41.8438C83.2021 41.6771 83.275 41.5729 83.2959 41.5312C83.3375 41.4896 83.3792 41.4479 83.4209 41.4062C83.4625 41.3021 83.5042 41.2188 83.5459 41.1562C83.6084 41.0938 83.6709 41.0312 83.7334 40.9688C83.9417 40.7812 84.025 40.6146 83.9834 40.4688C83.9625 40.3021 84.0042 40.1667 84.1084 40.0625C84.275 39.7083 84.3896 39.4792 84.4521 39.375C84.4313 39.2917 84.4313 39.2083 84.4521 39.125C84.473 39.0417 84.4834 38.9479 84.4834 38.8438C84.6084 38.5729 84.6917 38.375 84.7334 38.25C84.7959 38.1042 84.848 37.9479 84.8896 37.7812C84.848 37.6562 84.8063 37.5208 84.7646 37.375C84.723 37.2292 84.7438 37.0938 84.8271 36.9688V36.75ZM106.607 48.7188L106.107 48.8438C106.065 48.7188 106.024 48.6354 105.982 48.5938C105.94 48.5729 105.888 48.5625 105.826 48.5625C105.784 48.4792 105.732 48.4167 105.67 48.375C105.607 48.3542 105.545 48.3125 105.482 48.25C105.357 48.0833 105.253 48 105.17 48C105.086 48 105.003 48 104.92 48C104.711 47.8958 104.545 47.8646 104.42 47.9062C104.253 47.8854 104.17 47.7812 104.17 47.5938C104.17 47.4062 104.149 47.2396 104.107 47.0938C103.899 47.2604 103.774 47.3542 103.732 47.375C103.711 47.4167 103.67 47.4375 103.607 47.4375C103.44 47.375 103.305 47.2812 103.201 47.1562C103.118 47.0521 103.013 46.9479 102.888 46.8438C102.618 46.8646 102.461 46.8542 102.42 46.8125C102.378 46.7708 102.326 46.7188 102.263 46.6562C102.159 46.3229 102.107 46.0521 102.107 45.8438C102.003 45.8229 101.909 45.8542 101.826 45.9375C101.763 46.0208 101.68 46.0729 101.576 46.0938C101.472 46.0938 101.388 46.0625 101.326 46C101.284 45.9583 101.232 45.9062 101.17 45.8438C101.211 45.6562 101.17 45.5312 101.045 45.4688C100.94 45.4271 100.805 45.4271 100.638 45.4688C100.534 45.3854 100.482 45.3021 100.482 45.2188C100.482 45.1562 100.461 45.1042 100.42 45.0625C100.378 45.0417 100.326 45.0417 100.263 45.0625C100.201 45.1042 100.138 45.1146 100.076 45.0938C99.8675 45.1146 99.753 45.125 99.7321 45.125C99.7321 45.125 99.7217 45.1146 99.7009 45.0938C99.6592 44.9896 99.6696 44.8958 99.7321 44.8125C99.8155 44.7083 99.8259 44.5938 99.7634 44.4688C99.68 44.3438 99.6175 44.2812 99.5759 44.2812C99.555 44.2604 99.5342 44.2292 99.5134 44.1875C99.5134 44.1042 99.5238 44.0417 99.5446 44C99.5655 43.9375 99.555 43.875 99.5134 43.8125C99.3675 43.6458 99.2842 43.5417 99.2634 43.5C99.2634 43.4375 99.2738 43.375 99.2946 43.3125C99.2321 43.1875 99.2009 43.0417 99.2009 42.875C99.1384 42.7708 99.055 42.6979 98.9509 42.6562C98.8467 42.5938 98.805 42.4688 98.8259 42.2812C98.7425 41.7604 98.6175 41.375 98.4509 41.125C98.2842 40.9583 98.1696 40.8333 98.1071 40.75C98.0446 40.6458 98.0446 40.5417 98.1071 40.4375C98.0238 40.2292 97.9613 40.0938 97.9196 40.0312C97.8988 39.9688 97.878 39.8958 97.8571 39.8125C97.753 39.5625 97.68 39.4062 97.6384 39.3438C97.5967 39.2604 97.555 39.1771 97.5134 39.0938C97.4717 38.8646 97.4092 38.7292 97.3259 38.6875C97.2425 38.6458 97.1592 38.5833 97.0759 38.5C97.1175 38.0833 97.0238 37.7812 96.7946 37.5938C96.6488 37.6354 96.5342 37.6354 96.4509 37.5938C96.0759 37.7188 95.8571 37.7188 95.7946 37.5938C95.7321 37.4688 95.6488 37.375 95.5446 37.3125C95.4821 37.3542 95.43 37.3958 95.3884 37.4375C95.3675 37.4792 95.3155 37.5 95.2321 37.5C95.2113 37.6667 95.2321 37.8125 95.2946 37.9375C95.3571 38.0417 95.3259 38.1458 95.2009 38.25C95.18 38.3333 95.1696 38.4062 95.1696 38.4688C95.1696 38.5312 95.1592 38.6042 95.1384 38.6875C95.18 38.7917 95.2217 38.8958 95.2634 39C95.305 39.1042 95.3467 39.2083 95.3884 39.3125C95.3675 39.4583 95.3467 39.6042 95.3259 39.75C95.305 39.875 95.3155 40 95.3571 40.125C95.3155 40.2917 95.2842 40.4479 95.2634 40.5938C95.2425 40.7188 95.2113 40.8646 95.1696 41.0312C95.1696 41.1354 95.18 41.2396 95.2009 41.3438C95.2425 41.4271 95.2842 41.5208 95.3259 41.625C95.305 41.7292 95.2946 41.8125 95.2946 41.875C95.2946 41.9167 95.2842 41.9688 95.2634 42.0312C95.2842 42.1354 95.305 42.2396 95.3259 42.3438C95.3675 42.4271 95.378 42.5208 95.3571 42.625C95.2946 42.6667 95.2321 42.7083 95.1696 42.75C95.128 42.7708 95.0863 42.8125 95.0446 42.875C95.003 43.0625 95.0134 43.2083 95.0759 43.3125C95.1592 43.3958 95.1905 43.5 95.1696 43.625C95.0863 43.8125 95.0655 43.9479 95.1071 44.0312C95.1696 44.0938 95.2217 44.1771 95.2634 44.2812C95.18 44.5312 95.1488 44.6875 95.1696 44.75C95.2113 44.7917 95.253 44.8333 95.2946 44.875C95.3363 44.9167 95.3884 44.9479 95.4509 44.9688C95.5342 44.9896 95.5759 45.0417 95.5759 45.125C95.555 45.25 95.4613 45.3021 95.2946 45.2812C95.1488 45.2812 95.055 45.25 95.0134 45.1875C94.68 45.1875 94.4509 45.1875 94.3259 45.1875C94.2634 45.1458 94.2217 45.0938 94.2009 45.0312C94.18 44.9896 94.1384 44.9583 94.0759 44.9375C93.9717 44.9583 93.8988 44.9896 93.8571 45.0312C93.8363 45.0938 93.7738 45.125 93.6696 45.125C93.6071 45.125 93.5446 45.1042 93.4821 45.0625C93.4196 45.0208 93.3363 45.0104 93.2321 45.0312C93.128 45.0729 93.0342 45.1146 92.9509 45.1562C92.8884 45.2188 92.7946 45.2292 92.6696 45.1875C92.3988 45.25 92.2425 45.25 92.2009 45.1875C92.18 45.1458 92.1384 45.1042 92.0759 45.0625C92.0342 45.1042 91.9821 45.1562 91.9196 45.2188C91.878 45.2812 91.8155 45.3333 91.7321 45.375C91.5446 45.375 91.43 45.2917 91.3884 45.125C91.305 45.1458 91.2113 45.1458 91.1071 45.125C91.003 45.125 90.9196 45.1354 90.8571 45.1562C90.4405 44.9479 90.1592 44.7917 90.0134 44.6875C90.1592 44.5 90.2634 44.375 90.3259 44.3125C90.4092 44.2292 90.503 44.1979 90.6071 44.2188C90.7946 44.2812 90.8988 44.3021 90.9196 44.2812C90.9405 44.2396 90.9717 44.1979 91.0134 44.1562C91.1175 44.1146 91.2009 44.0729 91.2634 44.0312C91.3467 43.9688 91.43 43.9167 91.5134 43.875C91.4925 43.75 91.5134 43.6562 91.5759 43.5938C91.6592 43.5104 91.6696 43.4167 91.6071 43.3125C91.6696 43.2083 91.7217 43.0938 91.7634 42.9688C91.8259 42.8229 91.9092 42.6979 92.0134 42.5938C91.9509 42.4271 91.9092 42.25 91.8884 42.0625C91.9925 41.9583 92.055 41.8125 92.0759 41.625C92.0759 41.5625 92.0655 41.5 92.0446 41.4375C92.0238 41.3542 92.0342 41.2812 92.0759 41.2188C92.0342 41.1562 91.9925 41.0833 91.9509 41C91.93 40.8958 91.8884 40.8125 91.8259 40.75C91.8259 40.625 91.8259 40.4896 91.8259 40.3438C91.8467 40.1771 91.878 40.0208 91.9196 39.875C92.0238 39.7083 92.055 39.6146 92.0134 39.5938C91.9925 39.5521 91.9613 39.5104 91.9196 39.4688C91.8363 39.3021 91.7842 39.1354 91.7634 38.9688C91.7634 38.8021 91.753 38.6354 91.7321 38.4688C91.8363 38.1562 91.8988 37.8438 91.9196 37.5312C91.9405 37.1979 91.9509 36.8542 91.9509 36.5C91.8467 36.25 91.805 36.0938 91.8259 36.0312C91.8675 35.9479 91.8675 35.8646 91.8259 35.7812C91.805 35.6146 91.7946 35.5208 91.7946 35.5C91.8155 35.4792 91.8259 35.4479 91.8259 35.4062C91.805 35.2396 91.7842 35.0521 91.7634 34.8438C91.7425 34.6354 91.7634 34.4375 91.8259 34.25C91.93 33.9583 91.9405 33.7396 91.8571 33.5938C91.7946 33.4479 91.7425 33.3021 91.7009 33.1562C91.7425 32.9479 91.7425 32.7188 91.7009 32.4688C91.68 32.2188 91.6696 31.9792 91.6696 31.75C91.6905 31.5417 91.6905 31.3958 91.6696 31.3125C91.6696 31.2292 91.6905 31.1458 91.7321 31.0625C91.6905 30.9375 91.6592 30.8125 91.6384 30.6875C91.6384 30.5417 91.6071 30.4167 91.5446 30.3125C91.5863 30.1667 91.5863 30.0417 91.5446 29.9375C91.5238 29.8125 91.5238 29.6667 91.5446 29.5C91.4613 29.1875 91.378 29 91.2946 28.9375C91.2321 28.875 91.2113 28.7604 91.2321 28.5938C91.128 28.3854 91.0863 28.2708 91.1071 28.25C91.128 28.2083 91.1488 28.1667 91.1696 28.125C91.0863 27.9583 91.0342 27.8333 91.0134 27.75C91.0134 27.6042 90.9717 27.4896 90.8884 27.4062C90.68 27.3646 90.555 27.3229 90.5134 27.2812C90.4925 27.2396 90.4613 27.1979 90.4196 27.1562C90.3363 27.0938 90.253 27.0521 90.1696 27.0312C90.1071 27.0104 90.0863 26.9375 90.1071 26.8125C90.3363 26.7917 90.4717 26.7708 90.5134 26.75C90.5759 26.7083 90.6384 26.6771 90.7009 26.6562C90.7842 26.6979 90.8467 26.7083 90.8884 26.6875C90.9509 26.6667 91.0342 26.6458 91.1384 26.625C91.4509 26.6875 91.6488 26.6979 91.7321 26.6562C91.8155 26.6146 91.9196 26.5938 92.0446 26.5938C92.2738 26.7188 92.4509 26.7812 92.5759 26.7812C92.7842 26.6146 92.9092 26.5208 92.9509 26.5C93.0134 26.4792 93.0759 26.4479 93.1384 26.4062C93.3675 26.4271 93.4821 26.4792 93.4821 26.5625C93.503 26.6458 93.503 26.7396 93.4821 26.8438C93.5863 26.8646 93.6696 26.8542 93.7321 26.8125C93.7946 26.75 93.8571 26.6875 93.9196 26.625C93.9821 26.5625 94.0446 26.5104 94.1071 26.4688C94.1696 26.4271 94.2634 26.4167 94.3884 26.4375C94.43 26.4792 94.4509 26.5312 94.4509 26.5938C94.4717 26.6562 94.503 26.7292 94.5446 26.8125C94.8155 26.7083 94.9717 26.6875 95.0134 26.75C95.0759 26.7917 95.1592 26.8229 95.2634 26.8438C95.3675 26.8229 95.43 26.7812 95.4509 26.7188C95.4717 26.6562 95.5238 26.6042 95.6071 26.5625C95.8363 26.625 95.9821 26.6458 96.0446 26.625C96.1071 26.5833 96.1905 26.5521 96.2946 26.5312C96.378 26.5521 96.43 26.5729 96.4509 26.5938C96.4925 26.5938 96.555 26.5833 96.6384 26.5625C96.7634 26.625 96.878 26.7083 96.9821 26.8125C97.128 26.7708 97.253 26.7083 97.3571 26.625C97.4613 26.5417 97.6071 26.5104 97.7946 26.5312C98.0238 26.6146 98.18 26.6354 98.2634 26.5938C98.3467 26.5521 98.4717 26.5521 98.6384 26.5938C98.9092 26.6562 99.0759 26.6667 99.1384 26.625C99.3884 26.75 99.5655 26.8333 99.6696 26.875C99.7738 26.9167 99.8675 26.9792 99.9509 27.0625C100.118 27.2708 100.201 27.3958 100.201 27.4375C100.222 27.4583 100.243 27.4896 100.263 27.5312C100.409 27.5104 100.503 27.5417 100.545 27.625C100.607 27.6875 100.659 27.7708 100.701 27.875C100.743 27.9167 100.795 27.9583 100.857 28C100.92 28.0417 100.972 28.0938 101.013 28.1562C101.138 28.3646 101.274 28.4896 101.42 28.5312C101.565 28.5521 101.69 28.6042 101.795 28.6875C101.836 28.8542 101.94 29 102.107 29.125C102.149 29.25 102.201 29.375 102.263 29.5C102.326 29.6042 102.388 29.7083 102.451 29.8125C102.451 29.9167 102.44 30 102.42 30.0625C102.399 30.1042 102.388 30.1562 102.388 30.2188C102.576 30.5312 102.701 30.7604 102.763 30.9062C102.763 31.1146 102.732 31.2604 102.67 31.3438C102.67 31.4688 102.67 31.5833 102.67 31.6875C102.69 31.7708 102.68 31.8646 102.638 31.9688C102.638 32.2604 102.586 32.4583 102.482 32.5625C102.461 32.8333 102.461 33.0104 102.482 33.0938C102.524 33.1771 102.565 33.25 102.607 33.3125C102.503 33.6042 102.42 33.75 102.357 33.75C102.315 33.9167 102.232 34.0312 102.107 34.0938C102.107 34.1562 102.097 34.2188 102.076 34.2812C102.055 34.3229 102.055 34.3854 102.076 34.4688C102.034 34.5104 101.993 34.5521 101.951 34.5938C101.909 34.6354 101.878 34.6979 101.857 34.7812C101.795 34.8229 101.732 34.875 101.67 34.9375C101.607 34.9792 101.545 35.0312 101.482 35.0938C101.482 35.2396 101.44 35.3542 101.357 35.4375C101.295 35.5 101.232 35.5833 101.17 35.6875C101.003 35.7917 100.888 35.875 100.826 35.9375C100.763 36 100.711 36.0833 100.67 36.1875L100.545 36.5312C100.482 36.6354 100.388 36.7396 100.263 36.8438C100.097 36.8438 99.9717 36.875 99.8884 36.9375C99.8259 37.125 99.8155 37.2188 99.8571 37.2188C99.9196 37.2188 99.9613 37.2396 99.9821 37.2812C99.9613 37.3854 99.9717 37.5 100.013 37.625C100.284 37.75 100.409 37.8958 100.388 38.0625C100.368 38.2083 100.357 38.3333 100.357 38.4375C100.399 38.4792 100.451 38.5104 100.513 38.5312C100.597 38.5521 100.659 38.5833 100.701 38.625C100.805 38.8958 100.888 39.0521 100.951 39.0938C101.013 39.1146 101.076 39.1458 101.138 39.1875C101.159 39.2917 101.159 39.3854 101.138 39.4688C101.118 39.5521 101.097 39.6354 101.076 39.7188C101.076 39.8021 101.118 39.8542 101.201 39.875C101.305 39.8958 101.378 39.9271 101.42 39.9688C101.461 40.0312 101.482 40.125 101.482 40.25C101.503 40.3542 101.503 40.4583 101.482 40.5625C101.545 40.6667 101.607 40.7708 101.67 40.875C101.732 40.9792 101.795 41.0833 101.857 41.1875C102.003 41.3125 102.107 41.5 102.17 41.75C102.315 42.2083 102.399 42.6354 102.42 43.0312C102.628 43.1771 102.847 43.2604 103.076 43.2812C103.118 43.3854 103.149 43.4896 103.17 43.5938C103.211 43.6771 103.222 43.7917 103.201 43.9375C103.284 44 103.357 44.0625 103.42 44.125C103.503 44.1667 103.565 44.2188 103.607 44.2812C103.649 44.3854 103.69 44.4688 103.732 44.5312C103.774 44.5729 103.805 44.6354 103.826 44.7188C103.93 44.8229 104.013 44.9271 104.076 45.0312C104.138 45.1562 104.19 45.2708 104.232 45.375C104.232 45.4583 104.232 45.5417 104.232 45.625C104.232 45.7083 104.253 45.7708 104.295 45.8125C104.336 45.8542 104.378 45.8854 104.42 45.9062C104.482 45.9479 104.534 45.9896 104.576 46.0312C104.618 46.2396 104.68 46.4167 104.763 46.5625C104.93 46.6667 105.107 46.8646 105.295 47.1562C105.67 47.3021 105.868 47.4896 105.888 47.7188C105.909 47.9688 105.993 48.1667 106.138 48.3125C106.243 48.3125 106.315 48.3438 106.357 48.4062C106.399 48.4896 106.472 48.5521 106.576 48.5938L106.607 48.7188ZM99.1384 32C99.18 31.9375 99.2009 31.875 99.2009 31.8125C99.2217 31.75 99.253 31.6875 99.2946 31.625C99.253 31.5417 99.2217 31.4583 99.2009 31.375C99.18 31.2917 99.1488 31.2083 99.1071 31.125C99.0446 30.8958 99.0134 30.6458 99.0134 30.375C98.8884 30.3542 98.753 30.3021 98.6071 30.2188C98.5238 30.0312 98.43 29.9167 98.3259 29.875C98.0967 29.8333 97.9717 29.7812 97.9509 29.7188C97.8884 29.7188 97.8363 29.6875 97.7946 29.625C97.7738 29.5625 97.7425 29.5104 97.7009 29.4688C97.5342 29.4896 97.3988 29.4792 97.2946 29.4375C97.2113 29.375 97.1175 29.3229 97.0134 29.2812C96.6592 29.3854 96.43 29.4479 96.3259 29.4688C96.2217 29.4896 96.0967 29.5 95.9509 29.5C95.7425 29.3333 95.6071 29.2812 95.5446 29.3438C95.503 29.3854 95.43 29.3854 95.3259 29.3438C95.2009 29.5104 95.1592 29.625 95.2009 29.6875C95.2425 29.75 95.2738 29.8021 95.2946 29.8438C95.3155 29.9479 95.305 30.0312 95.2634 30.0938C95.2217 30.1354 95.1905 30.1979 95.1696 30.2812C95.1905 30.5729 95.1696 30.7812 95.1071 30.9062C95.0655 31.0312 95.0446 31.1771 95.0446 31.3438C95.0655 31.3854 95.0655 31.4375 95.0446 31.5C95.0446 31.5625 95.0446 31.6354 95.0446 31.7188C95.1488 31.8646 95.2217 32.0625 95.2634 32.3125C95.305 32.5625 95.2738 32.7917 95.1696 33C95.2113 33.1458 95.2009 33.2812 95.1384 33.4062C95.0967 33.5104 95.055 33.625 95.0134 33.75C95.0342 33.9167 95.0759 34.0729 95.1384 34.2188C95.2217 34.3438 95.2425 34.5104 95.2009 34.7188C95.3467 34.8229 95.43 34.9062 95.4509 34.9688C95.4925 35.0104 95.5446 35.0417 95.6071 35.0625C95.6905 35 95.7946 34.9792 95.9196 35C96.0655 35 96.1488 35.0625 96.1696 35.1875C96.3571 35.0833 96.4613 35.0104 96.4821 34.9688C96.503 34.9271 96.5446 34.8958 96.6071 34.875C96.8363 35 96.9717 35.0729 97.0134 35.0938C97.055 35.0938 97.1071 35.0938 97.1696 35.0938C97.2321 35.0521 97.2842 35 97.3259 34.9375C97.3675 34.875 97.43 34.8333 97.5134 34.8125C97.6175 34.8125 97.68 34.8646 97.7009 34.9688C97.7217 35.0521 97.7842 35.0729 97.8884 35.0312C98.1384 34.8021 98.2946 34.5833 98.3571 34.375C98.6071 34.2917 98.7321 34.2083 98.7321 34.125C98.7738 34.0208 98.8571 33.8854 98.9821 33.7188C98.9405 33.4896 98.9196 33.3333 98.9196 33.25C99.0863 33.0417 99.1696 32.8958 99.1696 32.8125C99.1696 32.7292 99.1905 32.6354 99.2321 32.5312C99.1696 32.3854 99.1384 32.2083 99.1384 32ZM117.981 24.5C118.023 24.5625 118.033 24.625 118.012 24.6875C118.012 24.75 118.033 24.8021 118.075 24.8438C118.012 25.0104 117.929 25.1667 117.825 25.3125C117.845 25.5625 117.773 25.75 117.606 25.875C117.46 26 117.345 26.1458 117.262 26.3125C117.22 26.5625 117.116 26.75 116.95 26.875C116.929 26.9792 116.908 27.0833 116.887 27.1875C116.887 27.2708 116.908 27.3542 116.95 27.4375C116.908 27.5208 116.856 27.5833 116.793 27.625C116.752 27.6667 116.71 27.7292 116.668 27.8125C116.689 28.0417 116.668 28.1771 116.606 28.2188C116.564 28.2604 116.523 28.3229 116.481 28.4062C116.335 28.6771 116.22 28.875 116.137 29C116.075 29.1042 116.023 29.2292 115.981 29.375C115.856 29.6667 115.741 29.8646 115.637 29.9688C115.533 29.9896 115.46 29.9792 115.418 29.9375C115.398 29.8958 115.356 29.8646 115.293 29.8438C115.231 30.0729 115.158 30.1667 115.075 30.125C115.012 30.0625 114.97 29.9896 114.95 29.9062C114.7 29.9271 114.543 29.9062 114.481 29.8438C114.439 29.7812 114.366 29.7396 114.262 29.7188C114.137 29.6979 114.033 29.7083 113.95 29.75C113.887 29.7917 113.793 29.8125 113.668 29.8125C113.585 29.7917 113.512 29.7604 113.45 29.7188C113.408 29.6562 113.345 29.625 113.262 29.625C113.158 29.6042 113.075 29.625 113.012 29.6875C112.95 29.75 112.877 29.8021 112.793 29.8438C112.648 29.8021 112.512 29.8021 112.387 29.8438C112.283 29.8854 112.148 29.9167 111.981 29.9375C111.773 29.875 111.616 29.8333 111.512 29.8125C111.429 29.7917 111.377 29.7292 111.356 29.625C111.106 29.75 110.96 29.7917 110.918 29.75C110.898 29.6875 110.856 29.625 110.793 29.5625C110.689 29.5833 110.595 29.6146 110.512 29.6562C110.45 29.6771 110.398 29.7083 110.356 29.75C110.127 29.6042 109.97 29.6667 109.887 29.9375C110.012 30.2917 110.033 30.5104 109.95 30.5938C109.866 30.6771 109.804 30.7917 109.762 30.9375C109.825 31.0625 109.877 31.1979 109.918 31.3438C109.96 31.4688 109.95 31.6146 109.887 31.7812C109.929 31.8854 109.96 32.0104 109.981 32.1562C110.002 32.3021 109.981 32.4375 109.918 32.5625C110.023 32.8542 110.043 33.1458 109.981 33.4375C109.939 33.7292 109.939 34.0104 109.981 34.2812C110.064 34.3021 110.137 34.3021 110.2 34.2812C110.283 34.2604 110.377 34.25 110.481 34.25C110.731 34.1875 110.877 34.1771 110.918 34.2188C110.981 34.2396 111.043 34.2708 111.106 34.3125C111.148 34.2917 111.2 34.2917 111.262 34.3125C111.325 34.3125 111.387 34.3021 111.45 34.2812C111.512 34.2604 111.564 34.2396 111.606 34.2188C111.668 34.1771 111.731 34.1667 111.793 34.1875C112.002 34.2292 112.137 34.25 112.2 34.25C112.283 34.25 112.356 34.25 112.418 34.25C112.606 34.1042 112.814 34.0417 113.043 34.0625C113.189 33.9583 113.304 33.8229 113.387 33.6562C113.47 33.4896 113.606 33.375 113.793 33.3125C114.023 33.2708 114.158 33.1979 114.2 33.0938C114.241 32.9688 114.325 32.8854 114.45 32.8438C114.533 32.6562 114.595 32.5417 114.637 32.5C114.804 32.375 114.929 32.2917 115.012 32.25C115.095 32.2083 115.2 32.1875 115.325 32.1875C115.325 32.4375 115.356 32.5729 115.418 32.5938C115.481 32.6146 115.491 32.6458 115.45 32.6875C115.429 32.75 115.387 32.8021 115.325 32.8438C115.262 32.8646 115.21 32.8958 115.168 32.9375C115.189 33.0208 115.189 33.0833 115.168 33.125C115.148 33.1667 115.137 33.2188 115.137 33.2812C115.054 33.3646 114.939 33.4375 114.793 33.5C114.689 33.625 114.606 33.7917 114.543 34C114.523 34.3333 114.47 34.5833 114.387 34.75C114.325 34.9167 114.283 35.125 114.262 35.375C114.012 35.5208 113.856 35.6667 113.793 35.8125C113.752 35.9375 113.689 36.0521 113.606 36.1562C113.585 36.4062 113.543 36.5729 113.481 36.6562C113.439 36.7396 113.387 36.8229 113.325 36.9062C113.075 37.0521 112.918 37.125 112.856 37.125C112.793 37.1042 112.731 37.1146 112.668 37.1562C112.564 37.1354 112.46 37.125 112.356 37.125C112.273 37.125 112.179 37.1042 112.075 37.0625C111.991 37.0208 111.898 37.0312 111.793 37.0938C111.71 37.1562 111.627 37.1875 111.543 37.1875C111.418 37.1875 111.325 37.1562 111.262 37.0938C111.22 37.0312 111.168 36.9792 111.106 36.9375C111.002 36.9583 110.887 36.9792 110.762 37C110.658 37.0208 110.575 37.0625 110.512 37.125C110.429 37.1458 110.356 37.1458 110.293 37.125C110.252 37.1042 110.189 37.0938 110.106 37.0938C110.043 37.1562 110.002 37.2396 109.981 37.3438C109.96 37.4479 109.898 37.5104 109.793 37.5312C109.814 37.6354 109.845 37.7188 109.887 37.7812C109.95 37.8229 110.012 37.875 110.075 37.9375C110.033 38.1875 109.991 38.4062 109.95 38.5938C109.887 38.8854 109.887 39.0625 109.95 39.125C110.033 39.1667 110.075 39.2604 110.075 39.4062C110.054 39.5104 110.012 39.6042 109.95 39.6875C109.908 39.7708 109.866 39.8646 109.825 39.9688C109.845 40.0729 109.866 40.1562 109.887 40.2188C109.929 40.2812 109.939 40.375 109.918 40.5C110.023 40.8958 110.012 41.125 109.887 41.1875C109.783 41.25 109.72 41.3646 109.7 41.5312C109.741 41.6354 109.773 41.7188 109.793 41.7812C109.835 41.8438 109.856 41.9271 109.856 42.0312C109.898 42.0729 109.918 42.125 109.918 42.1875C109.939 42.25 109.97 42.3021 110.012 42.3438C110.262 42.2812 110.398 42.2708 110.418 42.3125C110.439 42.3333 110.47 42.3646 110.512 42.4062C110.595 42.3646 110.668 42.3438 110.731 42.3438C110.793 42.3229 110.856 42.2917 110.918 42.25C111.064 42.2292 111.168 42.2396 111.231 42.2812C111.293 42.3229 111.377 42.3542 111.481 42.375C111.648 42.3333 111.783 42.2812 111.887 42.2188C111.991 42.1354 112.158 42.1042 112.387 42.125C112.429 42.1667 112.45 42.2292 112.45 42.3125C112.47 42.375 112.481 42.4479 112.481 42.5312C112.564 42.5312 112.637 42.5 112.7 42.4375C112.762 42.3542 112.866 42.3333 113.012 42.375C113.241 42.2917 113.356 42.3021 113.356 42.4062C113.523 42.3646 113.637 42.2917 113.7 42.1875C113.762 42.0833 113.866 42.0104 114.012 41.9688C114.179 42.0104 114.283 42.0104 114.325 41.9688C114.366 41.9062 114.418 41.8542 114.481 41.8125C114.814 41.7708 115.023 41.6562 115.106 41.4688C115.189 41.2604 115.293 41.0729 115.418 40.9062C115.481 40.8646 115.554 40.8438 115.637 40.8438C115.741 40.8229 115.845 40.8021 115.95 40.7812C116.012 40.6771 116.064 40.5521 116.106 40.4062C116.148 40.2604 116.21 40.1354 116.293 40.0312C116.356 39.9688 116.418 39.9167 116.481 39.875C116.543 39.8333 116.595 39.7604 116.637 39.6562C116.804 39.4896 116.929 39.3438 117.012 39.2188C117.116 39.0729 117.283 39.0208 117.512 39.0625C117.7 39.2292 117.752 39.3333 117.668 39.375C117.585 39.4167 117.533 39.5104 117.512 39.6562C117.533 39.7188 117.554 39.7812 117.575 39.8438C117.616 39.9062 117.627 39.9792 117.606 40.0625C117.439 40.3333 117.345 40.5104 117.325 40.5938C117.304 40.6771 117.273 40.7604 117.231 40.8438C117.21 40.9479 117.22 41.0312 117.262 41.0938C117.304 41.1562 117.335 41.2396 117.356 41.3438C117.189 41.5104 117.095 41.6146 117.075 41.6562C117.075 41.6979 117.075 41.7396 117.075 41.7812C117.075 41.8646 117.085 41.9271 117.106 41.9688C117.148 42.0104 117.179 42.0625 117.2 42.125C117.2 42.2292 117.189 42.3125 117.168 42.375C117.148 42.4167 117.116 42.4688 117.075 42.5312C116.929 42.6146 116.835 42.6979 116.793 42.7812C116.773 42.8438 116.773 42.9062 116.793 42.9688C116.668 43.1771 116.595 43.2917 116.575 43.3125C116.575 43.3333 116.554 43.3438 116.512 43.3438C116.47 43.4896 116.439 43.6458 116.418 43.8125C116.418 43.9583 116.387 44.0938 116.325 44.2188C116.283 44.2604 116.21 44.2708 116.106 44.25C116.023 44.2292 115.97 44.25 115.95 44.3125C115.97 44.4167 115.991 44.5 116.012 44.5625C116.033 44.6042 116.064 44.6562 116.106 44.7188C116.106 44.8229 116.116 44.9167 116.137 45C116.179 45.0625 116.2 45.1458 116.2 45.25C116.137 45.3542 116.033 45.3854 115.887 45.3438C115.741 45.3229 115.627 45.2917 115.543 45.25C115.481 45.2708 115.429 45.3021 115.387 45.3438C115.345 45.3854 115.283 45.4062 115.2 45.4062C114.991 45.3438 114.825 45.3021 114.7 45.2812C114.429 45.4271 114.189 45.4896 113.981 45.4688C113.793 45.4479 113.606 45.4375 113.418 45.4375C113.106 45.4375 112.898 45.3958 112.793 45.3125C112.689 45.25 112.575 45.2188 112.45 45.2188C112.366 45.2396 112.304 45.2708 112.262 45.3125C112.22 45.3542 112.148 45.3958 112.043 45.4375C111.96 45.4167 111.877 45.4062 111.793 45.4062C111.71 45.4062 111.616 45.4062 111.512 45.4062C111.283 45.3229 111.095 45.3229 110.95 45.4062C110.825 45.4896 110.71 45.4583 110.606 45.3125C110.564 45.3542 110.502 45.4062 110.418 45.4688C110.356 45.5312 110.283 45.5104 110.2 45.4062C110.2 45.3438 110.21 45.2812 110.231 45.2188C110.252 45.1562 110.241 45.1042 110.2 45.0625C109.887 45.1667 109.679 45.2396 109.575 45.2812C109.491 45.3438 109.366 45.3854 109.2 45.4062C108.95 45.4688 108.773 45.4792 108.668 45.4375C108.585 45.4167 108.533 45.3542 108.512 45.25C108.2 45.3125 108.012 45.375 107.95 45.4375C107.908 45.5208 107.825 45.5625 107.7 45.5625C107.595 45.4792 107.46 45.4167 107.293 45.375C107.127 45.3542 106.96 45.3646 106.793 45.4062C106.627 45.3646 106.481 45.3438 106.356 45.3438C106.252 45.3438 106.168 45.3646 106.106 45.4062C106.002 45.4896 105.918 45.5938 105.856 45.7188C105.793 45.8438 105.679 45.9167 105.512 45.9375C105.366 45.9167 105.262 45.8646 105.2 45.7812C105.137 45.7188 105.054 45.6667 104.95 45.625C104.845 45.625 104.773 45.6562 104.731 45.7188C104.689 45.7812 104.616 45.8125 104.512 45.8125C104.158 45.5833 103.898 45.4375 103.731 45.375C103.543 45.3125 103.335 45.2708 103.106 45.25C103.127 45.0833 103.2 45 103.325 45C103.45 45.0208 103.533 44.9792 103.575 44.875C103.72 44.8333 103.814 44.8125 103.856 44.8125C103.898 44.7917 103.939 44.7604 103.981 44.7188C104.085 44.7396 104.189 44.7396 104.293 44.7188C104.377 44.6979 104.46 44.7083 104.543 44.75C104.835 44.7292 105.043 44.6562 105.168 44.5312C105.293 44.3854 105.429 44.2292 105.575 44.0625C105.72 44.0208 105.804 43.9896 105.825 43.9688C105.845 43.9271 105.877 43.8958 105.918 43.875C106.064 43.625 106.158 43.4479 106.2 43.3438C106.262 43.2396 106.345 43.1458 106.45 43.0625C106.408 42.9375 106.418 42.8333 106.481 42.75C106.564 42.6667 106.627 42.5729 106.668 42.4688C106.606 42.1771 106.595 41.9896 106.637 41.9062C106.679 41.8021 106.72 41.6979 106.762 41.5938C106.762 41.3854 106.731 41.1979 106.668 41.0312C106.689 40.8021 106.7 40.6771 106.7 40.6562C106.7 40.6146 106.72 40.5729 106.762 40.5312C106.7 40.4479 106.658 40.3542 106.637 40.25C106.616 40.1458 106.595 40.0417 106.575 39.9375C106.554 39.875 106.512 39.8333 106.45 39.8125C106.408 39.7708 106.366 39.7188 106.325 39.6562C106.387 39.4479 106.502 39.2812 106.668 39.1562C106.668 39.0312 106.689 38.9375 106.731 38.875C106.773 38.7917 106.814 38.6979 106.856 38.5938C106.814 38.4896 106.762 38.4271 106.7 38.4062C106.658 38.3646 106.637 38.3021 106.637 38.2188C106.616 38.0938 106.648 37.9583 106.731 37.8125C106.835 37.6458 106.887 37.4792 106.887 37.3125C106.825 37.0625 106.825 36.8958 106.887 36.8125C106.95 36.7292 106.991 36.6354 107.012 36.5312C106.908 36.3646 106.814 36.1979 106.731 36.0312C106.668 35.8646 106.606 35.6875 106.543 35.5C106.502 35.3958 106.502 35.3021 106.543 35.2188C106.585 35.1354 106.616 35.0417 106.637 34.9375C106.637 34.75 106.627 34.6354 106.606 34.5938C106.585 34.5312 106.585 34.4583 106.606 34.375C106.543 34.1458 106.533 33.9792 106.575 33.875C106.616 33.7708 106.658 33.6562 106.7 33.5312C106.7 33.2812 106.648 33.0833 106.543 32.9375C106.46 32.7917 106.366 32.6458 106.262 32.5C106.262 32.3542 106.273 32.2396 106.293 32.1562C106.335 32.0521 106.377 31.9479 106.418 31.8438C106.356 31.4896 106.335 31.2396 106.356 31.0938C106.398 30.9479 106.398 30.7917 106.356 30.625C106.377 30.4792 106.429 30.3125 106.512 30.125C106.491 29.8958 106.502 29.7604 106.543 29.7188C106.606 29.6771 106.627 29.5938 106.606 29.4688C106.564 29.3854 106.502 29.3333 106.418 29.3125C106.356 29.2708 106.304 29.1979 106.262 29.0938C106.262 29.0104 106.293 28.9583 106.356 28.9375C106.418 28.9167 106.46 28.875 106.481 28.8125C106.356 28.75 106.241 28.6979 106.137 28.6562C105.95 28.4896 105.783 28.3958 105.637 28.375C105.491 28.3333 105.429 28.2292 105.45 28.0625C105.137 27.9792 104.96 27.9271 104.918 27.9062C104.877 27.8646 104.845 27.8229 104.825 27.7812C104.804 27.7188 104.752 27.6771 104.668 27.6562C104.606 27.6562 104.543 27.6667 104.481 27.6875C104.398 27.7083 104.325 27.6979 104.262 27.6562C104.158 27.5521 104.137 27.4375 104.2 27.3125C104.262 27.1667 104.345 27.0521 104.45 26.9688C104.7 27.0104 104.866 27.0312 104.95 27.0312C105.033 27.0312 105.116 27.0104 105.2 26.9688C105.387 26.8854 105.491 26.8646 105.512 26.9062C105.554 26.9271 105.595 26.9479 105.637 26.9688C105.887 26.9688 106.012 27 106.012 27.0625C106.033 27.1042 106.064 27.1354 106.106 27.1562C106.418 27.1562 106.637 27.1354 106.762 27.0938C106.887 27.0521 106.991 27 107.075 26.9375C107.241 26.9792 107.356 26.9688 107.418 26.9062C107.502 26.8229 107.606 26.7812 107.731 26.7812C108.023 26.9062 108.231 26.9583 108.356 26.9375C108.481 26.9167 108.606 26.8958 108.731 26.875C108.856 26.8333 108.97 26.8125 109.075 26.8125C109.2 26.8125 109.314 26.8438 109.418 26.9062C109.543 26.8438 109.658 26.7708 109.762 26.6875C109.887 26.6042 110.033 26.5833 110.2 26.625C110.345 26.6875 110.45 26.8438 110.512 27.0938C110.7 27.0104 110.898 26.9479 111.106 26.9062C111.335 26.8438 111.564 26.8229 111.793 26.8438C112.043 26.9896 112.22 27.0521 112.325 27.0312C112.45 26.9896 112.564 27 112.668 27.0625C113.085 27.1458 113.408 27.0729 113.637 26.8438C113.741 26.7812 113.825 26.7083 113.887 26.625C113.97 26.5208 114.075 26.4479 114.2 26.4062C114.325 26.4271 114.387 26.5312 114.387 26.7188C114.47 26.6979 114.543 26.6667 114.606 26.625C114.668 26.5833 114.752 26.5833 114.856 26.625C114.981 26.4792 115.075 26.3854 115.137 26.3438C115.22 26.3021 115.314 26.2604 115.418 26.2188C115.564 26.4271 115.648 26.5208 115.668 26.5C115.689 26.4583 115.72 26.4375 115.762 26.4375C115.887 26.1667 116.012 25.9792 116.137 25.875C116.262 25.75 116.387 25.6354 116.512 25.5312C116.72 25.5104 116.835 25.4375 116.856 25.3125C116.898 25.1875 116.97 25.1042 117.075 25.0625C117.262 25.0625 117.377 25.0208 117.418 24.9375C117.46 24.8542 117.502 24.7708 117.543 24.6875C117.606 24.6042 117.668 24.5417 117.731 24.5C117.814 24.4375 117.898 24.4375 117.981 24.5Z" fill="#6EE3FD"/>
</g>
<defs>
<clipPath id="clip0_760_4407">
<rect width="135" height="70" fill="white"/>
</clipPath>
</defs>
</svg>
