<svg width="136" height="70" viewBox="0 0 136 70" fill="none" xmlns="http://www.w3.org/2000/svg">
<g clip-path="url(#clip0_984_2246)">
<path d="M12.0862 67.6228L0.978638 57.7788V12.1333L12.0862 2.28943H123.682L134.789 12.1333V57.7788L123.682 67.6228H12.0862Z" fill="#D39EF2" fill-opacity="0.26" style="mix-blend-mode:overlay"/>
<path d="M73.0814 7.66987H71.5698L74.3018 3.51379H75.8134L73.0814 7.66987Z" fill="#D941FF"/>
<path d="M76.3461 7.66987H74.8407L77.5727 3.51379H79.0842L76.3461 7.66987Z" fill="#D941FF"/>
<path d="M79.617 7.66987H78.1055L80.8374 3.51379H82.349L79.617 7.66987Z" fill="#D941FF"/>
<path d="M82.888 7.66987H81.3765L84.1084 3.51379H85.62L82.888 7.66987Z" fill="#D941FF"/>
<path d="M86.1527 7.66987H84.6473L87.3793 3.51379H88.8909L86.1527 7.66987Z" fill="#D941FF"/>
<path d="M89.4237 7.66987H87.9121L90.6441 3.51379H92.1556L89.4237 7.66987Z" fill="#D941FF"/>
<path d="M92.6945 7.66987H91.183L93.915 3.51379H95.4265L92.6945 7.66987Z" fill="#D941FF"/>
<path d="M95.9592 7.66987H94.4539L97.1858 3.51379H98.6974L95.9592 7.66987Z" fill="#D941FF"/>
<path d="M99.2302 7.66987H97.7186L100.451 3.51379H101.962L99.2302 7.66987Z" fill="#D941FF"/>
<path d="M102.501 7.66987H100.99L103.722 3.51379H105.233L102.501 7.66987Z" fill="#D941FF"/>
<path d="M105.766 7.66987H104.26L106.992 3.51379H108.504L105.766 7.66987Z" fill="#D941FF"/>
<path d="M109.037 7.66987H107.525L110.257 3.51379H111.769L109.037 7.66987Z" fill="#D941FF"/>
<path d="M73.0814 66.7828H71.5698L74.3018 62.6267H75.8134L73.0814 66.7828Z" fill="#D941FF"/>
<path d="M76.3461 66.7828H74.8407L77.5727 62.6267H79.0842L76.3461 66.7828Z" fill="#D941FF"/>
<path d="M79.617 66.7828H78.1055L80.8374 62.6267H82.349L79.617 66.7828Z" fill="#D941FF"/>
<path d="M82.888 66.7828H81.3765L84.1084 62.6267H85.62L82.888 66.7828Z" fill="#D941FF"/>
<path d="M86.1527 66.7828H84.6473L87.3793 62.6267H88.8909L86.1527 66.7828Z" fill="#D941FF"/>
<path d="M89.4237 66.7828H87.9121L90.6441 62.6267H92.1556L89.4237 66.7828Z" fill="#D941FF"/>
<path d="M92.6945 66.7828H91.183L93.915 62.6267H95.4265L92.6945 66.7828Z" fill="#D941FF"/>
<path d="M95.9592 66.7828H94.4539L97.1858 62.6267H98.6974L95.9592 66.7828Z" fill="#D941FF"/>
<path d="M99.2302 66.7828H97.7186L100.451 62.6267H101.962L99.2302 66.7828Z" fill="#D941FF"/>
<path d="M102.501 66.7828H100.99L103.722 62.6267H105.233L102.501 66.7828Z" fill="#D941FF"/>
<path d="M105.766 66.7828H104.26L106.992 62.6267H108.504L105.766 66.7828Z" fill="#D941FF"/>
<path d="M109.037 66.7828H107.525L110.257 62.6267H111.769L109.037 66.7828Z" fill="#D941FF"/>
<g style="mix-blend-mode:overlay">
<path d="M70.0521 64.8777H13.4738C9.84357 61.6604 7.81163 59.8596 4.1814 56.6424V13.451C7.81163 10.2337 9.84357 8.43295 13.4738 5.2157H70.5168" stroke="white" stroke-width="2" stroke-miterlimit="10"/>
</g>
<g style="mix-blend-mode:overlay">
<path d="M114.191 5.2157H122.09C125.72 8.43295 127.752 10.2337 131.382 13.451V56.6424C127.752 59.8596 125.72 61.6604 122.09 64.8777H112.178" stroke="white" stroke-width="2" stroke-miterlimit="10"/>
</g>
<path d="M1.08398 8.69101L10.5808 0.274536H124.363L133.86 8.55375" stroke="#D941FF" stroke-miterlimit="10"/>
<path d="M0.514038 8.64714C0.514038 8.31773 0.81759 8.0542 1.18309 8.0542C1.54859 8.0542 1.85214 8.32322 1.85214 8.64714C1.85214 8.97106 1.54859 9.24008 1.18309 9.24008C0.81759 9.24008 0.514038 8.97106 0.514038 8.64714Z" fill="#D941FF"/>
<path d="M1.08398 61.309L10.5808 69.7254H124.983L134.634 61.309" stroke="#D941FF" stroke-miterlimit="10"/>
<path d="M0.359131 61.2815C0.359131 60.9521 0.662683 60.6886 1.02818 60.6886C1.39368 60.6886 1.69724 60.9576 1.69724 61.2815C1.69724 61.6055 1.39368 61.8745 1.02818 61.8745C0.662683 61.8745 0.359131 61.6055 0.359131 61.2815Z" fill="#D941FF"/>
<path d="M134.015 61.2815C134.015 60.9521 134.318 60.6886 134.684 60.6886C135.049 60.6886 135.353 60.9576 135.353 61.2815C135.353 61.6055 135.049 61.8745 134.684 61.8745C134.318 61.8745 134.015 61.6055 134.015 61.2815Z" fill="#D941FF"/>
<path d="M133.346 8.64714C133.346 8.31773 133.643 8.0542 134.015 8.0542C134.387 8.0542 134.684 8.32322 134.684 8.64714C134.684 8.97106 134.387 9.24008 134.015 9.24008C133.643 9.24008 133.346 8.97106 133.346 8.64714Z" fill="#D941FF"/>
<path d="M32.8475 22.8125C32.8058 22.9167 32.7537 23.0104 32.6912 23.0938C32.6287 23.1771 32.5662 23.2604 32.5037 23.3438C32.4621 23.4479 32.4204 23.5521 32.3787 23.6562C32.3371 23.7396 32.2954 23.8229 32.2537 23.9062C32.0871 24.0521 31.9621 24.1771 31.8787 24.2812C31.7954 24.3854 31.7746 24.5208 31.8162 24.6875C31.6496 24.9792 31.5142 25.1771 31.41 25.2812C31.3058 25.3854 31.2329 25.5208 31.1912 25.6875C31.1287 25.7292 31.0767 25.7812 31.035 25.8438C31.0142 25.9062 30.9725 25.9479 30.91 25.9688C30.8267 25.9271 30.7537 25.8958 30.6912 25.875C30.6496 25.8333 30.6079 25.7917 30.5662 25.75C30.4829 25.7917 30.3892 25.8438 30.285 25.9062C30.2017 25.9688 30.1079 25.9479 30.0037 25.8438C29.8787 25.8854 29.7433 25.9062 29.5975 25.9062C29.4517 25.8854 29.3371 25.8333 29.2537 25.75C29.1704 25.7917 29.0975 25.8333 29.035 25.875C28.9725 25.8958 28.8892 25.8958 28.785 25.875C28.7017 25.8333 28.6287 25.7292 28.5662 25.5625C28.4204 25.6042 28.3058 25.6042 28.2225 25.5625C28.16 25.625 28.0767 25.6562 27.9725 25.6562C27.8683 25.6562 27.7642 25.6771 27.66 25.7188C27.4308 25.6979 27.2433 25.5938 27.0975 25.4062C27.035 25.4479 26.9725 25.4896 26.91 25.5312C26.8475 25.5521 26.7642 25.5729 26.66 25.5938C26.3058 25.5104 26.0246 25.4896 25.8162 25.5312C25.6079 25.5521 25.4412 25.5208 25.3162 25.4375C25.2121 25.4792 25.0662 25.5417 24.8787 25.625C24.7121 25.6875 24.5871 25.6354 24.5037 25.4688C24.4204 25.4896 24.3475 25.5208 24.285 25.5625C24.2225 25.5833 24.1392 25.5833 24.035 25.5625C23.9517 25.5208 23.8892 25.4167 23.8475 25.25C23.7642 25.4375 23.7017 25.5729 23.66 25.6562C23.6183 25.7396 23.5767 25.8229 23.535 25.9062C23.5975 26.1562 23.5871 26.3333 23.5037 26.4375C23.4412 26.5208 23.4204 26.6146 23.4412 26.7188C23.4412 26.7812 23.4621 26.8333 23.5037 26.875C23.5662 26.9167 23.6183 26.9688 23.66 27.0312C23.6808 27.2604 23.7017 27.3958 23.7225 27.4375C23.7642 27.4792 23.785 27.5208 23.785 27.5625C23.785 27.6458 23.7642 27.7083 23.7225 27.75C23.7017 27.7917 23.6808 27.8438 23.66 27.9062C23.7017 28.0729 23.7017 28.2292 23.66 28.375C23.6392 28.5 23.5975 28.625 23.535 28.75C23.4725 28.875 23.41 29.0104 23.3475 29.1562C23.285 29.2812 23.2433 29.4167 23.2225 29.5625C23.41 29.7083 23.5142 29.8021 23.535 29.8438C23.5767 29.8854 23.6079 29.9479 23.6287 30.0312C23.6287 30.1146 23.6079 30.1875 23.5662 30.25C23.5454 30.2917 23.5142 30.3333 23.4725 30.375C23.5142 30.5625 23.5246 30.75 23.5037 30.9375C23.4829 31.1042 23.4725 31.2812 23.4725 31.4688C23.5767 31.4479 23.6808 31.4792 23.785 31.5625C23.8892 31.625 23.9204 31.7292 23.8787 31.875C24.0037 31.8958 24.1079 31.8958 24.1912 31.875C24.2746 31.8333 24.3579 31.7917 24.4412 31.75C24.5454 31.7083 24.6392 31.6771 24.7225 31.6562C24.8058 31.6146 24.91 31.6042 25.035 31.625C25.2433 31.7917 25.4412 31.8542 25.6287 31.8125C25.8162 31.7708 25.9933 31.7708 26.16 31.8125C26.2642 31.7708 26.3579 31.7188 26.4412 31.6562C26.5454 31.5938 26.6496 31.5417 26.7537 31.5L27.2537 31.6875C27.4829 31.5833 27.6912 31.5208 27.8787 31.5C28.0662 31.4792 28.2121 31.3958 28.3162 31.25L28.535 30.8125C28.6183 30.75 28.7017 30.6875 28.785 30.625C28.8683 30.5625 28.9308 30.4792 28.9725 30.375C29.1183 30.2292 29.2121 30.1458 29.2537 30.125C29.3162 30.0833 29.3579 30.0208 29.3787 29.9375C29.5246 29.875 29.66 29.8333 29.785 29.8125C29.9308 29.7917 30.0037 29.8333 30.0037 29.9375C29.8996 30.125 29.8267 30.25 29.785 30.3125C29.7642 30.375 29.7433 30.4271 29.7225 30.4688C29.7225 30.6771 29.6808 30.8021 29.5975 30.8438C29.535 30.8854 29.4829 30.9583 29.4412 31.0625C29.4204 31.2917 29.3787 31.4479 29.3162 31.5312C29.2746 31.5938 29.2537 31.6875 29.2537 31.8125C29.1704 31.9375 29.0975 32.0625 29.035 32.1875C28.9725 32.3125 28.9412 32.4792 28.9412 32.6875L28.6287 33.0938C28.6496 33.1771 28.7017 33.25 28.785 33.3125C28.8683 33.3542 28.8892 33.4167 28.8475 33.5C28.7433 33.75 28.6912 33.9062 28.6912 33.9688C28.6912 34.0104 28.6808 34.0833 28.66 34.1875C28.5975 34.2917 28.5454 34.4167 28.5037 34.5625C28.4621 34.6875 28.3683 34.7812 28.2225 34.8438C28.0975 34.8438 27.9725 34.8542 27.8475 34.875C27.7225 34.8958 27.5975 34.9167 27.4725 34.9375C27.2642 34.875 27.1704 34.8333 27.1912 34.8125C27.2121 34.7917 27.2017 34.7604 27.16 34.7188C26.9517 34.7604 26.7433 34.7917 26.535 34.8125C26.3475 34.8333 26.16 34.8646 25.9725 34.9062C25.7225 34.8229 25.535 34.7917 25.41 34.8125C25.3058 34.8333 25.2017 34.8125 25.0975 34.75C24.9725 34.7917 24.8579 34.8542 24.7537 34.9375C24.6496 35 24.5142 35 24.3475 34.9375C24.285 34.8958 24.2433 34.8438 24.2225 34.7812C24.2225 34.7188 24.2017 34.6667 24.16 34.625C24.0558 34.625 23.9725 34.6458 23.91 34.6875C23.8683 34.7083 23.7954 34.7188 23.6912 34.7188C23.6079 34.7812 23.5454 34.8958 23.5037 35.0625C23.5454 35.2292 23.5662 35.3958 23.5662 35.5625C23.5662 35.7083 23.5142 35.8333 23.41 35.9375C23.4308 36.125 23.4204 36.3333 23.3787 36.5625C23.3371 36.7917 23.3058 37.0208 23.285 37.25C23.3058 37.3333 23.3475 37.3854 23.41 37.4062C23.4933 37.4271 23.5558 37.4792 23.5975 37.5625C23.535 37.875 23.4933 38.0729 23.4725 38.1562C23.4517 38.2396 23.4621 38.3333 23.5037 38.4375C23.6079 38.7708 23.6079 39.0625 23.5037 39.3125C23.5871 39.5833 23.5246 39.8438 23.3162 40.0938C23.3579 40.1562 23.3892 40.2292 23.41 40.3125C23.4517 40.3958 23.4517 40.4792 23.41 40.5625C23.5558 40.8125 23.6183 41 23.5975 41.125C23.5767 41.25 23.5871 41.3646 23.6287 41.4688C23.6079 41.7812 23.5767 41.9583 23.535 42C23.6808 42.1458 23.7954 42.1979 23.8787 42.1562C23.9621 42.1146 24.0558 42.0833 24.16 42.0625C24.3267 42.1458 24.535 42.1354 24.785 42.0312C24.8683 42.0729 24.9204 42.1354 24.9412 42.2188C24.9829 42.2812 25.035 42.3333 25.0975 42.375L25.7225 42.0938C25.8267 42.1354 25.9412 42.1562 26.0662 42.1562C26.1912 42.1562 26.2954 42.1771 26.3787 42.2188C26.6704 42.1146 26.91 42.0625 27.0975 42.0625C27.285 42.0625 27.4621 42.0625 27.6287 42.0625C27.9412 42.2292 28.1392 42.2708 28.2225 42.1875C28.3683 42.1458 28.4725 42.0938 28.535 42.0312C28.7642 41.9896 28.9204 41.9583 29.0037 41.9375C29.1079 41.9167 29.2121 41.8958 29.3162 41.875C29.3787 41.7917 29.4517 41.7292 29.535 41.6875C29.6392 41.6458 29.7433 41.6042 29.8475 41.5625C29.9308 41.5208 30.0037 41.4792 30.0662 41.4375C30.1287 41.3958 30.1912 41.3542 30.2537 41.3125C30.2954 41.25 30.3371 41.2083 30.3787 41.1875C30.4412 41.1458 30.4933 41.1042 30.535 41.0625C30.7433 40.8958 30.8787 40.7292 30.9412 40.5625C31.0037 40.375 31.1392 40.2604 31.3475 40.2188C31.4517 40.1146 31.535 40.0208 31.5975 39.9375C31.6808 39.8333 31.7746 39.7604 31.8787 39.7188C31.9204 39.6354 31.9517 39.5729 31.9725 39.5312C31.9933 39.4688 32.0142 39.3958 32.035 39.3125L32.285 38.75C32.3267 38.6875 32.3683 38.625 32.41 38.5625C32.4517 38.4792 32.5142 38.4167 32.5975 38.375C32.7433 38.5208 32.7954 38.6146 32.7537 38.6562C32.7121 38.6771 32.6912 38.7083 32.6912 38.75C32.6912 38.8542 32.7225 38.9479 32.785 39.0312C32.8475 39.0938 32.8996 39.1562 32.9412 39.2188L32.7537 39.75C32.7121 39.9167 32.6808 40.1042 32.66 40.3125C32.6392 40.5 32.5871 40.6562 32.5037 40.7812C32.2954 40.8646 32.1704 40.9583 32.1287 41.0625C32.1079 41.1458 32.0871 41.25 32.0662 41.375C32.0662 41.4792 32.0558 41.5938 32.035 41.7188C32.035 41.8229 32.0037 41.9062 31.9412 41.9688C31.9412 42.0521 31.9308 42.1146 31.91 42.1562C31.91 42.1979 31.8996 42.25 31.8787 42.3125C31.7121 42.4167 31.6079 42.6042 31.5662 42.875C31.5454 43.125 31.5142 43.3646 31.4725 43.5938C31.3267 43.7812 31.2225 43.9896 31.16 44.2188C31.0142 44.3854 30.9517 44.5208 30.9725 44.625C30.9933 44.7292 30.9933 44.8646 30.9725 45.0312C30.8892 45.2396 30.785 45.3646 30.66 45.4062L30.2225 45.3438C30.035 45.5312 29.9204 45.6042 29.8787 45.5625C29.8579 45.5208 29.8162 45.5 29.7537 45.5C29.3787 45.4792 29.1079 45.4375 28.9412 45.375C28.7954 45.4792 28.6183 45.5104 28.41 45.4688C28.2017 45.4271 27.9933 45.4167 27.785 45.4375C27.6183 45.3333 27.5246 45.2917 27.5037 45.3125C27.4829 45.3542 27.4517 45.375 27.41 45.375C27.285 45.3958 27.1808 45.375 27.0975 45.3125C27.0142 45.25 26.9204 45.2396 26.8162 45.2812C26.6704 45.4896 26.5662 45.5729 26.5037 45.5312C26.4412 45.5104 26.3787 45.4792 26.3162 45.4375C26.2537 45.3958 26.1704 45.375 26.0662 45.375C25.9829 45.375 25.91 45.3542 25.8475 45.3125C25.7433 45.2917 25.6808 45.2812 25.66 45.2812C25.6392 45.3021 25.5767 45.3125 25.4725 45.3125C25.2642 45.25 25.1392 45.25 25.0975 45.3125C25.0767 45.3958 25.0246 45.4583 24.9412 45.5C24.6912 45.3958 24.5454 45.3229 24.5037 45.2812C24.4829 45.2604 24.4517 45.2396 24.41 45.2188C24.2017 45.1354 24.0246 45.1354 23.8787 45.2188C23.7329 45.3021 23.5975 45.375 23.4725 45.4375C23.3267 45.3958 23.2017 45.3854 23.0975 45.4062C23.0142 45.4271 22.91 45.4375 22.785 45.4375C22.7017 45.3958 22.6392 45.2812 22.5975 45.0938C22.4933 45.1146 22.41 45.1667 22.3475 45.25C22.3058 45.3333 22.2433 45.3958 22.16 45.4375C21.9933 45.4167 21.8267 45.3958 21.66 45.375C21.5142 45.375 21.3683 45.3542 21.2225 45.3125C21.16 45.3542 21.0975 45.3854 21.035 45.4062C20.9933 45.4479 20.9412 45.4792 20.8787 45.5C20.6704 45.5 20.5454 45.5312 20.5037 45.5938C20.4829 45.6562 20.4412 45.6979 20.3787 45.7188C20.3162 45.7188 20.2537 45.6979 20.1912 45.6562C20.1496 45.6354 20.0975 45.6146 20.035 45.5938C19.9517 45.5521 19.8892 45.4896 19.8475 45.4062C19.8058 45.3229 19.7537 45.2604 19.6912 45.2188C19.6287 45.2396 19.5454 45.25 19.4412 45.25C19.3371 45.25 19.2537 45.2708 19.1912 45.3125C19.1287 45.3333 19.0767 45.3646 19.035 45.4062C19.0142 45.4479 18.9725 45.4896 18.91 45.5312C18.8058 45.5104 18.6704 45.5104 18.5037 45.5312C18.3371 45.5729 18.2017 45.5521 18.0975 45.4688C17.7642 45.5729 17.5454 45.5417 17.4412 45.375C17.2954 45.4583 17.1079 45.5104 16.8787 45.5312C16.6287 45.5521 16.4204 45.5417 16.2537 45.5C16.1912 45.3125 16.2121 45.2188 16.3162 45.2188C16.4204 45.2396 16.5037 45.2604 16.5662 45.2812C16.6704 45.2396 16.7433 45.1979 16.785 45.1562C16.8267 45.1146 16.8787 45.0729 16.9412 45.0312C17.0662 45.0312 17.16 45.0104 17.2225 44.9688C17.285 44.9062 17.3579 44.8542 17.4412 44.8125C17.8787 44.8125 18.1496 44.6771 18.2537 44.4062C18.3162 44.3646 18.3787 44.3438 18.4412 44.3438C18.5246 44.3229 18.5975 44.3021 18.66 44.2812C18.7017 44.2188 18.7433 44.1562 18.785 44.0938C18.8475 44.0104 18.9412 43.9896 19.0662 44.0312C19.1704 43.8229 19.2433 43.6562 19.285 43.5312C19.3475 43.4062 19.4621 43.3125 19.6287 43.25C19.6912 43.0625 19.7329 42.9271 19.7537 42.8438C19.7746 42.7604 19.7954 42.6771 19.8162 42.5938C19.7537 42.2396 19.6912 42.0104 19.6287 41.9062C19.5662 41.8021 19.5454 41.6562 19.5662 41.4688C19.5454 41.4062 19.4933 41.3646 19.41 41.3438C19.3475 41.3229 19.3162 41.2708 19.3162 41.1875C19.3787 40.9583 19.4204 40.8125 19.4412 40.75C19.4621 40.6875 19.4933 40.6146 19.535 40.5312L19.6287 40C19.6079 39.8333 19.6079 39.6771 19.6287 39.5312C19.6704 39.3646 19.6704 39.2188 19.6287 39.0938C19.7121 38.8438 19.7329 38.7083 19.6912 38.6875C19.6496 38.6667 19.6079 38.6354 19.5662 38.5938C19.5454 38.3854 19.4725 38.1875 19.3475 38C19.3892 37.9167 19.4308 37.8542 19.4725 37.8125C19.535 37.75 19.5871 37.6771 19.6287 37.5938C19.5871 37.5104 19.5454 37.4375 19.5037 37.375C19.4621 37.3125 19.4412 37.2292 19.4412 37.125C19.5871 36.7708 19.6912 36.4583 19.7537 36.1875C19.8162 35.8958 19.8058 35.6354 19.7225 35.4062C19.7433 35.1979 19.7329 35.0833 19.6912 35.0625C19.6496 35.0417 19.6287 34.9896 19.6287 34.9062C19.6079 34.8021 19.6183 34.7396 19.66 34.7188C19.7225 34.6979 19.7642 34.6562 19.785 34.5938C19.785 34.4688 19.7642 34.3646 19.7225 34.2812C19.7017 34.1979 19.6808 34.1042 19.66 34C19.6808 33.8958 19.7121 33.8021 19.7537 33.7188C19.7954 33.6354 19.8371 33.5417 19.8787 33.4375C19.8371 33.3333 19.8058 33.2292 19.785 33.125C19.785 33.0208 19.785 32.9167 19.785 32.8125C19.8058 32.75 19.8162 32.6875 19.8162 32.625C19.8162 32.5417 19.8162 32.4688 19.8162 32.4062L19.8475 31.875C19.7642 31.625 19.7329 31.4896 19.7537 31.4688C19.7954 31.4271 19.8162 31.375 19.8162 31.3125C19.8162 31.0208 19.8371 30.8333 19.8787 30.75C19.8996 30.5 19.8996 30.3542 19.8787 30.3125C19.8579 30.2708 19.8683 30.2292 19.91 30.1875C19.91 29.7708 19.8996 29.4271 19.8787 29.1562C19.7746 28.9896 19.7225 28.7708 19.7225 28.5C19.7433 28.2292 19.7954 28 19.8787 27.8125C19.8371 27.75 19.7954 27.6875 19.7537 27.625C19.7121 27.5625 19.7017 27.4688 19.7225 27.3438C19.785 27.0521 19.8162 26.8438 19.8162 26.7188C19.8162 26.5729 19.785 26.4479 19.7225 26.3438C19.7642 26.1354 19.785 25.9792 19.785 25.875C19.7017 25.6042 19.6704 25.4479 19.6912 25.4062C19.6287 25.3021 19.5975 25.2083 19.5975 25.125C19.6183 25.0417 19.5975 24.9583 19.535 24.875C19.3475 24.75 19.2537 24.5833 19.2537 24.375C19.1079 24.1667 18.9725 24.0104 18.8475 23.9062C18.785 23.9479 18.7225 23.9583 18.66 23.9375C18.5975 23.9167 18.5454 23.8854 18.5037 23.8438C18.4621 23.6354 18.41 23.5208 18.3475 23.5C18.3058 23.4583 18.2642 23.4062 18.2225 23.3438C18.0975 23.3646 17.9933 23.3958 17.91 23.4375C17.8267 23.4792 17.7329 23.4792 17.6287 23.4375C17.5871 23.3542 17.5558 23.2812 17.535 23.2188C17.5142 23.1354 17.4621 23.0729 17.3787 23.0312C16.9829 23.0729 16.8162 22.9167 16.8787 22.5625C16.8162 22.5417 16.7433 22.5312 16.66 22.5312C16.5558 22.5104 16.4621 22.4896 16.3787 22.4688C16.2954 22.4479 16.2433 22.4167 16.2225 22.375C16.1808 22.3333 16.1808 22.2604 16.2225 22.1562C16.3267 22.1146 16.4204 22.1146 16.5037 22.1562C16.5871 22.1771 16.6704 22.2083 16.7537 22.25C16.8371 22.2292 16.8996 22.1979 16.9412 22.1562C16.9829 22.1146 17.0454 22.0833 17.1287 22.0625C17.2537 22.125 17.3996 22.1667 17.5662 22.1875C17.7537 22.1875 17.8996 22.2083 18.0037 22.25C18.2954 22.2292 18.4829 22.1979 18.5662 22.1562C18.6496 22.0938 18.7642 22.0729 18.91 22.0938C19.035 22.1146 19.1183 22.1771 19.16 22.2812C19.2225 22.3646 19.3058 22.4271 19.41 22.4688C19.5142 22.4896 19.5767 22.4792 19.5975 22.4375C19.6392 22.3958 19.6808 22.3542 19.7225 22.3125C19.8475 22.3542 19.9412 22.3438 20.0037 22.2812C20.0871 22.1979 20.1912 22.1667 20.3162 22.1875C20.5871 22.0833 20.7329 22.0521 20.7537 22.0938C20.7746 22.1146 20.8058 22.1354 20.8475 22.1562L21.5037 22C21.6496 21.9792 21.7537 21.9896 21.8162 22.0312C21.8996 22.0729 21.9829 22.1354 22.0662 22.2188C22.1287 22.1979 22.2017 22.1979 22.285 22.2188C22.3892 22.2188 22.4621 22.2396 22.5037 22.2812C22.6704 22.2188 22.8787 22.1667 23.1287 22.125C23.3787 22.0625 23.5767 22.1042 23.7225 22.25C23.8058 22.2292 23.8787 22.2083 23.9412 22.1875C24.0246 22.1667 24.1183 22.1667 24.2225 22.1875C24.285 22.1458 24.3579 22.0938 24.4412 22.0312C24.5454 21.9479 24.6704 21.9271 24.8162 21.9688C24.9412 22.1354 24.9933 22.2292 24.9725 22.25C24.9725 22.25 24.9725 22.2708 24.9725 22.3125C25.0558 22.375 25.1392 22.3958 25.2225 22.375C25.3267 22.3333 25.4204 22.2917 25.5037 22.25C25.5871 22.2083 25.6704 22.1771 25.7537 22.1562C25.8371 22.1354 25.91 22.1562 25.9725 22.2188C26.0142 22.2812 26.0142 22.3438 25.9725 22.4062C25.9517 22.4479 25.9517 22.5 25.9725 22.5625C26.1183 22.5417 26.2537 22.5104 26.3787 22.4688C26.5037 22.4062 26.6496 22.3958 26.8162 22.4375C26.9412 22.3542 27.1079 22.2708 27.3162 22.1875C27.5454 22.1042 27.7121 22.1458 27.8162 22.3125C28.1704 22.2292 28.4829 22.1458 28.7537 22.0625C29.0037 22.125 29.1704 22.1354 29.2537 22.0938C29.3371 22.0521 29.4308 22.0521 29.535 22.0938C29.7225 22.0312 29.8683 21.9271 29.9725 21.7812C30.0975 21.6146 30.2746 21.5104 30.5037 21.4688C30.7121 21.5312 30.8579 21.5625 30.9412 21.5625C31.0454 21.5625 31.1183 21.6042 31.16 21.6875C31.2642 21.6458 31.3683 21.5938 31.4725 21.5312C31.5767 21.4479 31.6808 21.4479 31.785 21.5312C31.91 21.4479 32.0246 21.3646 32.1287 21.2812C32.2329 21.1979 32.3683 21.1354 32.535 21.0938C32.5767 21.0521 32.6287 21.0208 32.6912 21C32.7537 20.9792 32.8058 20.9479 32.8475 20.9062C32.9308 20.8438 33.0037 20.7812 33.0662 20.7188C33.1287 20.6562 33.2329 20.6354 33.3787 20.6562C33.4621 20.5938 33.5558 20.5729 33.66 20.5938C33.7642 20.6146 33.8267 20.6771 33.8475 20.7812C33.8058 20.8646 33.7642 20.9375 33.7225 21C33.6808 21.0417 33.6704 21.1146 33.6912 21.2188C33.6496 21.3021 33.5871 21.375 33.5037 21.4375C33.4204 21.5 33.3475 21.5625 33.285 21.625C33.2225 21.6875 33.16 21.7604 33.0975 21.8438C33.0558 21.9271 33.0454 22.0417 33.0662 22.1875C32.9412 22.3125 32.8579 22.4167 32.8162 22.5L32.8475 22.8125ZM47.5963 44.4062C47.6588 44.4271 47.7213 44.4375 47.7838 44.4375C47.8671 44.4375 47.94 44.4479 48.0025 44.4688C48.1067 44.5729 48.0963 44.6771 47.9713 44.7812C47.8671 44.8646 47.7525 44.9271 47.6275 44.9688C47.4192 44.8854 47.2629 44.8542 47.1588 44.875C47.0754 44.875 46.9921 44.8646 46.9088 44.8438C46.8046 44.9062 46.6588 44.9375 46.4713 44.9375C46.3046 44.9375 46.1483 44.9271 46.0025 44.9062C45.7733 44.7812 45.6171 44.75 45.5338 44.8125C45.4504 44.875 45.3567 44.9167 45.2525 44.9375C45.1275 44.9583 45.0233 44.9375 44.94 44.875C44.8775 44.8125 44.7942 44.7604 44.69 44.7188C44.5858 44.7396 44.4921 44.7604 44.4088 44.7812C44.3254 44.8021 44.2421 44.8333 44.1588 44.875C44.0338 44.8333 43.9088 44.8333 43.7838 44.875C43.6796 44.9167 43.565 44.9271 43.44 44.9062C43.3567 44.9271 43.3046 44.9688 43.2838 45.0312C43.2838 45.1146 43.2421 45.1562 43.1588 45.1562C43.0129 44.9896 42.9296 44.8958 42.9088 44.875C42.9088 44.8333 42.8879 44.8021 42.8463 44.7812C42.6796 44.4896 42.5754 44.2396 42.5338 44.0312C42.5129 43.8229 42.4608 43.6354 42.3775 43.4688C42.2525 43.2604 42.1796 43.1458 42.1588 43.125C42.1588 43.1042 42.1588 43.0729 42.1588 43.0312C41.9088 42.8438 41.8358 42.6146 41.94 42.3438C41.8775 42.1771 41.8358 42.0938 41.815 42.0938C41.7942 42.0729 41.7838 42.0417 41.7838 42C41.7213 41.9375 41.6796 41.8542 41.6588 41.75C41.6379 41.625 41.6067 41.5104 41.565 41.4062C41.4608 41.2604 41.3879 41.1771 41.3463 41.1562C41.3254 41.1146 41.2942 41.0729 41.2525 41.0312C41.2733 40.9062 41.2525 40.8229 41.19 40.7812C41.1275 40.7188 41.0963 40.6354 41.0963 40.5312C41.0546 40.1562 41.065 39.9167 41.1275 39.8125C40.8983 39.6042 40.7525 39.4792 40.69 39.4375C40.6275 39.375 40.5546 39.3229 40.4713 39.2812C40.3671 39.3646 40.315 39.5104 40.315 39.7188C40.315 39.9062 40.2525 40.0312 40.1275 40.0938C40.0858 40.2396 40.0546 40.3333 40.0338 40.375C40.0338 40.4167 40.0233 40.4479 40.0025 40.4688C39.9608 40.5938 39.9088 40.7188 39.8463 40.8438C39.8046 40.9479 39.7629 41.0521 39.7213 41.1562C39.7004 41.3021 39.6483 41.4167 39.565 41.5C39.5025 41.5625 39.4608 41.6771 39.44 41.8438C39.3983 41.9062 39.3567 41.9688 39.315 42.0312C39.2942 42.0729 39.2629 42.125 39.2213 42.1875C39.0338 42.4583 38.8983 42.6562 38.815 42.7812C38.7317 42.9062 38.7108 43.0833 38.7525 43.3125C38.69 43.4167 38.5963 43.5 38.4713 43.5625C38.4504 43.6458 38.4192 43.7083 38.3775 43.75C38.3358 43.7917 38.2942 43.8438 38.2525 43.9062C38.2525 44.0521 38.2317 44.1979 38.19 44.3438C38.1483 44.4688 38.1379 44.6146 38.1588 44.7812C37.9921 44.8854 37.8983 44.9271 37.8775 44.9062C37.8567 44.8646 37.8254 44.8438 37.7838 44.8438C37.6796 44.8646 37.5858 44.8646 37.5025 44.8438C37.4192 44.8229 37.3358 44.8333 37.2525 44.875C37.1483 44.8542 37.0546 44.8333 36.9713 44.8125C36.8879 44.7917 36.7942 44.7812 36.69 44.7812C36.6067 44.8021 36.5338 44.8333 36.4713 44.875C36.4088 44.8958 36.3463 44.9271 36.2838 44.9688C36.0546 44.9062 35.9192 44.8958 35.8775 44.9375C35.8567 44.9583 35.815 44.9688 35.7525 44.9688C35.5025 44.9271 35.3358 44.9062 35.2525 44.9062C35.1692 44.8854 35.1067 44.8229 35.065 44.7188C34.9608 44.7188 34.8775 44.75 34.815 44.8125C34.7733 44.875 34.7004 44.9167 34.5963 44.9375C34.4504 44.9375 34.3567 44.9062 34.315 44.8438C34.2733 44.7604 34.2004 44.7083 34.0963 44.6875C33.9504 44.7083 33.8567 44.7604 33.815 44.8438C33.7525 44.9271 33.6483 44.9792 33.5025 45C33.3567 45.0625 33.2733 45.0833 33.2525 45.0625C33.2108 45.0417 33.1692 45.0208 33.1275 45C32.9192 44.9792 32.7942 44.9375 32.7525 44.875C32.69 44.7917 32.69 44.7083 32.7525 44.625C32.9192 44.6042 33.0233 44.5729 33.065 44.5312C33.1067 44.4896 33.1796 44.4896 33.2838 44.5312C33.4296 44.3438 33.5963 44.1875 33.7838 44.0625C33.9713 43.9375 34.1588 43.8125 34.3463 43.6875C34.5963 43.5833 34.7525 43.4792 34.815 43.375C34.8983 43.2708 34.9921 43.1667 35.0963 43.0625C35.3046 42.875 35.4296 42.7396 35.4713 42.6562C35.5129 42.5729 35.5442 42.4792 35.565 42.375C35.6067 42.2917 35.6483 42.2188 35.69 42.1562C35.7317 42.0729 35.7942 42 35.8775 41.9375C35.7942 41.6458 35.8046 41.4792 35.9088 41.4375C36.0338 41.3958 36.1275 41.3333 36.19 41.25C36.2108 40.9792 36.2525 40.7917 36.315 40.6875C36.3983 40.5833 36.4192 40.4271 36.3775 40.2188C36.5025 40.0938 36.6067 39.9688 36.69 39.8438C36.7942 39.7188 36.9192 39.6042 37.065 39.5C37.0858 39.0625 37.1483 38.7396 37.2525 38.5312C37.3567 38.3229 37.4608 38.125 37.565 37.9375C37.5858 37.8958 37.5963 37.8438 37.5963 37.7812C37.5963 37.7188 37.6067 37.6562 37.6275 37.5938C37.6483 37.4062 37.6796 37.2812 37.7213 37.2188C37.7838 37.1354 37.8463 37.0625 37.9088 37C37.9296 36.9583 37.9504 36.9167 37.9713 36.875C37.9921 36.8125 37.9921 36.7396 37.9713 36.6562C38.0963 36.3854 38.1796 36.2292 38.2213 36.1875C38.2838 36.1458 38.3254 36.0938 38.3463 36.0312C38.4713 35.8229 38.5442 35.6667 38.565 35.5625C38.6483 35.3125 38.6588 35.1667 38.5963 35.125C38.5338 35.0625 38.4608 34.9896 38.3775 34.9062C38.4192 34.7604 38.3879 34.6562 38.2838 34.5938C38.1796 34.5312 38.1067 34.4479 38.065 34.3438C38.065 34.2396 38.0754 34.1562 38.0963 34.0938C38.1379 34.0104 38.1588 33.9062 38.1588 33.7812C38.1171 33.6771 38.0546 33.6146 37.9713 33.5938C37.8879 33.5729 37.8254 33.5208 37.7838 33.4375C37.7421 33.3542 37.7317 33.25 37.7525 33.125C37.7733 33 37.7629 32.8854 37.7213 32.7812C37.7004 32.6146 37.6483 32.5417 37.565 32.5625C37.4817 32.5625 37.4088 32.5521 37.3463 32.5312C37.1796 32.3021 37.1067 32.1667 37.1275 32.125C37.1483 32.0833 37.1588 32.0312 37.1588 31.9688C37.1379 31.8021 37.0754 31.6667 36.9713 31.5625C36.8671 31.4375 36.8254 31.2917 36.8463 31.125C36.6171 30.9375 36.4817 30.7708 36.44 30.625C36.4192 30.4583 36.3879 30.3125 36.3463 30.1875C36.3254 29.9167 36.2629 29.7292 36.1588 29.625C36.0754 29.5208 35.9817 29.4167 35.8775 29.3125C35.815 29.1458 35.815 29.0312 35.8775 28.9688C35.8358 28.9062 35.7838 28.8646 35.7213 28.8438C35.6796 28.8229 35.6692 28.7604 35.69 28.6562C35.4608 28.5312 35.315 28.4375 35.2525 28.375C35.2108 28.3125 35.1692 28.2396 35.1275 28.1562C34.9608 28.1146 34.8463 28.0312 34.7838 27.9062C34.6796 27.7188 34.5858 27.6146 34.5025 27.5938C34.44 27.5521 34.3879 27.4896 34.3463 27.4062C34.2004 27.3854 34.0754 27.375 33.9713 27.375C33.8671 27.3542 33.7421 27.3646 33.5963 27.4062C33.5338 27.3646 33.4921 27.3125 33.4713 27.25C33.4296 27.1875 33.3775 27.1354 33.315 27.0938C33.1275 26.9896 33.1067 26.8854 33.2525 26.7812C33.3775 26.6771 33.5233 26.6562 33.69 26.7188C33.7942 26.7396 33.8879 26.7188 33.9713 26.6562C34.0754 26.5938 34.2004 26.5833 34.3463 26.625C34.4504 26.6667 34.5754 26.6875 34.7213 26.6875C34.8671 26.6875 34.9921 26.6771 35.0963 26.6562C35.1796 26.6146 35.2525 26.5625 35.315 26.5C35.3775 26.4375 35.44 26.3854 35.5025 26.3438C35.6067 26.3229 35.6796 26.3333 35.7213 26.375C35.7838 26.4167 35.8567 26.4583 35.94 26.5C36.0233 26.5 36.1067 26.5 36.19 26.5C36.2733 26.5 36.3358 26.4792 36.3775 26.4375C36.4608 26.4583 36.5442 26.4792 36.6275 26.5C36.7317 26.5208 36.8358 26.5104 36.94 26.4688C37.0025 26.5104 37.0442 26.5521 37.065 26.5938C37.1067 26.6354 37.1692 26.6667 37.2525 26.6875C37.565 26.6042 37.7733 26.5521 37.8775 26.5312C38.0025 26.5104 38.1171 26.5208 38.2213 26.5625C38.2838 26.5208 38.3671 26.5 38.4713 26.5C38.5754 26.5 38.6692 26.4896 38.7525 26.4688C38.7525 26.6354 38.7213 26.7083 38.6588 26.6875C38.5963 26.6458 38.5338 26.6562 38.4713 26.7188C38.5338 26.9688 38.5754 27.1458 38.5963 27.25C38.6171 27.3333 38.6483 27.4271 38.69 27.5312C38.7733 27.6146 38.8358 27.6979 38.8775 27.7812C38.94 27.8646 39.0338 27.9271 39.1588 27.9688C39.2213 28.0312 39.2838 28.1146 39.3463 28.2188C39.4088 28.3021 39.44 28.4167 39.44 28.5625C39.44 28.7083 39.4192 28.8542 39.3775 29C39.3358 29.125 39.3254 29.25 39.3463 29.375C39.5754 29.5625 39.7317 29.7083 39.815 29.8125C39.9192 29.8958 39.9921 29.9896 40.0338 30.0938C40.0338 30.3021 40.065 30.4688 40.1275 30.5938C40.19 30.7188 40.2629 30.8438 40.3463 30.9688C40.3879 31.1979 40.3983 31.3333 40.3775 31.375C40.3775 31.3958 40.3775 31.4271 40.3775 31.4688C40.4192 31.5312 40.4504 31.5833 40.4713 31.625C40.4921 31.6667 40.5233 31.7188 40.565 31.7812C40.565 31.9271 40.565 32.0625 40.565 32.1875C40.4817 32.3125 40.44 32.4583 40.44 32.625C40.7108 32.3542 40.8567 32.1667 40.8775 32.0625C40.7733 31.8333 40.7421 31.7083 40.7838 31.6875C40.8254 31.6458 40.8463 31.6042 40.8463 31.5625C40.8671 31.4792 40.8671 31.4062 40.8463 31.3438C40.8254 31.2604 40.815 31.1875 40.815 31.125C40.9608 30.8542 41.065 30.6667 41.1275 30.5625C41.19 30.4375 41.2421 30.2917 41.2838 30.125C41.3254 30.0625 41.3775 30 41.44 29.9375C41.5025 29.875 41.5546 29.8125 41.5963 29.75C41.6379 29.5833 41.7004 29.4375 41.7838 29.3125C41.8879 29.1667 41.9817 29.0417 42.065 28.9375C42.1067 28.7083 42.1692 28.5 42.2525 28.3125C42.3567 28.125 42.4088 27.9062 42.4088 27.6562C42.4921 27.5938 42.5546 27.5312 42.5963 27.4688C42.6379 27.4062 42.6796 27.3438 42.7213 27.2812C42.6796 27.0312 42.6692 26.8021 42.69 26.5938C42.7317 26.3854 42.8254 26.2188 42.9713 26.0938C43.1588 26.2396 43.2421 26.3333 43.2213 26.375C43.2004 26.3958 43.2004 26.4271 43.2213 26.4688C43.4088 26.4271 43.565 26.4271 43.69 26.4688C43.8358 26.4896 44.0025 26.5208 44.19 26.5625C44.2942 26.5208 44.4192 26.4792 44.565 26.4375C44.7108 26.3958 44.8567 26.3646 45.0025 26.3438C45.1067 26.3438 45.2004 26.3542 45.2838 26.375C45.3879 26.375 45.4817 26.3542 45.565 26.3125C45.7525 26.4583 45.8879 26.5312 45.9713 26.5312C46.0754 26.5104 46.1796 26.5104 46.2838 26.5312C46.5963 26.4688 46.8983 26.4479 47.19 26.4688C47.2733 26.5104 47.3463 26.5417 47.4088 26.5625C47.4713 26.5833 47.5233 26.625 47.565 26.6875C47.315 26.875 47.1171 27 46.9713 27.0625C46.8463 27.1042 46.7421 27.1979 46.6588 27.3438C46.6379 27.5104 46.5858 27.6042 46.5025 27.625C46.44 27.6458 46.3775 27.6771 46.315 27.7188C46.1483 27.8854 46.0025 28.0625 45.8775 28.25C45.7733 28.4167 45.6067 28.5521 45.3775 28.6562C45.3358 28.7604 45.2838 28.8542 45.2213 28.9375C45.1588 29 45.1275 29.0938 45.1275 29.2188C45.1275 29.5521 45.0858 29.7708 45.0025 29.875C44.9192 29.9792 44.8358 30.0729 44.7525 30.1562C44.7317 30.3021 44.69 30.4167 44.6275 30.5C44.565 30.5625 44.5129 30.6562 44.4713 30.7812C44.3879 30.8438 44.3254 30.9375 44.2838 31.0625C44.2421 31.1875 44.1796 31.2812 44.0963 31.3438C44.0963 31.4479 44.0963 31.5417 44.0963 31.625C44.1171 31.7083 44.1171 31.8021 44.0963 31.9062C44.0546 32.0104 43.9817 32.1042 43.8775 32.1875C43.7942 32.25 43.7108 32.3229 43.6275 32.4062C43.5442 32.4896 43.4817 32.5938 43.44 32.7188C43.3983 32.8229 43.4088 32.9479 43.4713 33.0938C43.2629 33.3438 43.1171 33.6146 43.0338 33.9062C42.8671 33.9479 42.7733 34.0312 42.7525 34.1562C42.8358 34.5104 42.8358 34.7396 42.7525 34.8438C42.6692 34.9271 42.5963 35.0417 42.5338 35.1875C42.5963 35.4792 42.5963 35.6667 42.5338 35.75C42.5754 35.7917 42.6275 35.8229 42.69 35.8438C42.7733 35.8646 42.8358 35.8958 42.8775 35.9375C43.0233 36.3333 43.1379 36.6562 43.2213 36.9062C43.3254 37.0104 43.3879 37.1458 43.4088 37.3125C43.4504 37.4583 43.5129 37.6042 43.5963 37.75C43.6588 37.9375 43.7213 38.0521 43.7838 38.0938C43.8671 38.1354 43.9192 38.2083 43.94 38.3125C43.94 38.3958 43.9192 38.4688 43.8775 38.5312C43.8358 38.5729 43.815 38.6458 43.815 38.75C43.8775 38.7917 43.94 38.8229 44.0025 38.8438C44.065 38.8438 44.1067 38.875 44.1275 38.9375C44.1692 39.1875 44.2317 39.3229 44.315 39.3438C44.3983 39.3646 44.4504 39.4271 44.4713 39.5312C44.5963 39.5938 44.7213 39.6667 44.8463 39.75C44.9713 39.8125 45.0338 39.9271 45.0338 40.0938C44.9921 40.1771 44.9504 40.2604 44.9088 40.3438C44.8879 40.4062 44.8567 40.4792 44.815 40.5625C44.8358 40.75 44.8775 40.9271 44.94 41.0938C45.0233 41.2604 45.0233 41.4271 44.94 41.5938C44.9608 41.6771 44.9817 41.75 45.0025 41.8125C45.0233 41.8542 45.0338 41.9062 45.0338 41.9688C45.1796 41.9896 45.2733 42.0417 45.315 42.125C45.3775 42.2083 45.4504 42.2812 45.5338 42.3438C45.5338 42.5312 45.5442 42.6562 45.565 42.7188C45.5858 42.7604 45.5963 42.8229 45.5963 42.9062C45.8254 43.0312 45.94 43.1354 45.94 43.2188C46.1067 43.2188 46.2317 43.2292 46.315 43.25C46.3567 43.3333 46.4192 43.3958 46.5025 43.4375C46.6067 43.4583 46.6796 43.5 46.7213 43.5625C46.8879 43.75 47.0025 43.8438 47.065 43.8438C47.1275 43.8229 47.19 43.8333 47.2525 43.875C47.2942 43.9167 47.3046 43.9792 47.2838 44.0625C47.2838 44.125 47.2838 44.1771 47.2838 44.2188C47.3046 44.3021 47.3463 44.3542 47.4088 44.375C47.4713 44.375 47.5338 44.3854 47.5963 44.4062ZM60.97 32.125C60.8867 32.3958 60.9075 32.5833 61.0325 32.6875C61.1783 32.7917 61.1887 32.9167 61.0637 33.0625C61.0221 33.1042 60.9596 33.125 60.8762 33.125C60.8137 33.1042 60.7617 33.1042 60.72 33.125C60.6783 33.1667 60.6575 33.2188 60.6575 33.2812C60.6575 33.3438 60.6575 33.4062 60.6575 33.4688C60.5533 33.6354 60.4804 33.7396 60.4387 33.7812C60.4179 33.8229 60.3971 33.875 60.3762 33.9375C60.3971 34.0833 60.4179 34.2188 60.4387 34.3438C60.4596 34.4688 60.4492 34.6042 60.4075 34.75C60.3658 35.0833 60.2825 35.3125 60.1575 35.4375C60.0325 35.5625 59.8762 35.6458 59.6887 35.6875C59.6471 35.8542 59.6054 36.0312 59.5637 36.2188C59.5429 36.3854 59.4387 36.4688 59.2512 36.4688C59.0637 36.6771 58.8554 36.8021 58.6262 36.8438C58.6262 36.9062 58.6367 36.9688 58.6575 37.0312C58.6992 37.0729 58.72 37.1354 58.72 37.2188C58.6575 37.3438 58.5429 37.3958 58.3762 37.375C58.2096 37.3542 58.0846 37.3125 58.0012 37.25C57.7512 37.2917 57.5533 37.3125 57.4075 37.3125C57.2825 37.3125 57.1679 37.3333 57.0637 37.375C57.0012 37.4375 56.9492 37.5 56.9075 37.5625C56.8658 37.625 56.8033 37.6771 56.72 37.7188C56.4492 37.6146 56.2825 37.5938 56.22 37.6562C56.1783 37.6979 56.1262 37.7396 56.0637 37.7812C55.9387 37.7812 55.8242 37.7292 55.72 37.625C55.6158 37.6667 55.5117 37.7188 55.4075 37.7812C55.3242 37.8438 55.22 37.8542 55.095 37.8125C55.0117 37.875 54.9283 37.8958 54.845 37.875C54.7617 37.8542 54.6471 37.8542 54.5012 37.875C54.4387 37.8333 54.3867 37.7917 54.345 37.75C54.3033 37.6875 54.2617 37.625 54.22 37.5625C54.1158 37.5625 54.0533 37.6042 54.0325 37.6875C54.0117 37.7708 53.9492 37.8125 53.845 37.8125C53.6992 38 53.6262 38.1458 53.6262 38.25C53.6471 38.3333 53.6783 38.3958 53.72 38.4375C53.595 38.75 53.5533 38.9688 53.595 39.0938C53.6367 39.2188 53.6471 39.3542 53.6262 39.5C53.5429 39.7292 53.5221 39.8646 53.5637 39.9062C53.6054 39.9271 53.6262 39.9792 53.6262 40.0625C53.6054 40.2917 53.5846 40.4375 53.5637 40.5C53.5429 40.5417 53.5221 40.6042 53.5012 40.6875C53.5637 40.9167 53.5742 41.0521 53.5325 41.0938C53.5117 41.1354 53.4804 41.1875 53.4387 41.25C53.4804 41.3125 53.5012 41.3854 53.5012 41.4688C53.5221 41.5312 53.5533 41.6042 53.595 41.6875C53.595 41.7708 53.5846 41.8438 53.5637 41.9062C53.5429 41.9479 53.5221 41.9896 53.5012 42.0312C53.4804 42.1146 53.4908 42.1771 53.5325 42.2188C53.5742 42.2396 53.5846 42.2917 53.5637 42.375C53.5637 42.6042 53.5846 42.7917 53.6262 42.9375C53.6679 43.0833 53.6575 43.2188 53.595 43.3438C53.6158 43.4688 53.6575 43.5833 53.72 43.6875C53.8033 43.7708 53.8346 43.875 53.8137 44C53.8137 44.2708 53.8137 44.4271 53.8137 44.4688C53.8346 44.4896 53.845 44.5208 53.845 44.5625C53.8242 44.75 53.8137 44.8854 53.8137 44.9688C53.6679 45.0938 53.5325 45.2188 53.4075 45.3438C53.345 45.5729 53.2408 45.6771 53.095 45.6562C52.97 45.6354 52.8658 45.6667 52.7825 45.75C52.845 45.9792 52.845 46.1042 52.7825 46.125C52.7408 46.1458 52.6992 46.1771 52.6575 46.2188C52.6158 46.5729 52.5012 46.7917 52.3137 46.875C52.1471 46.9583 52.0117 47.0938 51.9075 47.2812C51.8867 47.5938 51.8346 47.75 51.7512 47.75C51.6887 47.7708 51.6158 47.8021 51.5325 47.8438C51.4908 47.8854 51.4596 47.9375 51.4387 48C51.4387 48.0625 51.4283 48.125 51.4075 48.1875C51.3658 48.2292 51.3242 48.2812 51.2825 48.3438C51.2617 48.4062 51.2304 48.4583 51.1887 48.5C51.1679 48.5833 51.1575 48.7292 51.1575 48.9375C51.1158 49.125 51.0846 49.2396 51.0637 49.2812C51.0637 49.3229 51.0637 49.3646 51.0637 49.4062C51.0429 49.5938 51.0533 49.7083 51.095 49.75C51.1367 49.8125 51.1575 49.8854 51.1575 49.9688C51.095 50.0938 51.0221 50.1146 50.9387 50.0312C50.8554 49.9688 50.7929 49.9062 50.7512 49.8438C50.7096 50.0312 50.6679 50.1458 50.6262 50.1875C50.4387 50 50.3346 49.8333 50.3137 49.6875C50.2929 49.5417 50.2304 49.4375 50.1262 49.375C50.1054 49.2083 50.1054 49.1146 50.1262 49.0938C50.1679 49.0729 50.1887 49.0417 50.1887 49C50.1679 48.7083 50.1367 48.5208 50.095 48.4375C50.0742 48.375 50.0637 48.2708 50.0637 48.125C50.1471 47.9792 50.1783 47.8854 50.1575 47.8438C50.1575 47.8021 50.1575 47.75 50.1575 47.6875C50.2825 47.5208 50.3242 47.4062 50.2825 47.3438C50.2617 47.2812 50.2617 47.2188 50.2825 47.1562C50.345 47.1146 50.4075 47.0938 50.47 47.0938C50.5533 47.0938 50.6158 47.0417 50.6575 46.9375C50.47 46.7708 50.3971 46.6354 50.4387 46.5312C50.3554 46.4688 50.2825 46.3958 50.22 46.3125C50.1575 46.25 50.1158 46.1667 50.095 46.0625C50.1992 45.8958 50.2721 45.7812 50.3137 45.7188C50.3554 45.6771 50.3762 45.6042 50.3762 45.5C50.2096 45.3542 50.1367 45.2604 50.1575 45.2188C50.1783 45.1979 50.1992 45.1667 50.22 45.125C50.22 44.9375 50.2617 44.8021 50.345 44.7188C50.345 44.4479 50.2929 44.1771 50.1887 43.9062C50.2512 43.7396 50.3033 43.6354 50.345 43.5938C50.3867 43.5312 50.4283 43.4792 50.47 43.4375C50.47 43.3125 50.4492 43.1979 50.4075 43.0938C50.3658 42.9688 50.3242 42.8542 50.2825 42.75C50.2408 42.6458 50.22 42.5521 50.22 42.4688C50.22 42.3646 50.2825 42.2708 50.4075 42.1875C50.345 42 50.3554 41.8438 50.4387 41.7188C50.4179 41.6354 50.3971 41.5729 50.3762 41.5312C50.3762 41.4688 50.3867 41.3958 50.4075 41.3125C50.47 40.9792 50.47 40.75 50.4075 40.625C50.3658 40.4792 50.3137 40.3229 50.2512 40.1562C50.3137 39.9479 50.3346 39.8021 50.3137 39.7188C50.3137 39.6354 50.345 39.5521 50.4075 39.4688C50.4075 39.0729 50.3554 38.7708 50.2512 38.5625C50.1679 38.3542 50.1262 38.125 50.1262 37.875C50.1679 37.8333 50.1887 37.7708 50.1887 37.6875C50.2096 37.6042 50.22 37.5312 50.22 37.4688C50.1992 37.1979 50.2096 37.0312 50.2512 36.9688C50.2929 36.9062 50.3242 36.8229 50.345 36.7188C50.2617 36.4479 50.2304 36.2812 50.2512 36.2188C50.2929 36.1562 50.3346 36.0729 50.3762 35.9688C50.3137 35.8438 50.2721 35.6979 50.2512 35.5312C50.2512 35.3646 50.2408 35.1979 50.22 35.0312C50.2617 34.8021 50.2617 34.6667 50.22 34.625C50.1783 34.5625 50.1367 34.4896 50.095 34.4062C50.1158 34.2188 50.1992 34.0521 50.345 33.9062C50.3033 33.6562 50.3033 33.4896 50.345 33.4062C50.3658 33.3021 50.3658 33.2188 50.345 33.1562C50.3242 33.0938 50.2929 33.0312 50.2512 32.9688C50.2304 32.9271 50.2304 32.875 50.2512 32.8125C50.2721 32.75 50.2825 32.6875 50.2825 32.625C50.22 32.375 50.1992 32.25 50.22 32.25C50.2617 32.2292 50.2929 32.2083 50.3137 32.1875C50.2721 32.0625 50.2721 31.9688 50.3137 31.9062C50.3762 31.8438 50.4283 31.7812 50.47 31.7188C50.4492 31.6146 50.4283 31.5104 50.4075 31.4062C50.4075 31.2812 50.3762 31.1771 50.3137 31.0938C50.2929 30.8646 50.2408 30.6667 50.1575 30.5L50.2512 30.0312C50.0846 29.8646 50.0117 29.7708 50.0325 29.75C50.0742 29.7083 50.0846 29.6458 50.0637 29.5625C50.0221 29.5 49.97 29.4479 49.9075 29.4062C49.8658 29.3646 49.8346 29.3021 49.8137 29.2188C49.6679 28.9688 49.5637 28.7812 49.5012 28.6562C49.4596 28.5104 49.4179 28.3542 49.3762 28.1875C49.2096 28.125 49.1158 28 49.095 27.8125C48.9908 27.7708 48.9075 27.7083 48.845 27.625C48.8033 27.5417 48.7304 27.4688 48.6262 27.4062C48.4596 27.4688 48.3137 27.4583 48.1887 27.375C48.0637 27.2708 48.0221 27.1354 48.0637 26.9688C48.3346 26.9062 48.4908 26.8542 48.5325 26.8125C48.5533 26.7708 48.6054 26.75 48.6887 26.75C48.7721 26.7708 48.8242 26.8021 48.845 26.8438C48.8867 26.8854 48.9283 26.9271 48.97 26.9688C49.3242 26.9062 49.5533 26.8438 49.6575 26.7812C49.7617 26.6979 49.8658 26.6667 49.97 26.6875C50.0533 26.6458 50.1575 26.5938 50.2825 26.5312C50.4075 26.4688 50.5221 26.4896 50.6262 26.5938C50.6887 26.5521 50.7408 26.5208 50.7825 26.5C50.8242 26.4583 50.8971 26.4479 51.0012 26.4688C51.0637 26.5104 51.095 26.5625 51.095 26.625C51.1158 26.6667 51.1471 26.7188 51.1887 26.7812C51.2929 26.7396 51.4075 26.7188 51.5325 26.7188C51.6575 26.7188 51.7408 26.6667 51.7825 26.5625C51.9492 26.5208 52.095 26.5104 52.22 26.5312C52.4908 26.6979 52.6679 26.7604 52.7512 26.7188C52.8346 26.6562 52.9283 26.6042 53.0325 26.5625C53.1992 26.6042 53.3346 26.5938 53.4387 26.5312C53.5637 26.4688 53.6887 26.4167 53.8137 26.375C53.8971 26.4167 53.9596 26.4688 54.0012 26.5312C54.0429 26.5729 54.0846 26.6146 54.1262 26.6562C54.3762 26.6562 54.5221 26.6562 54.5637 26.6562C54.6262 26.6354 54.72 26.625 54.845 26.625C54.9075 26.6667 54.9596 26.7083 55.0012 26.75C55.0637 26.7917 55.1262 26.8333 55.1887 26.875C55.3137 26.8333 55.4283 26.8229 55.5325 26.8438C55.6575 26.8229 55.7617 26.7917 55.845 26.75C55.9492 26.7083 56.0637 26.6771 56.1887 26.6562C56.4179 26.7188 56.595 26.7396 56.72 26.7188C56.8658 26.6979 56.9908 26.7083 57.095 26.75C57.345 26.6875 57.4804 26.6771 57.5012 26.7188C57.5221 26.7604 57.5533 26.8021 57.595 26.8438C57.8033 26.9896 58.0117 27.0625 58.22 27.0625C58.4075 27.25 58.5221 27.3646 58.5637 27.4062C58.6262 27.4479 58.6887 27.4896 58.7512 27.5312C58.9179 27.5312 59.0533 27.5833 59.1575 27.6875C59.2408 27.9792 59.3658 28.125 59.5325 28.125C59.72 28.25 59.845 28.4167 59.9075 28.625C60.0117 28.6667 60.0742 28.7083 60.095 28.75C60.1367 28.7917 60.1783 28.8542 60.22 28.9375C60.3033 29.0833 60.3346 29.2083 60.3137 29.3125C60.2929 29.4167 60.2929 29.5104 60.3137 29.5938C60.3762 29.6979 60.4492 29.7812 60.5325 29.8438C60.6158 29.9062 60.6783 29.9896 60.72 30.0938C60.6992 30.3438 60.7096 30.5 60.7512 30.5625C60.7929 30.6042 60.8242 30.6771 60.845 30.7812C60.9492 30.9688 61.0012 31.1146 61.0012 31.2188C60.9804 31.4479 60.9804 31.625 61.0012 31.75C61.0429 31.8542 61.0325 31.9792 60.97 32.125ZM57.9075 33C57.9283 32.7917 57.9283 32.6667 57.9075 32.625C57.8867 32.5833 57.8658 32.5312 57.845 32.4688C57.8033 32.2396 57.7929 32.0521 57.8137 31.9062C57.7721 31.8646 57.7512 31.8021 57.7512 31.7188C57.7512 31.6146 57.7304 31.5312 57.6887 31.4688C57.6054 31.3021 57.5637 31.125 57.5637 30.9375C57.5637 30.75 57.5221 30.6042 57.4387 30.5C57.1887 30.4167 57.0742 30.2604 57.095 30.0312L56.72 29.7812C56.6367 29.6979 56.5637 29.625 56.5012 29.5625C56.4387 29.4792 56.3554 29.4167 56.2512 29.375C56.1887 29.4167 56.1158 29.4583 56.0325 29.5C55.9492 29.5417 55.8554 29.5521 55.7512 29.5312C55.5012 29.4688 55.3346 29.4375 55.2512 29.4375C55.1679 29.4375 55.0742 29.4375 54.97 29.4375C54.72 29.5208 54.5846 29.5521 54.5637 29.5312C54.5429 29.4896 54.5117 29.4479 54.47 29.4062C54.1575 29.3646 53.97 29.375 53.9075 29.4375C53.8658 29.5 53.7929 29.5312 53.6887 29.5312C53.7304 29.6979 53.7304 29.8229 53.6887 29.9062C53.6679 29.9896 53.6367 30.0833 53.595 30.1875C53.595 30.2917 53.6158 30.3646 53.6575 30.4062C53.72 30.4271 53.7617 30.4792 53.7825 30.5625C53.8033 30.7292 53.7721 30.8542 53.6887 30.9375C53.6262 31 53.5742 31.1042 53.5325 31.25C53.6367 31.4583 53.6783 31.5729 53.6575 31.5938C53.6575 31.5938 53.6575 31.6146 53.6575 31.6562C53.72 31.7604 53.7408 31.8854 53.72 32.0312C53.6992 32.1562 53.6679 32.2812 53.6262 32.4062C53.6679 32.4896 53.6783 32.5833 53.6575 32.6875C53.6575 32.7708 53.6575 32.8646 53.6575 32.9688C53.72 33.2812 53.7408 33.4792 53.72 33.5625C53.72 33.625 53.72 33.7188 53.72 33.8438C53.595 33.9479 53.5325 34.1042 53.5325 34.3125C53.6783 34.5 53.7304 34.6042 53.6887 34.625C53.6679 34.625 53.6471 34.6458 53.6262 34.6875C53.6679 34.75 53.6887 34.8229 53.6887 34.9062C53.6887 34.9688 53.6887 35.0208 53.6887 35.0625C53.7304 35.1042 53.7721 35.125 53.8137 35.125C53.8762 35.1042 53.9596 35.0938 54.0637 35.0938C54.3346 35.0938 54.5533 35.0938 54.72 35.0938C54.8867 35.0938 55.0533 35.1146 55.22 35.1562C55.3242 35.1354 55.4179 35.1042 55.5012 35.0625C55.6054 35 55.72 34.9896 55.845 35.0312C56.0742 34.9479 56.2096 34.9167 56.2512 34.9375C56.3137 34.9583 56.3762 34.9583 56.4387 34.9375C56.5637 34.9167 56.6575 34.8646 56.72 34.7812C56.7825 34.6979 56.8346 34.6146 56.8762 34.5312C57.0637 34.3229 57.1679 34.1979 57.1887 34.1562C57.2304 34.0938 57.2617 34.0208 57.2825 33.9375C57.3033 33.8542 57.345 33.7917 57.4075 33.75C57.4908 33.5625 57.5637 33.4062 57.6262 33.2812C57.6887 33.1354 57.7825 33.0417 57.9075 33ZM74.2188 38.9688C74.2604 39.0729 74.2708 39.1667 74.25 39.25C74.2292 39.3125 74.2188 39.3958 74.2188 39.5C74.0938 39.6458 74.0312 39.7396 74.0312 39.7812C74.0521 39.8021 74.0417 39.8438 74 39.9062C74.125 40.0729 74.1458 40.1667 74.0625 40.1875C74 40.2083 73.9479 40.25 73.9062 40.3125C73.8646 40.3958 73.8229 40.4792 73.7812 40.5625C73.7604 40.625 73.7292 40.7083 73.6875 40.8125C73.6667 40.9792 73.6354 41.0938 73.5938 41.1562C73.5729 41.1979 73.5521 41.2708 73.5312 41.375C73.5938 41.6042 73.5729 41.7396 73.4688 41.7812C73.3854 41.8229 73.3125 41.8854 73.25 41.9688C73.2708 42.3438 73.2292 42.6458 73.125 42.875C73.0417 43.1042 73.0208 43.3438 73.0625 43.5938C73.0208 43.6979 72.9688 43.7917 72.9062 43.875C72.8646 43.9583 72.8229 44.0521 72.7812 44.1562C72.6979 44.3854 72.6979 44.5625 72.7812 44.6875C72.8021 44.7917 72.8021 44.875 72.7812 44.9375C72.7604 44.9792 72.7396 45.0417 72.7188 45.125C72.5729 45.1667 72.4167 45.1875 72.25 45.1875C72.1042 45.1875 71.9792 45.1354 71.875 45.0312C71.7708 45.0729 71.6562 45.0833 71.5312 45.0625C71.4271 45.0417 71.3229 45.0208 71.2188 45C70.8646 45.1042 70.6771 45.0521 70.6562 44.8438C70.4271 45.0312 70.2083 45.1042 70 45.0625C69.8125 45.0417 69.6875 45.0625 69.625 45.125C69.5208 45.1042 69.3333 45.0938 69.0625 45.0938C68.8125 45.1146 68.6667 45.0833 68.625 45C68.5417 45.0208 68.4792 45.0521 68.4375 45.0938C68.4167 45.1562 68.3646 45.2083 68.2812 45.25C68.1771 45.2083 68.0208 45.1875 67.8125 45.1875C67.625 45.2083 67.4792 45.1979 67.375 45.1562C67.2708 45.1979 67.1458 45.2292 67 45.25C66.8542 45.2708 66.7604 45.1979 66.7188 45.0312C66.6562 45.0729 66.5833 45.1146 66.5 45.1562C66.4375 45.1979 66.375 45.2396 66.3125 45.2812C66.2083 45.2604 66.125 45.2708 66.0625 45.3125C66.0208 45.3542 65.9583 45.3646 65.875 45.3438C65.7917 45.3438 65.7188 45.3021 65.6562 45.2188C65.5938 45.1562 65.5 45.1354 65.375 45.1562C65.25 45.2188 65.1146 45.2292 64.9688 45.1875C64.8438 45.1458 64.7188 45.125 64.5938 45.125C64.3021 45.2292 64.1354 45.2604 64.0938 45.2188C64.0521 45.1979 64.0104 45.1667 63.9688 45.125C63.8021 45.1042 63.6875 45.1042 63.625 45.125C63.5833 45.1458 63.5104 45.1667 63.4062 45.1875C63.3229 45.1667 63.25 45.1458 63.1875 45.125C63.1458 45.125 63.0938 45.125 63.0312 45.125C62.8854 45.1042 62.7812 45.1042 62.7188 45.125C62.6771 45.1667 62.6042 45.1771 62.5 45.1562C62.3542 44.9688 62.2604 44.875 62.2188 44.875C62.1771 44.875 62.1562 44.8438 62.1562 44.7812C62.3021 44.5729 62.4271 44.4167 62.5312 44.3125C62.6562 44.2708 62.75 44.2188 62.8125 44.1562C62.875 44.0729 62.9896 44.0417 63.1562 44.0625C63.2188 44 63.2396 43.9479 63.2188 43.9062C63.1979 43.8438 63.1771 43.7604 63.1562 43.6562C63.2188 43.6146 63.2604 43.5833 63.2812 43.5625C63.3229 43.5417 63.3854 43.5104 63.4688 43.4688C63.5104 43.4062 63.5729 43.3542 63.6562 43.3125C63.7396 43.25 63.8021 43.1875 63.8438 43.125C63.8021 43.0833 63.7604 43.0312 63.7188 42.9688C63.6771 42.8854 63.6771 42.8021 63.7188 42.7188C63.6354 42.5521 63.6146 42.4583 63.6562 42.4375C63.7188 42.3958 63.7604 42.3438 63.7812 42.2812C63.8646 42.2396 63.9062 42.1875 63.9062 42.125C63.9271 42.0417 63.9583 41.9688 64 41.9062C63.9375 41.6562 63.9271 41.5312 63.9688 41.5312C64.0312 41.5104 64.0729 41.4792 64.0938 41.4375C64.1146 41.3333 64.1042 41.2708 64.0625 41.25C64.0208 41.2083 63.9792 41.1667 63.9375 41.125C63.9375 41.0208 63.9062 40.9479 63.8438 40.9062C63.7812 40.8438 63.7292 40.7708 63.6875 40.6875C63.6875 40.2708 63.7396 39.9375 63.8438 39.6875C63.9479 39.4375 64.0521 39.2188 64.1562 39.0312C64.1146 38.9479 64.0625 38.9062 64 38.9062C63.9375 38.8854 63.8854 38.8438 63.8438 38.7812C63.8438 38.6771 63.8542 38.6042 63.875 38.5625C63.8958 38.5 63.9271 38.4375 63.9688 38.375C63.9688 38.2083 63.9375 38.0729 63.875 37.9688C63.8125 37.8646 63.8021 37.6979 63.8438 37.4688C63.7604 37.2396 63.7396 37.1146 63.7812 37.0938C63.8229 37.0521 63.8542 37.0104 63.875 36.9688C63.9167 36.7188 63.9271 36.5833 63.9062 36.5625C63.8854 36.5417 63.875 36.5104 63.875 36.4688C63.9583 36.3021 63.9583 36.1458 63.875 36C63.8125 35.8542 63.8021 35.6979 63.8438 35.5312C63.7812 35.3229 63.7292 35.2083 63.6875 35.1875C63.6667 35.1667 63.6667 35.1354 63.6875 35.0938C63.6875 34.9896 63.7188 34.9167 63.7812 34.875C63.8438 34.8333 63.8958 34.7708 63.9375 34.6875C63.8542 34.5625 63.8333 34.3646 63.875 34.0938C63.75 34.0521 63.6458 34 63.5625 33.9375C63.4792 33.875 63.4479 33.7604 63.4688 33.5938C63.4271 33.5312 63.375 33.4792 63.3125 33.4375C63.2708 33.3958 63.2396 33.3333 63.2188 33.25C63.2604 33.0833 63.3542 32.9688 63.5 32.9062C63.6458 32.8229 63.7708 32.7083 63.875 32.5625C63.8125 32.3958 63.7812 32.2396 63.7812 32.0938C63.7812 31.9479 63.7708 31.8021 63.75 31.6562C63.8333 31.4479 63.8542 31.3333 63.8125 31.3125C63.7917 31.2708 63.8021 31.2188 63.8438 31.1562C63.9479 30.9896 63.9688 30.8958 63.9062 30.875C63.8646 30.8333 63.8229 30.7708 63.7812 30.6875C63.8229 30.6042 63.8542 30.5417 63.875 30.5C63.8958 30.4375 63.9271 30.375 63.9688 30.3125C63.8646 30.0625 63.8125 29.875 63.8125 29.75C63.8125 29.6042 63.7917 29.4792 63.75 29.375L63.5625 28.9688C63.5417 28.8646 63.5 28.8021 63.4375 28.7812C63.3958 28.7604 63.3542 28.7292 63.3125 28.6875C63.3333 28.5833 63.3125 28.5208 63.25 28.5C63.1875 28.4792 63.1458 28.4167 63.125 28.3125C63.1042 28.1667 63.0729 28.0833 63.0312 28.0625C62.9896 28.0417 62.9583 28.0104 62.9375 27.9688C62.75 27.7604 62.6771 27.6458 62.7188 27.625C62.7604 27.5833 62.8021 27.5417 62.8438 27.5C62.6146 27.4167 62.4896 27.3646 62.4688 27.3438C62.4479 27.3021 62.4271 27.2604 62.4062 27.2188C62.0938 27.1979 61.9479 27.1354 61.9688 27.0312C61.9896 26.9062 61.9896 26.7917 61.9688 26.6875C62.0521 26.6042 62.1667 26.5729 62.3125 26.5938C62.4583 26.6146 62.5833 26.5938 62.6875 26.5312C62.8125 26.5312 62.9167 26.5521 63 26.5938C63.1042 26.6354 63.2292 26.6562 63.375 26.6562C63.5833 26.5521 63.7188 26.5104 63.7812 26.5312C63.8438 26.5312 63.9062 26.5312 63.9688 26.5312C64.0729 26.4688 64.1875 26.4375 64.3125 26.4375C64.4375 26.4167 64.5312 26.4583 64.5938 26.5625C64.8438 26.4583 64.9792 26.4167 65 26.4375C65.0417 26.4583 65.0833 26.4792 65.125 26.5C65.2292 26.4583 65.3229 26.4375 65.4062 26.4375C65.4896 26.4167 65.5729 26.4271 65.6562 26.4688C65.8438 26.4479 66 26.4167 66.125 26.375C66.2708 26.3125 66.4479 26.2812 66.6562 26.2812C66.8229 26.4062 66.9375 26.4688 67 26.4688C67.0833 26.4479 67.1458 26.4583 67.1875 26.5C67.1875 26.6042 67.1667 26.6771 67.125 26.7188C67.1042 26.7396 67.1146 26.7917 67.1562 26.875C67.1146 26.9792 67.0833 27.0625 67.0625 27.125C67.0417 27.1667 67.0104 27.2188 66.9688 27.2812C67.0104 27.5312 67.0417 27.6667 67.0625 27.6875C67.1042 27.6875 67.125 27.7083 67.125 27.75C67.1458 27.875 67.0938 27.9792 66.9688 28.0625C67.0104 28.125 67.0417 28.1771 67.0625 28.2188C67.0833 28.2604 67.1042 28.3229 67.125 28.4062C67.0833 28.5104 67.0521 28.6146 67.0312 28.7188C67.0312 28.8021 67.0521 28.8958 67.0938 29C67.0312 29.2083 66.9896 29.3229 66.9688 29.3438C67.0729 29.6146 67.1146 29.7917 67.0938 29.875C66.9896 30.0417 66.9375 30.1771 66.9375 30.2812C66.9583 30.3854 66.9688 30.4896 66.9688 30.5938C67.0729 30.7812 67.125 31.0521 67.125 31.4062C67.1667 31.4688 67.2083 31.5208 67.25 31.5625C67.2917 31.6042 67.3333 31.6562 67.375 31.7188C67.375 31.8438 67.3438 31.9375 67.2812 32C67.2396 32.0625 67.2083 32.1458 67.1875 32.25C67.0208 32.375 66.9375 32.4583 66.9375 32.5C66.9583 32.5417 66.9688 32.6042 66.9688 32.6875C67.0521 32.9583 67.0521 33.1354 66.9688 33.2188C66.8854 33.3021 66.8646 33.4167 66.9062 33.5625C67.0938 33.7292 67.1667 33.8229 67.125 33.8438C67.1042 33.8438 67.0833 33.8646 67.0625 33.9062C67.0417 34.1979 67.0312 34.4271 67.0312 34.5938C67.0312 34.7396 67.0312 34.9167 67.0312 35.125C67.4062 35.3333 67.5938 35.5104 67.5938 35.6562C67.5938 35.8021 67.5104 35.8854 67.3438 35.9062C67.1771 35.9062 67.0729 35.9688 67.0312 36.0938C67.0312 36.1771 67.0521 36.2396 67.0938 36.2812C67.1354 36.3229 67.1667 36.3854 67.1875 36.4688C67.1667 36.6146 67.125 36.7292 67.0625 36.8125C67.1667 37.0833 67.1875 37.2917 67.125 37.4375C67.1875 37.6042 67.1979 37.7604 67.1562 37.9062C67.1146 38.0312 67.0729 38.1667 67.0312 38.3125C67.0729 38.3958 67.1146 38.4688 67.1562 38.5312C67.2188 38.5729 67.2604 38.6458 67.2812 38.75C67.2812 38.8542 67.25 38.9375 67.1875 39C67.1458 39.0417 67.1042 39.0833 67.0625 39.125C67.0833 39.2083 67.125 39.2604 67.1875 39.2812C67.25 39.2812 67.3021 39.3021 67.3438 39.3438C67.3646 39.4271 67.3542 39.5 67.3125 39.5625C67.2708 39.6042 67.2292 39.6458 67.1875 39.6875C67.1458 39.7292 67.1146 39.7812 67.0938 39.8438C67.0938 39.9062 67.0729 39.9583 67.0312 40C67.0104 40.125 66.9896 40.25 66.9688 40.375C66.9688 40.5 67 40.6146 67.0625 40.7188C67.1042 40.8646 67.1042 41 67.0625 41.125C67.0417 41.2292 67.0208 41.3542 67 41.5C67.0625 41.5417 67.125 41.5729 67.1875 41.5938C67.2708 41.6146 67.3333 41.6667 67.375 41.75C67.3958 41.8125 67.4062 41.8854 67.4062 41.9688C67.4271 42.0521 67.4167 42.1354 67.375 42.2188C67.5 42.2604 67.6562 42.2604 67.8438 42.2188C68.0521 42.1562 68.2188 42.1354 68.3438 42.1562C68.4271 42.1979 68.5104 42.2292 68.5938 42.25C68.6979 42.2708 68.7708 42.3229 68.8125 42.4062C68.9167 42.3854 69.0625 42.3646 69.25 42.3438C69.4583 42.3021 69.6146 42.2917 69.7188 42.3125C69.9062 42.4375 70.0521 42.4792 70.1562 42.4375C70.2812 42.3958 70.3958 42.3854 70.5 42.4062C70.6042 42.3646 70.6875 42.3021 70.75 42.2188C70.8125 42.1146 70.9271 42.0625 71.0938 42.0625C71.1354 42.0208 71.1771 41.9792 71.2188 41.9375C71.2604 41.875 71.3229 41.8438 71.4062 41.8438C71.4479 41.8021 71.4792 41.75 71.5 41.6875C71.5417 41.6042 71.5938 41.5417 71.6562 41.5C71.8646 41.4792 71.9792 41.4375 72 41.375C72.0208 41.2917 72.0521 41.2292 72.0938 41.1875C72.1771 41.1667 72.2292 41.1354 72.25 41.0938C72.2917 41.0521 72.3438 41.0104 72.4062 40.9688C72.6146 40.9896 72.7083 40.9375 72.6875 40.8125C72.6875 40.6875 72.7083 40.5833 72.75 40.5C72.8125 40.4375 72.8958 40.3854 73 40.3438C73.1042 40.2812 73.1979 40.2083 73.2812 40.125C73.2812 40.0625 73.2604 40.0104 73.2188 39.9688C73.1979 39.9062 73.2083 39.8438 73.25 39.7812C73.3333 39.7604 73.4375 39.6875 73.5625 39.5625C73.7083 39.3542 73.7917 39.2396 73.8125 39.2188C73.8542 39.1979 73.8958 39.1667 73.9375 39.125L74.2188 38.9688ZM88.9362 35.4375C88.9362 35.6042 88.905 35.7292 88.8425 35.8125C88.78 35.8958 88.7487 36.0208 88.7487 36.1875C88.6862 36.4375 88.6446 36.5938 88.6237 36.6562C88.6237 36.6979 88.6237 36.7604 88.6237 36.8438C88.6446 36.9062 88.6758 36.9792 88.7175 37.0625C88.7592 37.1458 88.7592 37.2396 88.7175 37.3438C88.53 37.6146 88.4362 37.8542 88.4362 38.0625C88.4362 38.2708 88.405 38.4688 88.3425 38.6562C88.3633 38.7188 88.3946 38.7708 88.4362 38.8125C88.4779 38.8333 88.5092 38.8854 88.53 38.9688C88.5092 39.1771 88.4362 39.3229 88.3112 39.4062C88.1862 39.4896 88.0717 39.5833 87.9675 39.6875C88.0508 39.9167 88.0404 40.1146 87.9362 40.2812C87.9571 40.5104 87.9571 40.7292 87.9362 40.9375C87.9154 41.125 87.8217 41.25 87.655 41.3125C87.6133 41.3958 87.5821 41.4896 87.5612 41.5938C87.5404 41.6979 87.5092 41.7917 87.4675 41.875C87.2175 42.125 87.0092 42.2917 86.8425 42.375C86.8633 42.5417 86.8321 42.6667 86.7487 42.75C86.6862 42.8125 86.6029 42.875 86.4987 42.9375C86.4362 43.1042 86.3633 43.25 86.28 43.375C86.03 43.4583 85.8946 43.5312 85.8737 43.5938C85.8529 43.6354 85.8217 43.6771 85.78 43.7188C85.7175 43.8021 85.655 43.875 85.5925 43.9375C85.53 44 85.4987 44.0938 85.4987 44.2188C85.3529 44.3438 85.2592 44.4167 85.2175 44.4375C85.1967 44.4583 85.1654 44.4583 85.1237 44.4375C85.0196 44.5417 84.9362 44.6562 84.8737 44.7812C84.8321 44.8854 84.7696 44.9896 84.6862 45.0938C84.5821 45.1562 84.4675 45.1667 84.3425 45.125C84.2383 45.1042 84.1342 45.1146 84.03 45.1562C83.8633 45.1562 83.7592 45.1667 83.7175 45.1875C83.6758 45.2083 83.6342 45.2292 83.5925 45.25C83.4258 45.1667 83.28 45.1562 83.155 45.2188C83.03 45.3021 82.8946 45.3542 82.7487 45.375C82.4571 45.5417 82.2592 45.5833 82.155 45.5C82.0508 45.4167 81.9467 45.3333 81.8425 45.25C81.6967 45.2917 81.5925 45.3542 81.53 45.4375C81.4883 45.5417 81.3842 45.5833 81.2175 45.5625C81.1342 45.5208 81.0717 45.4583 81.03 45.375C81.0092 45.3125 80.9675 45.2604 80.905 45.2188C80.8217 45.2812 80.7175 45.2917 80.5925 45.25C80.4675 45.2292 80.3842 45.1667 80.3425 45.0625C80.1758 45.1042 80.03 45.0833 79.905 45C79.8008 44.9375 79.6967 44.8854 79.5925 44.8438C79.4883 44.8854 79.405 44.8854 79.3425 44.8438C79.28 44.8021 79.1967 44.7708 79.0925 44.75C78.9883 44.7292 78.9154 44.75 78.8737 44.8125C78.8321 44.8542 78.7592 44.8646 78.655 44.8438C78.5717 44.7812 78.53 44.6562 78.53 44.4688C78.4883 44.3854 78.4258 44.3229 78.3425 44.2812C78.28 44.2188 78.2175 44.1667 78.155 44.125C78.1133 43.9583 78.0404 43.8229 77.9362 43.7188C77.8321 43.6146 77.7487 43.4792 77.6862 43.3125C77.4571 43.1458 77.3112 43.0417 77.2487 43C77.1862 42.9375 77.1446 42.8646 77.1237 42.7812C76.9779 42.6354 76.8008 42.5104 76.5925 42.4062C76.405 42.3021 76.2592 42.1667 76.155 42C76.2175 41.7917 76.2696 41.6146 76.3112 41.4688C76.1237 41.0521 75.9883 40.7396 75.905 40.5312C75.9467 40.3438 75.9362 40.1875 75.8737 40.0625C75.8112 39.9375 75.7279 39.8229 75.6237 39.7188C75.6446 39.6146 75.6446 39.5208 75.6237 39.4375C75.6237 39.3333 75.6446 39.2188 75.6862 39.0938C75.6654 39.0104 75.6342 38.9479 75.5925 38.9062C75.5717 38.8646 75.5508 38.8125 75.53 38.75C75.4883 38.5417 75.4362 38.4062 75.3737 38.3438C75.3321 38.2812 75.2904 38.1979 75.2487 38.0938C75.2487 37.9896 75.2383 37.9062 75.2175 37.8438C75.2175 37.7604 75.2383 37.6667 75.28 37.5625C75.2383 37.4583 75.2071 37.3646 75.1862 37.2812C75.1862 37.1771 75.1654 37.0729 75.1237 36.9688C75.1862 36.6771 75.1758 36.4062 75.0925 36.1562C75.0092 35.9062 75.0196 35.6458 75.1237 35.375C75.2696 35.0833 75.3217 34.8125 75.28 34.5625C75.2592 34.2917 75.2383 34.0417 75.2175 33.8125C75.3425 33.5 75.3946 33.25 75.3737 33.0625C75.3529 32.875 75.3633 32.6875 75.405 32.5C75.4467 32.375 75.4883 32.2604 75.53 32.1562C75.5925 32.0312 75.655 31.9167 75.7175 31.8125C75.6967 31.7292 75.6862 31.6667 75.6862 31.625C75.7071 31.5625 75.7175 31.4792 75.7175 31.375C75.905 31.1042 76.03 30.8021 76.0925 30.4688C76.1758 30.1146 76.3008 29.8125 76.4675 29.5625C76.6967 29.2708 76.8737 29.0521 76.9987 28.9062C77.1237 28.7396 77.2487 28.5729 77.3737 28.4062C77.5404 28.3021 77.6342 28.2083 77.655 28.125C77.6758 28.0208 77.7175 27.9271 77.78 27.8438C77.8842 27.8021 77.9467 27.7396 77.9675 27.6562C78.0092 27.5729 78.0821 27.5104 78.1862 27.4688C78.2071 27.3646 78.2696 27.2604 78.3737 27.1562L78.7487 27.0625C78.8112 26.9375 78.8633 26.8229 78.905 26.7188C78.9675 26.6146 79.0612 26.5417 79.1862 26.5C79.4779 26.5208 79.655 26.4792 79.7175 26.375C79.8008 26.25 79.9467 26.2083 80.155 26.25C80.2592 26.2083 80.3425 26.125 80.405 26C80.4675 25.8542 80.5821 25.8021 80.7487 25.8438C80.8946 26.0729 80.9987 26.1771 81.0612 26.1562C81.1446 26.1146 81.2071 26.0729 81.2487 26.0312C81.3112 26.0312 81.3737 26.0312 81.4362 26.0312C81.4987 26.0104 81.5717 26 81.655 26C81.7383 25.9792 81.7904 25.9583 81.8112 25.9375C81.8529 25.9167 81.9154 25.9167 81.9987 25.9375C82.1029 25.9792 82.1654 26.0312 82.1862 26.0938C82.2071 26.1562 82.2487 26.2083 82.3112 26.25C82.4154 26.2708 82.4987 26.2083 82.5612 26.0625C82.6446 25.9167 82.7383 25.8542 82.8425 25.875C83.0925 26.0208 83.2904 26.1146 83.4362 26.1562C83.5821 26.1771 83.6862 26.2396 83.7487 26.3438C83.9362 26.3021 84.03 26.2917 84.03 26.3125C84.0508 26.3333 84.0821 26.3542 84.1237 26.375C84.3946 26.5833 84.6237 26.7188 84.8112 26.7812C85.0196 26.8229 85.155 26.9375 85.2175 27.125C85.3217 27.1667 85.4258 27.2083 85.53 27.25C85.6342 27.2708 85.7279 27.3125 85.8112 27.375C85.8946 27.625 85.9675 27.75 86.03 27.75C86.1133 27.75 86.1862 27.7708 86.2487 27.8125C86.2904 27.9375 86.3529 28.0417 86.4362 28.125C86.5196 28.2083 86.5821 28.3229 86.6237 28.4688C86.7904 28.7396 86.9467 28.9167 87.0925 29C87.0925 29.1458 87.1237 29.2604 87.1862 29.3438C87.2696 29.4062 87.3008 29.5208 87.28 29.6875C87.3217 29.8333 87.3946 29.9479 87.4987 30.0312C87.6029 30.0938 87.7071 30.1771 87.8112 30.2812C87.9779 30.2812 88.0717 30.2917 88.0925 30.3125C88.1133 30.3125 88.1446 30.3333 88.1862 30.375C88.0821 30.75 88.0717 31.1146 88.155 31.4688C88.2592 31.8021 88.3008 32.1667 88.28 32.5625C88.3008 32.625 88.3321 32.6667 88.3737 32.6875C88.4362 32.7083 88.4883 32.75 88.53 32.8125C88.4883 33.0417 88.5196 33.2292 88.6237 33.375C88.6237 33.5 88.6237 33.6354 88.6237 33.7812C88.6237 33.9062 88.6446 34.0208 88.6862 34.125C88.8529 34.375 88.9154 34.5521 88.8737 34.6562C88.8321 34.7396 88.7904 34.8333 88.7487 34.9375C88.7904 35.1667 88.8217 35.3021 88.8425 35.3438C88.8842 35.3646 88.9154 35.3958 88.9362 35.4375ZM85.1862 36.75C85.2904 36.5208 85.3217 36.3854 85.28 36.3438C85.2592 36.2812 85.2487 36.2188 85.2487 36.1562C85.2904 36.0312 85.3217 35.9167 85.3425 35.8125C85.3842 35.6875 85.3737 35.5625 85.3112 35.4375C85.2904 35.1458 85.28 34.9375 85.28 34.8125C85.1758 34.6875 85.0925 34.5417 85.03 34.375C84.9883 34.2083 84.9779 34.0104 84.9987 33.7812C85.0404 33.6562 85.0612 33.5312 85.0612 33.4062C85.0821 33.2812 85.1133 33.1667 85.155 33.0625C84.8425 32.8333 84.6654 32.6354 84.6237 32.4688C84.6029 32.3021 84.5717 32.1354 84.53 31.9688C84.4883 31.6979 84.4362 31.5104 84.3737 31.4062C84.3321 31.2812 84.3112 31.1354 84.3112 30.9688C84.2071 30.7188 84.1342 30.5521 84.0925 30.4688C83.8633 30.2604 83.7383 30.125 83.7175 30.0625C83.7175 30 83.6967 29.9271 83.655 29.8438C83.6133 29.7812 83.5717 29.7292 83.53 29.6875C83.4883 29.625 83.4467 29.5625 83.405 29.5C83.2175 29.3333 83.0925 29.2083 83.03 29.125C82.9675 29.0208 82.8737 28.9479 82.7487 28.9062C82.4154 28.8646 82.2071 28.8229 82.1237 28.7812C81.9362 28.8229 81.8321 28.8542 81.8112 28.875C81.7904 28.8958 81.7383 28.9062 81.655 28.9062H81.1862C81.0404 29.0729 80.9362 29.1458 80.8737 29.125C80.8321 29.1042 80.7904 29.0833 80.7487 29.0625C80.6862 29.125 80.6654 29.1979 80.6862 29.2812C80.7071 29.3438 80.7279 29.4062 80.7487 29.4688C80.6237 29.5312 80.5404 29.5521 80.4987 29.5312C80.4779 29.5104 80.4362 29.5 80.3737 29.5C80.2279 29.7083 80.1237 29.875 80.0612 30C79.9987 30.3125 79.8946 30.5208 79.7487 30.625C79.6237 30.7083 79.5404 30.8438 79.4987 31.0312C79.5404 31.1979 79.5092 31.3438 79.405 31.4688C79.3217 31.5729 79.2383 31.6771 79.155 31.7812C79.2383 32.0729 79.2175 32.3229 79.0925 32.5312C78.9883 32.7396 78.8842 32.9062 78.78 33.0312C78.8008 33.2812 78.78 33.4479 78.7175 33.5312C78.6758 33.5938 78.6237 33.6771 78.5612 33.7812C78.5196 33.8854 78.53 33.9688 78.5925 34.0312C78.655 34.0938 78.6967 34.1667 78.7175 34.25C78.6967 34.3542 78.655 34.4375 78.5925 34.5C78.5508 34.5417 78.5196 34.6146 78.4987 34.7188C78.5196 34.7812 78.5404 34.8438 78.5612 34.9062C78.6029 34.9688 78.6237 35.0417 78.6237 35.125C78.6237 35.2292 78.6029 35.3125 78.5612 35.375C78.5196 35.4167 78.4883 35.4792 78.4675 35.5625C78.5092 35.6458 78.5612 35.7188 78.6237 35.7812C78.7071 35.8229 78.7487 35.8958 78.7487 36C78.6654 36.2917 78.6237 36.5104 78.6237 36.6562C78.6446 36.7812 78.655 36.9271 78.655 37.0938C78.7383 37.4062 78.7592 37.625 78.7175 37.75C78.6967 37.875 78.6654 37.9896 78.6237 38.0938C78.6446 38.1979 78.6758 38.2812 78.7175 38.3438C78.78 38.4062 78.8321 38.4896 78.8737 38.5938C78.8529 38.6979 78.8425 38.7917 78.8425 38.875C78.8633 38.9375 78.8737 39.0312 78.8737 39.1562C78.9779 39.3021 79.0508 39.3958 79.0925 39.4375C79.155 39.4583 79.1967 39.5104 79.2175 39.5938C79.2175 39.6771 79.2175 39.7604 79.2175 39.8438C79.2175 39.9271 79.2279 39.9896 79.2487 40.0312C79.5196 40.0729 79.6342 40.25 79.5925 40.5625C79.655 40.6458 79.7071 40.7292 79.7487 40.8125C79.8112 40.875 79.8529 40.9688 79.8737 41.0938C80.0196 41.1146 80.1029 41.1979 80.1237 41.3438C80.1654 41.4896 80.1758 41.6354 80.155 41.7812C80.2175 41.8229 80.28 41.875 80.3425 41.9375C80.4258 41.9792 80.5196 41.9792 80.6237 41.9375C80.7279 41.9792 80.8008 42.0521 80.8425 42.1562C80.8842 42.2604 80.9362 42.3542 80.9987 42.4375C81.1237 42.4167 81.2383 42.3854 81.3425 42.3438C81.4675 42.3021 81.5821 42.3125 81.6862 42.375C81.9571 42.3125 82.1133 42.3125 82.155 42.375C82.1967 42.4167 82.2592 42.4479 82.3425 42.4688C82.4258 42.4479 82.4779 42.4167 82.4987 42.375C82.5404 42.3125 82.5925 42.2604 82.655 42.2188C82.8633 42.2188 83.0092 42.1875 83.0925 42.125C83.28 42.0625 83.3946 41.9688 83.4362 41.8438C83.5612 41.6771 83.6342 41.5729 83.655 41.5312C83.6967 41.4896 83.7383 41.4479 83.78 41.4062C83.8217 41.3021 83.8633 41.2188 83.905 41.1562C83.9675 41.0938 84.03 41.0312 84.0925 40.9688C84.3008 40.7812 84.3842 40.6146 84.3425 40.4688C84.3217 40.3021 84.3633 40.1667 84.4675 40.0625C84.6342 39.7083 84.7487 39.4792 84.8112 39.375C84.7904 39.2917 84.7904 39.2083 84.8112 39.125C84.8321 39.0417 84.8425 38.9479 84.8425 38.8438C84.9675 38.5729 85.0508 38.375 85.0925 38.25C85.155 38.1042 85.2071 37.9479 85.2487 37.7812C85.2071 37.6562 85.1654 37.5208 85.1237 37.375C85.0821 37.2292 85.1029 37.0938 85.1862 36.9688V36.75ZM106.966 48.7188L106.466 48.8438C106.425 48.7188 106.383 48.6354 106.341 48.5938C106.3 48.5729 106.247 48.5625 106.185 48.5625C106.143 48.4792 106.091 48.4167 106.029 48.375C105.966 48.3542 105.904 48.3125 105.841 48.25C105.716 48.0833 105.612 48 105.529 48C105.445 48 105.362 48 105.279 48C105.07 47.8958 104.904 47.8646 104.779 47.9062C104.612 47.8854 104.529 47.7812 104.529 47.5938C104.529 47.4062 104.508 47.2396 104.466 47.0938C104.258 47.2604 104.133 47.3542 104.091 47.375C104.07 47.4167 104.029 47.4375 103.966 47.4375C103.8 47.375 103.664 47.2812 103.56 47.1562C103.477 47.0521 103.372 46.9479 103.247 46.8438C102.977 46.8646 102.82 46.8542 102.779 46.8125C102.737 46.7708 102.685 46.7188 102.622 46.6562C102.518 46.3229 102.466 46.0521 102.466 45.8438C102.362 45.8229 102.268 45.8542 102.185 45.9375C102.122 46.0208 102.039 46.0729 101.935 46.0938C101.831 46.0938 101.747 46.0625 101.685 46C101.643 45.9583 101.591 45.9062 101.529 45.8438C101.57 45.6562 101.529 45.5312 101.404 45.4688C101.3 45.4271 101.164 45.4271 100.997 45.4688C100.893 45.3854 100.841 45.3021 100.841 45.2188C100.841 45.1562 100.82 45.1042 100.779 45.0625C100.737 45.0417 100.685 45.0417 100.622 45.0625C100.56 45.1042 100.497 45.1146 100.435 45.0938C100.227 45.1146 100.112 45.125 100.091 45.125C100.091 45.125 100.081 45.1146 100.06 45.0938C100.018 44.9896 100.029 44.8958 100.091 44.8125C100.175 44.7083 100.185 44.5938 100.122 44.4688C100.039 44.3438 99.9767 44.2812 99.935 44.2812C99.9142 44.2604 99.8933 44.2292 99.8725 44.1875C99.8725 44.1042 99.8829 44.0417 99.9037 44C99.9246 43.9375 99.9142 43.875 99.8725 43.8125C99.7267 43.6458 99.6433 43.5417 99.6225 43.5C99.6225 43.4375 99.6329 43.375 99.6537 43.3125C99.5912 43.1875 99.56 43.0417 99.56 42.875C99.4975 42.7708 99.4142 42.6979 99.31 42.6562C99.2058 42.5938 99.1642 42.4688 99.185 42.2812C99.1017 41.7604 98.9767 41.375 98.81 41.125C98.6433 40.9583 98.5287 40.8333 98.4662 40.75C98.4037 40.6458 98.4037 40.5417 98.4662 40.4375C98.3829 40.2292 98.3204 40.0938 98.2787 40.0312C98.2579 39.9688 98.2371 39.8958 98.2162 39.8125C98.1121 39.5625 98.0392 39.4062 97.9975 39.3438C97.9558 39.2604 97.9142 39.1771 97.8725 39.0938C97.8308 38.8646 97.7683 38.7292 97.685 38.6875C97.6017 38.6458 97.5183 38.5833 97.435 38.5C97.4767 38.0833 97.3829 37.7812 97.1537 37.5938C97.0079 37.6354 96.8933 37.6354 96.81 37.5938C96.435 37.7188 96.2162 37.7188 96.1537 37.5938C96.0912 37.4688 96.0079 37.375 95.9037 37.3125C95.8412 37.3542 95.7892 37.3958 95.7475 37.4375C95.7267 37.4792 95.6746 37.5 95.5912 37.5C95.5704 37.6667 95.5912 37.8125 95.6537 37.9375C95.7162 38.0417 95.685 38.1458 95.56 38.25C95.5392 38.3333 95.5287 38.4062 95.5287 38.4688C95.5287 38.5312 95.5183 38.6042 95.4975 38.6875C95.5392 38.7917 95.5808 38.8958 95.6225 39C95.6642 39.1042 95.7058 39.2083 95.7475 39.3125C95.7267 39.4583 95.7058 39.6042 95.685 39.75C95.6642 39.875 95.6746 40 95.7162 40.125C95.6746 40.2917 95.6433 40.4479 95.6225 40.5938C95.6017 40.7188 95.5704 40.8646 95.5287 41.0312C95.5287 41.1354 95.5392 41.2396 95.56 41.3438C95.6017 41.4271 95.6433 41.5208 95.685 41.625C95.6642 41.7292 95.6537 41.8125 95.6537 41.875C95.6537 41.9167 95.6433 41.9688 95.6225 42.0312C95.6433 42.1354 95.6642 42.2396 95.685 42.3438C95.7267 42.4271 95.7371 42.5208 95.7162 42.625C95.6537 42.6667 95.5912 42.7083 95.5287 42.75C95.4871 42.7708 95.4454 42.8125 95.4037 42.875C95.3621 43.0625 95.3725 43.2083 95.435 43.3125C95.5183 43.3958 95.5496 43.5 95.5287 43.625C95.4454 43.8125 95.4246 43.9479 95.4662 44.0312C95.5287 44.0938 95.5808 44.1771 95.6225 44.2812C95.5392 44.5312 95.5079 44.6875 95.5287 44.75C95.5704 44.7917 95.6121 44.8333 95.6537 44.875C95.6954 44.9167 95.7475 44.9479 95.81 44.9688C95.8933 44.9896 95.935 45.0417 95.935 45.125C95.9142 45.25 95.8204 45.3021 95.6537 45.2812C95.5079 45.2812 95.4142 45.25 95.3725 45.1875C95.0392 45.1875 94.81 45.1875 94.685 45.1875C94.6225 45.1458 94.5808 45.0938 94.56 45.0312C94.5392 44.9896 94.4975 44.9583 94.435 44.9375C94.3308 44.9583 94.2579 44.9896 94.2162 45.0312C94.1954 45.0938 94.1329 45.125 94.0287 45.125C93.9662 45.125 93.9037 45.1042 93.8412 45.0625C93.7787 45.0208 93.6954 45.0104 93.5912 45.0312C93.4871 45.0729 93.3933 45.1146 93.31 45.1562C93.2475 45.2188 93.1537 45.2292 93.0287 45.1875C92.7579 45.25 92.6017 45.25 92.56 45.1875C92.5392 45.1458 92.4975 45.1042 92.435 45.0625C92.3933 45.1042 92.3412 45.1562 92.2787 45.2188C92.2371 45.2812 92.1746 45.3333 92.0912 45.375C91.9037 45.375 91.7892 45.2917 91.7475 45.125C91.6642 45.1458 91.5704 45.1458 91.4662 45.125C91.3621 45.125 91.2787 45.1354 91.2162 45.1562C90.7996 44.9479 90.5183 44.7917 90.3725 44.6875C90.5183 44.5 90.6225 44.375 90.685 44.3125C90.7683 44.2292 90.8621 44.1979 90.9662 44.2188C91.1537 44.2812 91.2579 44.3021 91.2787 44.2812C91.2996 44.2396 91.3308 44.1979 91.3725 44.1562C91.4767 44.1146 91.56 44.0729 91.6225 44.0312C91.7058 43.9688 91.7892 43.9167 91.8725 43.875C91.8517 43.75 91.8725 43.6562 91.935 43.5938C92.0183 43.5104 92.0287 43.4167 91.9662 43.3125C92.0287 43.2083 92.0808 43.0938 92.1225 42.9688C92.185 42.8229 92.2683 42.6979 92.3725 42.5938C92.31 42.4271 92.2683 42.25 92.2475 42.0625C92.3517 41.9583 92.4142 41.8125 92.435 41.625C92.435 41.5625 92.4246 41.5 92.4037 41.4375C92.3829 41.3542 92.3933 41.2812 92.435 41.2188C92.3933 41.1562 92.3517 41.0833 92.31 41C92.2892 40.8958 92.2475 40.8125 92.185 40.75C92.185 40.625 92.185 40.4896 92.185 40.3438C92.2058 40.1771 92.2371 40.0208 92.2787 39.875C92.3829 39.7083 92.4142 39.6146 92.3725 39.5938C92.3517 39.5521 92.3204 39.5104 92.2787 39.4688C92.1954 39.3021 92.1433 39.1354 92.1225 38.9688C92.1225 38.8021 92.1121 38.6354 92.0912 38.4688C92.1954 38.1562 92.2579 37.8438 92.2787 37.5312C92.2996 37.1979 92.31 36.8542 92.31 36.5C92.2058 36.25 92.1642 36.0938 92.185 36.0312C92.2267 35.9479 92.2267 35.8646 92.185 35.7812C92.1642 35.6146 92.1537 35.5208 92.1537 35.5C92.1746 35.4792 92.185 35.4479 92.185 35.4062C92.1642 35.2396 92.1433 35.0521 92.1225 34.8438C92.1017 34.6354 92.1225 34.4375 92.185 34.25C92.2892 33.9583 92.2996 33.7396 92.2162 33.5938C92.1537 33.4479 92.1017 33.3021 92.06 33.1562C92.1017 32.9479 92.1017 32.7188 92.06 32.4688C92.0392 32.2188 92.0287 31.9792 92.0287 31.75C92.0496 31.5417 92.0496 31.3958 92.0287 31.3125C92.0287 31.2292 92.0496 31.1458 92.0912 31.0625C92.0496 30.9375 92.0183 30.8125 91.9975 30.6875C91.9975 30.5417 91.9662 30.4167 91.9037 30.3125C91.9454 30.1667 91.9454 30.0417 91.9037 29.9375C91.8829 29.8125 91.8829 29.6667 91.9037 29.5C91.8204 29.1875 91.7371 29 91.6537 28.9375C91.5912 28.875 91.5704 28.7604 91.5912 28.5938C91.4871 28.3854 91.4454 28.2708 91.4662 28.25C91.4871 28.2083 91.5079 28.1667 91.5287 28.125C91.4454 27.9583 91.3933 27.8333 91.3725 27.75C91.3725 27.6042 91.3308 27.4896 91.2475 27.4062C91.0392 27.3646 90.9142 27.3229 90.8725 27.2812C90.8517 27.2396 90.8204 27.1979 90.7787 27.1562C90.6954 27.0938 90.6121 27.0521 90.5287 27.0312C90.4662 27.0104 90.4454 26.9375 90.4662 26.8125C90.6954 26.7917 90.8308 26.7708 90.8725 26.75C90.935 26.7083 90.9975 26.6771 91.06 26.6562C91.1433 26.6979 91.2058 26.7083 91.2475 26.6875C91.31 26.6667 91.3933 26.6458 91.4975 26.625C91.81 26.6875 92.0079 26.6979 92.0912 26.6562C92.1746 26.6146 92.2787 26.5938 92.4037 26.5938C92.6329 26.7188 92.81 26.7812 92.935 26.7812C93.1433 26.6146 93.2683 26.5208 93.31 26.5C93.3725 26.4792 93.435 26.4479 93.4975 26.4062C93.7267 26.4271 93.8412 26.4792 93.8412 26.5625C93.8621 26.6458 93.8621 26.7396 93.8412 26.8438C93.9454 26.8646 94.0287 26.8542 94.0912 26.8125C94.1537 26.75 94.2162 26.6875 94.2787 26.625C94.3412 26.5625 94.4037 26.5104 94.4662 26.4688C94.5287 26.4271 94.6225 26.4167 94.7475 26.4375C94.7892 26.4792 94.81 26.5312 94.81 26.5938C94.8308 26.6562 94.8621 26.7292 94.9037 26.8125C95.1746 26.7083 95.3308 26.6875 95.3725 26.75C95.435 26.7917 95.5183 26.8229 95.6225 26.8438C95.7267 26.8229 95.7892 26.7812 95.81 26.7188C95.8308 26.6562 95.8829 26.6042 95.9662 26.5625C96.1954 26.625 96.3412 26.6458 96.4037 26.625C96.4662 26.5833 96.5496 26.5521 96.6537 26.5312C96.7371 26.5521 96.7892 26.5729 96.81 26.5938C96.8517 26.5938 96.9142 26.5833 96.9975 26.5625C97.1225 26.625 97.2371 26.7083 97.3412 26.8125C97.4871 26.7708 97.6121 26.7083 97.7162 26.625C97.8204 26.5417 97.9662 26.5104 98.1537 26.5312C98.3829 26.6146 98.5392 26.6354 98.6225 26.5938C98.7058 26.5521 98.8308 26.5521 98.9975 26.5938C99.2683 26.6562 99.435 26.6667 99.4975 26.625C99.7475 26.75 99.9246 26.8333 100.029 26.875C100.133 26.9167 100.227 26.9792 100.31 27.0625C100.477 27.2708 100.56 27.3958 100.56 27.4375C100.581 27.4583 100.602 27.4896 100.622 27.5312C100.768 27.5104 100.862 27.5417 100.904 27.625C100.966 27.6875 101.018 27.7708 101.06 27.875C101.102 27.9167 101.154 27.9583 101.216 28C101.279 28.0417 101.331 28.0938 101.372 28.1562C101.497 28.3646 101.633 28.4896 101.779 28.5312C101.925 28.5521 102.05 28.6042 102.154 28.6875C102.195 28.8542 102.3 29 102.466 29.125C102.508 29.25 102.56 29.375 102.622 29.5C102.685 29.6042 102.747 29.7083 102.81 29.8125C102.81 29.9167 102.8 30 102.779 30.0625C102.758 30.1042 102.747 30.1562 102.747 30.2188C102.935 30.5312 103.06 30.7604 103.122 30.9062C103.122 31.1146 103.091 31.2604 103.029 31.3438C103.029 31.4688 103.029 31.5833 103.029 31.6875C103.05 31.7708 103.039 31.8646 102.997 31.9688C102.997 32.2604 102.945 32.4583 102.841 32.5625C102.82 32.8333 102.82 33.0104 102.841 33.0938C102.883 33.1771 102.925 33.25 102.966 33.3125C102.862 33.6042 102.779 33.75 102.716 33.75C102.675 33.9167 102.591 34.0312 102.466 34.0938C102.466 34.1562 102.456 34.2188 102.435 34.2812C102.414 34.3229 102.414 34.3854 102.435 34.4688C102.393 34.5104 102.352 34.5521 102.31 34.5938C102.268 34.6354 102.237 34.6979 102.216 34.7812C102.154 34.8229 102.091 34.875 102.029 34.9375C101.966 34.9792 101.904 35.0312 101.841 35.0938C101.841 35.2396 101.8 35.3542 101.716 35.4375C101.654 35.5 101.591 35.5833 101.529 35.6875C101.362 35.7917 101.247 35.875 101.185 35.9375C101.122 36 101.07 36.0833 101.029 36.1875L100.904 36.5312C100.841 36.6354 100.747 36.7396 100.622 36.8438C100.456 36.8438 100.331 36.875 100.247 36.9375C100.185 37.125 100.175 37.2188 100.216 37.2188C100.279 37.2188 100.32 37.2396 100.341 37.2812C100.32 37.3854 100.331 37.5 100.372 37.625C100.643 37.75 100.768 37.8958 100.747 38.0625C100.727 38.2083 100.716 38.3333 100.716 38.4375C100.758 38.4792 100.81 38.5104 100.872 38.5312C100.956 38.5521 101.018 38.5833 101.06 38.625C101.164 38.8958 101.247 39.0521 101.31 39.0938C101.372 39.1146 101.435 39.1458 101.497 39.1875C101.518 39.2917 101.518 39.3854 101.497 39.4688C101.477 39.5521 101.456 39.6354 101.435 39.7188C101.435 39.8021 101.477 39.8542 101.56 39.875C101.664 39.8958 101.737 39.9271 101.779 39.9688C101.82 40.0312 101.841 40.125 101.841 40.25C101.862 40.3542 101.862 40.4583 101.841 40.5625C101.904 40.6667 101.966 40.7708 102.029 40.875C102.091 40.9792 102.154 41.0833 102.216 41.1875C102.362 41.3125 102.466 41.5 102.529 41.75C102.675 42.2083 102.758 42.6354 102.779 43.0312C102.987 43.1771 103.206 43.2604 103.435 43.2812C103.477 43.3854 103.508 43.4896 103.529 43.5938C103.57 43.6771 103.581 43.7917 103.56 43.9375C103.643 44 103.716 44.0625 103.779 44.125C103.862 44.1667 103.925 44.2188 103.966 44.2812C104.008 44.3854 104.05 44.4688 104.091 44.5312C104.133 44.5729 104.164 44.6354 104.185 44.7188C104.289 44.8229 104.372 44.9271 104.435 45.0312C104.497 45.1562 104.55 45.2708 104.591 45.375C104.591 45.4583 104.591 45.5417 104.591 45.625C104.591 45.7083 104.612 45.7708 104.654 45.8125C104.695 45.8542 104.737 45.8854 104.779 45.9062C104.841 45.9479 104.893 45.9896 104.935 46.0312C104.977 46.2396 105.039 46.4167 105.122 46.5625C105.289 46.6667 105.466 46.8646 105.654 47.1562C106.029 47.3021 106.227 47.4896 106.247 47.7188C106.268 47.9688 106.352 48.1667 106.497 48.3125C106.602 48.3125 106.675 48.3438 106.716 48.4062C106.758 48.4896 106.831 48.5521 106.935 48.5938L106.966 48.7188ZM99.4975 32C99.5392 31.9375 99.56 31.875 99.56 31.8125C99.5808 31.75 99.6121 31.6875 99.6537 31.625C99.6121 31.5417 99.5808 31.4583 99.56 31.375C99.5392 31.2917 99.5079 31.2083 99.4662 31.125C99.4037 30.8958 99.3725 30.6458 99.3725 30.375C99.2475 30.3542 99.1121 30.3021 98.9662 30.2188C98.8829 30.0312 98.7892 29.9167 98.685 29.875C98.4558 29.8333 98.3308 29.7812 98.31 29.7188C98.2475 29.7188 98.1954 29.6875 98.1537 29.625C98.1329 29.5625 98.1017 29.5104 98.06 29.4688C97.8933 29.4896 97.7579 29.4792 97.6537 29.4375C97.5704 29.375 97.4767 29.3229 97.3725 29.2812C97.0183 29.3854 96.7892 29.4479 96.685 29.4688C96.5808 29.4896 96.4558 29.5 96.31 29.5C96.1017 29.3333 95.9662 29.2812 95.9037 29.3438C95.8621 29.3854 95.7892 29.3854 95.685 29.3438C95.56 29.5104 95.5183 29.625 95.56 29.6875C95.6017 29.75 95.6329 29.8021 95.6537 29.8438C95.6746 29.9479 95.6642 30.0312 95.6225 30.0938C95.5808 30.1354 95.5496 30.1979 95.5287 30.2812C95.5496 30.5729 95.5287 30.7812 95.4662 30.9062C95.4246 31.0312 95.4037 31.1771 95.4037 31.3438C95.4246 31.3854 95.4246 31.4375 95.4037 31.5C95.4037 31.5625 95.4037 31.6354 95.4037 31.7188C95.5079 31.8646 95.5808 32.0625 95.6225 32.3125C95.6642 32.5625 95.6329 32.7917 95.5287 33C95.5704 33.1458 95.56 33.2812 95.4975 33.4062C95.4558 33.5104 95.4142 33.625 95.3725 33.75C95.3933 33.9167 95.435 34.0729 95.4975 34.2188C95.5808 34.3438 95.6017 34.5104 95.56 34.7188C95.7058 34.8229 95.7892 34.9062 95.81 34.9688C95.8517 35.0104 95.9037 35.0417 95.9662 35.0625C96.0496 35 96.1537 34.9792 96.2787 35C96.4246 35 96.5079 35.0625 96.5287 35.1875C96.7162 35.0833 96.8204 35.0104 96.8412 34.9688C96.8621 34.9271 96.9037 34.8958 96.9662 34.875C97.1954 35 97.3308 35.0729 97.3725 35.0938C97.4142 35.0938 97.4662 35.0938 97.5287 35.0938C97.5912 35.0521 97.6433 35 97.685 34.9375C97.7267 34.875 97.7892 34.8333 97.8725 34.8125C97.9767 34.8125 98.0392 34.8646 98.06 34.9688C98.0808 35.0521 98.1433 35.0729 98.2475 35.0312C98.4975 34.8021 98.6537 34.5833 98.7162 34.375C98.9662 34.2917 99.0912 34.2083 99.0912 34.125C99.1329 34.0208 99.2162 33.8854 99.3412 33.7188C99.2996 33.4896 99.2787 33.3333 99.2787 33.25C99.4454 33.0417 99.5287 32.8958 99.5287 32.8125C99.5287 32.7292 99.5496 32.6354 99.5912 32.5312C99.5287 32.3854 99.4975 32.2083 99.4975 32ZM118.34 24.5C118.382 24.5625 118.392 24.625 118.371 24.6875C118.371 24.75 118.392 24.8021 118.434 24.8438C118.371 25.0104 118.288 25.1667 118.184 25.3125C118.205 25.5625 118.132 25.75 117.965 25.875C117.819 26 117.705 26.1458 117.621 26.3125C117.58 26.5625 117.475 26.75 117.309 26.875C117.288 26.9792 117.267 27.0833 117.246 27.1875C117.246 27.2708 117.267 27.3542 117.309 27.4375C117.267 27.5208 117.215 27.5833 117.152 27.625C117.111 27.6667 117.069 27.7292 117.027 27.8125C117.048 28.0417 117.027 28.1771 116.965 28.2188C116.923 28.2604 116.882 28.3229 116.84 28.4062C116.694 28.6771 116.58 28.875 116.496 29C116.434 29.1042 116.382 29.2292 116.34 29.375C116.215 29.6667 116.1 29.8646 115.996 29.9688C115.892 29.9896 115.819 29.9792 115.777 29.9375C115.757 29.8958 115.715 29.8646 115.652 29.8438C115.59 30.0729 115.517 30.1667 115.434 30.125C115.371 30.0625 115.33 29.9896 115.309 29.9062C115.059 29.9271 114.902 29.9062 114.84 29.8438C114.798 29.7812 114.725 29.7396 114.621 29.7188C114.496 29.6979 114.392 29.7083 114.309 29.75C114.246 29.7917 114.152 29.8125 114.027 29.8125C113.944 29.7917 113.871 29.7604 113.809 29.7188C113.767 29.6562 113.705 29.625 113.621 29.625C113.517 29.6042 113.434 29.625 113.371 29.6875C113.309 29.75 113.236 29.8021 113.152 29.8438C113.007 29.8021 112.871 29.8021 112.746 29.8438C112.642 29.8854 112.507 29.9167 112.34 29.9375C112.132 29.875 111.975 29.8333 111.871 29.8125C111.788 29.7917 111.736 29.7292 111.715 29.625C111.465 29.75 111.319 29.7917 111.277 29.75C111.257 29.6875 111.215 29.625 111.152 29.5625C111.048 29.5833 110.955 29.6146 110.871 29.6562C110.809 29.6771 110.757 29.7083 110.715 29.75C110.486 29.6042 110.33 29.6667 110.246 29.9375C110.371 30.2917 110.392 30.5104 110.309 30.5938C110.225 30.6771 110.163 30.7917 110.121 30.9375C110.184 31.0625 110.236 31.1979 110.277 31.3438C110.319 31.4688 110.309 31.6146 110.246 31.7812C110.288 31.8854 110.319 32.0104 110.34 32.1562C110.361 32.3021 110.34 32.4375 110.277 32.5625C110.382 32.8542 110.402 33.1458 110.34 33.4375C110.298 33.7292 110.298 34.0104 110.34 34.2812C110.423 34.3021 110.496 34.3021 110.559 34.2812C110.642 34.2604 110.736 34.25 110.84 34.25C111.09 34.1875 111.236 34.1771 111.277 34.2188C111.34 34.2396 111.402 34.2708 111.465 34.3125C111.507 34.2917 111.559 34.2917 111.621 34.3125C111.684 34.3125 111.746 34.3021 111.809 34.2812C111.871 34.2604 111.923 34.2396 111.965 34.2188C112.027 34.1771 112.09 34.1667 112.152 34.1875C112.361 34.2292 112.496 34.25 112.559 34.25C112.642 34.25 112.715 34.25 112.777 34.25C112.965 34.1042 113.173 34.0417 113.402 34.0625C113.548 33.9583 113.663 33.8229 113.746 33.6562C113.83 33.4896 113.965 33.375 114.152 33.3125C114.382 33.2708 114.517 33.1979 114.559 33.0938C114.6 32.9688 114.684 32.8854 114.809 32.8438C114.892 32.6562 114.955 32.5417 114.996 32.5C115.163 32.375 115.288 32.2917 115.371 32.25C115.455 32.2083 115.559 32.1875 115.684 32.1875C115.684 32.4375 115.715 32.5729 115.777 32.5938C115.84 32.6146 115.85 32.6458 115.809 32.6875C115.788 32.75 115.746 32.8021 115.684 32.8438C115.621 32.8646 115.569 32.8958 115.527 32.9375C115.548 33.0208 115.548 33.0833 115.527 33.125C115.507 33.1667 115.496 33.2188 115.496 33.2812C115.413 33.3646 115.298 33.4375 115.152 33.5C115.048 33.625 114.965 33.7917 114.902 34C114.882 34.3333 114.83 34.5833 114.746 34.75C114.684 34.9167 114.642 35.125 114.621 35.375C114.371 35.5208 114.215 35.6667 114.152 35.8125C114.111 35.9375 114.048 36.0521 113.965 36.1562C113.944 36.4062 113.902 36.5729 113.84 36.6562C113.798 36.7396 113.746 36.8229 113.684 36.9062C113.434 37.0521 113.277 37.125 113.215 37.125C113.152 37.1042 113.09 37.1146 113.027 37.1562C112.923 37.1354 112.819 37.125 112.715 37.125C112.632 37.125 112.538 37.1042 112.434 37.0625C112.35 37.0208 112.257 37.0312 112.152 37.0938C112.069 37.1562 111.986 37.1875 111.902 37.1875C111.777 37.1875 111.684 37.1562 111.621 37.0938C111.58 37.0312 111.527 36.9792 111.465 36.9375C111.361 36.9583 111.246 36.9792 111.121 37C111.017 37.0208 110.934 37.0625 110.871 37.125C110.788 37.1458 110.715 37.1458 110.652 37.125C110.611 37.1042 110.548 37.0938 110.465 37.0938C110.402 37.1562 110.361 37.2396 110.34 37.3438C110.319 37.4479 110.257 37.5104 110.152 37.5312C110.173 37.6354 110.205 37.7188 110.246 37.7812C110.309 37.8229 110.371 37.875 110.434 37.9375C110.392 38.1875 110.35 38.4062 110.309 38.5938C110.246 38.8854 110.246 39.0625 110.309 39.125C110.392 39.1667 110.434 39.2604 110.434 39.4062C110.413 39.5104 110.371 39.6042 110.309 39.6875C110.267 39.7708 110.225 39.8646 110.184 39.9688C110.205 40.0729 110.225 40.1562 110.246 40.2188C110.288 40.2812 110.298 40.375 110.277 40.5C110.382 40.8958 110.371 41.125 110.246 41.1875C110.142 41.25 110.08 41.3646 110.059 41.5312C110.1 41.6354 110.132 41.7188 110.152 41.7812C110.194 41.8438 110.215 41.9271 110.215 42.0312C110.257 42.0729 110.277 42.125 110.277 42.1875C110.298 42.25 110.33 42.3021 110.371 42.3438C110.621 42.2812 110.757 42.2708 110.777 42.3125C110.798 42.3333 110.83 42.3646 110.871 42.4062C110.955 42.3646 111.027 42.3438 111.09 42.3438C111.152 42.3229 111.215 42.2917 111.277 42.25C111.423 42.2292 111.527 42.2396 111.59 42.2812C111.652 42.3229 111.736 42.3542 111.84 42.375C112.007 42.3333 112.142 42.2812 112.246 42.2188C112.35 42.1354 112.517 42.1042 112.746 42.125C112.788 42.1667 112.809 42.2292 112.809 42.3125C112.83 42.375 112.84 42.4479 112.84 42.5312C112.923 42.5312 112.996 42.5 113.059 42.4375C113.121 42.3542 113.225 42.3333 113.371 42.375C113.6 42.2917 113.715 42.3021 113.715 42.4062C113.882 42.3646 113.996 42.2917 114.059 42.1875C114.121 42.0833 114.225 42.0104 114.371 41.9688C114.538 42.0104 114.642 42.0104 114.684 41.9688C114.725 41.9062 114.777 41.8542 114.84 41.8125C115.173 41.7708 115.382 41.6562 115.465 41.4688C115.548 41.2604 115.652 41.0729 115.777 40.9062C115.84 40.8646 115.913 40.8438 115.996 40.8438C116.1 40.8229 116.205 40.8021 116.309 40.7812C116.371 40.6771 116.423 40.5521 116.465 40.4062C116.507 40.2604 116.569 40.1354 116.652 40.0312C116.715 39.9688 116.777 39.9167 116.84 39.875C116.902 39.8333 116.955 39.7604 116.996 39.6562C117.163 39.4896 117.288 39.3438 117.371 39.2188C117.475 39.0729 117.642 39.0208 117.871 39.0625C118.059 39.2292 118.111 39.3333 118.027 39.375C117.944 39.4167 117.892 39.5104 117.871 39.6562C117.892 39.7188 117.913 39.7812 117.934 39.8438C117.975 39.9062 117.986 39.9792 117.965 40.0625C117.798 40.3333 117.705 40.5104 117.684 40.5938C117.663 40.6771 117.632 40.7604 117.59 40.8438C117.569 40.9479 117.58 41.0312 117.621 41.0938C117.663 41.1562 117.694 41.2396 117.715 41.3438C117.548 41.5104 117.455 41.6146 117.434 41.6562C117.434 41.6979 117.434 41.7396 117.434 41.7812C117.434 41.8646 117.444 41.9271 117.465 41.9688C117.507 42.0104 117.538 42.0625 117.559 42.125C117.559 42.2292 117.548 42.3125 117.527 42.375C117.507 42.4167 117.475 42.4688 117.434 42.5312C117.288 42.6146 117.194 42.6979 117.152 42.7812C117.132 42.8438 117.132 42.9062 117.152 42.9688C117.027 43.1771 116.955 43.2917 116.934 43.3125C116.934 43.3333 116.913 43.3438 116.871 43.3438C116.83 43.4896 116.798 43.6458 116.777 43.8125C116.777 43.9583 116.746 44.0938 116.684 44.2188C116.642 44.2604 116.569 44.2708 116.465 44.25C116.382 44.2292 116.33 44.25 116.309 44.3125C116.33 44.4167 116.35 44.5 116.371 44.5625C116.392 44.6042 116.423 44.6562 116.465 44.7188C116.465 44.8229 116.475 44.9167 116.496 45C116.538 45.0625 116.559 45.1458 116.559 45.25C116.496 45.3542 116.392 45.3854 116.246 45.3438C116.1 45.3229 115.986 45.2917 115.902 45.25C115.84 45.2708 115.788 45.3021 115.746 45.3438C115.705 45.3854 115.642 45.4062 115.559 45.4062C115.35 45.3438 115.184 45.3021 115.059 45.2812C114.788 45.4271 114.548 45.4896 114.34 45.4688C114.152 45.4479 113.965 45.4375 113.777 45.4375C113.465 45.4375 113.257 45.3958 113.152 45.3125C113.048 45.25 112.934 45.2188 112.809 45.2188C112.725 45.2396 112.663 45.2708 112.621 45.3125C112.58 45.3542 112.507 45.3958 112.402 45.4375C112.319 45.4167 112.236 45.4062 112.152 45.4062C112.069 45.4062 111.975 45.4062 111.871 45.4062C111.642 45.3229 111.455 45.3229 111.309 45.4062C111.184 45.4896 111.069 45.4583 110.965 45.3125C110.923 45.3542 110.861 45.4062 110.777 45.4688C110.715 45.5312 110.642 45.5104 110.559 45.4062C110.559 45.3438 110.569 45.2812 110.59 45.2188C110.611 45.1562 110.6 45.1042 110.559 45.0625C110.246 45.1667 110.038 45.2396 109.934 45.2812C109.85 45.3438 109.725 45.3854 109.559 45.4062C109.309 45.4688 109.132 45.4792 109.027 45.4375C108.944 45.4167 108.892 45.3542 108.871 45.25C108.559 45.3125 108.371 45.375 108.309 45.4375C108.267 45.5208 108.184 45.5625 108.059 45.5625C107.955 45.4792 107.819 45.4167 107.652 45.375C107.486 45.3542 107.319 45.3646 107.152 45.4062C106.986 45.3646 106.84 45.3438 106.715 45.3438C106.611 45.3438 106.527 45.3646 106.465 45.4062C106.361 45.4896 106.277 45.5938 106.215 45.7188C106.152 45.8438 106.038 45.9167 105.871 45.9375C105.725 45.9167 105.621 45.8646 105.559 45.7812C105.496 45.7188 105.413 45.6667 105.309 45.625C105.205 45.625 105.132 45.6562 105.09 45.7188C105.048 45.7812 104.975 45.8125 104.871 45.8125C104.517 45.5833 104.257 45.4375 104.09 45.375C103.902 45.3125 103.694 45.2708 103.465 45.25C103.486 45.0833 103.559 45 103.684 45C103.809 45.0208 103.892 44.9792 103.934 44.875C104.08 44.8333 104.173 44.8125 104.215 44.8125C104.257 44.7917 104.298 44.7604 104.34 44.7188C104.444 44.7396 104.548 44.7396 104.652 44.7188C104.736 44.6979 104.819 44.7083 104.902 44.75C105.194 44.7292 105.402 44.6562 105.527 44.5312C105.652 44.3854 105.788 44.2292 105.934 44.0625C106.08 44.0208 106.163 43.9896 106.184 43.9688C106.205 43.9271 106.236 43.8958 106.277 43.875C106.423 43.625 106.517 43.4479 106.559 43.3438C106.621 43.2396 106.705 43.1458 106.809 43.0625C106.767 42.9375 106.777 42.8333 106.84 42.75C106.923 42.6667 106.986 42.5729 107.027 42.4688C106.965 42.1771 106.955 41.9896 106.996 41.9062C107.038 41.8021 107.08 41.6979 107.121 41.5938C107.121 41.3854 107.09 41.1979 107.027 41.0312C107.048 40.8021 107.059 40.6771 107.059 40.6562C107.059 40.6146 107.08 40.5729 107.121 40.5312C107.059 40.4479 107.017 40.3542 106.996 40.25C106.975 40.1458 106.955 40.0417 106.934 39.9375C106.913 39.875 106.871 39.8333 106.809 39.8125C106.767 39.7708 106.725 39.7188 106.684 39.6562C106.746 39.4479 106.861 39.2812 107.027 39.1562C107.027 39.0312 107.048 38.9375 107.09 38.875C107.132 38.7917 107.173 38.6979 107.215 38.5938C107.173 38.4896 107.121 38.4271 107.059 38.4062C107.017 38.3646 106.996 38.3021 106.996 38.2188C106.975 38.0938 107.007 37.9583 107.09 37.8125C107.194 37.6458 107.246 37.4792 107.246 37.3125C107.184 37.0625 107.184 36.8958 107.246 36.8125C107.309 36.7292 107.35 36.6354 107.371 36.5312C107.267 36.3646 107.173 36.1979 107.09 36.0312C107.027 35.8646 106.965 35.6875 106.902 35.5C106.861 35.3958 106.861 35.3021 106.902 35.2188C106.944 35.1354 106.975 35.0417 106.996 34.9375C106.996 34.75 106.986 34.6354 106.965 34.5938C106.944 34.5312 106.944 34.4583 106.965 34.375C106.902 34.1458 106.892 33.9792 106.934 33.875C106.975 33.7708 107.017 33.6562 107.059 33.5312C107.059 33.2812 107.007 33.0833 106.902 32.9375C106.819 32.7917 106.725 32.6458 106.621 32.5C106.621 32.3542 106.632 32.2396 106.652 32.1562C106.694 32.0521 106.736 31.9479 106.777 31.8438C106.715 31.4896 106.694 31.2396 106.715 31.0938C106.757 30.9479 106.757 30.7917 106.715 30.625C106.736 30.4792 106.788 30.3125 106.871 30.125C106.85 29.8958 106.861 29.7604 106.902 29.7188C106.965 29.6771 106.986 29.5938 106.965 29.4688C106.923 29.3854 106.861 29.3333 106.777 29.3125C106.715 29.2708 106.663 29.1979 106.621 29.0938C106.621 29.0104 106.652 28.9583 106.715 28.9375C106.777 28.9167 106.819 28.875 106.84 28.8125C106.715 28.75 106.6 28.6979 106.496 28.6562C106.309 28.4896 106.142 28.3958 105.996 28.375C105.85 28.3333 105.788 28.2292 105.809 28.0625C105.496 27.9792 105.319 27.9271 105.277 27.9062C105.236 27.8646 105.205 27.8229 105.184 27.7812C105.163 27.7188 105.111 27.6771 105.027 27.6562C104.965 27.6562 104.902 27.6667 104.84 27.6875C104.757 27.7083 104.684 27.6979 104.621 27.6562C104.517 27.5521 104.496 27.4375 104.559 27.3125C104.621 27.1667 104.705 27.0521 104.809 26.9688C105.059 27.0104 105.225 27.0312 105.309 27.0312C105.392 27.0312 105.475 27.0104 105.559 26.9688C105.746 26.8854 105.85 26.8646 105.871 26.9062C105.913 26.9271 105.955 26.9479 105.996 26.9688C106.246 26.9688 106.371 27 106.371 27.0625C106.392 27.1042 106.423 27.1354 106.465 27.1562C106.777 27.1562 106.996 27.1354 107.121 27.0938C107.246 27.0521 107.35 27 107.434 26.9375C107.6 26.9792 107.715 26.9688 107.777 26.9062C107.861 26.8229 107.965 26.7812 108.09 26.7812C108.382 26.9062 108.59 26.9583 108.715 26.9375C108.84 26.9167 108.965 26.8958 109.09 26.875C109.215 26.8333 109.33 26.8125 109.434 26.8125C109.559 26.8125 109.673 26.8438 109.777 26.9062C109.902 26.8438 110.017 26.7708 110.121 26.6875C110.246 26.6042 110.392 26.5833 110.559 26.625C110.705 26.6875 110.809 26.8438 110.871 27.0938C111.059 27.0104 111.257 26.9479 111.465 26.9062C111.694 26.8438 111.923 26.8229 112.152 26.8438C112.402 26.9896 112.58 27.0521 112.684 27.0312C112.809 26.9896 112.923 27 113.027 27.0625C113.444 27.1458 113.767 27.0729 113.996 26.8438C114.1 26.7812 114.184 26.7083 114.246 26.625C114.33 26.5208 114.434 26.4479 114.559 26.4062C114.684 26.4271 114.746 26.5312 114.746 26.7188C114.83 26.6979 114.902 26.6667 114.965 26.625C115.027 26.5833 115.111 26.5833 115.215 26.625C115.34 26.4792 115.434 26.3854 115.496 26.3438C115.58 26.3021 115.673 26.2604 115.777 26.2188C115.923 26.4271 116.007 26.5208 116.027 26.5C116.048 26.4583 116.08 26.4375 116.121 26.4375C116.246 26.1667 116.371 25.9792 116.496 25.875C116.621 25.75 116.746 25.6354 116.871 25.5312C117.08 25.5104 117.194 25.4375 117.215 25.3125C117.257 25.1875 117.33 25.1042 117.434 25.0625C117.621 25.0625 117.736 25.0208 117.777 24.9375C117.819 24.8542 117.861 24.7708 117.902 24.6875C117.965 24.6042 118.027 24.5417 118.09 24.5C118.173 24.4375 118.257 24.4375 118.34 24.5Z" fill="#FBE3FF"/>
</g>
<defs>
<clipPath id="clip0_984_2246">
<rect width="135" height="70" fill="white" transform="translate(0.359131)"/>
</clipPath>
</defs>
</svg>
