<svg width="329" height="375" viewBox="0 0 329 375" fill="none" xmlns="http://www.w3.org/2000/svg" xmlns:xlink="http://www.w3.org/1999/xlink">
<path d="M255.633 359.931H139.525L148.39 369.2H306.268V359.931V309.316L255.633 359.931Z" fill="#6EE3FD"/>
<path d="M318.475 375H118.871L107.683 363.308H35.8051V362.729H107.935L119.123 374.421H317.895V299.066L328.139 285.573V128.484H328.718V285.766L318.475 299.264V375Z" fill="#6EE3FD"/>
<mask id="mask0_963_2175" style="mask-type:alpha" maskUnits="userSpaceOnUse" x="26" y="32" width="281" height="328">
<path d="M256.835 359.883H26.725V81.7073L76.1151 32.3409H306.225V310.522L256.835 359.888V359.883Z" fill="#E9BF59" fill-opacity="0.9"/>
</mask>
<g mask="url(#mask0_963_2175)">
<rect x="-62" y="41" width="559" height="319" fill="url(#pattern0_963_2175)"/>
</g>
<path d="M256.835 359.883H26.725V81.7073L76.1151 32.3409H306.225V310.522L256.835 359.888V359.883ZM32.528 354.083H254.432L300.422 308.115V38.1412H78.5178L32.528 84.1089V354.083Z" fill="#8667A8"/>
<path d="M305.925 24.8896H172.814L159.76 35.2411H305.925V181.341L316.281 168.293V35.2411V24.8896H305.925Z" fill="#6EE3FD"/>
<path opacity="0.84" d="M166.899 340.456H46.1667V248.081H47.9044V338.714H166.899V340.456Z" fill="#8667A8"/>
<path d="M93.1005 343.356H43.2653V293.834L50.806 298.342V335.814H89.5983L93.1005 343.356Z" fill="#6EE3FD"/>
<path opacity="0.84" d="M286.783 171.289H285.045V53.5102H212.996V51.7733H286.783V171.289Z" fill="#8667A8"/>
<path d="M10.3564 0H143.472L156.521 10.3514H10.3564V156.446L0 143.403V10.3514V0H10.3564Z" fill="#8667A8"/>
<path d="M47.0356 251.86C49.1238 251.86 50.8167 250.168 50.8167 248.081C50.8167 245.994 49.1238 244.302 47.0356 244.302C44.9474 244.302 43.2545 245.994 43.2545 248.081C43.2545 250.168 44.9474 251.86 47.0356 251.86Z" fill="#8667A8"/>
<path d="M166.899 343.367C168.987 343.367 170.68 341.675 170.68 339.587C170.68 337.5 168.987 335.808 166.899 335.808C164.81 335.808 163.118 337.5 163.118 339.587C163.118 341.675 164.81 343.367 166.899 343.367Z" fill="#8667A8"/>
<path d="M285.914 175.069C288.002 175.069 289.695 173.377 289.695 171.289C289.695 169.202 288.002 167.51 285.914 167.51C283.826 167.51 282.133 169.202 282.133 171.289C282.133 173.377 283.826 175.069 285.914 175.069Z" fill="#8667A8"/>
<path d="M212.996 56.421C215.084 56.421 216.777 54.729 216.777 52.6418C216.777 50.5545 215.084 48.8625 212.996 48.8625C210.907 48.8625 209.215 50.5545 209.215 52.6418C209.215 54.729 210.907 56.421 212.996 56.421Z" fill="#8667A8"/>
<path d="M122.695 343.356H82.905V338.413H117.916L122.695 343.356Z" fill="#6EE3FD"/>
<path d="M17.7309 192.126L8.44714 181.416V8.07318H222.896L233.162 17.3525H17.7309V192.126Z" fill="#6EE3FD"/>
<path d="M13.9605 156.446H12.2174V250.15H13.9605V156.446Z" fill="#6EE3FD"/>
<path d="M298.743 15.6102H204.994V17.3524H298.743V15.6102Z" fill="#6EE3FD"/>
<path d="M13.0863 270.896C15.5715 270.896 17.5861 268.882 17.5861 266.398C17.5861 263.914 15.5715 261.901 13.0863 261.901C10.6012 261.901 8.58655 263.914 8.58655 266.398C8.58655 268.882 10.6012 270.896 13.0863 270.896Z" fill="#6EE3FD"/>
<path d="M13.0863 288.849C15.5715 288.849 17.5861 286.835 17.5861 284.351C17.5861 281.867 15.5715 279.854 13.0863 279.854C10.6012 279.854 8.58655 281.867 8.58655 284.351C8.58655 286.835 10.6012 288.849 13.0863 288.849Z" fill="#6EE3FD"/>
<path d="M13.0863 306.802C15.5715 306.802 17.5861 304.788 17.5861 302.304C17.5861 299.82 15.5715 297.806 13.0863 297.806C10.6012 297.806 8.58655 299.82 8.58655 302.304C8.58655 304.788 10.6012 306.802 13.0863 306.802Z" fill="#6EE3FD"/>
<path d="M13.0863 324.76C15.5715 324.76 17.5861 322.746 17.5861 320.262C17.5861 317.778 15.5715 315.765 13.0863 315.765C10.6012 315.765 8.58655 317.778 8.58655 320.262C8.58655 322.746 10.6012 324.76 13.0863 324.76Z" fill="#6EE3FD"/>
<path d="M13.0863 342.713C15.5715 342.713 17.5861 340.699 17.5861 338.215C17.5861 335.731 15.5715 333.718 13.0863 333.718C10.6012 333.718 8.58655 335.731 8.58655 338.215C8.58655 340.699 10.6012 342.713 13.0863 342.713Z" fill="#6EE3FD"/>
<path d="M168.942 366.723H64.6538V369.194H168.942V366.723Z" fill="#6EE3FD"/>
<path opacity="0.84" d="M313.272 140.176H311.529V272.885H313.272V140.176Z" fill="#8667A8"/>
<defs>
<pattern id="pattern0_963_2175" patternContentUnits="objectBoundingBox" width="1" height="1">
<use xlink:href="#image0_963_2175" transform="matrix(0.000372024 0 0 0.000651916 0 -0.000671742)"/>
</pattern>
</defs>
</svg>
