<svg width="883" height="595" viewBox="0 0 883 595" fill="none" xmlns="http://www.w3.org/2000/svg">
<g id="fogLeft">
<g id="Vector1" filter="url(#filter0_f_2011_32)">
<path fill-rule="evenodd" clip-rule="evenodd" d="M103.079 218.434V218.434L104.798 217.609L106.526 216.806L108.264 216.025L110.011 215.268L111.768 214.533L113.535 213.821L115.311 213.132L117.097 212.465L118.892 211.821L120.698 211.2L122.513 210.601L124.337 210.025L126.171 209.472L128.015 208.941L129.868 208.433L131.731 207.948L133.604 207.485L135.486 207.044L137.378 206.626L139.279 206.231L141.189 205.858L143.11 205.507L145.039 205.178L146.978 204.872L148.927 204.588L150.885 204.326L152.852 204.086L154.829 203.868L156.815 203.672L158.81 203.498L160.815 203.345L162.828 203.215L164.851 203.106L166.884 203.018L168.925 202.953L170.975 202.908L173.035 202.885L175.103 202.883L177.181 202.903L179.267 202.943L181.363 203.005L183.467 203.087L185.58 203.19L187.702 203.314L189.832 203.458L191.972 203.623L194.12 203.808L196.276 204.013L198.441 204.239L200.615 204.485L202.797 204.75L204.988 205.035L207.186 205.34L209.394 205.664L211.609 206.008L213.833 206.371L216.064 206.753L218.304 207.154L220.552 207.574L222.807 208.013L225.071 208.47L227.342 208.946L229.622 209.44L231.909 209.952L234.203 210.482L236.505 211.03L238.815 211.595L241.132 212.178L243.456 212.779L245.788 213.396L248.127 214.031L250.473 214.682L252.826 215.351L255.187 216.035L257.554 216.736L259.928 217.453L262.309 218.186L264.696 218.935L267.09 219.7L269.491 220.48L271.898 221.275L274.312 222.085L276.732 222.911L279.158 223.75L281.591 224.605L284.029 225.474L286.474 226.357L288.924 227.253L291.38 228.164L293.842 229.088L296.31 230.025L298.783 230.976L301.262 231.939L303.746 232.915L306.235 233.904L308.73 234.905L311.23 235.918L313.734 236.942L316.244 237.979L318.759 239.027L321.278 240.086L323.802 241.156L326.331 242.237L328.864 243.329L331.402 244.431L333.944 245.542L336.49 246.664L339.04 247.796L341.594 248.937L344.152 250.087L346.714 251.246L349.28 252.414L351.849 253.591L354.422 254.776L356.998 255.968L359.577 257.169L362.16 258.377L364.746 259.593L367.335 260.816L369.927 262.045L372.521 263.282L375.119 264.524L377.719 265.773L380.321 267.028L382.926 268.288L385.534 269.554L388.143 270.825L390.755 272.101L393.368 273.382L395.984 274.667L398.601 275.957L401.22 277.25L403.84 278.547L406.463 279.848L409.086 281.152L411.711 282.459L414.336 283.768L416.963 285.08L419.591 286.395L422.22 287.711L424.849 289.029L427.479 290.349L430.11 291.67L432.741 292.991L435.372 294.314L438.004 295.637L440.636 296.96L443.267 298.284L445.899 299.607L448.53 300.929L451.161 302.251L453.792 303.572L456.422 304.892L459.051 306.21L461.68 307.526L464.308 308.84L466.935 310.152L469.56 311.462L472.185 312.769L474.809 314.073L477.431 315.373L480.051 316.67L482.67 317.964L485.287 319.253L487.903 320.539L490.516 321.819L493.128 323.095L495.737 324.366L498.345 325.632L500.95 326.893L503.552 328.148L506.152 329.396L508.75 330.639L511.344 331.875L513.936 333.105L516.525 334.328L519.111 335.543L521.694 336.752L524.273 337.952L526.849 339.145L529.422 340.33L531.991 341.506L534.557 342.674L537.119 343.834L539.677 344.984L542.231 346.125L544.781 347.256L547.328 348.378L549.869 349.49L552.407 350.592L554.94 351.684L557.469 352.765L559.993 353.835L562.512 354.894L565.027 355.942L567.537 356.978L570.041 358.003L572.541 359.016L575.036 360.017L577.525 361.006L580.009 361.982L582.488 362.945L584.961 363.895L587.429 364.833L589.891 365.757L592.347 366.667L594.797 367.564L597.242 368.447L599.68 369.316L602.113 370.17L604.539 371.01L606.959 371.835L609.373 372.646L611.78 373.441L614.181 374.221L616.575 374.985L618.962 375.734L621.343 376.467L623.717 377.185L626.085 377.886L628.445 378.57L630.798 379.238L633.144 379.89L635.483 380.524L637.815 381.142L640.139 381.742L642.456 382.325L644.766 382.891L647.068 383.439L649.362 383.969L651.649 384.481L653.929 384.975L656.2 385.45L658.464 385.908L660.719 386.346L662.967 386.766L665.207 387.167L667.439 387.55L669.662 387.913L671.877 388.256L674.085 388.581L676.283 388.886L678.474 389.171L680.656 389.436L682.83 389.682L684.995 389.907L687.151 390.113L689.299 390.298L691.439 390.463L693.569 390.607L695.691 390.731L697.804 390.834L699.908 390.916L702.004 390.977L704.09 391.018L706.168 391.037L708.236 391.036L710.296 391.012L712.346 390.968L714.388 390.902L716.42 390.815L718.443 390.706L720.456 390.575L722.461 390.423L724.456 390.249L726.442 390.053L728.419 389.835L730.386 389.595L732.344 389.333L734.293 389.049L736.232 388.743L738.161 388.414L740.082 388.063L741.992 387.69L743.893 387.294L745.785 386.876L747.667 386.436L749.54 385.973L751.403 385.487L753.256 384.979L755.1 384.449L756.934 383.895L758.758 383.319L760.573 382.721L762.379 382.1L764.174 381.456L765.96 380.789L767.737 380.1L769.503 379.388L771.26 378.653L773.008 377.895L774.745 377.115L776.473 376.312" fill="white"/>
</g>
</g>
<defs>
<filter id="filter0_f_2011_32" x="-2.92041" y="96.8834" width="885.394" height="400.154" filterUnits="userSpaceOnUse" color-interpolation-filters="sRGB">
<feFlood flood-opacity="0" result="BackgroundImageFix"/>
<feBlend mode="normal" in="SourceGraphic" in2="BackgroundImageFix" result="shape"/>
<feGaussianBlur stdDeviation="53" result="effect1_foregroundBlur_2011_32"/>
</filter>
</defs>
</svg>
