<svg width="710" height="666" viewBox="0 0 710 666" fill="none" xmlns="http://www.w3.org/2000/svg">
<g id="fogRight">
<g id="Vector2" filter="url(#filter0_f_2011_33)">
<path fill-rule="evenodd" clip-rule="evenodd" d="M86.6889 580.879V580.879L86.3453 579.538L86.0403 578.192L85.774 576.839L85.5464 575.481L85.3575 574.116L85.2073 572.746L85.0957 571.37L85.0228 569.988L84.9885 568.6L84.9928 567.207L85.0358 565.807L85.1173 564.402L85.2373 562.991L85.3959 561.574L85.5929 560.151L85.8283 558.723L86.102 557.288L86.414 555.848L86.7643 554.402L87.1527 552.951L87.5792 551.493L88.0438 550.03L88.5462 548.561L89.0865 547.086L89.6646 545.606L90.2803 544.12L90.9335 542.628L91.6243 541.13L92.3524 539.627L93.1177 538.119L93.9201 536.604L94.7595 535.084L95.6358 533.559L96.5489 532.028L97.4985 530.491L98.4847 528.949L99.5071 527.401L100.566 525.848L101.66 524.29L102.791 522.726L103.957 521.156L105.159 519.581L106.396 518.001L107.668 516.416L108.975 514.825L110.318 513.229L111.694 511.628L113.106 510.021L114.551 508.41L116.031 506.793L117.544 505.171L119.091 503.544L120.672 501.912L122.285 500.275L123.932 498.633L125.612 496.986L127.324 495.334L129.068 493.677L130.844 492.015L132.653 490.349L134.493 488.677L136.364 487.001L138.266 485.32L140.199 483.635L142.163 481.945L144.157 480.25L146.181 478.551L148.235 476.847L150.319 475.139L152.431 473.427L154.573 471.71L156.743 469.988L158.942 468.263L161.169 466.533L163.424 464.799L165.706 463.061L168.015 461.318L170.351 459.572L172.714 457.821L175.103 456.067L177.518 454.309L179.959 452.546L182.425 450.78L184.916 449.01L187.432 447.237L189.972 445.459L192.537 443.679L195.125 441.894L197.736 440.106L200.37 438.314L203.027 436.52L205.706 434.721L208.408 432.92L211.131 431.115L213.875 429.306L216.64 427.495L219.426 425.681L222.231 423.863L225.057 422.043L227.902 420.219L230.767 418.393L233.65 416.564L236.551 414.732L239.47 412.897L242.407 411.06L245.361 409.22L248.332 407.378L251.32 405.533L254.323 403.685L257.343 401.835L260.377 399.983L263.427 398.129L266.491 396.273L269.569 394.414L272.66 392.553L275.766 390.69L278.884 388.826L282.014 386.959L285.157 385.091L288.311 383.22L291.477 381.348L294.653 379.475L297.841 377.6L301.038 375.723L304.245 373.845L307.461 371.965L310.686 370.084L313.919 368.202L317.16 366.319L320.41 364.434L323.666 362.549L326.929 360.662L330.198 358.774L333.473 356.886L336.754 354.997L340.04 353.107L343.33 351.216L346.625 349.324L349.924 347.432L353.226 345.54L356.53 343.647L359.838 341.753L363.148 339.86L366.459 337.966L369.771 336.072L373.085 334.177L376.399 332.283L379.713 330.389L383.026 328.494L386.339 326.6L389.65 324.706L392.959 322.812L396.267 320.919L399.572 319.026L402.874 317.134L406.172 315.242L409.467 313.35L412.758 311.459L416.043 309.569L419.324 307.68L422.599 305.791L425.869 303.904L429.132 302.017L432.388 300.131L435.637 298.247L438.878 296.364L442.112 294.481L445.337 292.6L448.553 290.721L451.76 288.843L454.957 286.966L458.144 285.091L461.32 283.217L464.486 281.345L467.641 279.475L470.783 277.607L473.914 275.74L477.032 273.875L480.137 272.013L483.229 270.152L486.307 268.293L489.371 266.437L492.42 264.582L495.455 262.73L498.474 260.881L501.478 259.033L504.465 257.188L507.436 255.346L510.39 253.506L513.327 251.668L516.246 249.834L519.148 248.002L522.031 246.173L524.895 244.346L527.74 242.523L530.566 240.703L533.372 238.885L536.157 237.071L538.923 235.259L541.667 233.451L544.39 231.646L547.091 229.845L549.77 228.046L552.427 226.251L555.061 224.46L557.673 222.672L560.261 220.887L562.825 219.106L565.365 217.329L567.881 215.555L570.372 213.786L572.838 212.02L575.279 210.257L577.694 208.499L580.083 206.744L582.446 204.994L584.782 203.248L587.092 201.505L589.374 199.767L591.628 198.033L593.855 196.303L596.054 194.577L598.224 192.856L600.366 191.139L602.479 189.427L604.562 187.718L606.616 186.015L608.64 184.315L610.634 182.621L612.598 180.931L614.531 179.245L616.434 177.565L618.305 175.888L620.145 174.217L621.953 172.551L623.729 170.889L625.474 169.232L627.186 167.58L628.865 165.933L630.512 164.291L632.126 162.654L633.706 161.022L635.253 159.395L636.767 157.773L638.246 156.156L639.692 154.544L641.103 152.938L642.48 151.337L643.822 149.741L645.129 148.15L646.401 146.564L647.639 144.984L648.84 143.41L650.006 141.84L651.137 140.276L652.232 138.718L653.29 137.164L654.313 135.617L655.299 134.075L656.248 132.538L657.161 131.007L658.038 129.481L658.877 127.962L659.68 126.447L660.445 124.938L661.173 123.435L661.864 121.938L662.517 120.446L663.133 118.96L663.711 117.48L664.251 116.005L664.754 114.536L665.218 113.073L665.645 111.615L666.033 110.164L666.383 108.718L666.695 107.277L666.969 105.843L667.204 104.415L667.401 102.992L667.56 101.575L667.68 100.164L667.762 98.7586L667.804 97.3591L667.809 95.9655L667.775 94.5778L667.702 93.1959L667.59 91.8198L667.44 90.4496L667.251 89.0853L667.023 87.7268L666.757 86.3741L666.452 85.0273" fill="white"/>
</g>
</g>
<defs>
<filter id="filter0_f_2011_33" x="0.188278" y="0.227325" width="752.421" height="665.452" filterUnits="userSpaceOnUse" color-interpolation-filters="sRGB">
<feFlood flood-opacity="0" result="BackgroundImageFix"/>
<feBlend mode="normal" in="SourceGraphic" in2="BackgroundImageFix" result="shape"/>
<feGaussianBlur stdDeviation="42.4" result="effect1_foregroundBlur_2011_33"/>
</filter>
</defs>
</svg>
