<svg width="83" height="114" viewBox="0 0 83 114" fill="none" xmlns="http://www.w3.org/2000/svg">
<path d="M67.259 61.4349C62.1475 66.36 57.9788 69.121 56.1676 71.1607C54.3563 73.2004 55.4232 76.1602 56.4901 78.0756C50.9817 77.2051 47.1356 74.5434 46.8875 69.5688C46.6393 64.5939 54.6539 54.8186 54.4803 48.0777C54.3314 41.3371 43.0416 35.4917 43.6122 21.8608C43.8604 15.6672 50.6839 10.3193 50.808 10.2447C50.7573 10.3137 50.7156 10.389 50.6839 10.4686C42.7686 24.1989 52.1231 32.0092 58.0037 40.2922C63.8596 48.5752 58.5 58.4253 58.4255 58.5745C58.5248 58.5 64.7528 53.6992 65.0507 46.3117C65.1001 45.9153 65.1001 45.5143 65.0507 45.1179C64.728 38.2029 59.2444 31.2631 58.9963 30.9397C65.5219 37.5313 68.5989 41.4364 70.2861 45.8639C70.2613 45.8888 72.3705 56.5099 67.259 61.4349Z" fill="url(#paint0_linear_5_20)"/>
<path d="M60.9568 72.3049C56.3913 74.071 56.4656 78.0756 56.4656 78.0756C55.3987 76.1602 54.3318 73.1755 56.1432 71.1607C57.9546 69.121 62.1231 66.36 67.2345 61.4349C72.346 56.5101 70.2368 45.8888 70.2368 45.8888C71.2294 48.5254 71.7257 51.3363 72.1475 54.9926C73.3136 65.191 65.5223 70.5389 60.9568 72.3049Z" fill="url(#paint1_linear_5_20)"/>
<path d="M65.0507 46.3366C64.728 53.7241 58.5 58.5247 58.4255 58.5994C58.5 58.4751 63.8596 48.6001 58.0037 40.3171C52.148 32.0341 42.7687 24.2238 50.6839 10.4934C50.7346 10.4244 50.7763 10.3492 50.8081 10.2696C50.7336 10.4686 47.7808 17.6073 48.6492 21.5623C49.5176 25.5669 51.1305 29.3478 53.3637 31.5864C55.5969 33.825 61.8497 38.6507 62.47 39.6704C63.016 40.5659 64.728 42.8792 65.0258 45.1425C65.0507 45.5407 65.0507 45.9386 65.0507 46.3366Z" fill="url(#paint2_linear_5_20)"/>
<path d="M47.2848 75.9364C45.647 75.3893 40.2626 73.3247 39.1212 68.6982C38.658 66.817 38.582 64.861 38.8977 62.9495C39.2133 61.0379 39.9142 59.2108 40.9574 57.5796C42.7191 54.7688 45.6967 47.7793 45.5974 45.8888C45.5229 44.1975 45.374 40.6903 41.6273 37.3075C41.28 37.0089 40.9077 36.6857 40.5107 36.3871C40.4362 36.3373 40.3868 36.2875 40.3123 36.2379C40.3123 36.2379 40.5852 36.3124 41.007 36.4618C41.1559 36.5114 41.3295 36.5612 41.5033 36.6359L41.5777 36.6608C41.6273 36.6857 42.0491 36.8846 42.6197 37.2328C44.2326 38.2029 47.1606 40.2922 47.7066 43.0533C48.4508 46.9088 48.8726 51.5851 45.4734 57.5796C42.0988 63.5742 40.0144 69.4941 47.2848 75.9364Z" fill="url(#paint3_linear_5_20)"/>
<path d="M50.2374 56.112C47.8306 59.7934 44.729 64.6188 44.8778 68.6982C45.0268 72.7774 45.275 73.9963 47.7561 76.0609C47.5955 76.0225 47.438 75.9726 47.2846 75.9115C40.0145 69.4692 42.074 63.5493 45.4983 57.5547C48.8975 51.5602 48.4757 46.8839 47.7312 43.0284C47.1855 40.2673 44.2575 38.1531 42.6446 37.2079C42.0492 36.8597 41.6522 36.6608 41.6025 36.6359C42.0243 36.7851 42.5206 36.9591 43.0664 37.183C45.3244 38.1033 48.4509 39.7451 50.2374 42.1578C53.2893 46.2621 52.6442 52.4307 50.2374 56.112Z" fill="url(#paint4_linear_5_20)"/>
<path d="M45.771 37.3571C44.7943 37.2082 43.8051 37.1583 42.8185 37.2079C42.2725 36.984 41.7762 36.7851 41.3544 36.6606L41.2801 36.6359C41.0814 36.5612 40.9326 36.5114 40.7838 36.4616C40.3371 36.3124 40.089 36.2377 40.089 36.2377C40.1635 36.2875 40.2129 36.3373 40.2874 36.3871C40.6844 36.6855 41.0814 37.0089 41.404 37.3075C31.8511 38.4268 26.7396 47.7296 28.5013 57.5548C28.5261 57.7288 28.5758 57.9278 28.6006 58.1268C28.7495 58.8482 28.9479 59.5942 29.1713 60.3156C29.3202 60.8132 29.5187 61.3356 29.7172 61.8329C30.3137 63.343 31.0532 64.7924 31.9256 66.161C33.4468 68.553 35.2829 70.7284 37.3843 72.6282C37.5331 72.7525 37.6573 72.877 37.8061 73.0013C46.0192 80.0656 55.9196 80.538 60.237 78.1253C63.8349 76.1105 66.3659 73.4739 67.9537 70.4643C67.6313 71.9068 67.3086 73.1753 66.9861 74.3196L70.1869 78.1004C70.6465 78.6316 70.9294 79.2933 70.9962 79.9933C71.0629 80.6933 70.9102 81.3968 70.5592 82.0057L68.3012 85.9606C68.1265 86.2581 67.8903 86.5147 67.6084 86.7131C67.3265 86.9115 67.0055 87.0471 66.667 87.1107C66.3285 87.1744 65.9803 87.1646 65.6458 87.082C65.3114 86.9995 64.9985 86.8461 64.7281 86.6321L61.1302 83.7717C60.5174 84.2451 59.8797 84.6852 59.2197 85.09C57.9761 85.8492 56.631 86.427 55.2248 86.8062V93.2983C55.2231 93.7661 55.0369 94.2143 54.7069 94.5451C54.3769 94.8759 53.9298 95.0625 53.4631 95.0643H45.5974C45.1013 95.0658 44.6186 94.9034 44.2239 94.6021C43.8292 94.3009 43.5445 93.8776 43.4139 93.3979L41.5034 86.5078C41.2304 86.4332 40.9326 86.3336 40.6596 86.2342C39.4539 85.8436 38.2766 85.3698 37.1362 84.8163H37.1113C37.0925 84.8137 37.0751 84.8049 37.0617 84.7914C36.8385 84.692 36.6152 84.5675 36.3671 84.4433C36.2399 84.3671 36.1071 84.3006 35.9699 84.2443C35.176 83.8215 34.3572 83.3488 33.5631 82.8264C33.464 82.7766 33.3895 82.7021 33.2901 82.6523L33.3646 82.727L29.1465 86.1844C28.6746 86.5761 28.0696 86.7691 27.4587 86.7227C26.8478 86.6763 26.2787 86.3942 25.8712 85.9356L18.8243 78.1252C18.4968 77.762 18.2917 77.3046 18.2383 76.8179C18.1848 76.3312 18.2857 75.8399 18.5265 75.414L21.5041 70.2404L21.5785 70.1159C20.8453 68.8943 20.1986 67.6226 19.6431 66.3102C19.5687 66.1112 19.4694 65.9122 19.395 65.7133C18.9804 64.7066 18.6242 63.6768 18.328 62.6289L18.0799 62.5543L13.2166 61.0121L12.0752 60.6639L11.9759 60.5395C11.5977 60.3589 11.2794 60.0728 11.0594 59.7154C10.8393 59.358 10.7268 58.9446 10.7353 58.5247L10.7849 51.8834V50.4409C10.7834 50.2803 10.8086 50.1205 10.8594 49.9682C10.9379 49.7305 11.0822 49.5201 11.2755 49.3615C11.4688 49.203 11.7032 49.1028 11.9511 49.0728L14.6558 48.7493L17.7077 48.4012L17.9559 48.3763C18.4406 46.4994 19.2016 44.7053 20.2138 43.0533L17.3355 38.3272C17.1708 38.0426 17.1127 37.7083 17.1718 37.3846C17.231 37.0608 17.4034 36.7689 17.6581 36.5612L22.0748 33.054C22.3705 32.8135 22.7363 32.6761 23.1169 32.6626C23.4974 32.6491 23.872 32.7603 24.1839 32.9794L28.8487 36.2377C30.8928 35.5787 33.0288 35.2512 35.176 35.2678L35.4241 31.3376C35.4298 31.2664 35.45 31.1971 35.4835 31.134C35.5171 31.071 35.5632 31.0155 35.6191 30.9712C35.675 30.9268 35.7394 30.8945 35.8083 30.8762C35.8772 30.858 35.9491 30.8541 36.0196 30.865L43.4139 32.1337C43.6236 32.1708 43.8204 32.2611 43.9855 32.3961C44.1506 32.5311 44.2784 32.7061 44.3568 32.9047L45.9944 37.0338C46.0165 37.0693 46.0277 37.1105 46.0268 37.1523C46.0258 37.1941 46.0126 37.2348 45.9888 37.2691C45.9651 37.3035 45.9318 37.3302 45.8931 37.3458C45.8544 37.3614 45.8119 37.3654 45.771 37.3571Z" fill="white"/>
<path d="M28.4765 57.6043H24.7546C24.6176 57.5967 24.4869 57.5443 24.3824 57.4551C23.9358 57.0074 23.4892 56.5099 23.0425 56.0621C22.995 56.025 22.9617 55.9726 22.9482 55.9137C22.9346 55.8549 22.9417 55.7932 22.9681 55.7389C23.0809 55.5167 23.12 55.2642 23.0799 55.0182C23.0397 54.7722 22.9223 54.5454 22.7448 54.3708C22.5874 54.1773 22.374 54.0375 22.134 53.9706C21.894 53.9038 21.6393 53.9133 21.4049 53.9978C21.2416 54.05 21.0902 54.1343 20.9597 54.2456C20.8291 54.357 20.7218 54.4932 20.6442 54.6464C20.5666 54.7996 20.52 54.9668 20.5073 55.1381C20.4946 55.3095 20.516 55.4817 20.5702 55.6447C20.6244 55.8078 20.7104 55.9584 20.8231 56.0879C20.9359 56.2173 21.0731 56.3231 21.2269 56.3989C21.3808 56.4748 21.5481 56.5193 21.7192 56.5298C21.8903 56.5404 22.0618 56.5167 22.2237 56.4603C22.3191 56.4292 22.4107 56.3875 22.4967 56.3358C23.0177 56.8831 23.5388 57.4302 24.0599 58.0025C24.1131 58.0753 24.1851 58.1323 24.2681 58.1674C24.3511 58.2024 24.4421 58.2142 24.5313 58.2014H28.551L28.4765 57.6043ZM21.8019 55.913C21.6111 55.9128 21.4281 55.8368 21.2932 55.7015C21.1583 55.5663 21.0825 55.3829 21.0823 55.1916C21.0856 55.0036 21.1633 54.8246 21.2982 54.694C21.4332 54.5633 21.6144 54.4918 21.8019 54.4951C21.9895 54.4984 22.168 54.5763 22.2983 54.7116C22.4286 54.8468 22.5 55.0285 22.4967 55.2165C22.5031 55.3096 22.4895 55.403 22.4569 55.4905C22.4243 55.5779 22.3733 55.6573 22.3075 55.7233C22.2416 55.7893 22.1624 55.8404 22.0752 55.8731C21.988 55.9058 21.8948 55.9194 21.8019 55.913ZM10.7354 52.5052H17.5589C17.644 52.5122 17.7295 52.4977 17.8076 52.4629C17.8856 52.4281 17.9537 52.3743 18.0055 52.3062C18.6755 51.5602 19.3702 50.8388 20.065 50.0925C20.1087 50.0439 20.1624 50.0054 20.2223 49.9797C20.2823 49.9539 20.3471 49.9415 20.4124 49.9433H24.6554C24.7237 49.9344 24.7931 49.9493 24.8518 49.9856C24.9105 50.0218 24.955 50.0771 24.9779 50.1423C25.0861 50.4234 25.2897 50.6574 25.5529 50.8029C25.8161 50.9485 26.1221 50.9964 26.4171 50.9381C26.7086 50.8805 26.9714 50.7238 27.1612 50.4946C27.3511 50.2654 27.4563 49.9777 27.4592 49.6798C27.4621 49.3819 27.3625 49.0921 27.1772 48.8592C26.9919 48.6263 26.7323 48.4645 26.4419 48.4011C26.1463 48.3347 25.8368 48.3758 25.5686 48.517C25.3004 48.6583 25.0911 48.8904 24.9779 49.1721C24.9283 49.2966 24.9035 49.396 24.7298 49.396H22.5959C22.5532 49.3977 22.5106 49.3891 22.4718 49.3711C22.4944 49.2922 22.5278 49.2169 22.5711 49.1472C23.2162 47.7544 23.8365 46.3864 24.4817 44.9934C24.5014 44.9194 24.5479 44.8554 24.6121 44.814C24.6764 44.7726 24.7537 44.7567 24.8291 44.7695C25.8712 44.7695 26.9133 44.7695 27.9803 44.7944C28.1238 44.8064 28.2612 44.8581 28.3773 44.9436C28.7495 45.2919 29.0969 45.6401 29.4691 45.9884L29.8164 45.5158C29.4443 45.1675 29.0473 44.7695 28.6502 44.3716C28.5932 44.3114 28.5235 44.2646 28.4463 44.2345C28.3691 44.2044 28.2863 44.1918 28.2036 44.1975H24.5065C24.4253 44.1894 24.3439 44.2097 24.276 44.2551C24.2081 44.3005 24.158 44.368 24.1343 44.4463C23.4147 46.0131 22.6952 47.5802 21.9756 49.1721C21.9479 49.2529 21.8933 49.3217 21.821 49.367C21.7488 49.4123 21.6632 49.4313 21.5786 49.4209C21.124 49.396 20.6684 49.396 20.2139 49.4209C20.0842 49.4286 19.9614 49.4814 19.8665 49.5703C19.1717 50.3164 18.477 51.0626 17.7574 51.8087C17.6692 51.8927 17.5558 51.9452 17.4348 51.9581H10.785M10.7602 55.1916H18.9732C19.0711 55.1944 19.1684 55.1758 19.2583 55.1372C19.3483 55.0985 19.4288 55.0407 19.4943 54.9678C20.2139 54.1968 20.9583 53.4256 21.7026 52.6546C21.7975 52.5657 21.9204 52.5129 22.05 52.5052H28.0547L27.9803 51.9332H21.8515C21.6857 51.9308 21.5255 51.9932 21.4049 52.1073C20.6605 52.9034 19.9161 53.6743 19.1469 54.4704C19.0586 54.5543 18.9453 54.6067 18.8243 54.6196H10.7354M10.7602 58.1765H20.462C20.5463 58.1681 20.631 58.188 20.7029 58.233C20.7747 58.278 20.8296 58.3457 20.859 58.4253C21.3801 59.4451 21.926 60.4401 22.447 61.4598C22.4725 61.5354 22.5239 61.5994 22.5921 61.6404C22.6602 61.6814 22.7408 61.6968 22.8192 61.6837H24.2087C24.2834 61.6761 24.3584 61.6941 24.4215 61.7347C24.4846 61.7754 24.5321 61.8363 24.5561 61.9076C25.1516 63.1016 25.7471 64.2954 26.3178 65.4894C26.3388 65.5678 26.3893 65.635 26.4588 65.6768C26.5282 65.7186 26.6111 65.7316 26.69 65.7133C27.36 65.6884 28.0051 65.7133 28.6751 65.7133C28.7372 65.7029 28.8009 65.7146 28.8553 65.7464C28.9097 65.7782 28.9513 65.828 28.9728 65.8874C29.069 66.0981 29.236 66.2684 29.4446 66.3684C29.6532 66.4684 29.8901 66.4919 30.1142 66.4347C30.3385 66.3817 30.5386 66.2549 30.6826 66.0745C30.8265 65.8942 30.9059 65.6706 30.9082 65.4396C30.9102 65.2113 30.8354 64.9889 30.6959 64.8084C30.5563 64.6278 30.3601 64.4998 30.139 64.4448C29.9081 64.3895 29.6653 64.4134 29.4494 64.5125C29.2336 64.6117 29.0571 64.7804 28.948 64.9919C28.9168 65.0381 28.8765 65.0774 28.8295 65.1073C28.7826 65.1373 28.73 65.1572 28.6751 65.166C28.1044 65.1909 27.5337 65.1909 26.963 65.166C26.872 65.1594 26.7853 65.1247 26.7149 65.0666C26.169 63.9721 25.6231 62.8528 25.0524 61.7335C25.1516 61.7335 25.2013 61.7086 25.2757 61.7086H26.9133C27.0622 61.7086 27.1367 61.7335 27.1863 61.9076C27.2671 62.187 27.4427 62.4294 27.6828 62.5929C27.9229 62.7564 28.2124 62.8307 28.5014 62.803C28.7548 62.7828 28.9972 62.69 29.1995 62.5357C29.4019 62.3813 29.5557 62.172 29.6428 61.9325C29.6676 61.8329 29.6924 61.7334 29.7172 61.6339C29.7319 61.3964 29.6847 61.1592 29.5803 60.9456C29.4759 60.7319 29.3179 60.5491 29.1217 60.4152C29.0381 60.359 28.9459 60.3169 28.8488 60.2907C28.5632 60.1928 28.2524 60.199 27.971 60.3082C27.6896 60.4174 27.4556 60.6227 27.3103 60.8878C27.2772 60.9701 27.2178 61.039 27.1416 61.084C27.0653 61.129 26.9764 61.1474 26.8885 61.1366H23.117C23.0454 61.1457 22.9727 61.1313 22.91 61.0953C22.8473 61.0594 22.798 61.004 22.7696 60.9374C22.2485 59.9177 21.7026 58.9228 21.1816 57.9029C21.1539 57.8221 21.0993 57.7533 21.027 57.708C20.9548 57.6627 20.8692 57.6437 20.7846 57.6541H10.7602M28.4518 60.7384C28.5941 60.7384 28.7332 60.7807 28.8516 60.86C28.9699 60.9393 29.0622 61.0519 29.1166 61.1837C29.1711 61.3156 29.1854 61.4606 29.1576 61.6005C29.1298 61.7405 29.0613 61.869 28.9607 61.9699C28.86 62.0708 28.7318 62.1395 28.5922 62.1674C28.4526 62.1952 28.3079 62.1809 28.1764 62.1263C28.0449 62.0717 27.9325 61.9793 27.8535 61.8606C27.7744 61.742 27.7322 61.6025 27.7322 61.4598C27.7323 61.2686 27.8082 61.0852 27.9431 60.9499C28.078 60.8146 28.261 60.7386 28.4518 60.7384ZM26.169 48.9234C26.3113 48.9234 26.4504 48.9657 26.5688 49.0449C26.6871 49.1242 26.7794 49.2368 26.8338 49.3687C26.8883 49.5005 26.9026 49.6455 26.8748 49.7855C26.8471 49.9254 26.7785 50.054 26.6779 50.1548C26.5772 50.2557 26.449 50.3245 26.3094 50.3523C26.1698 50.3801 26.0251 50.3658 25.8936 50.3112C25.7621 50.2566 25.6498 50.1642 25.5707 50.0456C25.4916 49.9269 25.4494 49.7875 25.4494 49.6448C25.4495 49.4535 25.5254 49.2701 25.6603 49.1348C25.7952 48.9996 25.9782 48.9235 26.169 48.9234ZM31.4045 67.753C31.1177 67.6777 30.8137 67.7064 30.5459 67.8338C30.2781 67.9612 30.0637 68.1792 29.9405 68.4494C29.9141 68.5328 29.8607 68.6049 29.7888 68.6545C29.7169 68.7041 29.6306 68.7282 29.5435 68.7231H25.0772C24.9889 68.7351 24.8994 68.7137 24.826 68.6631C24.7526 68.6125 24.7006 68.5363 24.6802 68.4494C24.308 67.6038 23.911 66.7579 23.514 65.8874C23.4899 65.8161 23.4424 65.7552 23.3793 65.7145C23.3162 65.6738 23.2412 65.6559 23.1666 65.6635H19.4695C19.4265 65.67 19.3826 65.6612 19.3454 65.6386C19.4175 65.8419 19.5003 66.0412 19.5935 66.2357H22.7448C22.8361 66.2233 22.9288 66.2441 23.0061 66.2942C23.0835 66.3444 23.1404 66.4206 23.1666 66.5092C23.5388 67.355 23.9358 68.2007 24.308 69.0464C24.3305 69.1186 24.3777 69.1805 24.4412 69.2215C24.5046 69.2624 24.5805 69.2796 24.6554 69.2702H29.7916C29.8164 69.3449 29.8661 69.4443 29.8909 69.519C30.0097 69.7825 30.2145 69.9975 30.4716 70.1287C30.7287 70.2598 31.0227 70.2992 31.3051 70.2404C31.5981 70.1816 31.8618 70.0233 32.0517 69.7921C32.2416 69.561 32.3461 69.2711 32.3474 68.9717C32.3587 68.6897 32.2704 68.4128 32.0978 68.1898C31.9253 67.9668 31.6797 67.8121 31.4045 67.753ZM31.0818 69.7428C30.9395 69.7428 30.8004 69.7005 30.682 69.6213C30.5637 69.542 30.4715 69.4293 30.417 69.2975C30.3625 69.1657 30.3483 69.0207 30.376 68.8807C30.4038 68.7408 30.4723 68.6123 30.573 68.5114C30.6736 68.4105 30.8018 68.3418 30.9414 68.3139C31.081 68.2861 31.2257 68.3004 31.3572 68.355C31.4887 68.4096 31.6011 68.502 31.6802 68.6207C31.7592 68.7393 31.8015 68.8788 31.8015 69.0215C31.8035 69.1168 31.7863 69.2115 31.7508 69.2999C31.7154 69.3884 31.6624 69.4687 31.5952 69.5361C31.528 69.6035 31.4478 69.6566 31.3596 69.6921C31.2714 69.7276 31.1769 69.7449 31.0818 69.7428ZM25.9953 85.6124C26.029 85.5567 26.0708 85.5064 26.1193 85.463C27.2359 84.1696 28.3525 82.8762 29.4691 81.5579C29.5227 81.4841 29.594 81.4249 29.6763 81.3858C29.7587 81.3467 29.8495 81.3289 29.9405 81.334H34.4564C34.5579 81.3368 34.6589 81.3184 34.7529 81.2798C34.847 81.2413 34.9319 81.1835 35.0024 81.1102C35.846 80.2894 36.7144 79.4933 37.5828 78.6725C37.6217 78.6198 37.6768 78.5814 37.7397 78.5634C37.8025 78.5454 37.8696 78.5488 37.9303 78.573C38.2212 78.6747 38.5393 78.665 38.8233 78.5455C39.1074 78.4261 39.3373 78.2055 39.4687 77.9263C39.6025 77.6592 39.6384 77.3536 39.5704 77.0626C39.5023 76.7717 39.3346 76.514 39.0964 76.3343C38.8558 76.149 38.558 76.0544 38.2549 76.0669C37.9518 76.0794 37.6627 76.1982 37.4381 76.4026C37.2135 76.6071 37.0677 76.8841 37.0261 77.1853C36.9846 77.4866 37.0499 77.7929 37.2107 78.0508C37.2356 78.1003 37.2604 78.1252 37.285 78.175C37.1859 78.2497 37.1114 78.3491 37.0122 78.4238C36.2678 79.1452 35.4987 79.8417 34.7542 80.5628C34.6908 80.6301 34.6136 80.6827 34.5279 80.7171C34.4422 80.7514 34.3501 80.7667 34.2579 80.7618H29.6428C29.5647 80.7552 29.4864 80.7703 29.4163 80.8054C29.3463 80.8405 29.2872 80.8944 29.2458 80.961C28.1044 82.3042 26.963 83.6225 25.8464 84.9408C25.772 85.0153 25.6975 85.1148 25.5983 85.2142L25.3998 85.3885L25.8464 85.9356M38.3025 78.0756C38.1601 78.0756 38.021 78.0333 37.9027 77.9541C37.7843 77.8748 37.6921 77.7621 37.6376 77.6303C37.5832 77.4985 37.5689 77.3534 37.5967 77.2135C37.6244 77.0736 37.693 76.945 37.7936 76.8441C37.8943 76.7432 38.0225 76.6745 38.1621 76.6467C38.3017 76.6189 38.4464 76.6332 38.5779 76.6878C38.7094 76.7424 38.8217 76.8348 38.9008 76.9535C38.9799 77.0721 39.0221 77.2116 39.0221 77.3542C39.0177 77.5442 38.9405 77.7252 38.8065 77.8595C38.6725 77.9939 38.492 78.0713 38.3025 78.0756ZM28.1292 77.6279H33.3895C33.4707 77.6321 33.5518 77.6161 33.6253 77.5814C33.6989 77.5466 33.7628 77.4942 33.8113 77.4287C35.1015 75.9862 36.3671 74.5434 37.6574 73.1008C37.6822 73.0759 37.707 73.0261 37.7317 73.0012C37.7813 72.9516 37.8062 72.9018 37.8558 72.8769C37.707 72.7525 37.5829 72.6282 37.434 72.479C37.3855 72.5223 37.3436 72.5725 37.3099 72.6282C36.7889 73.2251 36.2429 73.8222 35.722 74.4191C35.0024 75.215 34.2828 76.0359 33.588 76.8318C33.5325 76.9037 33.4609 76.9614 33.379 77.0003C33.297 77.0392 33.2071 77.0582 33.1165 77.0557H27.881C27.7998 77.0515 27.7188 77.0674 27.6452 77.1021C27.5717 77.1369 27.5078 77.1892 27.4592 77.2547C26.0945 78.9958 24.705 80.7371 23.3403 82.4534C23.2907 82.5032 23.241 82.5776 23.1666 82.6523L23.514 83.0752L23.6877 82.926C25.0524 81.2096 26.3923 79.4933 27.757 77.7771C27.8056 77.728 27.8637 77.6895 27.9277 77.6638C27.9917 77.6382 28.0603 77.6259 28.1292 77.6279ZM34.7046 70.912C34.484 70.8579 34.2515 70.8831 34.0475 70.983C33.8436 71.083 33.6809 71.2514 33.588 71.4591C33.5135 71.658 33.3895 71.6829 33.2159 71.6829H27.1615C27.0835 71.6763 27.0051 71.6914 26.9351 71.7265C26.865 71.7616 26.806 71.8153 26.7645 71.8819C26.4667 72.3296 26.169 72.7774 25.8712 73.2251C25.8368 73.2851 25.7855 73.3337 25.7237 73.3647C25.6619 73.3957 25.5924 73.4077 25.5238 73.3994H22.2733C22.1729 73.3956 22.0731 73.4163 21.9824 73.4596C21.8917 73.5028 21.8127 73.5675 21.7523 73.6479C20.7846 74.9662 19.8169 76.2847 18.8492 77.5781C18.7995 77.6526 18.7251 77.7273 18.6507 77.8269L19.0477 78.2995C19.0914 78.2211 19.1412 78.1463 19.1965 78.0756C20.1642 76.782 21.1319 75.4637 22.0996 74.1703C22.1412 74.1038 22.2002 74.05 22.2702 74.0149C22.3403 73.9798 22.4186 73.9647 22.4967 73.9714H25.3749C24.705 74.9415 24.0847 75.8866 23.4644 76.8069C23.4147 76.8567 23.3899 76.9314 23.3403 76.981C23.1666 77.2796 23.0177 77.4785 22.5711 77.4041C22.0252 77.3045 21.4545 77.7771 21.3304 78.3242C21.2549 78.6031 21.275 78.8994 21.3875 79.1656C21.5 79.4317 21.6983 79.6523 21.9508 79.7919C22.1978 79.9302 22.4837 79.9824 22.7635 79.9404C23.0434 79.8984 23.3014 79.7645 23.4972 79.5597C23.693 79.3549 23.8155 79.0907 23.8455 78.8087C23.8754 78.5266 23.8112 78.2425 23.6629 78.001C23.6132 77.9263 23.5636 77.8518 23.4892 77.7522C23.5884 77.603 23.6877 77.4538 23.7869 77.3045C24.8787 75.6876 25.9953 74.0708 27.087 72.4292C27.1233 72.3636 27.1777 72.3099 27.2438 72.2746C27.3098 72.2393 27.3846 72.2239 27.4592 72.2303H33.2655C33.3367 72.2242 33.4081 72.24 33.4701 72.2755C33.5321 72.3111 33.5819 72.3647 33.6128 72.4292C33.7284 72.6318 33.9092 72.789 34.1257 72.8749C34.3422 72.9608 34.5814 72.9703 34.8039 72.9018C35.0219 72.8396 35.2121 72.7045 35.3429 72.519C35.4738 72.3334 35.5374 72.1087 35.5233 71.8819C35.5143 71.6519 35.4288 71.4314 35.2804 71.2557C35.1321 71.0799 34.9294 70.959 34.7046 70.912ZM22.5711 79.3939C22.476 79.396 22.3816 79.3787 22.2933 79.3432C22.2051 79.3076 22.125 79.2546 22.0578 79.1872C21.9905 79.1198 21.9376 79.0394 21.9022 78.951C21.8667 78.8625 21.8495 78.7678 21.8515 78.6725C21.8493 78.4825 21.9203 78.2988 22.0497 78.1598C22.1791 78.0209 22.3569 77.9372 22.5463 77.9263C22.7362 77.9296 22.9174 78.0067 23.0517 78.1414C23.186 78.276 23.2628 78.4577 23.266 78.6481C23.2692 78.8385 23.1986 79.0227 23.0689 79.1618C22.9393 79.301 22.7608 79.3842 22.5711 79.3939ZM44.5305 79.5431C44.2404 79.5016 43.9447 79.5602 43.6922 79.7093C43.4397 79.8585 43.2453 80.0893 43.1409 80.3639C43.124 80.4344 43.0818 80.4961 43.0223 80.5374C42.9628 80.5787 42.8903 80.5966 42.8185 80.5877C41.801 80.5877 40.7838 80.5877 39.7664 80.5628C39.6562 80.5581 39.5465 80.5806 39.447 80.6283C39.3475 80.676 39.2612 80.7475 39.1957 80.8365C38.3273 81.9558 37.434 83.0503 36.5656 84.1447C36.5159 84.2194 36.4414 84.2941 36.3671 84.3935C36.5904 84.5179 36.8138 84.6173 37.0617 84.7418C37.0122 84.7169 36.9626 84.692 36.9129 84.6671C36.9565 84.5965 37.0063 84.5299 37.0617 84.4681C37.9055 83.4233 38.7243 82.3787 39.5679 81.3091C39.6082 81.2472 39.6635 81.1965 39.7286 81.1617C39.7936 81.1269 39.8664 81.1092 39.9402 81.1102H42.868C42.9359 81.1045 43.0038 81.1207 43.0619 81.1565C43.1199 81.1923 43.165 81.2458 43.1906 81.3091C43.309 81.5912 43.5242 81.8215 43.7973 81.9583C44.0703 82.0952 44.3832 82.1296 44.6793 82.0554C44.9621 81.9887 45.213 81.8258 45.3895 81.5945C45.5659 81.3632 45.657 81.0777 45.6471 80.7867C45.6242 80.4849 45.5022 80.1992 45.3002 79.9742C45.0982 79.7492 44.8275 79.5976 44.5305 79.5431ZM44.332 81.5579C44.1897 81.5579 44.0506 81.5156 43.9322 81.4363C43.8139 81.3571 43.7217 81.2444 43.6672 81.1126C43.6127 80.9808 43.5985 80.8357 43.6262 80.6958C43.654 80.5558 43.7225 80.4273 43.8232 80.3264C43.9238 80.2255 44.052 80.1568 44.1916 80.129C44.3312 80.1011 44.4759 80.1154 44.6074 80.17C44.7389 80.2246 44.8513 80.3171 44.9304 80.4357C45.0094 80.5544 45.0517 80.6938 45.0517 80.8365C45.0515 81.0278 44.9756 81.2112 44.8407 81.3464C44.7058 81.4817 44.5228 81.5577 44.332 81.5579Z" fill="url(#paint5_linear_5_20)"/>
<defs>
<linearGradient id="paint0_linear_5_20" x1="43.5913" y1="44.1602" x2="70.6965" y2="44.1602" gradientUnits="userSpaceOnUse">
<stop stop-color="#0A75A5"/>
<stop offset="1" stop-color="#5E729E"/>
</linearGradient>
<linearGradient id="paint1_linear_5_20" x1="63.7032" y1="43.4054" x2="63.7231" y2="78.1817" gradientUnits="userSpaceOnUse">
<stop stop-color="#C2ECFF"/>
<stop offset="1" stop-color="#5E729E"/>
</linearGradient>
<linearGradient id="paint2_linear_5_20" x1="56.2388" y1="12.0573" x2="56.4603" y2="55.2207" gradientUnits="userSpaceOnUse">
<stop stop-color="#C2ECFF"/>
<stop offset="0.409" stop-color="#85A6C7"/>
<stop offset="0.8108" stop-color="#4D6795"/>
<stop offset="1" stop-color="#384E82"/>
</linearGradient>
<linearGradient id="paint3_linear_5_20" x1="38.7078" y1="56.0872" x2="48.2589" y2="56.0872" gradientUnits="userSpaceOnUse">
<stop stop-color="#0B81B7"/>
<stop offset="1" stop-color="#5E729E"/>
</linearGradient>
<linearGradient id="paint4_linear_5_20" x1="42.4208" y1="54.9074" x2="51.767" y2="60.0863" gradientUnits="userSpaceOnUse">
<stop stop-color="#C2ECFF"/>
<stop offset="1" stop-color="#5E729E"/>
</linearGradient>
<linearGradient id="paint5_linear_5_20" x1="10.7354" y1="65.0666" x2="45.6481" y2="65.0666" gradientUnits="userSpaceOnUse">
<stop stop-color="#001C2A"/>
<stop offset="0.3036" stop-color="#1E567A"/>
<stop offset="0.4793" stop-color="#2E75A4"/>
<stop offset="0.6975" stop-color="#184E6F"/>
<stop offset="0.8981" stop-color="#072E43"/>
<stop offset="1" stop-color="#002233"/>
</linearGradient>
</defs>
</svg>
