<svg width="1505" height="168" viewBox="0 0 1505 168" fill="none" xmlns="http://www.w3.org/2000/svg">
<g filter="url(#filter0_d_5_16)">
<path d="M77.4961 149.164C37.5059 149.164 0.152344 119.633 0.152344 75.1602C0.152344 33.2363 34.0781 0.980469 78.1992 0.980469C96.4805 1.24414 116.08 9.24219 130.582 22.4258L108.961 50.1992C100.26 42.2891 88.7461 37.1035 78.2871 37.1035C56.4902 37.1035 38.2969 53.7148 38.2969 75.4238C38.2969 97.3965 57.2812 113.568 77.4961 113.568C89.3613 113.568 99.9961 107.943 109.137 99.7695L130.582 128.334C117.047 140.639 99.0293 149.164 77.4961 149.164ZM211.969 149.604C167.936 149.604 134.273 117.523 134.273 75.3359C134.273 32.7969 168.023 0.541016 212.057 0.541016C256.09 0.541016 289.84 32.7969 289.84 75.3359C289.84 117.523 256.09 149.604 211.969 149.604ZM212.057 113.656C234.557 113.656 251.783 96.8691 251.783 75.0723C251.783 53.1875 234.557 36.3125 212.057 36.3125C189.557 36.3125 172.33 53.1875 172.33 75.0723C172.33 96.8691 189.557 113.656 212.057 113.656ZM445.055 3.00195H460.172V146H422.555V89.8379L384.41 143.627H384.146L345.914 89.8379V146H308.297V3.00195H323.414L384.234 86.3223L445.055 3.00195ZM484.781 146V4.32031H522.398V146H484.781ZM631.734 4.14453H669.439V147.406H657.486L584.625 76.8301V146.088H547.008V2.91406H559.137L631.734 73.2266V4.14453ZM838.629 64.6133C839.332 69.3594 839.771 73.9297 839.771 78.4121C839.771 121.479 807.252 149.34 766.998 149.34C721.998 149.34 687.984 115.766 687.984 75.3359C687.984 34.9062 722.086 0.892578 766.031 0.892578C784.049 1.15625 804.879 8.80273 816.568 19.6133L795.738 48.1777C787.828 40.7949 776.49 36.0488 766.031 36.0488C744.938 36.0488 726.393 53.3633 726.393 75.248C726.393 95.1113 742.301 114.447 768.492 114.447C785.631 114.447 797.848 106.186 798.375 92.6504H765.943V64.6133H838.629ZM957.545 147.934C934.254 147.934 913.072 137.65 905.953 122.006L928.717 99.6816C934.605 108.383 945.592 113.656 957.457 113.656C965.455 113.656 973.277 110.756 973.277 104.955C973.277 97.6602 958.775 91.2441 944.889 85.0918C926.959 77.3574 911.578 65.5801 911.578 44.2227C911.578 19.7012 934.869 2.21094 961.764 2.21094C983.385 2.21094 1000.26 12.4062 1005.8 26.3809L984.088 47.2988C979.869 39.8281 968.971 36.5762 962.203 36.5762C954.469 36.5762 948.932 40.5312 948.932 45.3652C948.932 51.8691 958.951 53.9785 974.244 60.3945C996.393 69.7109 1011.07 83.2461 1011.07 104.164C1011.07 131.146 985.934 147.934 957.545 147.934ZM1099.84 149.604C1055.81 149.604 1022.14 117.523 1022.14 75.3359C1022.14 32.7969 1055.89 0.541016 1099.93 0.541016C1143.96 0.541016 1177.71 32.7969 1177.71 75.3359C1177.71 117.523 1143.96 149.604 1099.84 149.604ZM1099.93 113.656C1122.43 113.656 1139.65 96.8691 1139.65 75.0723C1139.65 53.1875 1122.43 36.3125 1099.93 36.3125C1077.43 36.3125 1060.2 53.1875 1060.2 75.0723C1060.2 96.8691 1077.43 113.656 1099.93 113.656ZM1267.71 149.604C1223.68 149.604 1190.02 117.523 1190.02 75.3359C1190.02 32.7969 1223.77 0.541016 1267.8 0.541016C1311.83 0.541016 1345.58 32.7969 1345.58 75.3359C1345.58 117.523 1311.83 149.604 1267.71 149.604ZM1267.8 113.656C1290.3 113.656 1307.53 96.8691 1307.53 75.0723C1307.53 53.1875 1290.3 36.3125 1267.8 36.3125C1245.3 36.3125 1228.07 53.1875 1228.07 75.0723C1228.07 96.8691 1245.3 113.656 1267.8 113.656ZM1448.77 4.14453H1486.47V147.406H1474.52L1401.66 76.8301V146.088H1364.04V2.91406H1376.17L1448.77 73.2266V4.14453Z" fill="white"/>
</g>
<defs>
<filter id="filter0_d_5_16" x="0.152344" y="0.541016" width="1504.32" height="167.062" filterUnits="userSpaceOnUse" color-interpolation-filters="sRGB">
<feFlood flood-opacity="0" result="BackgroundImageFix"/>
<feColorMatrix in="SourceAlpha" type="matrix" values="0 0 0 0 0 0 0 0 0 0 0 0 0 0 0 0 0 0 127 0" result="hardAlpha"/>
<feOffset dx="10" dy="10"/>
<feGaussianBlur stdDeviation="4"/>
<feComposite in2="hardAlpha" operator="out"/>
<feColorMatrix type="matrix" values="0 0 0 0 0 0 0 0 0 0 0 0 0 0 0 0 0 0 0.25 0"/>
<feBlend mode="normal" in2="BackgroundImageFix" result="effect1_dropShadow_5_16"/>
<feBlend mode="normal" in="SourceGraphic" in2="effect1_dropShadow_5_16" result="shape"/>
</filter>
</defs>
</svg>
