<svg width="516" height="132" viewBox="0 0 516 132" fill="none" xmlns="http://www.w3.org/2000/svg"><g style="mix-blend-mode:plus-lighter"><path d="M37.334 35.888v72.7h441.44v-72.7zm429.083 64.364H49.691v-56.02h416.726z" fill="url(#a)"/><path style="mix-blend-mode:multiply" opacity=".7" d="M110.987 108.588s42.484-3.381 146.698-3.381 174.962 3.381 174.962 3.381z" fill="url(#b)"/><path d="M44.818 40.937v62.602h426.483V40.937zm421.599 59.315H49.691v-56.02h416.726z" fill="url(#c)"/><path style="mix-blend-mode:color-dodge" opacity=".5" d="M108.597 100.252s45.753 2.284 140.982 2.284c95.23 0 203.555-2.284 203.555-2.284z" fill="url(#d)"/><path d="M49.761 44.232s-3.315 10.47-3.315 26.485 3.315 29.543 3.315 29.543z" fill="url(#e)"/><path d="M466.417 44.232s3.314 10.47 3.314 26.485-3.314 29.543-3.314 29.543z" fill="url(#f)"/><path style="mix-blend-mode:multiply" opacity=".7" d="M471.301 40.937H44.818l-.035 10.019s1.863-3.437 4.908-6.732h416.726s4.708 3.002 4.79 6.732l.082-10.02z" fill="url(#g)"/><path d="M244.484 100.252s15.005 3.564 28.147 0zm0-64.364s15.005 3.564 28.147 0z" fill="#fff"/><path style="mix-blend-mode:color-dodge" opacity=".6" d="M258.563 43.813c25.256 0 45.729-3.548 45.729-7.925s-20.473-7.925-45.729-7.925c-25.255 0-45.729 3.548-45.729 7.925s20.474 7.925 45.729 7.925" fill="url(#h)"/><path style="mix-blend-mode:color-dodge" opacity=".5" d="M142.472 35.888s9.488 3.532 119.336 3.532 150.352-3.532 150.352-3.532z" fill="url(#i)"/><path d="M412.316 108.588s4.322 16.854 27.797 23.412c0 0 8.352-9.039 6.424-23.412h-14.878s4.258 6.993 3.46 14.902c-.008.095-.023.198-.031.293 0 0-11.837-2.442-19.137-15.195h-3.643z" fill="url(#j)"/><path style="mix-blend-mode:multiply" opacity=".5" d="M412.316 108.588s4.322 16.854 27.797 23.412c0 0-1.13-3.192-2.442-4.512l-2.552-4.006c-.008.095-.023.198-.031.293 0 0-11.837-2.442-19.137-15.195h-3.643z" fill="url(#k)"/><path d="M414.592 108.588c4.171 13.851 23.079 18.9 23.079 18.9.174-13.14-3.405-18.268-3.887-18.9h-2.118s4.37 7.167 3.43 15.195c0 0-11.837-2.442-19.138-15.195z" fill="url(#l)"/><path style="mix-blend-mode:color-dodge" opacity=".5" d="M441.377 129.282c-.956.735-3.097-1.312-3.192-2.726-.095-1.406-1.193-12.587-.506-13.614s8.676-2.536 8.676-.656c0 1.881-.466 13.527-4.978 16.996" fill="url(#m)"/><path d="M442.871 122.392c-2.331 2.054-.53 5.104-.53 5.104s2.11-2.346 2.702-5.049c.593-2.702-.837-1.224-2.172-.047z" fill="#fff"/><path d="M412.316 35.825s4.322-16.854 27.797-23.412c0 0 8.352 9.04 6.424 23.412h-14.878s4.258-6.993 3.46-14.902c-.008-.095-.023-.198-.031-.293 0 0-11.837 2.442-19.137 15.195h-3.643z" fill="url(#n)"/><path style="mix-blend-mode:color-dodge" opacity=".5" d="M412.316 35.825s4.322-16.854 27.797-23.412c0 0-1.13 3.192-2.442 4.512l-2.552 4.006c-.008-.095-.023-.198-.031-.293 0 0-11.837 2.442-19.137 15.195h-3.643z" fill="url(#o)"/><path d="M414.592 35.825c4.171-13.851 23.079-18.9 23.079-18.9.174 13.14-3.405 18.268-3.887 18.9h-2.118s4.37-7.167 3.43-15.195c0 0-11.837 2.442-19.138 15.195z" fill="url(#p)"/><path style="mix-blend-mode:multiply" opacity=".5" d="M441.377 15.139c-.956-.735-2.441 1.54-2.536 2.947s-1.691 11.512-2.853 16.72c-.268 1.208 10.359 1.69 10.359-.19s-.466-16-4.978-19.477z" fill="url(#q)"/><path style="mix-blend-mode:multiply" opacity=".7" d="M446.742 29.211s-6.653 2.055-12.081 5.16l-.877 1.454h12.761c.584-2.387.197-6.614.197-6.614" fill="url(#r)"/><path style="mix-blend-mode:multiply" opacity=".7" d="M446.742 115.202s-6.653-2.055-12.081-5.16l-.877-1.454h12.761c.584 1.81.197 6.614.197 6.614" fill="url(#s)"/><path style="mix-blend-mode:multiply" opacity=".7" d="M474.65 35.825s-.846 6.653-3.864 8.399h14.736v56.028h-16.253s3.168 2.687 5.381 8.336h19.208V35.825z" fill="url(#t)"/><path d="M478.901 72.242s11.883 9.9 19.793 24.7c6.131 11.488 8.454 25.655 5.799 25.861-25.916 1.967-68.504-14.207-68.504-14.207h19.5s17.193 4.599 22.472 3.58c2.18-.419 2.315-2.284.805-5.492-1.264-2.686-3.674-6.321-7.008-10.849-3.129-4.25-9.663-9.37-15.977-13.756h-.007c-7.902-5.5-15.44-9.829-15.44-9.829h38.559z" fill="url(#u)"/><path style="mix-blend-mode:multiply" opacity=".5" d="M504.493 122.795c-25.916 1.967-68.504-14.207-68.504-14.207h19.5s17.193 4.599 22.472 3.58c2.18-.419 2.315-2.284.805-5.492 9.332 3.951 16.909 7.167 16.909 7.167 6.14 2.133 8.605 7.016 8.81 8.952z" fill="url(#v)"/><path d="M494.814 114.348c-11.022 3.698-43.331-5.752-43.331-5.752h4.014s17.193 4.599 22.471 3.58c4.006-.775 1.106-6.408-6.194-16.34-3.129-4.251-9.664-9.371-15.977-13.757.498.135 15.013 6.353 28.872 17.249 12.421 9.758 11.765 14.483 10.145 15.028z" fill="url(#w)"/><path style="mix-blend-mode:color-dodge" opacity=".5" d="M444.095 72.21c4.14.15 31.835-.971 33.304 0 4.654 3.066 22.685 26.88 23.617 31.329.941 4.449-2.07 8.265-3.713 7.799-1.636-.466-8.502-11.086-27.671-23.04-13.432-8.376-27.789-16.174-25.545-16.088z" fill="url(#x)"/><path style="mix-blend-mode:multiply" opacity=".5" d="M489.591 103.547c13.132 5.168 7.657-9.181 7.657-9.181s4.156 5.957 7.245 17.952c0 0-8.233-9.735-10.856-4.401z" fill="url(#y)"/><path style="mix-blend-mode:multiply" opacity=".5" d="M481.097 110.026c2.197 4.149 12.935 4.607 13.614 2.908S485.23 98 479.217 96.499s-4.694.095-3.753 2.631c.94 2.537 4.788 9.3 5.633 10.896" fill="url(#z)"/><path d="M489.591 86.828c-2.971.142 2.26 8.194 5.152 8.17 0 0 .901-8.455-5.152-8.17" fill="#fff"/><path d="M478.901 72.179s11.883-9.9 19.793-24.7c6.131-11.488 8.454-25.655 5.799-25.86-25.916-1.968-68.504 14.206-68.504 14.206h19.5s17.193-4.599 22.472-3.58c2.18.42 2.315 2.284.805 5.492-1.264 2.686-3.674 6.321-7.008 10.848-3.129 4.251-9.663 9.371-15.977 13.757h-.007c-7.902 5.499-15.44 9.829-15.44 9.829h38.559z" fill="url(#A)"/><path style="mix-blend-mode:color-dodge" opacity=".5" d="M504.493 21.618c-25.916-1.967-68.504 14.207-68.504 14.207h19.5s17.193-4.599 22.472-3.58c2.18.42 2.315 2.284.805 5.492 9.332-3.95 16.909-7.167 16.909-7.167 6.14-2.133 8.605-7.016 8.81-8.952z" fill="url(#B)"/><path d="M494.814 30.073c-11.022-3.698-43.331 5.752-43.331 5.752h4.014s17.193-4.599 22.471-3.58c4.006.775 1.106 6.408-6.194 16.34-3.129 4.251-9.664 9.371-15.977 13.757.498-.135 15.013-6.353 28.872-17.249 12.421-9.758 11.765-14.483 10.145-15.028z" fill="url(#C)"/><path style="mix-blend-mode:multiply" opacity=".5" d="M444.095 72.203c4.14-.15 31.835.971 33.304 0 4.654-3.066 22.685-26.88 23.617-31.33.941-4.448-2.07-8.264-3.713-7.798-1.636.466-8.502 11.086-27.671 23.04-13.432 8.376-27.789 16.175-25.545 16.087z" fill="url(#D)"/><path style="mix-blend-mode:multiply" opacity=".5" d="M489.591 40.874c13.132-5.168 7.657 9.181 7.657 9.181s4.156-5.958 7.245-17.952c0 0-8.233 9.735-10.856 4.401z" fill="url(#E)"/><path style="mix-blend-mode:multiply" opacity=".5" d="M481.097 34.395c2.197-4.149 12.935-4.607 13.614-2.908s-9.481 14.933-15.494 16.435c-6.013 1.5-4.694-.095-3.753-2.631.94-2.537 4.788-9.3 5.633-10.896" fill="url(#F)"/><path d="M482.693 24.123c-3.208 1.54 9.3-.024 9.672-1.438 0 0-3.098-1.73-9.672 1.438" fill="#fff"/><path style="mix-blend-mode:color-dodge" opacity=".8" d="M484.7 46.981c12.974 0 23.491-10.517 23.491-23.49C508.191 10.517 497.674 0 484.7 0s-23.491 10.517-23.491 23.49c0 12.974 10.518 23.491 23.491 23.491" fill="url(#G)"/><path style="mix-blend-mode:color-dodge" opacity=".8" d="M491.922 113.779c12.974 0 23.491-10.517 23.491-23.49 0-12.974-10.517-23.491-23.491-23.491s-23.491 10.517-23.491 23.49c0 12.974 10.518 23.491 23.491 23.491" fill="url(#H)"/><path d="M103.831 108.588S99.509 125.442 76.034 132c0 0-8.351-9.039-6.423-23.412h14.878s-4.259 6.993-3.46 14.902c.007.095.023.198.03.293 0 0 11.837-2.442 19.138-15.195h3.642z" fill="url(#I)"/><path style="mix-blend-mode:multiply" opacity=".5" d="M103.831 108.588S99.509 125.442 76.034 132c0 0 1.13-3.192 2.442-4.512l2.552-4.006c.008.095.024.198.032.293 0 0 11.836-2.442 19.137-15.195h3.642z" fill="url(#J)"/><path d="M101.556 108.588c-4.172 13.851-23.08 18.9-23.08 18.9-.174-13.14 3.405-18.268 3.887-18.9h2.118s-4.37 7.167-3.43 15.195c0 0 11.837-2.442 19.138-15.195z" fill="url(#K)"/><path style="mix-blend-mode:color-dodge" opacity=".5" d="M74.77 129.282c.956.735 3.098-1.312 3.193-2.726.094-1.406 1.193-12.587.505-13.614-.687-1.027-8.675-2.536-8.675-.656 0 1.881.466 13.527 4.977 16.996" fill="url(#L)"/><path d="M73.277 122.392c2.33 2.054.53 5.104.53 5.104s-2.11-2.346-2.703-5.049c-.593-2.702.838-1.224 2.173-.047z" fill="#fff"/><path d="M103.831 35.825S99.509 18.97 76.034 12.413c0 0-8.351 9.04-6.423 23.412h14.878s-4.259-6.993-3.46-14.902c.007-.095.023-.198.03-.293 0 0 11.837 2.442 19.138 15.195h3.642z" fill="url(#M)"/><path style="mix-blend-mode:color-dodge" opacity=".5" d="M103.831 35.825S99.509 18.97 76.034 12.413c0 0 1.13 3.192 2.442 4.512l2.552 4.006c.008-.095.024-.198.032-.293 0 0 11.836 2.442 19.137 15.195h3.642z" fill="url(#N)"/><path d="M101.556 35.825c-4.172-13.851-23.08-18.9-23.08-18.9-.174 13.14 3.405 18.268 3.887 18.9h2.118s-4.37-7.167-3.43-15.195c0 0 11.837 2.442 19.138 15.195z" fill="url(#O)"/><path style="mix-blend-mode:multiply" opacity=".5" d="M74.77 15.139c.956-.735 2.442 1.54 2.537 2.947s1.69 11.512 2.852 16.72c.269 1.208-10.359 1.69-10.359-.19s.466-16 4.978-19.477z" fill="url(#P)"/><path style="mix-blend-mode:multiply" opacity=".7" d="M69.405 29.211s6.653 2.055 12.081 5.16l.877 1.454h-12.76c-.585-2.387-.198-6.614-.198-6.614" fill="url(#Q)"/><path style="mix-blend-mode:multiply" opacity=".7" d="M69.405 115.202s6.653-2.055 12.081-5.16l.877-1.454h-12.76c-.585 1.81-.198 6.614-.198 6.614" fill="url(#R)"/><path style="mix-blend-mode:multiply" opacity=".7" d="M41.498 35.825s.845 6.653 3.864 8.399H30.624v56.028H46.88s-3.169 2.687-5.381 8.336H22.29l-.04-72.763z" fill="url(#S)"/><path d="M37.247 72.242s-11.884 9.9-19.793 24.7c-6.132 11.488-8.455 25.655-5.8 25.861 25.917 1.967 68.505-14.207 68.505-14.207h-19.5s-17.194 4.599-22.472 3.58c-2.181-.419-2.315-2.284-.806-5.492 1.264-2.686 3.674-6.321 7.008-10.849 3.13-4.25 9.664-9.37 15.977-13.756h.008c7.901-5.5 15.44-9.829 15.44-9.829H37.246z" fill="url(#T)"/><path style="mix-blend-mode:multiply" opacity=".5" d="M11.654 122.795c25.917 1.967 68.505-14.207 68.505-14.207h-19.5s-17.194 4.599-22.472 3.58c-2.18-.419-2.315-2.284-.806-5.492-9.331 3.951-16.909 7.167-16.909 7.167-6.14 2.133-8.604 7.016-8.81 8.952z" fill="url(#U)"/><path d="M21.333 114.348c11.023 3.698 43.331-5.752 43.331-5.752H60.65s-17.193 4.599-22.471 3.58c-4.006-.775-1.106-6.408 6.195-16.34 3.129-4.251 9.663-9.371 15.976-13.757-.498.135-15.012 6.353-28.871 17.249-12.421 9.758-11.765 14.483-10.146 15.028z" fill="url(#V)"/><path style="mix-blend-mode:color-dodge" opacity=".5" d="M72.052 72.21c-4.14.15-31.835-.971-33.304 0-4.654 3.066-22.685 26.88-23.617 31.329-.94 4.449 2.07 8.265 3.713 7.799 1.636-.466 8.502-11.086 27.67-23.04 13.433-8.376 27.79-16.174 25.546-16.088z" fill="url(#W)"/><path style="mix-blend-mode:multiply" opacity=".5" d="M26.556 103.547c-13.132 5.168-7.656-9.181-7.656-9.181s-4.156 5.957-7.246 17.952c0 0 8.234-9.735 10.857-4.401z" fill="url(#X)"/><path style="mix-blend-mode:multiply" opacity=".5" d="M35.05 110.026c-2.197 4.149-12.934 4.607-13.614 2.908S30.918 98 36.931 96.499s4.693.095 3.753 2.631c-.94 2.537-4.788 9.3-5.634 10.896" fill="url(#Y)"/><path d="M26.556 86.828c2.971.142-2.26 8.194-5.151 8.17 0 0-.901-8.455 5.151-8.17" fill="#fff"/><path d="M37.247 72.179s-11.884-9.9-19.793-24.7c-6.132-11.488-8.455-25.655-5.8-25.86C37.571 19.65 80.16 35.824 80.16 35.824h-19.5s-17.194-4.599-22.472-3.58c-2.181.42-2.315 2.284-.806 5.492 1.264 2.686 3.674 6.321 7.008 10.848 3.13 4.251 9.664 9.371 15.977 13.757h.008c7.901 5.499 15.44 9.829 15.44 9.829H37.246z" fill="url(#Z)"/><path style="mix-blend-mode:color-dodge" opacity=".5" d="M11.654 21.618C37.571 19.651 80.16 35.825 80.16 35.825h-19.5s-17.194-4.599-22.472-3.58c-2.18.42-2.315 2.284-.806 5.492-9.331-3.95-16.909-7.167-16.909-7.167-6.14-2.133-8.604-7.016-8.81-8.952z" fill="url(#aa)"/><path d="M21.333 30.073c11.023-3.698 43.331 5.752 43.331 5.752H60.65s-17.193-4.599-22.471-3.58c-4.006.775-1.106 6.408 6.195 16.34 3.129 4.251 9.663 9.371 15.976 13.757-.498-.135-15.012-6.353-28.871-17.249-12.421-9.758-11.765-14.483-10.146-15.028z" fill="url(#ab)"/><path style="mix-blend-mode:multiply" opacity=".5" d="M72.052 72.203c-4.14-.15-31.835.971-33.304 0-4.654-3.066-22.685-26.88-23.617-31.33-.94-4.448 2.07-8.264 3.713-7.798 1.636.466 8.502 11.086 27.67 23.04 13.433 8.376 27.79 16.175 25.546 16.087z" fill="url(#ac)"/><path style="mix-blend-mode:multiply" opacity=".5" d="M26.556 40.874c-13.132-5.168-7.656 9.181-7.656 9.181s-4.156-5.958-7.246-17.952c0 0 8.234 9.735 10.857 4.401z" fill="url(#ad)"/><path style="mix-blend-mode:multiply" opacity=".5" d="M35.05 34.395c-2.197-4.149-12.934-4.607-13.614-2.908s9.482 14.933 15.495 16.435c6.013 1.5 4.693-.095 3.753-2.631-.94-2.537-4.788-9.3-5.634-10.896" fill="url(#ae)"/><path d="M33.454 24.123c3.208 1.54-9.3-.024-9.671-1.438 0 0 3.097-1.73 9.671 1.438" fill="#fff"/><path style="mix-blend-mode:color-dodge" opacity=".8" d="M31.447 46.981c12.974 0 23.49-10.517 23.49-23.49C54.938 10.517 44.422 0 31.448 0S7.957 10.517 7.957 23.49c0 12.974 10.517 23.491 23.49 23.491" fill="url(#af)"/><path style="mix-blend-mode:color-dodge" opacity=".8" d="M24.233 113.779c12.974 0 23.49-10.517 23.49-23.49 0-12.974-10.516-23.491-23.49-23.491S.743 77.315.743 90.288c0 12.974 10.517 23.491 23.49 23.491" fill="url(#ag)"/></g><defs><linearGradient id="a" x1="258.06" y1="123.514" x2="258.06" y2="35.161" gradientUnits="userSpaceOnUse"><stop stop-color="#B55014"/><stop offset=".39" stop-color="#C86B34"/><stop offset="1" stop-color="#FFA733"/></linearGradient><linearGradient id="b" x1="110.987" y1="106.905" x2="432.647" y2="106.905" gradientUnits="userSpaceOnUse"><stop stop-color="#EE8B1D"/><stop offset="1" stop-color="#8B2C1B"/></linearGradient><linearGradient id="c" x1="5.45" y1="39.625" x2="5.983" y2="104.358" gradientUnits="userSpaceOnUse"><stop stop-color="#B55014"/><stop offset=".39" stop-color="#C86B34"/><stop offset="1" stop-color="#FFA733"/></linearGradient><linearGradient id="d" x1="108.597" y1="101.398" x2="453.145" y2="101.398" gradientUnits="userSpaceOnUse"><stop stop-color="#E9BB38"/><stop offset="1" stop-color="#FFF09C"/></linearGradient><linearGradient id="e" x1="48.11" y1="49.644" x2="48.11" y2="96.973" gradientUnits="userSpaceOnUse"><stop stop-color="#E19130"/><stop offset="1" stop-color="#FFCB61"/></linearGradient><linearGradient id="f" x1="468.08" y1="49.644" x2="468.08" y2="96.973" gradientUnits="userSpaceOnUse"><stop stop-color="#E19130"/><stop offset="1" stop-color="#FFCB61"/></linearGradient><linearGradient id="g" x1="258.036" y1="41.909" x2="258.036" y2="50.371" gradientUnits="userSpaceOnUse"><stop stop-color="#EE8B1D"/><stop offset="1" stop-color="#8B2C1B"/></linearGradient><linearGradient id="i" x1="142.472" y1="37.658" x2="412.16" y2="37.658" gradientUnits="userSpaceOnUse"><stop stop-color="#E9BB38"/><stop offset="1" stop-color="#FFF09C"/></linearGradient><linearGradient id="j" x1="423.607" y1="121.91" x2="455.805" y2="101.999" gradientUnits="userSpaceOnUse"><stop stop-color="#C86B34"/><stop offset=".74" stop-color="#FFBB2B"/><stop offset="1" stop-color="#FFA733"/></linearGradient><linearGradient id="k" x1="440.113" y1="120.298" x2="412.316" y2="120.298" gradientUnits="userSpaceOnUse"><stop stop-color="#D13A22"/><stop offset="1" stop-color="#fff"/></linearGradient><linearGradient id="l" x1="423.915" y1="120.954" x2="432.931" y2="109.118" gradientUnits="userSpaceOnUse"><stop stop-color="#F07A13"/><stop offset="1" stop-color="#B21E2D"/></linearGradient><linearGradient id="m" x1="442.025" y1="110.54" x2="441.464" y2="124.81" gradientUnits="userSpaceOnUse"><stop/><stop offset="1" stop-color="#FFF09C"/></linearGradient><linearGradient id="n" x1="443.187" y1="30.341" x2="424.215" y2="23.388" gradientUnits="userSpaceOnUse"><stop stop-color="#C86B34"/><stop offset=".74" stop-color="#FFBB2B"/><stop offset="1" stop-color="#FFA733"/></linearGradient><linearGradient id="o" x1="417.618" y1="28.279" x2="424.942" y2="25.182" gradientUnits="userSpaceOnUse"><stop/><stop offset="1" stop-color="#FFF09C"/></linearGradient><linearGradient id="p" x1="413.683" y1="23.728" x2="440.168" y2="29.361" gradientUnits="userSpaceOnUse"><stop stop-color="#F07A13"/><stop offset="1" stop-color="#B21E2D"/></linearGradient><linearGradient id="q" x1="441.259" y1="36.765" x2="440.611" y2="20.346" gradientUnits="userSpaceOnUse"><stop stop-color="#D13A22"/><stop offset="1" stop-color="#fff"/></linearGradient><linearGradient id="r" x1="448.939" y1="33.178" x2="431.69" y2="31.866" gradientUnits="userSpaceOnUse"><stop stop-color="#EE8B1D"/><stop offset="1" stop-color="#8B2C1B"/></linearGradient><linearGradient id="s" x1="448.962" y1="111.235" x2="431.69" y2="112.555" gradientUnits="userSpaceOnUse"><stop stop-color="#EE8B1D"/><stop offset="1" stop-color="#8B2C1B"/></linearGradient><linearGradient id="t" x1="469.269" y1="72.21" x2="493.858" y2="72.21" gradientUnits="userSpaceOnUse"><stop stop-color="#EE8B1D"/><stop offset="1" stop-color="#8B2C1B"/></linearGradient><linearGradient id="u" x1="465.231" y1="68.908" x2="472.161" y2="124.699" gradientUnits="userSpaceOnUse"><stop stop-color="#FFCD54"/><stop offset=".2" stop-color="#FFC107"/><stop offset="1" stop-color="#D87F28"/></linearGradient><linearGradient id="v" x1="488.856" y1="116.419" x2="427.629" y2="101.019" gradientUnits="userSpaceOnUse"><stop stop-color="#D13A22"/><stop offset="1" stop-color="#fff"/></linearGradient><linearGradient id="w" x1="451.483" y1="98.641" x2="495.683" y2="98.641" gradientUnits="userSpaceOnUse"><stop stop-color="#F07A13"/><stop offset="1" stop-color="#B21E2D"/></linearGradient><linearGradient id="x" x1="469.135" y1="102.978" x2="478.537" y2="65.068" gradientUnits="userSpaceOnUse"><stop/><stop offset="1" stop-color="#FFF09C"/></linearGradient><linearGradient id="y" x1="505.71" y1="103.176" x2="486.96" y2="103.8" gradientUnits="userSpaceOnUse"><stop stop-color="#D13A22"/><stop offset="1" stop-color="#fff"/></linearGradient><linearGradient id="z" x1="492.017" y1="103.342" x2="475.353" y2="106.534" gradientUnits="userSpaceOnUse"><stop stop-color="#D13A22"/><stop offset="1" stop-color="#fff"/></linearGradient><linearGradient id="A" x1="465.231" y1="75.513" x2="472.161" y2="19.722" gradientUnits="userSpaceOnUse"><stop stop-color="#FFCD54"/><stop offset=".2" stop-color="#FFC107"/><stop offset="1" stop-color="#D87F28"/></linearGradient><linearGradient id="B" x1="470.438" y1="37.523" x2="470.067" y2="20.804" gradientUnits="userSpaceOnUse"><stop/><stop offset="1" stop-color="#FFF09C"/></linearGradient><linearGradient id="C" x1="451.483" y1="45.781" x2="495.683" y2="45.781" gradientUnits="userSpaceOnUse"><stop stop-color="#F07A13"/><stop offset="1" stop-color="#B21E2D"/></linearGradient><linearGradient id="D" x1="468.344" y1="63.171" x2="483.373" y2="41.008" gradientUnits="userSpaceOnUse"><stop stop-color="#D13A22"/><stop offset="1" stop-color="#fff"/></linearGradient><linearGradient id="E" x1="505.71" y1="41.245" x2="486.96" y2="40.621" gradientUnits="userSpaceOnUse"><stop stop-color="#D13A22"/><stop offset="1" stop-color="#fff"/></linearGradient><linearGradient id="F" x1="492.017" y1="41.071" x2="475.353" y2="37.887" gradientUnits="userSpaceOnUse"><stop stop-color="#D13A22"/><stop offset="1" stop-color="#fff"/></linearGradient><linearGradient id="I" x1="92.54" y1="121.91" x2="60.342" y2="101.999" gradientUnits="userSpaceOnUse"><stop stop-color="#C86B34"/><stop offset=".74" stop-color="#FFBB2B"/><stop offset="1" stop-color="#FFA733"/></linearGradient><linearGradient id="J" x1="76.034" y1="0" x2="103.831" y2="0" gradientUnits="userSpaceOnUse"><stop stop-color="#D13A22"/><stop offset="1" stop-color="#fff"/></linearGradient><linearGradient id="K" x1="92.232" y1="120.954" x2="83.217" y2="109.118" gradientUnits="userSpaceOnUse"><stop stop-color="#F07A13"/><stop offset="1" stop-color="#B21E2D"/></linearGradient><linearGradient id="L" x1="74.122" y1="110.54" x2="74.683" y2="124.81" gradientUnits="userSpaceOnUse"><stop/><stop offset="1" stop-color="#FFF09C"/></linearGradient><linearGradient id="M" x1="72.961" y1="30.341" x2="91.932" y2="23.388" gradientUnits="userSpaceOnUse"><stop stop-color="#C86B34"/><stop offset=".74" stop-color="#FFBB2B"/><stop offset="1" stop-color="#FFA733"/></linearGradient><linearGradient id="N" x1="98.53" y1="28.279" x2="91.205" y2="25.182" gradientUnits="userSpaceOnUse"><stop/><stop offset="1" stop-color="#FFF09C"/></linearGradient><linearGradient id="O" x1="102.464" y1="23.728" x2="75.979" y2="29.361" gradientUnits="userSpaceOnUse"><stop stop-color="#F07A13"/><stop offset="1" stop-color="#B21E2D"/></linearGradient><linearGradient id="P" x1="74.889" y1="36.765" x2="75.537" y2="20.346" gradientUnits="userSpaceOnUse"><stop stop-color="#D13A22"/><stop offset="1" stop-color="#fff"/></linearGradient><linearGradient id="Q" x1="67.209" y1="33.178" x2="84.457" y2="31.866" gradientUnits="userSpaceOnUse"><stop stop-color="#EE8B1D"/><stop offset="1" stop-color="#8B2C1B"/></linearGradient><linearGradient id="R" x1="67.193" y1="111.235" x2="84.457" y2="112.555" gradientUnits="userSpaceOnUse"><stop stop-color="#EE8B1D"/><stop offset="1" stop-color="#8B2C1B"/></linearGradient><linearGradient id="S" x1="46.879" y1="72.21" x2="22.25" y2="72.21" gradientUnits="userSpaceOnUse"><stop stop-color="#EE8B1D"/><stop offset="1" stop-color="#8B2C1B"/></linearGradient><linearGradient id="T" x1="50.916" y1="68.908" x2="43.986" y2="124.699" gradientUnits="userSpaceOnUse"><stop stop-color="#FFCD54"/><stop offset=".2" stop-color="#FFC107"/><stop offset="1" stop-color="#D87F28"/></linearGradient><linearGradient id="U" x1="27.291" y1="116.419" x2="88.519" y2="101.019" gradientUnits="userSpaceOnUse"><stop stop-color="#D13A22"/><stop offset="1" stop-color="#fff"/></linearGradient><linearGradient id="V" x1="64.664" y1="98.641" x2="20.464" y2="98.641" gradientUnits="userSpaceOnUse"><stop stop-color="#F07A13"/><stop offset="1" stop-color="#B21E2D"/></linearGradient><linearGradient id="W" x1="47.013" y1="102.978" x2="37.61" y2="65.068" gradientUnits="userSpaceOnUse"><stop/><stop offset="1" stop-color="#FFF09C"/></linearGradient><linearGradient id="X" x1="10.438" y1="103.176" x2="29.187" y2="103.8" gradientUnits="userSpaceOnUse"><stop stop-color="#D13A22"/><stop offset="1" stop-color="#fff"/></linearGradient><linearGradient id="Y" x1="24.13" y1="103.342" x2="40.802" y2="106.534" gradientUnits="userSpaceOnUse"><stop stop-color="#D13A22"/><stop offset="1" stop-color="#fff"/></linearGradient><linearGradient id="Z" x1="50.916" y1="75.513" x2="43.986" y2="19.722" gradientUnits="userSpaceOnUse"><stop stop-color="#FFCD54"/><stop offset=".2" stop-color="#FFC107"/><stop offset="1" stop-color="#D87F28"/></linearGradient><linearGradient id="aa" x1="45.709" y1="37.523" x2="46.081" y2="20.804" gradientUnits="userSpaceOnUse"><stop/><stop offset="1" stop-color="#FFF09C"/></linearGradient><linearGradient id="ab" x1="64.664" y1="45.781" x2="20.464" y2="45.781" gradientUnits="userSpaceOnUse"><stop stop-color="#F07A13"/><stop offset="1" stop-color="#B21E2D"/></linearGradient><linearGradient id="ac" x1="47.803" y1="63.171" x2="32.774" y2="41.008" gradientUnits="userSpaceOnUse"><stop stop-color="#D13A22"/><stop offset="1" stop-color="#fff"/></linearGradient><linearGradient id="ad" x1="10.438" y1="41.245" x2="29.187" y2="40.621" gradientUnits="userSpaceOnUse"><stop stop-color="#D13A22"/><stop offset="1" stop-color="#fff"/></linearGradient><linearGradient id="ae" x1="24.13" y1="41.071" x2="40.802" y2="37.887" gradientUnits="userSpaceOnUse"><stop stop-color="#D13A22"/><stop offset="1" stop-color="#fff"/></linearGradient><radialGradient id="h" cx="0" cy="0" r="1" gradientUnits="userSpaceOnUse" gradientTransform="matrix(45.7892 0 0 7.89819 -3277.72 27.425)"><stop stop-color="#F2A740"/><stop offset=".09" stop-color="#E49D3C"/><stop offset=".27" stop-color="#C08432"/><stop offset=".51" stop-color="#865C23"/><stop offset=".81" stop-color="#37260E"/><stop offset="1"/></radialGradient><radialGradient id="G" cx="0" cy="0" r="1" gradientUnits="userSpaceOnUse" gradientTransform="translate(484.7 23.49)scale(23.4907)"><stop stop-color="#ECA33E"/><stop offset=".07" stop-color="#BB8131"/><stop offset=".14" stop-color="#8E6225"/><stop offset=".21" stop-color="#68481B"/><stop offset=".29" stop-color="#473113"/><stop offset=".38" stop-color="#2D1F0C"/><stop offset=".47" stop-color="#191106"/><stop offset=".57" stop-color="#0A0702"/><stop offset=".69" stop-color="#020100"/><stop offset=".9"/></radialGradient><radialGradient id="H" cx="0" cy="0" r="1" gradientUnits="userSpaceOnUse" gradientTransform="translate(491.922 90.289)scale(23.4907)"><stop stop-color="#ECA33E"/><stop offset=".07" stop-color="#BB8131"/><stop offset=".14" stop-color="#8E6225"/><stop offset=".21" stop-color="#68481B"/><stop offset=".29" stop-color="#473113"/><stop offset=".38" stop-color="#2D1F0C"/><stop offset=".47" stop-color="#191106"/><stop offset=".57" stop-color="#0A0702"/><stop offset=".69" stop-color="#020100"/><stop offset=".9"/></radialGradient><radialGradient id="af" cx="0" cy="0" r="1" gradientUnits="userSpaceOnUse" gradientTransform="rotate(180 15.723 .198)scale(.39507)"><stop stop-color="#ECA33E"/><stop offset=".07" stop-color="#BB8131"/><stop offset=".14" stop-color="#8E6225"/><stop offset=".21" stop-color="#68481B"/><stop offset=".29" stop-color="#473113"/><stop offset=".38" stop-color="#2D1F0C"/><stop offset=".47" stop-color="#191106"/><stop offset=".57" stop-color="#0A0702"/><stop offset=".69" stop-color="#020100"/><stop offset=".9"/></radialGradient><radialGradient id="ag" cx="0" cy="0" r="1" gradientUnits="userSpaceOnUse" gradientTransform="rotate(180 12.117 45.144)scale(23.4907)"><stop stop-color="#ECA33E"/><stop offset=".07" stop-color="#BB8131"/><stop offset=".14" stop-color="#8E6225"/><stop offset=".21" stop-color="#68481B"/><stop offset=".29" stop-color="#473113"/><stop offset=".38" stop-color="#2D1F0C"/><stop offset=".47" stop-color="#191106"/><stop offset=".57" stop-color="#0A0702"/><stop offset=".69" stop-color="#020100"/><stop offset=".9"/></radialGradient></defs></svg>