<svg width="30" height="31" viewBox="0 0 30 31" fill="none" xmlns="http://www.w3.org/2000/svg">
<path d="M23.01 5.74505C22.654 5.74505 22.306 5.85062 22.01 6.04841C21.714 6.2462 21.4833 6.52732 21.347 6.85622C21.2108 7.18513 21.1751 7.54705 21.2446 7.89622C21.314 8.24538 21.4855 8.56611 21.7372 8.81785C21.9889 9.06958 22.3097 9.24101 22.6588 9.31047C23.008 9.37992 23.3699 9.34427 23.6988 9.20804C24.0277 9.0718 24.3089 8.84109 24.5066 8.54508C24.7044 8.24907 24.81 7.90106 24.81 7.54505C24.81 7.06766 24.6204 6.60983 24.2828 6.27226C23.9452 5.9347 23.4874 5.74505 23.01 5.74505ZM29.91 9.37505C29.8808 8.1305 29.6477 6.89916 29.22 5.73005C28.8386 4.72975 28.245 3.82397 27.48 3.07505C26.7372 2.30619 25.8293 1.71632 24.825 1.35005C23.659 0.909295 22.4263 0.670869 21.18 0.645054C19.59 0.555054 19.08 0.555054 15 0.555054C10.92 0.555054 10.41 0.555054 8.82 0.645054C7.57373 0.670869 6.34101 0.909295 5.175 1.35005C4.17251 1.72003 3.2654 2.30939 2.52 3.07505C1.75114 3.81782 1.16126 4.72571 0.795 5.73005C0.354241 6.89607 0.115815 8.12878 0.0899999 9.37505C-7.94729e-08 10.9651 0 11.4751 0 15.5551C0 19.6351 -7.94729e-08 20.1451 0.0899999 21.7351C0.115815 22.9813 0.354241 24.214 0.795 25.3801C1.16126 26.3844 1.75114 27.2923 2.52 28.0351C3.2654 28.8007 4.17251 29.3901 5.175 29.7601C6.34101 30.2008 7.57373 30.4392 8.82 30.4651C10.41 30.5551 10.92 30.5551 15 30.5551C19.08 30.5551 19.59 30.5551 21.18 30.4651C22.4263 30.4392 23.659 30.2008 24.825 29.7601C25.8293 29.3938 26.7372 28.8039 27.48 28.0351C28.2484 27.2889 28.8425 26.3823 29.22 25.3801C29.6477 24.2109 29.8808 22.9796 29.91 21.7351C29.91 20.1451 30 19.6351 30 15.5551C30 11.4751 30 10.9651 29.91 9.37505ZM27.21 21.5551C27.1991 22.5072 27.0266 23.4506 26.7 24.3451C26.4605 24.9978 26.0758 25.5877 25.575 26.0701C25.0885 26.5658 24.4998 26.9497 23.85 27.1951C22.9556 27.5217 22.0122 27.6941 21.06 27.7051C19.56 27.7801 19.005 27.7951 15.06 27.7951C11.115 27.7951 10.56 27.7951 9.06 27.7051C8.07134 27.7236 7.08689 27.5713 6.15 27.2551C5.52867 26.9972 4.96703 26.6142 4.5 26.1301C4.00213 25.6482 3.62227 25.0578 3.39 24.4051C3.02378 23.4978 2.82067 22.533 2.79 21.5551C2.79 20.0551 2.7 19.5001 2.7 15.5551C2.7 11.6101 2.7 11.0551 2.79 9.55505C2.79672 8.58164 2.97443 7.61697 3.315 6.70505C3.57907 6.07192 3.9844 5.50754 4.5 5.05505C4.95572 4.53931 5.51893 4.1297 6.15 3.85505C7.06433 3.52512 8.028 3.35267 9 3.34505C10.5 3.34505 11.055 3.25505 15 3.25505C18.945 3.25505 19.5 3.25505 21 3.34505C21.9522 3.35597 22.8956 3.52842 23.79 3.85505C24.4716 4.10803 25.0834 4.51932 25.575 5.05505C26.0666 5.51582 26.4506 6.07915 26.7 6.70505C27.0334 7.61845 27.2059 8.58272 27.21 9.55505C27.285 11.0551 27.3 11.6101 27.3 15.5551C27.3 19.5001 27.285 20.0551 27.21 21.5551ZM15 7.86005C13.4787 7.86302 11.9924 8.31684 10.729 9.16418C9.46552 10.0115 8.48157 11.2143 7.90145 12.6207C7.32133 14.027 7.17109 15.5738 7.46969 17.0654C7.7683 18.5571 8.50235 19.9269 9.57911 21.0015C10.6559 22.0762 12.027 22.8076 13.5193 23.1033C15.0116 23.399 16.558 23.2457 17.9632 22.6629C19.3684 22.08 20.5693 21.0937 21.4142 19.8286C22.2591 18.5635 22.71 17.0763 22.71 15.5551C22.712 14.5427 22.5138 13.54 22.1269 12.6045C21.7399 11.669 21.1718 10.8193 20.4553 10.1041C19.7388 9.38899 18.8879 8.82257 17.9517 8.43745C17.0155 8.05232 16.0123 7.8561 15 7.86005ZM15 20.5501C14.0121 20.5501 13.0463 20.2571 12.2249 19.7082C11.4035 19.1594 10.7633 18.3793 10.3852 17.4666C10.0072 16.5538 9.90825 15.5495 10.101 14.5806C10.2937 13.6116 10.7694 12.7216 11.468 12.0231C12.1666 11.3245 13.0566 10.8488 14.0255 10.656C14.9945 10.4633 15.9988 10.5622 16.9115 10.9403C17.8242 11.3183 18.6043 11.9586 19.1532 12.78C19.702 13.6014 19.995 14.5671 19.995 15.5551C19.995 16.211 19.8658 16.8605 19.6148 17.4666C19.3638 18.0726 18.9958 18.6232 18.532 19.0871C18.0682 19.5509 17.5175 19.9188 16.9115 20.1698C16.3055 20.4209 15.656 20.5501 15 20.5501Z" fill="#FFF6ED"/>
</svg>
