<svg width="35" height="34" viewBox="0 0 35 34" fill="none" xmlns="http://www.w3.org/2000/svg">
<path d="M0 3.89781C0 2.76799 0.394155 1.8359 1.18243 1.10155C1.97071 0.367174 2.99551 0 4.25676 0C5.49551 0 6.49774 0.361513 7.26351 1.08461C8.05179 1.83028 8.44595 2.80188 8.44595 3.99949C8.44595 5.0841 8.06307 5.98792 7.2973 6.71101C6.50902 7.45668 5.47297 7.82951 4.18919 7.82951H4.15541C2.91666 7.82951 1.91443 7.45668 1.14865 6.71101C0.382872 5.96534 0 5.0276 0 3.89781ZM0.439189 33.555V10.9139H7.93919V33.555H0.439189ZM12.0946 33.555H19.5946V20.9126C19.5946 20.1217 19.6847 19.5116 19.8649 19.0823C20.1802 18.314 20.6588 17.6644 21.3007 17.1334C21.9426 16.6024 22.7477 16.3369 23.7162 16.3369C26.2387 16.3369 27.5 18.0429 27.5 21.4549V33.555H35V20.5737C35 17.2294 34.2117 14.693 32.6351 12.9644C31.0585 11.2359 28.9752 10.3716 26.3851 10.3716C23.4797 10.3716 21.2162 11.6256 19.5946 14.1338V14.2016H19.5608L19.5946 14.1338V10.9139H12.0946C12.1396 11.6369 12.1622 13.8852 12.1622 17.6588C12.1622 21.4323 12.1396 26.731 12.0946 33.555Z" fill="#FFF6ED"/>
</svg>
