<svg width="503" height="59" viewBox="0 0 503 59" fill="none" xmlns="http://www.w3.org/2000/svg">
<g id="snow">
<g id="snow_top_left">
<g id="Group">
<path id="Vector" d="M37.5851 0.344236C31.4807 1.60837 19.3191 4.64166 13.636 7.20386C6.75983 10.305 -3.87246 16.2232 1.43343 19.9375C3.47719 21.3682 13.3827 21.4905 15.8755 21.5986C20.5327 21.8014 28.9035 21.4731 33.5615 21.6751C35.2439 21.7485 37.0328 21.8566 38.3987 22.8414C42.4949 25.7942 40.6437 34.6487 45.6639 35.1908C50.5965 35.7234 51.1923 26.6851 56.0287 25.5796C60.9258 24.4606 63.4273 37.2195 68.2834 38.5058C71.869 39.4558 72.5279 25.2418 78.3641 25.2418C84.2002 25.2418 83.4348 33.1076 87.0007 33.1076C90.5667 33.1076 91.8987 26.139 97.9945 26.3032C107.095 26.5478 122.301 28.8456 131.022 31.4591C138.494 33.6986 146.595 37.6172 153.638 34.2652C156.872 32.7256 159.303 29.8265 162.533 28.2775C165.985 26.622 172.69 31.5254 176.517 31.6091C183.225 31.755 187.222 27.0457 193.93 27.1917C196.954 27.2572 200.558 27.6651 201.947 30.352C202.522 31.4646 203.969 36.9165 204.636 37.9763C206.867 41.5193 210.799 34.7781 214.563 32.9442C221.2 29.7113 228.974 30.2581 236.33 30.8776C241.283 31.295 246.695 31.9192 250.16 35.4835C252.385 37.7727 254.864 41.4728 257.728 40.0642C259.59 39.1481 260.065 36.4131 262.002 35.669C264.598 34.6723 266.68 37.9384 267.559 40.5764C269.065 45.1002 270.572 49.6241 272.078 54.1472C272.743 56.1452 274.028 58.5654 276.119 58.3184C278.08 58.0872 278.855 55.7002 279.192 53.7543C280.131 48.334 277.676 37.4941 282.01 37.4941C286.343 37.4941 286.976 45.8294 291.565 45.5824C297.119 45.2841 292.71 30.0174 296.954 30.0174C301.199 30.0174 296.954 41.6898 302.26 41.6898C307.566 41.6898 309.347 31.5262 316.585 27.8956C318.027 27.1727 331.573 24.9696 332.502 23.651C335.498 19.4001 324.168 12.6549 319.846 9.76211C312.17 4.6243 302.913 -0.612149 294.198 2.44718C289.328 4.15636 285.489 8.27545 280.47 9.47646C269.017 12.2162 258.045 -1.20792 246.735 2.0692C244.33 2.76597 242.184 4.18635 239.776 4.87523C231.173 7.338 222.524 -0.00375415 213.603 0.714324C209.173 1.071 205.148 3.39094 200.804 4.33076C190.402 6.58047 179.976 0.745098 169.338 0.453921C152.243 -0.0148029 135.992 13.7636 119.463 9.37861C113.04 7.67495 107.27 3.29072 100.626 3.22049C95.1269 3.1621 90.0703 6.09123 84.6808 7.18571C68.9691 10.3792 53.4128 -2.20849 37.5851 0.344236Z" fill="white"/>
</g>
<g id="Group_2">
<g id="Clip path group">
<mask id="mask0_7_179" style="mask-type:luminance" maskUnits="userSpaceOnUse" x="0" y="0" width="333" height="59">
<g id="SVGID_00000164501004211239325860000004080194480026135947_">
<path id="Vector_2" d="M37.5851 0.344236C31.4807 1.60837 19.3191 4.64166 13.636 7.20386C6.75983 10.305 -3.87246 16.2232 1.43343 19.9375C3.47719 21.3682 13.3827 21.4905 15.8755 21.5986C20.5327 21.8014 28.9035 21.4731 33.5615 21.6751C35.2439 21.7485 37.0328 21.8566 38.3987 22.8414C42.4949 25.7942 40.6437 34.6487 45.6639 35.1908C50.5965 35.7234 51.1923 26.6851 56.0287 25.5796C60.9258 24.4606 63.4273 37.2195 68.2834 38.5058C71.869 39.4558 72.5279 25.2418 78.3641 25.2418C84.2002 25.2418 83.4348 33.1076 87.0007 33.1076C90.5667 33.1076 91.8987 26.139 97.9945 26.3032C107.095 26.5478 122.301 28.8456 131.022 31.4591C138.494 33.6986 146.595 37.6172 153.638 34.2652C156.872 32.7256 159.303 29.8265 162.533 28.2775C165.985 26.622 172.69 31.5254 176.517 31.6091C183.225 31.755 187.222 27.0457 193.93 27.1917C196.954 27.2572 200.558 27.6651 201.947 30.352C202.522 31.4646 203.969 36.9165 204.636 37.9763C206.867 41.5193 210.799 34.7781 214.563 32.9442C221.2 29.7113 228.974 30.2581 236.33 30.8776C241.283 31.295 246.695 31.9192 250.16 35.4835C252.385 37.7727 254.864 41.4728 257.728 40.0642C259.59 39.1481 260.065 36.4131 262.002 35.669C264.598 34.6723 266.68 37.9384 267.559 40.5764C269.065 45.1002 270.572 49.6241 272.078 54.1472C272.743 56.1452 274.028 58.5654 276.119 58.3184C278.08 58.0872 278.855 55.7002 279.192 53.7543C280.131 48.334 277.676 37.4941 282.01 37.4941C286.343 37.4941 286.976 45.8294 291.565 45.5824C297.119 45.2841 292.71 30.0174 296.954 30.0174C301.199 30.0174 296.954 41.6898 302.26 41.6898C307.566 41.6898 309.347 31.5262 316.585 27.8956C318.027 27.1727 331.573 24.9696 332.502 23.651C335.498 19.4001 324.168 12.6549 319.846 9.76211C312.17 4.6243 302.913 -0.612149 294.198 2.44718C289.328 4.15636 285.489 8.27545 280.47 9.47646C269.017 12.2162 258.045 -1.20792 246.735 2.0692C244.33 2.76597 242.184 4.18635 239.776 4.87523C231.173 7.338 222.524 -0.00375415 213.603 0.714324C209.173 1.071 205.148 3.39094 200.804 4.33076C190.402 6.58047 179.976 0.745098 169.338 0.453921C152.243 -0.0148029 135.992 13.7636 119.463 9.37861C113.04 7.67495 107.27 3.29072 100.626 3.22049C95.1269 3.1621 90.0703 6.09123 84.6808 7.18571C68.9691 10.3792 53.4128 -2.20849 37.5851 0.344236Z" fill="white"/>
</g>
</mask>
<g mask="url(#mask0_7_179)">
<path id="Vector_3" opacity="0.3" d="M2.52233 9.86941C-2.853 11.9668 -6.69905 21.0501 0.314439 23.7196C3.27434 24.8465 6.86631 24.8315 9.98482 25.0082C14.676 25.2742 19.3782 25.26 24.0742 25.3854C26.0785 25.4391 28.078 25.5409 30.0808 25.6348C31.7631 25.7137 35.7654 25.0437 36.9159 26.2613C37.8881 27.2903 37.9859 29.9156 38.4862 31.2634C39.1388 33.0199 39.98 34.7796 41.3254 36.1211C43.9862 38.774 47.8276 38.9831 50.6762 36.5622C52.005 35.433 53.008 33.8769 53.8728 32.3816C54.7219 30.9131 56.1557 26.9786 58.0156 29.3822C59.7153 31.5783 59.784 35.3643 61.2051 37.8484C62.8622 40.7444 65.5925 42.6951 69.0314 42.2524C72.6044 41.7923 74.72 39.0621 76.0338 35.9372C76.5523 34.7039 76.8482 32.6869 77.7414 31.6801C79.0214 30.2384 79.9264 31.9002 81.3602 33.0192C84.5719 35.5269 87.9405 36.1385 91.5057 33.8532C93.768 32.4029 95.5435 30.7821 98.1719 29.9148C100.717 29.0752 103.386 28.8464 106.053 28.9316C117.504 29.297 127.488 35.4788 138.38 38.1743C143.584 39.4621 149.242 39.9237 154.386 38.1183C158.872 36.544 161.667 30.8752 166.621 31.3841C171.716 31.9081 176.33 34.6478 181.572 34.3377C186.431 34.0505 191.662 30.6818 196.49 31.3928C200.712 32.0146 201.385 38.0291 204.779 40.2244C208.814 42.8339 212.462 40.4201 216.207 38.5949C221.658 35.938 227.893 34.741 233.935 35.2128C236.835 35.4393 240.433 35.9238 243.044 37.2676C244.781 38.1617 246.146 39.8811 247.551 41.1981C250.3 43.7745 253.538 46.6374 257.607 45.6897C259.264 45.303 260.666 44.3593 261.915 43.2277C262.482 42.7148 263.122 42.1324 263.574 41.513C263.669 41.382 264.343 40.8636 264.339 40.7176C264.334 40.4627 263.122 40.4501 263.014 40.7736C263.047 40.6742 264.922 44.5944 265.038 45.0592C265.521 47.0067 265.796 48.9984 266.245 50.953C267.106 54.7043 268.622 58.1006 271.643 60.5878C274.534 62.9678 278.969 64.7448 281.604 60.9887C283.198 58.7169 284.341 55.0799 284.335 52.3205C284.329 49.6312 283.604 46.9341 283.856 44.2369C283.889 43.8803 284.286 42.5972 284.202 42.3242C284.268 42.1285 284.333 41.932 284.4 41.7363C283.464 41.6898 282.529 41.644 281.593 41.5974C281.459 42.0243 283.449 44.1217 283.776 44.4745C287.012 47.9591 291.647 48.607 295.164 45.0537C296.56 43.6436 297.401 41.9407 297.939 40.0453C298.168 39.2396 299.52 34.9106 299.125 34.292C298.869 33.8911 295.441 34.1113 295.486 34.0331C295.37 34.2312 295.752 35.0929 295.831 35.4046C296.035 36.2166 296.204 37.0246 296.489 37.8145C297.314 40.1068 298.773 41.4941 300.98 42.5522C310.806 47.2631 312.073 34.0079 318.885 31.2153C324.73 28.8188 333.395 28.3761 334.667 20.6666C335.797 13.8157 327.714 7.11388 323.14 3.20864C319.39 0.00727558 315.515 -2.57228 310.94 -4.4164C307.01 -6.00012 304.366 0.450752 308.065 2.40219C312.11 4.53591 315.872 7.25277 319.24 10.3413C321.53 12.4403 325.515 15.5604 326.544 18.5929C327.031 20.0275 326.377 20.321 324.657 21.0651C321.43 22.461 317.889 22.9613 314.679 24.4574C311.68 25.8549 309.47 27.8435 307.747 30.6613C307.058 31.7889 306.375 34.09 305.275 34.8554C303.329 36.2095 303.7 33.8169 303.179 32.1077C302.23 28.9979 299.92 26.5785 296.452 27.2224C292.311 27.991 291.423 32.1283 290.777 35.6287C290.67 36.2103 290.381 39.1165 289.729 39.2475C289.332 39.3272 286.589 35.1087 285.811 34.6778C281.786 32.4471 277.878 36.0169 276.685 39.7115C275.228 44.2251 277.219 48.4689 276.64 52.9005C276.565 53.4804 275.346 55.4421 275.463 56.3172C275.382 56.4869 275.301 56.6558 275.219 56.8254C277.97 56.3962 278.554 55.8548 276.97 55.2007C276.334 54.3887 275.406 53.9768 274.837 53.0433C271.346 47.3168 273.552 39.1749 267.402 34.7915C264.668 32.8432 261.828 33.0144 259.324 35.2365C258.468 35.9964 257.433 37.8682 256.363 38.2453C255.065 38.703 253.372 36.5133 252.418 35.6121C249.748 33.0918 247.415 30.9344 243.865 29.7555C238.782 28.0668 233.204 27.3897 227.873 27.9618C222.613 28.526 217.41 30.2068 212.69 32.5836C211.488 33.1896 209.619 34.8806 208.305 34.2833C206.884 33.637 205.735 30.1642 204.765 28.9206C198.451 20.8308 189.513 27.1191 181.57 27.8498C176.633 28.3043 171.918 25.3846 167.042 24.9325C162.401 24.5016 159.422 26.3465 156.083 29.3846C147.741 36.9733 135.27 30.5706 126.326 27.2556C117.51 23.9879 107.585 21.0872 98.1554 23.3211C96.0272 23.8254 93.8966 24.6468 92.0028 25.7476C90.7694 26.4641 88.7067 28.803 87.4039 28.9514C85.63 29.1534 84.1371 27.0378 82.8153 26.1224C81.3452 25.1037 79.7378 24.4148 77.9221 24.5529C74.9015 24.7833 73.0447 26.8926 71.8216 29.4769C71.113 30.9754 69.9767 36.8573 67.5297 35.9222C65.37 35.0968 64.7781 29.1802 63.8541 27.2367C62.3785 24.1363 59.3444 21.881 55.7848 22.3174C50.8892 22.9179 50.0986 27.5373 47.5545 30.8341C45.8753 33.0097 45.0373 31.2697 44.2427 29.1889C43.5222 27.3006 43.4307 25.1487 42.4917 23.348C40.515 19.5564 36.4172 19.6282 32.68 19.6116C28.1672 19.5919 23.6433 19.2904 19.1273 19.2178C14.702 19.1468 10.2468 19.1926 5.83023 18.862C5.02851 18.802 2.59177 18.914 1.96681 18.278C0.694786 16.9815 3.05892 13.1197 3.93403 12.3014C4.9496 11.3553 3.90325 9.33125 2.52233 9.86941Z" fill="#336EC2"/>
</g>
</g>
<g id="Clip path group_2">
<mask id="mask1_7_179" style="mask-type:luminance" maskUnits="userSpaceOnUse" x="0" y="0" width="333" height="59">
<g id="SVGID_00000164501004211239325860000004080194480026135947__2">
<path id="Vector_4" d="M37.5851 0.344236C31.4807 1.60837 19.3191 4.64166 13.636 7.20386C6.75983 10.305 -3.87246 16.2232 1.43343 19.9375C3.47719 21.3682 13.3827 21.4905 15.8755 21.5986C20.5327 21.8014 28.9035 21.4731 33.5615 21.6751C35.2439 21.7485 37.0328 21.8566 38.3987 22.8414C42.4949 25.7942 40.6437 34.6487 45.6639 35.1908C50.5965 35.7234 51.1923 26.6851 56.0287 25.5796C60.9258 24.4606 63.4273 37.2195 68.2834 38.5058C71.869 39.4558 72.5279 25.2418 78.3641 25.2418C84.2002 25.2418 83.4348 33.1076 87.0007 33.1076C90.5667 33.1076 91.8987 26.139 97.9945 26.3032C107.095 26.5478 122.301 28.8456 131.022 31.4591C138.494 33.6986 146.595 37.6172 153.638 34.2652C156.872 32.7256 159.303 29.8265 162.533 28.2775C165.985 26.622 172.69 31.5254 176.517 31.6091C183.225 31.755 187.222 27.0457 193.93 27.1917C196.954 27.2572 200.558 27.6651 201.947 30.352C202.522 31.4646 203.969 36.9165 204.636 37.9763C206.867 41.5193 210.799 34.7781 214.563 32.9442C221.2 29.7113 228.974 30.2581 236.33 30.8776C241.283 31.295 246.695 31.9192 250.16 35.4835C252.385 37.7727 254.864 41.4728 257.728 40.0642C259.59 39.1481 260.065 36.4131 262.002 35.669C264.598 34.6723 266.68 37.9384 267.559 40.5764C269.065 45.1002 270.572 49.6241 272.078 54.1472C272.743 56.1452 274.028 58.5654 276.119 58.3184C278.08 58.0872 278.855 55.7002 279.192 53.7543C280.131 48.334 277.676 37.4941 282.01 37.4941C286.343 37.4941 286.976 45.8294 291.565 45.5824C297.119 45.2841 292.71 30.0174 296.954 30.0174C301.199 30.0174 296.954 41.6898 302.26 41.6898C307.566 41.6898 309.347 31.5262 316.585 27.8956C318.027 27.1727 331.573 24.9696 332.502 23.651C335.498 19.4001 324.168 12.6549 319.846 9.76211C312.17 4.6243 302.913 -0.612149 294.198 2.44718C289.328 4.15636 285.489 8.27545 280.47 9.47646C269.017 12.2162 258.045 -1.20792 246.735 2.0692C244.33 2.76597 242.184 4.18635 239.776 4.87523C231.173 7.338 222.524 -0.00375415 213.603 0.714324C209.173 1.071 205.148 3.39094 200.804 4.33076C190.402 6.58047 179.976 0.745098 169.338 0.453921C152.243 -0.0148029 135.992 13.7636 119.463 9.37861C113.04 7.67495 107.27 3.29072 100.626 3.22049C95.1269 3.1621 90.0703 6.09123 84.6808 7.18571C68.9691 10.3792 53.4128 -2.20849 37.5851 0.344236Z" fill="white"/>
</g>
</mask>
<g mask="url(#mask1_7_179)">
<path id="Vector_5" opacity="0.15" d="M337.485 12.2139C335.386 6.47871 331.296 2.06372 326.645 -1.69002C325.59 -2.73241 324.379 -3.65092 323.024 -4.42819C322.843 -4.5576 322.663 -4.68858 322.481 -4.81642C322.47 -4.79038 322.459 -4.76434 322.448 -4.7383C313.526 -9.45789 303.535 -2.35523 311.809 3.49119C312.132 3.72003 310.599 2.92699 311.013 3.22606C311.088 3.42807 315.788 7.47061 315.824 10.4629C315.811 11.5581 315.783 11.802 315.092 12.786C310.482 21.2656 298.28 16.49 291.291 21.2593C288.206 21.5655 287.03 28.4172 283.954 28.6934C280.733 28.983 276.663 22.5589 273.622 21.7414C267.598 20.1214 263.238 27.2998 257.426 29.2237C251.544 31.1711 247.621 22.0744 242.045 20.3353C236.233 18.5219 230.27 18.5266 224.29 19.3284C218.648 20.0843 212.907 21.8953 207.174 21.5923C201.454 21.2901 196.791 16.9769 191.041 19.0183C185.609 20.946 183.397 25.462 176.98 23.7173C170.759 22.0263 165.565 18.8076 158.942 21.3737C153.181 23.6061 151.791 25.5828 145.392 24.1008C140.161 22.8888 134.969 21.5016 129.729 20.3274C118.972 17.9175 107.588 16.5089 96.8107 19.6898C93.6583 20.6201 90.8854 22.4398 87.8158 23.4822C84.3958 24.6437 80.2318 21.2056 76.508 21.5631C72.7898 21.9206 70.3799 27.1965 67.8808 26.9006C65.0993 26.5715 64.0379 19.9391 57.4064 19.9391C50.7748 19.9391 49.1824 26.3056 46.7954 25.7753C44.9828 25.3729 44.3421 19.921 43.0819 18.8778C40.1638 15.1643 31.9398 14.6332 25.5734 15.4294C21.0882 15.9905 13.1577 16.0662 8.95974 14.2411C3.41475 11.8296 10.9088 7.38696 6.04087 4.86422C1.55485 2.53954 -2.19888 9.78266 -2.30778 13.1868C-2.67865 24.8173 10.9617 25.2434 19.1762 25.1085C24.3274 25.0241 30.3403 25.0051 34.5249 28.4993C39.1656 32.3745 41.4966 38.0386 48.8083 35.9838C50.6485 35.467 54.5411 33.8304 55.739 32.2419C55.8866 32.047 56.0531 31.9579 56.1848 31.9129C56.663 32.3792 57.0907 33.1344 57.4277 33.5803C62.848 40.7555 72.7906 44.065 77.9394 34.2518C78.2338 34.3654 78.5155 34.4814 78.6307 34.5248C83.6628 36.4242 87.074 37.3577 92.3444 35.523C97.1461 33.8517 101.279 31.8592 106.45 31.6335C116.597 31.1909 126.751 34.4033 136.405 37.0988C141.243 38.4498 146.481 39.9956 151.561 39.7849C156.114 39.5955 158.94 37.0318 163.081 35.9767C167.39 34.8791 171.033 37.8327 175.151 38.8688C180.468 40.2063 185.152 39.1197 190.087 36.8716C190.756 36.567 191.46 36.2687 192.153 35.9531C196.493 43.8764 204.75 48.3908 213.589 44.6529C217.057 43.1859 219.522 39.9427 223.011 38.6581C227.637 36.9552 232.019 39.7991 236.16 41.5659C237.906 42.3108 239.625 42.9563 241.355 43.5095C243.834 51.5559 256.577 52.1603 263.194 51.4714C263.775 51.4107 264.377 51.3412 264.987 51.275C265.929 53.6825 266.789 56.109 268.594 58.1054C275.15 65.3588 286.978 62.3026 288.4 53.056C295.167 49.9943 306.684 46.538 308.132 38.0513C323.377 40.3791 344.364 31.0109 337.485 12.2139ZM66.4281 28.7352C66.3871 28.796 66.3595 28.8425 66.3634 28.8559C66.35 28.8094 66.376 28.7691 66.4281 28.7352ZM68.6305 28.418C69.1221 29.488 69.1718 28.3446 68.6305 28.418V28.418ZM77.0541 33.9993C77.0533 33.9559 77.2024 33.9914 77.4036 34.0569C77.2064 34.2107 77.058 34.2502 77.0541 33.9993Z" fill="#336EC2"/>
</g>
</g>
<g id="Clip path group_3">
<mask id="mask2_7_179" style="mask-type:luminance" maskUnits="userSpaceOnUse" x="0" y="0" width="333" height="59">
<g id="SVGID_00000164501004211239325860000004080194480026135947__3">
<path id="Vector_6" d="M37.5851 0.344236C31.4807 1.60837 19.3191 4.64166 13.636 7.20386C6.75983 10.305 -3.87246 16.2232 1.43343 19.9375C3.47719 21.3682 13.3827 21.4905 15.8755 21.5986C20.5327 21.8014 28.9035 21.4731 33.5615 21.6751C35.2439 21.7485 37.0328 21.8566 38.3987 22.8414C42.4949 25.7942 40.6437 34.6487 45.6639 35.1908C50.5965 35.7234 51.1923 26.6851 56.0287 25.5796C60.9258 24.4606 63.4273 37.2195 68.2834 38.5058C71.869 39.4558 72.5279 25.2418 78.3641 25.2418C84.2002 25.2418 83.4348 33.1076 87.0007 33.1076C90.5667 33.1076 91.8987 26.139 97.9945 26.3032C107.095 26.5478 122.301 28.8456 131.022 31.4591C138.494 33.6986 146.595 37.6172 153.638 34.2652C156.872 32.7256 159.303 29.8265 162.533 28.2775C165.985 26.622 172.69 31.5254 176.517 31.6091C183.225 31.755 187.222 27.0457 193.93 27.1917C196.954 27.2572 200.558 27.6651 201.947 30.352C202.522 31.4646 203.969 36.9165 204.636 37.9763C206.867 41.5193 210.799 34.7781 214.563 32.9442C221.2 29.7113 228.974 30.2581 236.33 30.8776C241.283 31.295 246.695 31.9192 250.16 35.4835C252.385 37.7727 254.864 41.4728 257.728 40.0642C259.59 39.1481 260.065 36.4131 262.002 35.669C264.598 34.6723 266.68 37.9384 267.559 40.5764C269.065 45.1002 270.572 49.6241 272.078 54.1472C272.743 56.1452 274.028 58.5654 276.119 58.3184C278.08 58.0872 278.855 55.7002 279.192 53.7543C280.131 48.334 277.676 37.4941 282.01 37.4941C286.343 37.4941 286.976 45.8294 291.565 45.5824C297.119 45.2841 292.71 30.0174 296.954 30.0174C301.199 30.0174 296.954 41.6898 302.26 41.6898C307.566 41.6898 309.347 31.5262 316.585 27.8956C318.027 27.1727 331.573 24.9696 332.502 23.651C335.498 19.4001 324.168 12.6549 319.846 9.76211C312.17 4.6243 302.913 -0.612149 294.198 2.44718C289.328 4.15636 285.489 8.27545 280.47 9.47646C269.017 12.2162 258.045 -1.20792 246.735 2.0692C244.33 2.76597 242.184 4.18635 239.776 4.87523C231.173 7.338 222.524 -0.00375415 213.603 0.714324C209.173 1.071 205.148 3.39094 200.804 4.33076C190.402 6.58047 179.976 0.745098 169.338 0.453921C152.243 -0.0148029 135.992 13.7636 119.463 9.37861C113.04 7.67495 107.27 3.29072 100.626 3.22049C95.1269 3.1621 90.0703 6.09123 84.6808 7.18571C68.9691 10.3792 53.4128 -2.20849 37.5851 0.344236Z" fill="white"/>
</g>
</mask>
<g mask="url(#mask2_7_179)">
<g id="Group_3">
<g id="Group_4" opacity="0.15">
<g id="Group_5">
<g id="Group_6">
<path id="Vector_7" d="M50.5094 14.3959C51.2298 14.3959 51.2306 13.2769 50.5094 13.2769C49.7889 13.2769 49.7881 14.3959 50.5094 14.3959Z" fill="#336EC2"/>
</g>
</g>
<g id="Group_7">
<g id="Group_8">
<path id="Vector_8" d="M51.5699 8.49812C52.2098 8.49812 52.2114 7.50307 51.5699 7.50307C50.9299 7.50307 50.9291 8.49812 51.5699 8.49812Z" fill="#336EC2"/>
</g>
</g>
<g id="Group_9">
<g id="Group_10">
<path id="Vector_9" d="M94.8108 18.3074C95.4429 18.3074 95.4437 17.325 94.8108 17.325C94.1788 17.3242 94.1772 18.3074 94.8108 18.3074Z" fill="#336EC2"/>
</g>
</g>
<g id="Group_11">
<g id="Group_12">
<path id="Vector_10" d="M103.565 16.2139C103.893 16.2139 103.893 15.7041 103.565 15.7041C103.237 15.7041 103.236 16.2139 103.565 16.2139Z" fill="#336EC2"/>
</g>
</g>
<g id="Group_13">
<g id="Group_14">
<path id="Vector_11" d="M162.457 12.3047C163.217 12.3047 163.219 11.1235 162.457 11.1235C161.696 11.1235 161.696 12.3047 162.457 12.3047Z" fill="#336EC2"/>
</g>
</g>
<g id="Group_15">
<g id="Group_16">
<path id="Vector_12" d="M177.313 7.51571C177.713 7.51571 177.713 6.8939 177.313 6.8939C176.912 6.8939 176.912 7.51571 177.313 7.51571Z" fill="#336EC2"/>
</g>
</g>
<g id="Group_17">
<g id="Group_18">
<path id="Vector_13" d="M250.795 6.3857C251.107 6.3857 251.107 5.9004 250.795 5.9004C250.482 5.90119 250.482 6.3857 250.795 6.3857Z" fill="#336EC2"/>
</g>
</g>
<g id="Group_19">
<g id="Group_20">
<path id="Vector_14" d="M247.12 8.10906C247.11 8.06803 247.099 8.02621 247.089 7.98517C246.953 7.45411 246.149 7.45332 246.013 7.98517C246.003 8.02621 245.992 8.06803 245.981 8.10906C245.737 9.05992 247.365 9.06544 247.12 8.10906Z" fill="#336EC2"/>
</g>
</g>
<g id="Group_21">
<g id="Group_22">
<path id="Vector_15" d="M303.586 8.17067C304.146 8.17067 304.147 7.3003 303.586 7.3003C303.025 7.3003 303.024 8.17067 303.586 8.17067Z" fill="#336EC2"/>
</g>
</g>
<g id="Group_23">
<g id="Group_24">
<path id="Vector_16" d="M19.737 10.0936C20.0408 10.0936 20.0416 9.62097 19.737 9.62097C19.4324 9.62097 19.4324 10.0936 19.737 10.0936Z" fill="#336EC2"/>
</g>
</g>
<g id="Group_25">
<g id="Group_26">
<path id="Vector_17" d="M14.1658 11.9836C14.8539 11.9836 14.8547 10.9143 14.1658 10.9143C13.4777 10.9143 13.4762 11.9836 14.1658 11.9836Z" fill="#336EC2"/>
</g>
</g>
<g id="Group_27">
<g id="Group_28">
<path id="Vector_18" d="M141.234 18.0604C141.891 18.0604 141.891 17.0409 141.234 17.0409C140.578 17.0409 140.577 18.0604 141.234 18.0604Z" fill="#336EC2"/>
</g>
</g>
<g id="Group_29">
<g id="Group_30">
<path id="Vector_19" d="M133.276 16.943C133.86 16.943 133.861 16.0356 133.276 16.0356C132.692 16.0356 132.691 16.943 133.276 16.943Z" fill="#336EC2"/>
</g>
</g>
<g id="Group_31">
<g id="Group_32">
<path id="Vector_20" d="M75.4456 12.0254C75.8457 12.0254 75.8465 11.4036 75.4456 11.4036C75.0455 11.4036 75.0448 12.0254 75.4456 12.0254Z" fill="#336EC2"/>
</g>
</g>
<g id="Group_33">
<g id="Group_34">
<path id="Vector_21" d="M209.676 12.6425C210.189 12.6425 210.189 11.8463 209.676 11.8463C209.164 11.8471 209.163 12.6425 209.676 12.6425Z" fill="#336EC2"/>
</g>
</g>
<g id="Group_35">
<g id="Group_36">
<path id="Vector_22" d="M222.41 11.9757C222.746 11.9757 222.746 11.4533 222.41 11.4533C222.074 11.4533 222.073 11.9757 222.41 11.9757Z" fill="#336EC2"/>
</g>
</g>
<g id="Group_37">
<g id="Group_38">
<path id="Vector_23" d="M282.362 17.9736C282.907 17.9736 282.908 17.1277 282.362 17.1277C281.819 17.1277 281.817 17.9736 282.362 17.9736Z" fill="#336EC2"/>
</g>
</g>
<g id="Group_39">
<g id="Group_40">
<path id="Vector_24" d="M173.068 11.4304C174.068 11.4304 174.07 9.87585 173.068 9.87585C172.068 9.87585 172.066 11.4304 173.068 11.4304Z" fill="#336EC2"/>
</g>
</g>
</g>
<g id="Group_41" opacity="0.35">
<g id="Group_42">
<g id="Group_43">
<path id="Vector_25" d="M44.6732 10.5181C45.8655 10.5181 45.8671 8.66533 44.6732 8.66533C43.4809 8.66533 43.4785 10.5181 44.6732 10.5181Z" fill="#336EC2"/>
</g>
</g>
<g id="Group_44">
<g id="Group_45">
<path id="Vector_26" d="M98.7897 15.8138C99.286 15.8138 99.2868 15.0428 98.7897 15.0428C98.2941 15.0428 98.2933 15.8138 98.7897 15.8138Z" fill="#336EC2"/>
</g>
</g>
<g id="Group_46">
<g id="Group_47">
<path id="Vector_27" d="M167.762 8.08774C168.898 8.08774 168.9 6.32174 167.762 6.32174C166.626 6.32174 166.624 8.08774 167.762 8.08774Z" fill="#336EC2"/>
</g>
</g>
<g id="Group_48">
<g id="Group_49">
<path id="Vector_28" d="M308.183 10.5466C309.297 10.5466 309.299 8.81454 308.183 8.81454C307.068 8.81454 307.067 10.5466 308.183 10.5466Z" fill="#336EC2"/>
</g>
</g>
<g id="Group_50">
<g id="Group_51">
<path id="Vector_29" d="M301.728 11.9591C302.384 11.9591 302.385 10.9396 301.728 10.9396C301.072 10.9388 301.071 11.9591 301.728 11.9591Z" fill="#336EC2"/>
</g>
</g>
<g id="Group_52">
<g id="Group_53">
<path id="Vector_30" d="M65.8951 16.3757C66.4309 16.3757 66.4316 15.5424 65.8951 15.5424C65.3593 15.5424 65.3585 16.3757 65.8951 16.3757Z" fill="#336EC2"/>
</g>
</g>
<g id="Group_54">
<g id="Group_55">
<path id="Vector_31" d="M215.513 7.06745C216.361 7.06745 216.363 5.74966 215.513 5.74966C214.665 5.74966 214.663 7.06745 215.513 7.06745Z" fill="#336EC2"/>
</g>
</g>
<g id="Group_56">
<g id="Group_57">
<path id="Vector_32" d="M256.896 23.2226C257.368 23.2226 257.369 22.4888 256.896 22.4888C256.424 22.4896 256.423 23.2226 256.896 23.2226Z" fill="#336EC2"/>
</g>
</g>
<g id="Group_58">
<g id="Group_59">
<path id="Vector_33" d="M261.141 19.5217C261.628 19.5217 261.629 18.7634 261.141 18.7634C260.652 18.7626 260.651 19.5217 261.141 19.5217Z" fill="#336EC2"/>
</g>
</g>
</g>
</g>
</g>
</g>
</g>
</g>
<g id="snow_corner">
<g id="Group_60">
<path id="Vector_34" d="M476.736 1.22984C465.691 0.543842 454.551 1.39583 443.739 3.75383C441.937 4.14683 440.07 4.61785 438.666 5.81285C437.261 7.00785 436.484 9.14585 437.388 10.7529C437.998 11.8369 439.205 12.4398 440.391 12.8148C444.564 14.1328 449.082 13.3718 453.44 13.7768C457.798 14.1818 462.647 16.4768 463.446 20.7808C463.765 22.5008 463.374 24.2988 463.73 26.0128C464.087 27.7258 465.732 29.4358 467.383 28.8568C469.795 28.0108 468.884 24.0218 470.763 22.2878C472.342 20.8308 475.102 21.8938 476.185 23.7498C477.268 25.6058 477.21 27.8808 477.294 30.0278C477.441 33.7858 475.031 40.0239 476.938 43.2659C479.424 47.4909 482.406 43.0168 483.649 41.2778C485.264 39.0168 487.129 39.7868 487.377 43.0178C487.71 47.3458 488.574 51.5578 489.863 54.2028C490.778 56.0798 492.278 58.0818 494.337 58.4278C497.389 58.9408 499.515 54.3738 500.337 51.3898C503.411 40.2268 503.852 27.8489 498.75 17.4548C493.648 7.06085 482.054 -0.602155 470.643 1.36384" fill="white"/>
</g>
<g id="Group_61">
<g id="Clip path group_4">
<mask id="mask3_7_179" style="mask-type:luminance" maskUnits="userSpaceOnUse" x="437" y="1" width="66" height="58">
<g id="SVGID_00000121272849209346482650000015945368105791370650_">
<path id="Vector_35" d="M476.736 1.22984C465.691 0.543842 454.551 1.39583 443.739 3.75383C441.937 4.14683 440.07 4.61785 438.666 5.81285C437.261 7.00785 436.484 9.14585 437.388 10.7529C437.998 11.8369 439.205 12.4398 440.391 12.8148C444.564 14.1328 449.082 13.3718 453.44 13.7768C457.798 14.1818 462.647 16.4768 463.446 20.7808C463.765 22.5008 463.374 24.2988 463.73 26.0128C464.087 27.7258 465.732 29.4358 467.383 28.8568C469.795 28.0108 468.884 24.0218 470.763 22.2878C472.342 20.8308 475.102 21.8938 476.185 23.7498C477.268 25.6058 477.21 27.8808 477.294 30.0278C477.441 33.7858 475.031 40.0239 476.938 43.2659C479.424 47.4909 482.406 43.0168 483.649 41.2778C485.264 39.0168 487.129 39.7868 487.377 43.0178C487.71 47.3458 488.574 51.5578 489.863 54.2028C490.778 56.0798 492.278 58.0818 494.337 58.4278C497.389 58.9408 499.515 54.3738 500.337 51.3898C503.411 40.2268 503.852 27.8489 498.75 17.4548C493.648 7.06085 482.054 -0.602155 470.643 1.36384" fill="white"/>
</g>
</mask>
<g mask="url(#mask3_7_179)">
<g id="Group_62" opacity="0.3">
<path id="Vector_36" d="M439.733 2.38884C435.289 2.89184 434.442 8.51582 436.265 11.9298C440.36 19.5978 450.08 15.4998 456.292 18.5388C462.256 21.4558 457.361 30.2418 463.683 33.1158C465.94 34.1418 468.564 33.8298 470.508 32.3208C471.538 31.5218 473.533 26.5418 474.238 26.4248C473.187 26.1468 472.135 25.8688 471.084 25.5908C477.364 31.3138 466.856 42.3958 474.049 47.8488C476.717 49.8718 480.01 49.2458 482.645 47.4898C483.827 46.7019 485.64 45.3698 486.136 43.9878C485.767 43.6578 485.399 43.3278 485.03 42.9978C485.172 43.5278 485.287 44.0638 485.376 44.6058C485.4 45.6018 485.721 46.7818 485.875 47.7548C486.826 53.7588 490.544 61.4518 497.92 59.8418C506.414 57.9878 510.373 45.4628 510.267 38.0658C510.226 35.2558 506.653 35.1398 505.69 37.4458C504.226 40.9538 502.661 44.9148 500.803 48.2438C500.05 49.5928 498.687 52.5118 497.297 53.0088C495.186 53.7638 493.861 51.7128 493.212 50.1278C491.668 46.3598 492.101 41.0278 489.343 37.9818C487.983 36.4788 485.97 35.7248 483.759 37.2748C482.241 38.3388 480.998 43.0158 478.809 42.1768C477.232 41.5718 478.911 36.7068 479.1 35.3088C479.458 32.6468 479.645 29.6838 479.051 27.0328C478.174 23.1198 474.836 17.9768 470.328 20.9368C468.209 22.3288 469.037 25.2098 467.23 26.3468C465.754 27.2758 465.72 23.6938 465.526 22.1998C464.871 17.1578 461.842 13.7898 456.855 12.4648C451.943 11.1598 435.202 13.3248 440.377 3.51085C440.613 3.06185 440.331 2.32184 439.733 2.38884Z" fill="#336EC2"/>
</g>
</g>
</g>
<g id="Clip path group_5">
<mask id="mask4_7_179" style="mask-type:luminance" maskUnits="userSpaceOnUse" x="437" y="1" width="66" height="58">
<g id="SVGID_00000121272849209346482650000015945368105791370650__2">
<path id="Vector_37" d="M476.736 1.22984C465.691 0.543842 454.551 1.39583 443.739 3.75383C441.937 4.14683 440.07 4.61785 438.666 5.81285C437.261 7.00785 436.484 9.14585 437.388 10.7529C437.998 11.8369 439.205 12.4398 440.391 12.8148C444.564 14.1328 449.082 13.3718 453.44 13.7768C457.798 14.1818 462.647 16.4768 463.446 20.7808C463.765 22.5008 463.374 24.2988 463.73 26.0128C464.087 27.7258 465.732 29.4358 467.383 28.8568C469.795 28.0108 468.884 24.0218 470.763 22.2878C472.342 20.8308 475.102 21.8938 476.185 23.7498C477.268 25.6058 477.21 27.8808 477.294 30.0278C477.441 33.7858 475.031 40.0239 476.938 43.2659C479.424 47.4909 482.406 43.0168 483.649 41.2778C485.264 39.0168 487.129 39.7868 487.377 43.0178C487.71 47.3458 488.574 51.5578 489.863 54.2028C490.778 56.0798 492.278 58.0818 494.337 58.4278C497.389 58.9408 499.515 54.3738 500.337 51.3898C503.411 40.2268 503.852 27.8489 498.75 17.4548C493.648 7.06085 482.054 -0.602155 470.643 1.36384" fill="white"/>
</g>
</mask>
<g mask="url(#mask4_7_179)">
<g id="Group_63" opacity="0.15">
<path id="Vector_38" d="M463.159 -16.3822C444.85 -29.0422 417.952 -8.26519 424.549 12.6078C431.351 34.1298 457.48 28.4318 473.888 33.2258C473.066 32.9858 467.752 32.6838 468.559 30.5548C468.733 30.0958 470.445 34.8058 469.263 31.1618C474.083 46.0308 474.152 65.0328 492.822 69.2048C510.102 73.0658 520.496 57.5758 524.073 42.8548C526.824 31.5348 518.604 5.7868 506.336 24.2708C502.59 29.9148 501.364 48.1028 497.063 47.7968C492.762 47.4898 493.109 34.6918 491.579 29.4678C486.266 11.3368 474.438 11.8578 458.274 10.2138C443.551 8.71682 441.231 3.7458 448.323 -0.108198C451.86 -2.8732 474.528 -8.52018 463.159 -16.3822Z" fill="#336EC2"/>
</g>
</g>
</g>
</g>
<g id="Group_64" opacity="0.35">
<g id="Group_65">
<path id="Vector_39" d="M482.56 6.97781C482.542 7.01081 482.523 7.04381 482.505 7.07681C482.279 7.48181 482.731 7.93382 483.136 7.70782C483.169 7.68982 483.202 7.67083 483.235 7.65283C483.949 7.25383 482.961 6.25881 482.56 6.97781Z" fill="#336EC2"/>
</g>
</g>
<g id="Group_66" opacity="0.15">
<g id="Group_67">
<path id="Vector_40" d="M488.289 9.85281C488.684 9.85281 488.685 9.23883 488.289 9.23883C487.894 9.23983 487.893 9.85281 488.289 9.85281Z" fill="#336EC2"/>
</g>
</g>
<g id="Group_68" opacity="0.35">
<g id="Group_69">
<path id="Vector_41" d="M486.135 12.3718C486.36 12.3718 486.36 12.0218 486.135 12.0218C485.91 12.0228 485.909 12.3718 486.135 12.3718Z" fill="#336EC2"/>
</g>
</g>
<g id="Group_70" opacity="0.15">
<g id="Group_71">
<path id="Vector_42" d="M497.402 42.4568C497.747 42.4568 497.747 41.9208 497.402 41.9208C497.057 41.9208 497.057 42.4568 497.402 42.4568Z" fill="#336EC2"/>
</g>
</g>
<g id="Group_72" opacity="0.35">
<g id="Group_73">
<path id="Vector_43" d="M500.385 35.3838C501.01 35.3838 501.011 34.4128 500.385 34.4128C499.76 34.4128 499.759 35.3838 500.385 35.3838Z" fill="#336EC2"/>
</g>
</g>
<g id="Group_74" opacity="0.15">
<g id="Group_75">
<path id="Vector_44" d="M494.917 30.8498C495.252 30.8498 495.252 30.3298 494.917 30.3298C494.582 30.3298 494.581 30.8498 494.917 30.8498Z" fill="#336EC2"/>
</g>
</g>
<g id="Group_76" opacity="0.35">
<g id="Group_77">
<path id="Vector_45" d="M452.001 5.77582C452.266 5.77582 452.266 5.36383 452.001 5.36383C451.736 5.36383 451.736 5.77582 452.001 5.77582Z" fill="#336EC2"/>
</g>
</g>
<g id="Group_78" opacity="0.15">
<g id="Group_79">
<path id="Vector_46" d="M458.579 7.81182C458.629 7.79182 458.678 7.77182 458.728 7.75182C459.08 7.61082 459.08 7.17483 458.728 7.03283C458.678 7.01283 458.629 6.9928 458.579 6.9728C457.884 6.6938 457.879 8.09282 458.579 7.81182Z" fill="#336EC2"/>
</g>
</g>
<g id="Group_80" opacity="0.35">
<g id="Group_81">
<path id="Vector_47" d="M464.097 3.79883C464.377 3.79883 464.377 3.36383 464.097 3.36383C463.817 3.36383 463.816 3.79883 464.097 3.79883Z" fill="#336EC2"/>
</g>
</g>
</g>
</g>
</svg>
