<svg width="325" height="387" viewBox="0 0 325 387" fill="none" xmlns="http://www.w3.org/2000/svg" xmlns:xlink="http://www.w3.org/1999/xlink">
<mask id="mask0_1834_3149" style="mask-type:alpha" maskUnits="userSpaceOnUse" x="3" y="3" width="319" height="380">
<path d="M321.052 3.94818H257.301L256.933 4.28159L248.089 12.0376L246.966 13.0203H78.0171L76.894 12.0376L68.05 4.28159L67.6815 3.94818H3.94849V382.662H67.6991L68.0676 382.328L76.9116 374.572L78.0346 373.589H247.001L248.124 374.572L256.968 382.328L257.336 382.662H321.087V3.94818H321.052Z" fill="url(#paint0_linear_1834_3149)"/>
</mask>
<g mask="url(#mask0_1834_3149)">
<rect x="-89" y="4" width="559" height="379" fill="url(#pattern0_1834_3149)"/>
</g>
<path d="M0 386.61H50.5899L66.6635 373.081H0V386.61Z" fill="url(#paint1_linear_1834_3149)"/>
<path d="M325 386.61H274.41L258.336 373.08H325V386.61Z" fill="url(#paint2_linear_1834_3149)"/>
<path d="M104.444 372.238H220.557L206.255 359.674H118.763L104.444 372.238Z" fill="url(#paint3_linear_1834_3149)"/>
<path d="M319.736 5.26429V381.345H257.81L248.966 373.589L247.474 372.291H77.5255L76.034 373.589L67.1899 381.345H5.26429V5.26429H67.1899L76.034 13.0204L77.5255 14.3189H247.492L248.984 13.0204L257.828 5.26429H319.753M325 0H255.827L245.509 9.05459H79.5084L69.1904 0H0V386.61H69.1728L79.4908 377.555H245.492L255.81 386.61H324.982V0H325Z" fill="url(#paint4_linear_1834_3149)"/>
<path d="M319.736 5.26425V381.346H257.81L248.966 373.589L247.475 372.291H77.5258L76.0342 373.589L67.1902 381.346H5.26456V5.26425H67.1902L76.0342 13.0203L77.5258 14.3188H247.492L248.984 13.0203L257.828 5.26425H319.753M321.052 3.94818H257.301L256.933 4.28159L248.089 12.0376L246.966 13.0203H78.0171L76.894 12.0376L68.05 4.28159L67.6815 3.94818H3.94849V382.662H67.6991L68.0676 382.328L76.9116 374.572L78.0346 373.589H247.001L248.124 374.572L256.968 382.328L257.336 382.662H321.087V3.94818H321.052Z" fill="url(#paint5_linear_1834_3149)"/>
<path d="M319.718 251.879V134.731L307.066 149.155V237.455L319.718 251.879Z" fill="#9DDFEC"/>
<path d="M312.12 229.453H315.576V225.996H312.12V229.453Z" fill="url(#paint6_linear_1834_3149)"/>
<path d="M312.12 220.855H315.576V217.398H312.12V220.855Z" fill="url(#paint7_linear_1834_3149)"/>
<path d="M312.12 212.239H315.576V208.782H312.12V212.239Z" fill="url(#paint8_linear_1834_3149)"/>
<path d="M312.12 203.64H315.576V200.183H312.12V203.64Z" fill="url(#paint9_linear_1834_3149)"/>
<path d="M312.12 195.042H315.576V191.585H312.12V195.042Z" fill="url(#paint10_linear_1834_3149)"/>
<path d="M312.12 186.426H315.576V182.969H312.12V186.426Z" fill="url(#paint11_linear_1834_3149)"/>
<path d="M312.12 177.81H315.576V174.353H312.12V177.81Z" fill="url(#paint12_linear_1834_3149)"/>
<path d="M312.12 169.194H315.576V165.737H312.12V169.194Z" fill="url(#paint13_linear_1834_3149)"/>
<path d="M312.12 160.596H315.576V157.139H312.12V160.596Z" fill="url(#paint14_linear_1834_3149)"/>
<path d="M253.634 9.0896H71.7526L87.5279 22.9171H237.859L253.634 9.0896Z" fill="url(#paint15_linear_1834_3149)"/>
<path d="M195.252 367.483V364.43H192.199V367.483H195.252Z" fill="#00665E"/>
<path d="M187.672 367.483V364.43H184.618V367.483H187.672Z" fill="#00665E"/>
<path d="M180.091 367.483V364.43H177.038V367.483H180.091Z" fill="#00665E"/>
<path d="M172.493 367.483V364.43H169.44V367.483H172.493Z" fill="#00665E"/>
<path d="M164.913 367.483V364.43H161.859V367.483H164.913Z" fill="#00665E"/>
<path d="M157.332 367.483V364.43H154.279V367.483H157.332Z" fill="#00665E"/>
<path d="M149.751 367.483V364.43H146.698V367.483H149.751Z" fill="#00665E"/>
<path d="M142.171 367.483V364.43H139.118V367.483H142.171Z" fill="#00665E"/>
<path d="M134.59 367.483V364.43H131.537V367.483H134.59Z" fill="#00665E"/>
<path d="M5.29956 134.731V251.879L17.9514 237.455V149.155L5.29956 134.731Z" fill="#9DDFEC"/>
<path d="M12.8976 157.139H9.44068V160.596H12.8976V157.139Z" fill="url(#paint16_linear_1834_3149)"/>
<path d="M12.8974 165.755H9.44055V169.212H12.8974V165.755Z" fill="url(#paint17_linear_1834_3149)"/>
<path d="M12.8974 174.353H9.44055V177.81H12.8974V174.353Z" fill="url(#paint18_linear_1834_3149)"/>
<path d="M12.8974 182.969H9.44055V186.426H12.8974V182.969Z" fill="url(#paint19_linear_1834_3149)"/>
<path d="M12.8974 191.568H9.44055V195.025H12.8974V191.568Z" fill="url(#paint20_linear_1834_3149)"/>
<path d="M12.8974 200.184H9.44055V203.641H12.8974V200.184Z" fill="url(#paint21_linear_1834_3149)"/>
<path d="M12.8974 208.8H9.44055V212.256H12.8974V208.8Z" fill="url(#paint22_linear_1834_3149)"/>
<path d="M12.8974 217.398H9.44055V220.855H12.8974V217.398Z" fill="url(#paint23_linear_1834_3149)"/>
<path d="M12.8974 226.014H9.44055V229.471H12.8974V226.014Z" fill="url(#paint24_linear_1834_3149)"/>
<defs>
<pattern id="pattern0_1834_3149" patternContentUnits="objectBoundingBox" width="1" height="1">
<use xlink:href="#image0_1834_3149" transform="matrix(0.000441404 0 0 0.000651042 -0.0932469 0)"/>
</pattern>
<linearGradient id="paint0_linear_1834_3149" x1="339.819" y1="194.893" x2="-14.8012" y2="194.893" gradientUnits="userSpaceOnUse">
<stop stop-color="#9F76AF"/>
<stop offset="1" stop-color="#CDCEFF"/>
</linearGradient>
<linearGradient id="paint1_linear_1834_3149" x1="0" y1="373.142" x2="325" y2="373.142" gradientUnits="userSpaceOnUse">
<stop stop-color="#94FFDF"/>
<stop offset="1" stop-color="#009DAE"/>
</linearGradient>
<linearGradient id="paint2_linear_1834_3149" x1="0" y1="373.142" x2="325" y2="373.142" gradientUnits="userSpaceOnUse">
<stop stop-color="#94FFDF"/>
<stop offset="1" stop-color="#009DAE"/>
</linearGradient>
<linearGradient id="paint3_linear_1834_3149" x1="0" y1="373.142" x2="325" y2="373.142" gradientUnits="userSpaceOnUse">
<stop stop-color="#94FFDF"/>
<stop offset="1" stop-color="#009DAE"/>
</linearGradient>
<linearGradient id="paint4_linear_1834_3149" x1="0" y1="193.305" x2="325" y2="193.305" gradientUnits="userSpaceOnUse">
<stop stop-color="#006A57"/>
<stop offset="1" stop-color="#005D63"/>
</linearGradient>
<linearGradient id="paint5_linear_1834_3149" x1="339.819" y1="194.893" x2="-14.8012" y2="194.893" gradientUnits="userSpaceOnUse">
<stop stop-color="#87DBCB"/>
<stop offset="1" stop-color="#C6FBFF"/>
</linearGradient>
<linearGradient id="paint6_linear_1834_3149" x1="313.848" y1="157.139" x2="313.848" y2="229.453" gradientUnits="userSpaceOnUse">
<stop stop-color="#007765"/>
<stop offset="1" stop-color="#55A6AF"/>
</linearGradient>
<linearGradient id="paint7_linear_1834_3149" x1="313.848" y1="157.139" x2="313.848" y2="229.453" gradientUnits="userSpaceOnUse">
<stop stop-color="#007765"/>
<stop offset="1" stop-color="#55A6AF"/>
</linearGradient>
<linearGradient id="paint8_linear_1834_3149" x1="313.848" y1="157.139" x2="313.848" y2="229.453" gradientUnits="userSpaceOnUse">
<stop stop-color="#007765"/>
<stop offset="1" stop-color="#55A6AF"/>
</linearGradient>
<linearGradient id="paint9_linear_1834_3149" x1="313.848" y1="157.139" x2="313.848" y2="229.453" gradientUnits="userSpaceOnUse">
<stop stop-color="#007765"/>
<stop offset="1" stop-color="#55A6AF"/>
</linearGradient>
<linearGradient id="paint10_linear_1834_3149" x1="313.848" y1="157.139" x2="313.848" y2="229.453" gradientUnits="userSpaceOnUse">
<stop stop-color="#007765"/>
<stop offset="1" stop-color="#55A6AF"/>
</linearGradient>
<linearGradient id="paint11_linear_1834_3149" x1="313.848" y1="157.139" x2="313.848" y2="229.453" gradientUnits="userSpaceOnUse">
<stop stop-color="#007765"/>
<stop offset="1" stop-color="#55A6AF"/>
</linearGradient>
<linearGradient id="paint12_linear_1834_3149" x1="313.848" y1="157.139" x2="313.848" y2="229.453" gradientUnits="userSpaceOnUse">
<stop stop-color="#007765"/>
<stop offset="1" stop-color="#55A6AF"/>
</linearGradient>
<linearGradient id="paint13_linear_1834_3149" x1="313.848" y1="157.139" x2="313.848" y2="229.453" gradientUnits="userSpaceOnUse">
<stop stop-color="#007765"/>
<stop offset="1" stop-color="#55A6AF"/>
</linearGradient>
<linearGradient id="paint14_linear_1834_3149" x1="313.848" y1="157.139" x2="313.848" y2="229.453" gradientUnits="userSpaceOnUse">
<stop stop-color="#007765"/>
<stop offset="1" stop-color="#55A6AF"/>
</linearGradient>
<linearGradient id="paint15_linear_1834_3149" x1="-31.6206" y1="15.5296" x2="362.008" y2="16.5473" gradientUnits="userSpaceOnUse">
<stop stop-color="#B2FFCE"/>
<stop offset="1" stop-color="#53ABAC"/>
</linearGradient>
<linearGradient id="paint16_linear_1834_3149" x1="11.1691" y1="157.139" x2="11.1691" y2="229.471" gradientUnits="userSpaceOnUse">
<stop stop-color="#007765"/>
<stop offset="1" stop-color="#55A6AF"/>
</linearGradient>
<linearGradient id="paint17_linear_1834_3149" x1="11.1691" y1="157.139" x2="11.1691" y2="229.471" gradientUnits="userSpaceOnUse">
<stop stop-color="#007765"/>
<stop offset="1" stop-color="#55A6AF"/>
</linearGradient>
<linearGradient id="paint18_linear_1834_3149" x1="11.1691" y1="157.139" x2="11.1691" y2="229.471" gradientUnits="userSpaceOnUse">
<stop stop-color="#007765"/>
<stop offset="1" stop-color="#55A6AF"/>
</linearGradient>
<linearGradient id="paint19_linear_1834_3149" x1="11.1691" y1="157.139" x2="11.1691" y2="229.471" gradientUnits="userSpaceOnUse">
<stop stop-color="#007765"/>
<stop offset="1" stop-color="#55A6AF"/>
</linearGradient>
<linearGradient id="paint20_linear_1834_3149" x1="11.1691" y1="157.139" x2="11.1691" y2="229.471" gradientUnits="userSpaceOnUse">
<stop stop-color="#007765"/>
<stop offset="1" stop-color="#55A6AF"/>
</linearGradient>
<linearGradient id="paint21_linear_1834_3149" x1="11.1691" y1="157.139" x2="11.1691" y2="229.471" gradientUnits="userSpaceOnUse">
<stop stop-color="#007765"/>
<stop offset="1" stop-color="#55A6AF"/>
</linearGradient>
<linearGradient id="paint22_linear_1834_3149" x1="11.1691" y1="157.139" x2="11.1691" y2="229.471" gradientUnits="userSpaceOnUse">
<stop stop-color="#007765"/>
<stop offset="1" stop-color="#55A6AF"/>
</linearGradient>
<linearGradient id="paint23_linear_1834_3149" x1="11.1691" y1="157.139" x2="11.1691" y2="229.471" gradientUnits="userSpaceOnUse">
<stop stop-color="#007765"/>
<stop offset="1" stop-color="#55A6AF"/>
</linearGradient>
<linearGradient id="paint24_linear_1834_3149" x1="11.1691" y1="157.139" x2="11.1691" y2="229.471" gradientUnits="userSpaceOnUse">
<stop stop-color="#007765"/>
<stop offset="1" stop-color="#55A6AF"/>
</linearGradient>

</defs>
</svg>
